<svg width="144" height="49" viewBox="0 0 144 49" fill="none" xmlns="http://www.w3.org/2000/svg">
<g clip-path="url(#clip0_6712_14494)">
<path d="M119.059 21.6022C119.656 21.2501 119.521 20.8441 119.319 20.3622C118.672 18.8184 118.057 17.2609 117.46 15.6968C117.299 15.2731 117.08 15.1108 116.622 15.1185C115.03 15.1466 113.436 15.1422 111.843 15.1207C111.401 15.1147 111.16 15.233 111.01 15.6902C110.542 17.1079 109.987 18.496 109.536 19.9187C109.198 20.9855 109.325 21.1423 110.365 21.3959C110.494 21.4273 110.648 21.4322 110.643 21.6198C110.637 21.8487 110.459 21.8443 110.303 21.8443C108.689 21.846 107.074 21.8454 105.46 21.8416C105.329 21.8416 105.162 21.835 105.157 21.6567C105.152 21.5016 105.289 21.4069 105.429 21.4108C107.372 21.4669 107.812 19.9567 108.353 18.551C110.197 13.7585 112.036 8.96382 113.888 4.17462C114.036 3.79061 114.073 3.17552 114.533 3.15407C115.021 3.13096 115.062 3.75595 115.215 4.13061C117.151 8.8857 119.071 13.6479 120.996 18.408C121.276 19.1012 121.572 19.7872 122.025 20.3891C122.725 21.32 124.406 21.7194 125.444 21.2226C125.859 21.0235 125.93 20.6378 125.973 20.2631C126.031 19.7691 126.033 19.2668 126.033 18.7683C126.037 14.0474 126.033 9.32638 126.039 4.6054C126.039 4.13776 125.903 3.49187 126.342 3.29271C126.829 3.07154 127.124 3.69708 127.43 4.01948C131.811 8.63317 136.18 13.2595 140.547 17.887C140.636 17.9816 140.678 18.1213 140.744 18.2435C141.036 17.9733 140.951 17.756 140.947 17.5706C140.866 13.6254 140.786 9.68014 140.683 5.736C140.649 4.38094 140.435 4.17572 139.131 4.02773C138.997 4.01287 138.862 4.00957 138.728 4.00627C138.584 4.00297 138.432 3.97216 138.422 3.80986C138.406 3.5909 138.601 3.56449 138.753 3.56449C139.313 3.56504 139.873 3.5964 140.433 3.5931C141.441 3.58705 142.45 3.55624 143.458 3.55514C143.657 3.55514 143.985 3.46216 144.001 3.7807C144.014 4.06129 143.714 3.98372 143.526 4.00957C142.588 4.13941 142.365 4.39304 142.337 5.47247C142.304 6.78791 142.291 8.10391 142.287 9.41936C142.276 13.3002 142.275 17.1817 142.269 21.0625C142.269 21.2215 142.266 21.38 142.259 21.539C142.235 22.0633 141.966 22.132 141.611 21.8383C141.022 21.3503 140.445 20.843 139.898 20.3077C135.785 16.2849 131.864 12.0723 127.936 7.86679C127.818 7.74025 127.736 7.51193 127.535 7.5609C127.297 7.61866 127.391 7.86404 127.395 8.02469C127.494 11.8329 127.601 15.6412 127.709 19.4489C127.715 19.6524 127.731 19.8582 127.766 20.0585C127.929 20.9899 128.194 21.2144 129.126 21.3541C129.422 21.3987 129.967 21.2276 129.944 21.6793C129.927 22.0022 129.402 21.8405 129.11 21.8405C126.06 21.8405 123.01 21.8223 119.96 21.8074C119.692 21.8063 119.42 21.8168 119.061 21.6044L119.059 21.6022ZM114.239 7.13672C114.17 7.13782 114.1 7.13892 114.03 7.14002C113.268 9.33078 112.503 11.521 111.747 13.714C111.6 14.1409 111.926 14.0793 112.162 14.0798C113.527 14.0826 114.894 14.0666 116.259 14.0886C116.755 14.0969 116.76 13.9153 116.609 13.5236C116.195 12.4502 115.81 11.3642 115.411 10.2848C115.023 9.2345 114.63 8.18588 114.239 7.13672Z" fill="#003049" style="fill:#003049;fill:color(display-p3 0.0000 0.1882 0.2863);fill-opacity:1;"/>
<path d="M82.2101 11.4489C82.1557 9.6983 82.2993 7.5422 82.1362 5.38939C82.0589 4.36994 81.9045 4.18563 80.9228 4.01508C80.7248 3.98097 80.4436 3.99967 80.4736 3.73835C80.504 3.47482 80.7977 3.5733 80.9794 3.57275C82.5267 3.56504 84.074 3.56504 85.6208 3.57275C85.8024 3.57385 86.0961 3.47207 86.1276 3.7433C86.1597 4.02058 85.8753 3.97987 85.6811 4.01233C84.8175 4.15702 84.5368 4.42605 84.5352 5.31182C84.5259 9.98658 84.5412 14.6613 84.5521 19.3361C84.5521 19.5386 84.5934 19.7416 84.6179 19.944C84.7604 21.1159 84.8354 21.1693 86.0102 21.3591C86.2718 21.4014 86.7819 21.2243 86.7569 21.6567C86.7373 22.0006 86.2652 21.8361 85.9993 21.8372C83.3762 21.8504 80.7526 21.808 78.13 21.8586C76.4761 21.8905 75.1898 21.2694 74.1266 20.0183C72.6625 18.2963 71.3316 16.4708 69.9844 14.6575C69.7098 14.2872 69.4117 14.1574 68.9674 14.1645C68.1619 14.1777 67.3548 14.1392 66.5493 14.1051C66.2034 14.0908 66.0729 14.219 66.0756 14.5761C66.0881 16.4131 66.0441 18.2517 66.2176 20.0838C66.303 20.9844 66.5542 21.1649 67.6436 21.3585C67.9134 21.4064 68.4398 21.2314 68.4181 21.6314C68.3974 22.0099 67.8943 21.8339 67.6072 21.8366C66.0152 21.8537 64.4228 21.8504 62.8309 21.8383C62.6106 21.8366 62.2489 21.9747 62.2163 21.6281C62.1853 21.2969 62.5589 21.4009 62.7433 21.3805C63.3291 21.3167 63.6053 21.0064 63.7005 20.4309C63.8675 19.4203 63.9164 18.4019 63.9181 17.3836C63.9251 13.6166 63.9083 9.84904 63.8958 6.08205C63.8947 5.83393 63.861 5.58525 63.8338 5.33823C63.719 4.29621 63.5276 4.10531 62.5084 4.01288C62.3746 4.00078 62.2386 4.00848 62.1059 3.98922C61.965 3.96832 61.8432 3.89514 61.8655 3.72954C61.8845 3.58925 62.0183 3.58375 62.1287 3.5733C62.2179 3.56504 62.3082 3.56614 62.3974 3.56614C64.7518 3.57495 67.1063 3.58045 69.4607 3.5953C70.0459 3.59915 70.6208 3.70424 71.1842 3.85883C74.0031 4.63292 75.2703 7.19834 74.2043 9.96073C73.7366 11.1727 72.967 12.168 72.0055 13.0064C71.6432 13.3222 71.5921 13.5203 71.9184 13.9164C73.4396 15.7633 74.8847 17.6746 76.5006 19.4417C77.4681 20.5003 78.5477 21.3189 80.0542 21.4146C81.626 21.5148 82.0296 21.2017 82.0981 19.6062C82.1536 18.3155 82.1873 17.0232 82.2052 15.7314C82.2232 14.438 82.2091 13.144 82.2091 11.4473L82.2101 11.4489ZM66.0816 8.71735C66.0816 9.89471 66.0974 11.0726 66.074 12.25C66.0642 12.7264 66.2469 12.9443 66.7027 13.034C67.5631 13.2023 68.4268 13.2881 69.3024 13.2639C70.4369 13.2326 71.2555 12.7077 71.7526 11.6684C72.2567 10.6143 72.3731 9.49529 72.2328 8.35644C72.0076 6.52989 71.1793 5.15227 69.316 4.61916C68.4578 4.37379 67.5903 4.47062 66.719 4.53224C66.2333 4.5669 66.0615 4.76221 66.0729 5.25295C66.0995 6.4072 66.0816 7.56255 66.0816 8.71735Z" fill="#003049" style="fill:#003049;fill:color(display-p3 0.0000 0.1882 0.2863);fill-opacity:1;"/>
<path d="M34.7937 18.4999C35.9989 15.9988 37.1579 13.5984 38.3125 11.1959C39.4878 8.75037 40.6588 6.30213 41.8319 3.85554C41.8711 3.77412 41.9059 3.69049 41.9521 3.61292C42.0549 3.44017 42.1441 3.21405 42.3801 3.23441C42.6646 3.25916 42.7086 3.53865 42.7369 3.74771C42.856 4.62302 42.9441 5.50329 43.0448 6.38136C43.5391 10.7051 44.0237 15.0305 44.5344 19.3521C44.6938 20.7 45.2317 21.1902 46.5772 21.3508C46.7774 21.3745 46.9791 21.3816 47.1793 21.4064C47.3234 21.424 47.4615 21.501 47.4403 21.6551C47.4305 21.7255 47.2815 21.7987 47.1831 21.8289C47.0792 21.8608 46.9606 21.846 46.8486 21.8454C45.4585 21.8388 44.0678 21.8399 42.682 21.704C42.2948 21.6661 41.8336 21.6743 42.2659 21.0642C42.3448 20.9531 42.3345 20.7555 42.3198 20.6021C41.9342 16.5484 41.5426 12.4954 41.0411 8.40377C40.4842 9.54756 39.9251 10.6908 39.3709 11.8357C37.9128 14.8479 36.4568 17.8611 34.9998 20.8733C34.9503 20.9751 34.9068 21.0801 34.8508 21.1781C34.7072 21.4268 34.6202 21.7728 34.2721 21.7706C33.9643 21.7684 33.8479 21.462 33.7217 21.2281C33.0778 20.0348 32.4164 18.8498 31.8122 17.6356C30.323 14.6427 28.8622 11.6354 27.3426 8.53691C27.2371 9.63449 27.1332 10.6479 27.0424 11.663C26.8172 14.1915 26.5964 16.7212 26.3778 19.2503C26.356 19.4984 26.3517 19.7487 26.3484 19.9985C26.3326 21.1088 26.3691 21.1434 27.4628 21.3695C27.6586 21.4102 28.0138 21.3299 27.9936 21.6413C27.9746 21.9423 27.6423 21.8405 27.4378 21.8416C26.0705 21.8498 24.7027 21.8471 23.3354 21.8443C23.1407 21.8443 22.8578 21.901 22.8279 21.6479C22.7931 21.3552 23.0912 21.4163 23.2766 21.3849C24.3464 21.205 24.5074 21.0521 24.633 19.9727C25.2552 14.6371 25.8704 9.30054 26.4893 3.96448C26.5219 3.68334 26.4474 3.29382 26.82 3.23331C27.1941 3.17224 27.329 3.53865 27.4693 3.82088C29.5665 8.03075 31.6621 12.2417 33.7587 16.4521C34.0807 17.0991 34.4102 17.7417 34.7931 18.4999H34.7937Z" fill="#003049" style="fill:#003049;fill:color(display-p3 0.0000 0.1882 0.2863);fill-opacity:1;"/>
<path d="M10.0308 13.4954C9.13341 13.4954 8.23602 13.5009 7.33917 13.4926C7.04875 13.4899 6.81162 13.5251 6.70883 13.858C6.08065 15.8881 5.25125 17.8538 4.77318 19.9312C4.5279 20.998 4.74925 21.2571 5.83428 21.3925C5.99798 21.4128 6.25632 21.3501 6.26775 21.5938C6.28134 21.8959 6.00669 21.8425 5.81742 21.8431C4.02373 21.8469 2.23004 21.8469 0.436345 21.842C0.268833 21.842 0.0278973 21.8909 0.00233529 21.6423C-0.0254022 21.371 0.22913 21.3903 0.390116 21.3963C1.97496 21.4563 2.72224 20.4566 3.20411 19.1285C4.55509 15.4078 5.90009 11.6848 7.24726 7.96238C8.0783 5.66543 8.90335 3.36574 9.74581 1.0732C9.89537 0.666623 9.92094 -0.00788107 10.3995 -0.000178747C10.8537 0.00697341 10.9053 0.678726 11.0614 1.0853C13.2086 6.67994 15.3417 12.2801 17.4802 17.878C17.7554 18.5976 18.0888 19.2886 18.4826 19.9516C19.0063 20.8335 19.7493 21.3331 20.7788 21.3892C20.9779 21.4002 21.32 21.299 21.3243 21.6043C21.3281 21.8975 20.9991 21.8442 20.7864 21.8425C19.2391 21.8326 17.6912 21.8255 16.1445 21.7925C15.816 21.7853 15.2781 21.8106 15.8328 21.2318C16.0536 21.0013 15.9133 20.7103 15.8198 20.4589C15.0083 18.2752 14.1844 16.0966 13.3816 13.9091C13.2554 13.5653 13.0509 13.4833 12.7224 13.4888C11.8256 13.5036 10.9282 13.4937 10.0308 13.4943V13.4954ZM9.97641 4.2317C9.85567 4.38024 9.81542 4.4094 9.80292 4.44791C8.97895 6.98253 8.16205 9.51935 7.33047 12.0518C7.17656 12.52 7.50125 12.4165 7.71988 12.4176C9.24327 12.4242 10.7667 12.4039 12.2895 12.4303C12.7899 12.4391 12.7855 12.2575 12.6457 11.873C12.2373 10.7479 11.8528 9.61398 11.4585 8.48338C10.9771 7.10302 10.4958 5.7221 9.97641 4.2317Z" fill="#003049" style="fill:#003049;fill:color(display-p3 0.0000 0.1882 0.2863);fill-opacity:1;"/>
<path d="M97.6936 25.8733C97.6844 25.9118 97.6849 25.9486 97.673 25.9536C96.5526 26.4218 96.5477 26.4212 96.5526 27.707C96.5645 30.7241 96.5629 33.7417 96.6059 36.7589C96.6244 38.044 96.669 38.0418 97.94 38.3532C98.0145 38.3714 98.0749 38.4484 98.1472 38.5023C97.9465 38.7851 97.6757 38.6971 97.4505 38.6817C95.6769 38.5585 93.9039 38.6476 92.1325 38.6982C90.799 38.7362 89.7243 38.2883 88.903 37.2238C88.0203 36.0794 87.1229 34.9461 86.2614 33.7858C85.9792 33.405 85.6795 33.185 85.1971 33.2356C84.9306 33.2637 84.6575 33.2598 84.3905 33.2356C83.3533 33.1437 83.4001 33.0854 83.405 34.1654C83.4094 35.0952 83.4088 36.026 83.4365 36.9553C83.4703 38.0743 83.547 38.1486 84.6586 38.3224C84.7951 38.3439 84.9235 38.3598 85.0024 38.493C84.719 38.6663 81.1322 38.7197 80.6541 38.5607C80.6628 38.5194 80.6677 38.4446 80.6818 38.4429C81.6162 38.3224 81.725 37.6578 81.756 36.8771C81.8843 33.6339 81.8561 30.3912 81.7777 27.1486C81.7571 26.287 81.614 26.1841 80.7308 26.0669C80.6443 26.0554 80.5567 26.0367 80.4752 26.0059C80.4409 25.9927 80.4219 25.9393 80.3903 25.8964C80.4376 25.6912 80.6122 25.6983 80.7542 25.7093C82.5887 25.8535 84.4302 25.5905 86.262 25.8062C87.0277 25.8964 87.7587 26.1109 88.3537 26.6435C89.4007 27.5799 89.6552 29.0191 89.0341 30.4452C88.7023 31.2066 88.184 31.8272 87.5945 32.3938C87.415 32.5666 87.2197 32.7041 87.4639 33.0018C88.7208 34.5384 89.8695 36.1707 91.3281 37.5285C92.1135 38.2597 93.0625 38.4748 94.1095 38.3158C94.5702 38.246 94.7284 37.9698 94.7823 37.5291C94.9041 36.5344 94.9008 35.5364 94.9036 34.5395C94.9101 32.2024 94.8992 29.8647 94.8878 27.5276C94.8845 26.8097 94.9117 26.0543 93.8746 26.0515C93.7805 26.0515 93.7021 25.9789 93.7011 25.8777C93.7 25.7698 93.7941 25.7291 93.8816 25.7209C94.0377 25.7066 94.196 25.6961 94.3515 25.7071C95.2473 25.7726 96.1425 25.7682 97.0388 25.7121C97.2629 25.6983 97.5305 25.6163 97.6931 25.8722L97.6936 25.8733ZM83.4034 29.3949C83.4034 29.8262 83.4034 30.257 83.4034 30.6883C83.4034 31.9398 84.0301 32.5774 85.2835 32.6013C86.0335 32.6156 86.746 32.4808 87.1621 31.7777C87.9518 30.4424 87.967 29.0367 87.2219 27.7026C86.5198 26.446 85.3102 26.2864 83.9995 26.4152C83.479 26.4664 83.3773 26.6859 83.3958 27.1497C83.4262 27.8973 83.4039 28.6467 83.4034 29.3954V29.3949Z" fill="#003049" style="fill:#003049;fill:color(display-p3 0.0000 0.1882 0.2863);fill-opacity:1;"/>
<path d="M99.4993 22.1679C97.0094 22.1712 94.7567 21.8895 92.6906 20.7352C89.2669 18.8223 87.5281 15.057 88.1819 10.9841C88.8073 7.08562 91.6664 4.16974 95.5192 3.46332C97.9862 3.01109 100.43 3.21025 102.872 3.64653C103.357 3.73291 103.844 3.82698 104.334 3.85504C104.704 3.87595 104.89 3.99093 104.834 4.37935C104.673 5.50664 104.719 6.64273 104.693 7.77553C104.689 7.95323 104.636 8.13148 104.591 8.30589C104.56 8.42527 104.475 8.49349 104.342 8.47919C104.234 8.46764 104.195 8.38456 104.174 8.29598C104.153 8.20851 104.137 8.11718 104.137 8.0275C104.127 6.19215 103.057 5.22331 101.453 4.73531C99.3193 4.08611 97.1617 4.08226 95.0189 4.68249C93.0577 5.23211 91.7023 6.5382 91.0992 8.46764C90.012 11.9447 90.2992 15.2451 92.8151 18.0812C94.3717 19.8357 96.3786 20.716 98.6824 20.8865C99.5515 20.9509 100.426 20.9322 101.3 20.8084C102.94 20.5762 103.913 19.6404 104.333 18.0493C104.389 17.837 104.338 17.4447 104.682 17.4997C105.069 17.5619 104.913 17.9222 104.87 18.1715C104.729 18.9967 104.573 19.8198 104.421 20.6434C104.307 21.2678 103.948 21.6122 103.324 21.7663C102.005 22.092 100.666 22.1448 99.4982 22.169L99.4993 22.1679Z" fill="#003049" style="fill:#003049;fill:color(display-p3 0.0000 0.1882 0.2863);fill-opacity:1;"/>
<path d="M53.9891 21.9384C52.5316 21.7695 51.0745 21.8135 49.617 21.8377C49.4076 21.841 49.0453 22.0006 49.0176 21.6243C48.9937 21.298 49.3554 21.3651 49.5403 21.3585C50.1973 21.3349 50.4045 20.9509 50.5018 20.3627C50.6509 19.4621 50.6715 18.556 50.6759 17.6521C50.6933 13.9528 50.684 10.2534 50.6819 6.55412C50.6819 6.30489 50.6693 6.05567 50.6509 5.80754C50.5711 4.76039 50.0258 4.16126 49.0149 4.01015C48.8485 3.98539 48.6538 3.96503 48.6396 3.79723C48.6168 3.53205 48.8719 3.55571 49.0328 3.55681C50.0863 3.56616 51.1398 3.60303 52.1933 3.60963C53.8537 3.61953 55.5136 3.60413 57.1741 3.61623C57.7609 3.62063 58.3428 3.58432 58.9096 3.44623C59.2566 3.36205 59.4018 3.46328 59.3294 3.79668C59.1646 4.55371 59.1304 5.32339 59.0667 6.09033C59.0488 6.30929 58.9808 6.55082 58.7567 6.55027C58.4527 6.54917 58.5729 6.24547 58.549 6.06942C58.4271 5.1886 58.2156 4.97129 57.3204 4.81504C56.0292 4.58947 54.725 4.70281 53.4279 4.64229C53.1043 4.62743 53.0004 4.76223 53.002 5.07967C53.0107 7.12244 53.0113 9.16466 53.002 11.2074C53.0004 11.5188 53.0869 11.6635 53.4181 11.6514C54.8512 11.5986 56.2892 11.7119 57.719 11.5238C57.9931 11.4875 58.2406 11.4181 58.4516 11.225C58.5751 11.1117 58.686 10.8784 58.8867 11.011C59.0194 11.099 58.9552 11.3087 58.9275 11.4599C58.7714 12.3089 58.7132 13.1682 58.6643 14.0281C58.6539 14.208 58.6741 14.4435 58.4603 14.4787C58.1781 14.5255 58.2488 14.2504 58.2178 14.0936C58.0078 13.0373 57.9143 12.8849 56.8374 12.7914C55.7002 12.6923 54.5531 12.7182 53.4105 12.6764C53.0716 12.6637 53.0009 12.8293 53.0026 13.1308C53.0129 15.1505 52.9922 17.1707 53.0221 19.1903C53.0374 20.2186 53.4872 20.6609 54.5015 20.7655C55.4853 20.8667 56.4697 20.8557 57.4547 20.7704C58.68 20.6642 59.1603 20.2566 59.4638 19.0555C59.5105 18.8696 59.4736 18.5648 59.7439 18.5989C60.0441 18.6369 59.9663 18.9356 59.9402 19.1513C59.8695 19.7361 59.8075 20.3237 59.7063 20.9036C59.5557 21.7646 59.3778 21.9252 58.4951 21.9351C56.994 21.9527 55.4919 21.9401 53.9908 21.9401L53.9891 21.9384Z" fill="#003049" style="fill:#003049;fill:color(display-p3 0.0000 0.1882 0.2863);fill-opacity:1;"/>
<path d="M36.5689 25.7175C37.8959 25.7417 39.1795 25.8407 40.4353 25.685C40.4951 25.9667 40.389 26.0162 40.2852 26.0448C39.378 26.2963 39.3171 26.3645 39.3138 27.3471C39.3024 30.773 39.2975 34.1988 39.2893 37.6247C39.2893 37.8514 39.279 38.0786 39.2801 38.3053C39.2822 38.8098 39.0506 38.8714 38.7106 38.5793C38.1815 38.1248 37.6648 37.6528 37.1682 37.162C34.4902 34.513 31.9237 31.755 29.3544 28.9992C29.2054 28.8391 29.1031 28.6345 28.9791 28.4507C28.9231 28.492 28.8671 28.5327 28.8111 28.5739C28.8111 29.4663 28.791 30.3587 28.8154 31.2505C28.8671 33.153 28.9063 35.0565 29.0205 36.9557C29.0923 38.1523 29.1548 38.1562 30.3225 38.3344C30.4383 38.352 30.5422 38.3774 30.6477 38.6343C29.2375 38.7152 27.8772 38.5066 26.5225 38.7278C26.5143 38.659 26.5061 38.5903 26.498 38.5215C26.5594 38.4676 26.6127 38.3856 26.6845 38.3636C27.769 38.0291 27.8136 37.9889 27.8174 36.7692C27.8261 33.729 27.8201 30.6882 27.8212 27.648C27.8212 27.1716 27.8158 26.6946 27.8375 26.2192C27.8484 25.9827 27.7483 25.6542 28.029 25.548C28.3259 25.4358 28.513 25.7296 28.6931 25.9177C29.6737 26.9454 30.6423 27.9858 31.6185 29.0179C33.818 31.3429 36.0201 33.6663 38.2815 36.054C38.4186 35.2618 38.3294 34.5311 38.3163 33.8066C38.2799 31.744 38.2266 29.682 38.1776 27.62C38.1434 26.1829 37.8889 26.0399 36.8044 26.0542C36.7043 26.0553 36.6461 25.9838 36.5705 25.718L36.5689 25.7175Z" fill="#003049" style="fill:#003049;fill:color(display-p3 0.0000 0.1882 0.2863);fill-opacity:1;"/>
<path d="M73.7676 32.2832H78.1153C78.0038 32.4125 77.9723 32.484 77.9212 32.5038C77.2101 32.7793 76.8541 33.3087 76.853 34.0921C76.8519 35.204 76.8416 36.3159 76.8568 37.4272C76.8628 37.8426 76.7306 38.1276 76.3292 38.2619C73.3069 39.2731 70.3488 39.2334 67.6197 37.4405C65.5018 36.0485 64.5898 33.2493 65.1853 30.5656C65.7651 27.9545 67.6844 26.1378 70.3439 25.6663C72.1376 25.3489 73.9123 25.4897 75.6864 25.8292C76.8818 26.0575 76.8835 26.0394 76.853 27.247C76.8416 27.7003 76.8383 28.1542 76.8302 28.6075C76.828 28.728 76.785 28.8502 76.673 28.8848C76.5343 28.9277 76.4766 28.8089 76.4636 28.6912C76.2928 27.1078 75.124 26.6621 73.847 26.3926C72.7435 26.1598 71.6237 26.1263 70.506 26.3502C68.4774 26.7562 67.215 28.1426 66.8115 30.4148C66.2116 33.7934 68.1489 36.997 71.3202 37.8454C72.3312 38.1155 73.357 38.1337 74.3844 37.9158C74.9652 37.7926 75.2752 37.4933 75.2426 36.8353C75.1926 35.8169 75.2165 34.7947 75.1893 33.7747C75.1632 32.7822 75.13 32.7585 74.1407 32.5753C74.033 32.5555 73.9281 32.5104 73.8285 32.4625C73.8019 32.4499 73.7997 32.385 73.7665 32.2821L73.7676 32.2832Z" fill="#003049" style="fill:#003049;fill:color(display-p3 0.0000 0.1882 0.2863);fill-opacity:1;"/>
<path d="M62.8009 36.3934C62.9141 37.1048 62.7721 37.8013 62.5219 38.4687C62.4126 38.7603 62.0749 38.7228 61.8046 38.7168C60.5716 38.6898 59.3381 38.6849 58.1068 38.6244C57.2741 38.5837 56.4496 38.626 55.6213 38.6827C55.4614 38.6937 55.2074 38.7586 55.1824 38.5154C55.1606 38.3075 55.3977 38.33 55.544 38.3086C55.9378 38.2503 56.0955 38.0109 56.1684 37.6264C56.2587 37.1527 56.2739 36.679 56.2745 36.2042C56.2777 33.186 56.2647 30.1683 56.2745 27.1501C56.2766 26.458 56.0167 26.0701 55.2993 26.0679C55.1486 26.0679 54.917 26.0982 54.9186 25.8968C54.9208 25.6465 55.1764 25.7065 55.3352 25.7087C56.8597 25.7312 58.3836 25.7659 59.9081 25.7923C60.6031 25.8044 61.3026 25.8264 61.9846 25.6674C62.4311 25.5634 62.5208 25.745 62.3881 26.1207C62.1912 26.6792 62.4529 27.3399 62.0156 27.9181C61.7404 27.5105 61.9226 26.9344 61.3928 26.7386C60.9605 26.5785 60.5107 26.5741 60.0674 26.5416C59.4866 26.4993 58.9008 26.5323 58.3194 26.496C58.0279 26.4778 57.9632 26.6203 57.9621 26.8503C57.9583 28.235 57.9632 29.6192 57.9561 31.004C57.9545 31.3352 58.1128 31.4337 58.4146 31.426C59.3337 31.4023 60.2534 31.3836 61.1726 31.3809C61.5294 31.3798 61.7627 31.0948 62.1543 30.9633C62.0645 31.8403 61.9824 32.643 61.8976 33.4721C61.5511 33.3653 61.6496 33.1392 61.6099 32.9835C61.5103 32.5901 61.2939 32.3684 60.8811 32.298C60.0337 32.1544 59.1809 32.2127 58.3303 32.1797C58.0219 32.1676 57.955 32.3393 57.9567 32.6044C57.9664 34.0112 57.9719 35.4185 57.9762 36.8253C57.9784 37.4976 58.364 37.8178 58.9715 37.8855C59.7085 37.9675 60.4503 37.9675 61.1884 37.8816C61.9101 37.798 62.4044 37.4503 62.4996 36.6636C62.5121 36.5607 62.5779 36.4639 62.6187 36.3643C62.6791 36.3742 62.7395 36.3835 62.7998 36.3934H62.8009Z" fill="#003049" style="fill:#003049;fill:color(display-p3 0.0000 0.1882 0.2863);fill-opacity:1;"/>
<path d="M107.942 38.6839C106.377 38.6404 104.892 38.5959 103.345 38.5728C104.837 38.3252 104.562 37.1852 104.573 36.2665C104.608 33.2483 104.587 30.2289 104.611 27.2107C104.615 26.7238 104.526 26.523 103.984 26.5714C103.226 26.6397 102.46 26.605 101.697 26.6138C100.997 26.622 100.415 26.8262 100.143 27.5579C100.099 27.6773 100.059 27.8506 99.8805 27.7801C99.7304 27.7207 99.7516 27.5595 99.7745 27.4236C99.7897 27.3345 99.8218 27.2487 99.8414 27.1601C99.9556 26.654 99.8996 26.0235 100.254 25.6813C100.644 25.3033 101.205 25.75 101.704 25.7451C104.53 25.7187 107.357 25.8408 110.179 25.6703C110.732 25.6367 110.974 25.722 110.905 26.325C110.857 26.7513 110.879 27.186 110.864 27.6162C110.86 27.7521 110.844 27.9215 110.696 27.9496C110.5 27.9865 110.513 27.7983 110.5 27.6718C110.438 27.0737 110.056 26.8394 109.521 26.7216C108.543 26.5065 107.553 26.6358 106.57 26.5819C106.137 26.5582 106.25 26.9384 106.25 27.1827C106.242 29.1347 106.238 31.0866 106.248 33.0386C106.254 34.3766 106.266 35.7146 106.312 37.0515C106.349 38.1079 106.436 38.1755 107.476 38.3213C107.628 38.3428 107.8 38.3125 107.942 38.6822V38.6839Z" fill="#003049" style="fill:#003049;fill:color(display-p3 0.0000 0.1882 0.2863);fill-opacity:1;"/>
<path d="M112.351 25.7748H115.967C115.334 26.194 115.553 26.6297 115.829 27.0886C116.84 28.7715 117.842 30.4589 118.898 32.2266C119.915 30.4693 120.898 28.7858 121.865 27.0924C122.133 26.622 122.112 26.1819 121.572 25.7984H124.889C124.913 25.8524 124.938 25.9068 124.963 25.9607C123.224 26.1792 122.698 27.6696 121.897 28.8475C121.199 29.8735 120.595 30.9639 119.94 32.0197C119.584 32.5941 119.413 33.2081 119.436 33.8897C119.473 34.9769 119.47 36.0651 119.512 37.1517C119.548 38.0765 119.67 38.192 120.557 38.318C120.746 38.345 120.976 38.2691 121.138 38.6767C119.61 38.6773 118.14 38.5447 116.716 38.7059C116.635 38.4655 116.71 38.3785 116.782 38.3736C117.66 38.3142 117.799 37.7249 117.791 36.996C117.779 35.9523 117.789 34.9086 117.797 33.865C117.801 33.3016 117.631 32.7955 117.339 32.3251C116.6 31.1345 115.876 29.934 115.117 28.7578C114.381 27.6178 113.819 26.2947 112.279 25.9415C112.303 25.8859 112.327 25.8309 112.352 25.7753L112.351 25.7748Z" fill="#003049" style="fill:#003049;fill:color(display-p3 0.0000 0.1882 0.2863);fill-opacity:1;"/>
<path d="M45.4411 38.5502C46.7306 38.406 46.6403 37.4284 46.6512 36.6268C46.6947 33.4281 46.6757 30.2284 46.6985 27.0291C46.7018 26.6033 46.5179 26.5478 46.1699 26.5687C45.6782 26.5984 45.1838 26.5901 44.6905 26.5951C43.6196 26.6061 42.4683 26.4289 42.0484 27.9386C41.8466 27.4511 42.0778 25.86 42.3007 25.6279C42.4112 25.5129 42.5297 25.5167 42.6679 25.5569C43.4538 25.7858 44.2609 25.7852 45.0669 25.7676C47.554 25.7126 50.0449 25.8986 52.5294 25.6565C52.7507 25.635 52.9688 25.6389 52.9628 25.925C52.9476 26.6066 52.9019 27.2872 52.8682 27.9793C52.7311 27.9501 52.6936 27.949 52.6925 27.9413C52.4684 26.7051 51.539 26.6187 50.566 26.6028C49.9606 26.5929 49.3537 26.6072 48.7505 26.5681C48.3698 26.5434 48.304 26.709 48.3056 27.0424C48.3209 30.2641 48.3241 33.4864 48.3356 36.7082C48.3366 36.9332 48.3954 37.1577 48.4003 37.3833C48.4139 38.0083 48.7652 38.263 49.3368 38.3103C49.5451 38.3274 49.7877 38.2696 50.0542 38.6437C48.4519 38.6696 46.9737 38.5507 45.4405 38.5485L45.4411 38.5502Z" fill="#003049" style="fill:#003049;fill:color(display-p3 0.0000 0.1882 0.2863);fill-opacity:1;"/>
<path d="M18.936 23.5306H23.6171C23.6171 23.82 23.4148 23.7997 23.2827 23.8085C22.5332 23.8607 22.3086 24.3256 22.3031 25.0045C22.2732 28.9751 22.2314 32.9456 22.3309 36.9151C22.3586 38.0121 22.5718 38.1981 23.6307 38.3219C23.8004 38.3417 24.0011 38.2866 24.148 38.6366C22.4549 38.7103 20.8135 38.5282 19.1797 38.7158C19.1612 38.3824 19.2923 38.3373 19.4255 38.3362C20.2065 38.3296 20.4001 37.7937 20.4322 37.1588C20.4844 36.1404 20.5247 35.1199 20.5252 34.1004C20.5269 31.1515 20.5301 28.2016 20.4817 25.2532C20.4627 24.0874 20.4007 24.0891 19.2689 23.77C19.2118 23.754 19.1655 23.6979 18.936 23.5306Z" fill="#003049" style="fill:#003049;fill:color(display-p3 0.0000 0.1882 0.2863);fill-opacity:1;"/>
<path d="M65.6601 47.8991C65.9239 46.5699 65.7275 44.9178 65.2854 44.6328C65.6503 44.5574 65.9968 44.5794 66.2301 44.6042C65.8885 46.0143 66.2056 47.4552 66.0343 48.9615C64.8274 47.9569 63.9001 46.7504 62.8309 45.6649C62.5508 46.7009 62.7444 48.4878 63.1926 48.8977H62.2348C62.5176 47.4783 62.212 46.0088 62.4714 44.4441C63.5521 45.6154 64.5735 46.7218 65.6601 47.8997V47.8991Z" fill="#003049" style="fill:#003049;fill:color(display-p3 0.0000 0.1882 0.2863);fill-opacity:1;"/>
<path d="M28.0671 44.6086H28.9764C28.8127 46.016 28.9677 47.437 28.8785 48.9912C27.6227 47.9712 26.7199 46.7488 25.5076 45.5494C25.6724 46.7719 25.2514 47.8788 25.8861 48.8906H24.8087C25.1361 48.6837 25.1775 48.4119 25.1731 48.095C25.1568 46.9254 25.1666 45.7552 25.32 44.5013C26.3544 45.6182 27.3888 46.7345 28.4543 47.8843C28.7094 46.4957 28.5408 44.9459 28.0665 44.6092L28.0671 44.6086Z" fill="#003049" style="fill:#003049;fill:color(display-p3 0.0000 0.1882 0.2863);fill-opacity:1;"/>
<path d="M109.552 46.6249C109.561 47.9711 108.612 48.9741 107.31 48.9939C106.032 49.0132 105.103 48.0971 105.078 46.7949C105.054 45.5091 106.022 44.4919 107.29 44.471C108.604 44.449 109.543 45.3435 109.552 46.6249ZM108.937 46.6452C108.924 46.5583 108.913 46.2827 108.839 46.0257C108.593 45.1713 107.872 44.6481 107.096 44.7356C106.288 44.8264 105.733 45.447 105.673 46.3669C105.655 46.6331 105.685 46.9121 105.743 47.1728C105.983 48.233 106.713 48.8057 107.644 48.6875C108.454 48.5851 108.934 47.8952 108.937 46.6447V46.6452Z" fill="#003049" style="fill:#003049;fill:color(display-p3 0.0000 0.1882 0.2863);fill-opacity:1;"/>
<path d="M97.8649 44.5888C98.3903 44.5888 98.8814 44.5926 99.3731 44.5877C99.8245 44.5832 100.231 44.6922 100.459 45.1191C100.707 45.5824 100.663 46.0836 100.328 46.4538C99.9376 46.8851 100.077 47.1712 100.397 47.5261C100.845 48.0218 101.166 48.6594 101.898 48.8366C101.337 49.0049 100.841 48.9246 100.458 48.4388C100.193 48.1027 99.9354 47.7588 99.6956 47.4045C99.5216 47.1481 99.2991 47.0463 99.0076 47.1036C98.6378 47.1762 98.7639 47.487 98.7612 47.7076C98.7569 48.1373 98.6465 48.6121 99.2067 48.9109H97.978C98.4316 48.0394 98.3724 45.0641 97.8644 44.5888H97.8649ZM98.7346 45.8118C98.8488 46.2293 98.4773 46.8846 99.2937 46.867C99.9055 46.8543 100.053 46.4258 100.05 45.897C100.046 45.2467 99.7266 44.8231 99.1974 44.8297C98.3571 44.8402 98.951 45.5224 98.7346 45.8118Z" fill="#003049" style="fill:#003049;fill:color(display-p3 0.0000 0.1882 0.2863);fill-opacity:1;"/>
<path d="M47.6481 44.5882C48.1795 44.5882 48.6712 44.5937 49.1628 44.5865C49.6447 44.5799 50.0548 44.7224 50.2952 45.1686C50.5388 45.6208 50.4382 46.094 50.1363 46.4395C49.7681 46.8609 49.8459 47.147 50.1858 47.5118C50.6498 48.0102 50.9772 48.655 51.8833 48.8558C51.0811 49.0104 50.5671 48.885 50.1869 48.3387C49.9422 47.9871 49.6735 47.6531 49.4239 47.3049C49.2482 47.0601 48.9997 47.0584 48.7582 47.1107C48.4726 47.1723 48.564 47.4369 48.57 47.619C48.5847 48.0658 48.3954 48.5752 48.9986 48.9081H47.7656C48.2127 48.2011 48.1507 45.0135 47.6481 44.5876V44.5882ZM49.9025 45.8756C49.8666 45.7254 49.8459 45.5422 49.7796 45.3777C49.6034 44.9419 49.2515 44.7571 48.8115 44.8379C48.366 44.9199 48.6092 45.3111 48.57 45.5642C48.5325 45.8068 48.583 46.0615 48.558 46.3074C48.5031 46.8494 48.8376 46.9137 49.2281 46.8626C49.7763 46.791 49.8236 46.3327 49.9019 45.8756H49.9025Z" fill="#003049" style="fill:#003049;fill:color(display-p3 0.0000 0.1882 0.2863);fill-opacity:1;"/>
<path d="M92.4311 46.7559H93.7598C93.2312 47.1333 93.3987 47.6416 93.4297 48.0702C93.4726 48.666 93.2083 48.8668 92.6905 48.9488C90.992 49.2173 89.7395 48.4152 89.6057 46.9528C89.4893 45.683 90.1882 44.7505 91.4309 44.5227C91.8312 44.4496 92.231 44.5095 92.6323 44.52C93.359 44.5381 93.5635 44.8721 93.3394 45.6467C93.1507 45.0856 92.7868 44.8495 92.2913 44.7967C91.8171 44.7466 91.351 44.7356 90.9186 44.9794C90.2089 45.3788 89.9407 46.3867 90.2883 47.3297C90.638 48.2782 91.5577 48.8443 92.4469 48.6726C92.7275 48.6182 92.9266 48.4905 92.8798 48.1841C92.8086 47.7181 93.1452 47.1465 92.4311 46.7564V46.7559Z" fill="#003049" style="fill:#003049;fill:color(display-p3 0.0000 0.1882 0.2863);fill-opacity:1;"/>
<path d="M39.4095 44.608H40.7029C40.5326 44.7807 40.4532 44.9375 40.456 45.1383C40.4663 45.9091 40.4402 46.6815 40.4734 47.4512C40.5071 48.2385 40.9492 48.6952 41.6122 48.7051C42.3176 48.7155 42.7642 48.2726 42.8082 47.4386C42.8474 46.692 42.8213 45.9427 42.8305 45.1944C42.8332 44.9469 42.7712 44.7494 42.3486 44.6234H43.5452C43.2237 44.844 43.2923 45.1356 43.2863 45.4074C43.27 46.1545 43.3336 46.9044 43.1965 47.6465C43.0426 48.48 42.4405 48.9856 41.5905 48.9928C40.6583 49.0005 40.1014 48.5494 39.9371 47.6465C39.7979 46.8813 39.8941 46.1077 39.8702 45.3386C39.8615 45.0586 39.8892 44.7725 39.4095 44.6074V44.608Z" fill="#003049" style="fill:#003049;fill:color(display-p3 0.0000 0.1882 0.2863);fill-opacity:1;"/>
<path d="M113.232 44.6135H114.495C114.536 44.7379 114.38 44.7203 114.373 44.7753C114.227 45.9108 114.08 47.0579 114.489 48.1621C114.652 48.6022 115.094 48.7398 115.557 48.7002C116.023 48.66 116.395 48.4284 116.514 47.9734C116.77 46.9979 116.644 45.995 116.631 45.0025C116.629 44.7874 116.43 44.7423 116.242 44.6157H117.398C117.091 44.7901 117.106 45.0295 117.084 45.2732C117.011 46.0847 117.163 46.9055 116.987 47.7099C116.8 48.5709 116.173 49.0325 115.273 48.9912C114.385 48.9505 113.833 48.485 113.749 47.5927C113.679 46.8522 113.701 46.1017 113.694 45.3557C113.692 45.0553 113.677 44.7764 113.232 44.6135H113.232Z" fill="#003049" style="fill:#003049;fill:color(display-p3 0.0000 0.1882 0.2863);fill-opacity:1;"/>
<path d="M74.12 45.6852C73.6311 44.8528 72.9583 44.6063 72.0191 44.8424C71.3289 45.0157 70.9395 45.5658 70.9014 46.4213C70.8552 47.4518 71.3409 48.2286 72.2301 48.5488C73.0812 48.8553 73.5805 48.6974 74.1119 47.9546C74.1505 48.7882 74.0667 48.8976 73.2716 48.9653C72.2692 49.0511 71.3235 48.924 70.698 48.008C69.7745 46.6546 70.5261 44.8473 72.1202 44.5277C72.4998 44.4512 72.8789 44.4578 73.2569 44.509C74.1674 44.6327 74.1668 44.6377 74.12 45.6852Z" fill="#003049" style="fill:#003049;fill:color(display-p3 0.0000 0.1882 0.2863);fill-opacity:1;"/>
<path d="M58.413 48.9119C57.8272 49.012 57.4389 48.8767 57.2948 48.1725C57.2186 47.8017 57.2246 47.2328 56.5562 47.2169C55.6746 47.1959 55.1182 48.0129 55.4978 48.8899H54.4748C54.8957 48.6968 54.9844 48.293 55.1198 47.9205C55.5321 46.7833 55.9454 45.6467 56.393 44.4143C57.2257 45.9256 57.4068 47.6014 58.413 48.9125V48.9119ZM56.3223 45.4343C56.1744 45.8987 56.0988 46.2067 55.9786 46.4961C55.8203 46.8763 55.9612 46.9627 56.3196 46.9533C56.6639 46.9445 56.9179 46.928 56.7085 46.4703C56.5785 46.1869 56.4882 45.8849 56.3229 45.4343H56.3223Z" fill="#003049" style="fill:#003049;fill:color(display-p3 0.0000 0.1882 0.2863);fill-opacity:1;"/>
<path d="M80.3604 47.0893C80.0934 46.6514 79.6839 46.6668 79.363 46.7966C79.0035 46.9424 79.202 47.3594 79.202 47.6483C79.202 47.9773 78.9991 48.4532 79.4756 48.5885C79.8965 48.7079 80.3746 48.7299 80.6427 48.1302C80.7292 48.7272 80.5774 48.983 80.0173 48.9406C79.4875 48.9005 78.9524 48.9318 78.5037 48.9318C78.7027 47.4568 78.7408 46.0335 78.5053 44.5916H80.5182C80.6025 44.7913 80.4893 44.991 80.4426 45.2518C80.1423 44.7362 79.7089 44.799 79.2901 44.9189C79.1346 44.9635 79.1351 46.2101 79.2787 46.3438C79.4658 46.5177 79.7165 46.4786 79.9177 46.4352C80.5361 46.3026 80.528 46.5914 80.3604 47.0888V47.0893Z" fill="#003049" style="fill:#003049;fill:color(display-p3 0.0000 0.1882 0.2863);fill-opacity:1;"/>
<path d="M122.776 48.9026H121.757C121.865 47.4677 121.926 46.0412 121.708 44.5887C121.984 44.5887 122.428 44.5849 122.872 44.5893C123.684 44.5975 124.077 44.8798 124.146 45.4937C124.229 46.2266 123.807 46.78 123.04 46.9401C122.939 46.961 122.835 46.9654 122.71 46.9236C122.997 46.7646 123.335 46.7025 123.516 46.3982C123.691 46.1033 123.687 45.7958 123.594 45.4805C123.505 45.1801 123.324 44.9474 123.023 44.8649C122.637 44.7598 122.325 44.7488 122.35 45.338C122.388 46.2425 122.366 47.1503 122.357 48.0564C122.353 48.4151 122.409 48.7227 122.776 48.902L122.776 48.9026Z" fill="#003049" style="fill:#003049;fill:color(display-p3 0.0000 0.1882 0.2863);fill-opacity:1;"/>
<path d="M33.4617 47.9376C33.6689 48.1676 33.6303 48.468 33.8887 48.5824C34.2656 48.7497 34.6403 48.8052 34.9459 48.4823C35.2543 48.156 35.2342 47.7616 34.9459 47.4392C34.6327 47.0876 34.2509 46.7988 33.9262 46.456C33.5585 46.0676 33.4008 45.5978 33.6412 45.0845C33.8876 44.5585 34.3727 44.4644 34.8916 44.4754C35.3914 44.4859 35.6622 44.6801 35.4681 45.2418C35.2728 45.2435 35.3109 45.014 35.1999 44.9348C34.8535 44.6867 34.4766 44.6218 34.1568 44.9392C33.8435 45.2506 33.936 45.6203 34.209 45.9092C34.4706 46.1864 34.7899 46.4071 35.0705 46.6662C35.5584 47.1168 35.8118 47.6532 35.4996 48.3051C35.2146 48.8999 34.6767 49 34.0779 48.984C33.397 48.9659 33.3187 48.5769 33.4617 47.9376Z" fill="#003049" style="fill:#003049;fill:color(display-p3 0.0000 0.1882 0.2863);fill-opacity:1;"/>
<path d="M20.6721 48.9032H19.5457C19.8427 47.4755 19.7453 46.0676 19.6219 44.5882C19.7932 44.5338 20.1429 44.6014 20.4997 44.6014C20.0825 45.1962 20.1793 48.4498 20.6715 48.9032H20.6721Z" fill="#003049" style="fill:#003049;fill:color(display-p3 0.0000 0.1882 0.2863);fill-opacity:1;"/>
<path d="M134.178 41.3175H10.1003V42.1527H134.178V41.3175Z" fill="#003049" style="fill:#003049;fill:color(display-p3 0.0000 0.1882 0.2863);fill-opacity:1;"/>
</g>
<defs>
<clipPath id="clip0_6712_14494">
<rect width="144" height="49" fill="white" style="fill:white;fill-opacity:1;"/>
</clipPath>
</defs>
</svg>
