<svg width="212" height="96" viewBox="0 0 212 96" fill="none" xmlns="http://www.w3.org/2000/svg">
<g clip-path="url(#clip0_7394_26367)">
<path d="M46.9792 41.757C47.1425 41.8044 47.3039 41.8645 47.47 41.897C51.4758 42.6881 53.0062 46.0547 52.7161 49.2732C52.42 52.5613 50.2287 54.5113 47.1525 55.2409C46.1089 55.4884 45.0479 55.5621 43.9796 55.5621C39.9371 55.5621 35.8953 55.5628 31.8528 55.5607C31.6141 55.5607 31.3754 55.5398 31.1533 55.529C30.9999 54.9421 30.9799 28.7505 31.128 28.0534C31.286 28.0385 31.4574 28.0081 31.6288 28.0081C35.6046 28.0054 39.5804 27.9878 43.5555 28.0149C45.21 28.0257 46.8278 28.3097 48.3295 29.0656C50.7236 30.2698 51.9359 32.2368 51.9952 34.9448C52.0153 35.8542 51.9072 36.7393 51.6085 37.6C50.9243 39.567 49.5906 40.8415 47.63 41.4507C47.4199 41.5163 47.2072 41.5718 46.9958 41.632C46.9905 41.6739 46.9845 41.7158 46.9792 41.757ZM32.8198 53.7115C33.1526 53.7263 33.414 53.748 33.676 53.748C36.8756 53.75 40.0759 53.7541 43.2754 53.7459C43.9856 53.7439 44.6978 53.7243 45.4054 53.6614C46.573 53.5573 47.6647 53.1915 48.6443 52.5282C51.9106 50.3138 51.6638 45.5401 48.1862 43.6584C46.9025 42.964 45.5027 42.7077 44.0703 42.6976C40.5153 42.6712 36.9596 42.6881 33.4046 42.6908C33.2152 42.6908 33.0259 42.728 32.8205 42.7496V53.7121L32.8198 53.7115ZM32.8325 29.8459V40.8578C33.1292 40.8747 33.4106 40.9051 33.6914 40.9051C36.7769 40.9085 39.8625 40.9118 42.948 40.9037C43.5462 40.9024 44.1483 40.8868 44.7418 40.8152C46.0676 40.6556 47.2872 40.1924 48.3175 39.3127C49.7193 38.1159 50.4001 36.5953 50.1887 34.7203C49.976 32.8298 48.895 31.5633 47.2926 30.7039C46.1723 30.1035 44.9572 29.8533 43.6989 29.8493C40.3026 29.8385 36.9063 29.8452 33.51 29.8452C33.3133 29.8452 33.1159 29.8452 32.8331 29.8452L32.8325 29.8459Z" fill="#003049" style="fill:#003049;fill:color(display-p3 0.0000 0.1882 0.2863);fill-opacity:1;"/>
<path d="M145.125 46.7342H125.556C125.589 47.0608 125.593 47.3265 125.646 47.5815C126.229 50.3807 127.816 52.3903 130.394 53.5255C133.044 54.6932 135.742 54.6858 138.417 53.5607C139.714 53.0157 140.792 52.1624 141.669 51.0501C141.792 50.8933 141.917 50.7371 142.078 50.5342C142.561 50.7607 143.036 50.9832 143.585 51.2401C143.419 51.4917 143.291 51.7161 143.135 51.9176C141.306 54.2727 138.937 55.7027 136.001 56.0929C132.662 56.5364 129.63 55.7467 127.075 53.4823C124.549 51.2442 123.481 48.3631 123.718 44.9762C124.044 40.3162 127.526 36.4432 132.399 35.6723C135.007 35.2592 137.546 35.5013 139.91 36.7738C142.912 38.3891 144.6 40.9545 145.057 44.3535C145.14 44.9755 145.137 45.6091 145.167 46.2379C145.173 46.3678 145.146 46.4996 145.125 46.7356V46.7342ZM125.537 44.7713C126.328 44.9357 142.827 44.9032 143.304 44.7524C143.31 44.6895 143.331 44.6206 143.321 44.557C142.962 42.1878 141.852 40.2688 139.888 38.9246C137.443 37.2518 134.737 36.8874 131.918 37.6088C128.826 38.3999 126.709 40.3223 125.784 43.4758C125.66 43.8964 125.616 44.3406 125.536 44.772L125.537 44.7713Z" fill="#003049" style="fill:#003049;fill:color(display-p3 0.0000 0.1882 0.2863);fill-opacity:1;"/>
<path d="M75.1605 55.5296C74.7384 55.5296 74.449 55.506 74.1642 55.5344C73.5027 55.6 73.0339 55.2869 72.7405 54.7385C72.4998 54.2889 72.3491 53.7892 72.165 53.3091C72.119 53.1888 72.0957 53.059 72.0456 52.8757C71.9376 52.9386 71.8556 52.965 71.8042 53.0197C70.5586 54.3619 68.9894 55.1138 67.2603 55.558C64.8956 56.1652 62.5276 56.3011 60.1683 55.5242C59.0559 55.1578 58.043 54.6148 57.2194 53.7527C55.2315 51.6722 55.4809 48.2312 57.7516 46.4692C58.8719 45.5996 60.1763 45.1439 61.538 44.9012C62.9337 44.6517 64.3508 44.5259 65.7579 44.3345C67.0102 44.1648 68.2659 44.012 69.5089 43.7855C70.0224 43.6922 70.5312 43.4751 70.9967 43.2277C71.7396 42.8328 72.0323 42.1668 71.9563 41.3128C71.8456 40.0768 71.2307 39.1633 70.2525 38.4709C69.4196 37.8813 68.4806 37.5419 67.4943 37.3417C65.7052 36.9793 63.9213 36.9732 62.1595 37.5169C60.2936 38.0923 58.8799 39.1863 58.1957 41.1546H56.4972C56.5526 40.9227 56.5886 40.709 56.6546 40.5055C57.2528 38.6731 58.4678 37.3884 60.1309 36.5108C61.2893 35.8995 62.5356 35.577 63.826 35.462C65.8632 35.2808 67.8711 35.4478 69.769 36.2775C70.4545 36.577 71.1194 36.9732 71.7136 37.4317C73.1266 38.5237 73.8141 40.0072 73.8175 41.8165C73.8222 44.5414 73.8282 47.2663 73.8555 49.9913C73.8635 50.8229 73.9162 51.6573 73.9975 52.4849C74.1022 53.5492 74.4357 54.5431 75.1605 55.5283V55.5296ZM71.9123 44.8275C71.1494 45.0722 70.4479 45.3745 69.7163 45.5138C68.6727 45.7125 67.607 45.7923 66.5507 45.9228C65.0983 46.1027 63.6393 46.2399 62.1962 46.4752C61.0972 46.6544 60.0436 47.0297 59.1186 47.6903C57.2541 49.0216 57.1861 51.5917 59.0213 52.9657C59.5801 53.3842 60.2523 53.6878 60.9158 53.915C62.7157 54.5316 64.5475 54.4038 66.372 53.9975C67.6631 53.7094 68.8814 53.2388 69.9444 52.4186C71.114 51.5167 71.8776 50.3564 71.9416 48.8377C71.997 47.5348 71.965 46.2278 71.9683 44.9228C71.9683 44.8863 71.9269 44.8498 71.9136 44.8268L71.9123 44.8275Z" fill="#003049" style="fill:#003049;fill:color(display-p3 0.0000 0.1882 0.2863);fill-opacity:1;"/>
<path d="M112.675 44.2351C112.46 44.4292 112.292 44.5732 112.132 44.7274C110.108 46.6869 108.091 48.6545 106.054 50.6004C105.715 50.9243 105.584 51.2597 105.595 51.7215C105.621 52.7567 105.605 53.7932 105.601 54.8298C105.601 55.0502 105.58 55.27 105.565 55.5377H103.905C103.764 55.0049 103.741 28.8621 103.881 28.1339H105.579C105.63 29.8506 105.595 31.5545 105.601 33.2571C105.607 34.9461 105.603 36.6358 105.603 38.3249V43.4603C105.603 45.1466 105.603 46.8329 105.603 48.5355C105.926 48.5896 106.031 48.3509 106.175 48.2082C107.583 46.8011 108.986 45.3893 110.389 43.9762C112.831 41.5143 115.277 39.0571 117.703 36.5811C118.043 36.2342 118.378 36.0584 118.866 36.0929C119.458 36.1348 120.054 36.103 120.819 36.103C118.54 38.4425 116.285 40.5866 114.045 42.8679C118.652 45.8268 120.741 50.2827 121.673 55.5783C121.1 55.5783 120.619 55.5864 120.138 55.5756C119.841 55.5688 119.822 55.3187 119.767 55.0982C119.54 54.205 119.348 53.301 119.069 52.4254C118.286 49.9635 117.035 47.7822 115.159 46.0006C114.428 45.3062 113.625 44.7132 112.673 44.2365L112.675 44.2351Z" fill="#003049" style="fill:#003049;fill:color(display-p3 0.0000 0.1882 0.2863);fill-opacity:1;"/>
<path d="M180.328 38.0706C179.916 38.5791 179.554 39.0247 179.197 39.4656C179.083 39.4162 179.016 39.4006 178.965 39.3628C177.086 37.9665 174.949 37.404 172.652 37.3762C171.313 37.36 169.978 37.4493 168.725 37.9611C168.158 38.1924 167.584 38.4993 167.134 38.9077C165.82 40.1018 166.05 42.1174 167.559 43.039C168.406 43.5563 169.351 43.8153 170.298 44.0566C172.298 44.5665 174.307 45.035 176.3 45.5685C177.046 45.7687 177.783 46.0472 178.479 46.386C180.479 47.3576 181.112 48.6302 180.985 50.9866C180.883 52.8649 179.892 54.1719 178.279 55.0313C177.222 55.5939 176.081 55.8799 174.911 56.0341C172.065 56.41 169.285 56.0854 166.586 55.1064C165.963 54.8805 165.361 54.5776 164.782 54.2504C164.403 54.036 164.083 53.7148 163.673 53.391C164.071 52.8602 164.425 52.3889 164.781 51.9142C166.982 53.6242 169.484 54.1976 172.117 54.3308C173.497 54.4005 174.868 54.2882 176.21 53.9251C176.879 53.7439 177.498 53.4572 178.071 53.0488C179.634 51.9345 179.618 49.0467 177.776 48.0723C176.562 47.4293 175.264 47.0689 173.951 46.7396C172.143 46.2866 170.324 45.8728 168.53 45.3724C167.746 45.154 166.982 44.8146 166.256 44.438C165.048 43.8112 164.487 42.7638 164.391 41.3831C164.245 39.2972 165.13 37.8333 166.859 36.8164C167.852 36.2329 168.936 35.8975 170.06 35.7264C172.578 35.3437 175.063 35.4803 177.478 36.3654C178.504 36.7413 179.475 37.2234 180.329 38.0713L180.328 38.0706Z" fill="#003049" style="fill:#003049;fill:color(display-p3 0.0000 0.1882 0.2863);fill-opacity:1;"/>
<path d="M99.168 55.5506H97.5049C97.4876 55.272 97.4589 55.0117 97.4576 54.7514C97.4456 52.6121 97.4416 50.472 97.4289 48.332C97.4229 47.3414 97.4142 46.3502 97.3875 45.3603C97.2682 41.0444 94.1693 37.7556 89.9141 37.3823C88.5004 37.2586 87.1166 37.3492 85.7696 37.7948C82.8714 38.7536 81.1403 40.7868 80.5308 43.7943C80.398 44.4502 80.3614 45.1351 80.3574 45.8072C80.3394 48.758 80.3494 51.7087 80.3494 54.6601C80.3494 54.9259 80.3494 55.1923 80.3494 55.4722C79.7479 55.6696 79.2037 55.5817 78.5942 55.5547C78.5749 55.3417 78.5415 55.1497 78.5415 54.957C78.5388 51.6005 78.4395 48.2407 78.5662 44.889C78.7122 41.0045 80.5401 38.1085 84.1031 36.5209C87.1033 35.1842 90.2035 35.1504 93.2557 36.3167C96.5826 37.5886 98.4038 40.1701 99.0353 43.6584C99.1467 44.2751 99.1934 44.9113 99.1967 45.5388C99.2127 48.6471 99.2047 51.756 99.2027 54.8643C99.2027 55.0638 99.1834 55.2626 99.1687 55.5513L99.168 55.5506Z" fill="#003049" style="fill:#003049;fill:color(display-p3 0.0000 0.1882 0.2863);fill-opacity:1;"/>
<path d="M150.914 55.5384H149.189C149.167 55.1909 149.13 54.8636 149.128 54.5364C149.101 50.3253 149.083 46.1142 149.05 41.9031C149.044 41.0255 149.008 40.1471 148.947 39.2715C148.871 38.1734 148.522 37.1633 147.863 36.2707C148.966 35.8745 149.864 36.1619 150.329 37.1707C150.652 37.8719 150.813 38.6501 151.054 39.4209C151.101 39.3695 151.21 39.2823 151.278 39.1694C152.503 37.1362 154.342 36.124 156.622 35.7981C158.308 35.5574 159.941 35.6838 161.52 36.3512C161.602 36.3857 161.683 36.4208 161.761 36.4621C161.799 36.4824 161.829 36.5175 161.929 36.6007C161.714 37.1038 161.491 37.6291 161.256 38.1822C161.026 38.0923 160.844 38.0206 160.66 37.9489C157.093 36.5466 153.242 38.2397 151.824 41.8362C151.197 43.4265 150.958 45.0966 150.933 46.791C150.895 49.4476 150.917 52.1056 150.913 54.7629C150.913 55.0043 150.913 55.2457 150.913 55.5378L150.914 55.5384Z" fill="#003049" style="fill:#003049;fill:color(display-p3 0.0000 0.1882 0.2863);fill-opacity:1;"/>
<path d="M96.1165 62.2039H97.3042C97.4569 62.6989 97.4836 68.0223 97.3275 68.787C96.9941 68.787 96.6446 68.7795 96.2952 68.789C95.9905 68.7971 95.8884 68.5537 95.7491 68.3597C94.9015 67.1764 94.0586 65.9897 93.2117 64.8058C93.0883 64.6334 92.9509 64.4711 92.8196 64.3041C92.7695 64.3176 92.7195 64.3311 92.6702 64.3447C92.6702 65.0735 92.6702 65.8024 92.6702 66.5313C92.6702 67.2602 92.6702 67.9648 92.6702 68.7356H91.4238V62.2634C91.5059 62.2344 91.5645 62.1985 91.6252 62.1952C92.3508 62.1573 92.9269 62.4374 93.3537 63.0356C94.0959 64.0742 94.8375 65.1134 95.5817 66.15C95.7044 66.3204 95.8424 66.4799 95.9731 66.6443C96.0205 66.6287 96.0685 66.6132 96.1158 66.5976V62.2039H96.1165Z" fill="#003049" style="fill:#003049;fill:color(display-p3 0.0000 0.1882 0.2863);fill-opacity:1;"/>
<path d="M70.3092 68.7275V62.2581C70.4099 62.2317 70.4913 62.1925 70.5733 62.1918C71.773 62.1871 72.9733 62.158 74.1723 62.1932C75.8521 62.2425 76.8244 63.9742 75.9922 65.4428C75.7808 65.816 75.4107 66.0973 75.0699 66.4678C75.384 67.1656 75.7214 67.9155 76.0908 68.7377H74.7025C74.4424 68.1528 74.1623 67.5659 73.9202 66.9628C73.7849 66.6247 73.5961 66.4658 73.2227 66.4861C72.6986 66.5145 72.1724 66.4976 71.5876 66.5003V68.7275H70.3092ZM71.6082 65.3096C72.5045 65.3096 73.3207 65.338 74.1343 65.2994C74.6678 65.2737 74.9325 64.9492 74.9639 64.4339C74.9972 63.889 74.7371 63.4481 74.2417 63.3893C73.3721 63.2865 72.4965 63.3365 71.6082 63.3595V65.3096Z" fill="#003049" style="fill:#003049;fill:color(display-p3 0.0000 0.1882 0.2863);fill-opacity:1;"/>
<path d="M42.3212 66.551V62.2256H43.4922C43.6356 62.7145 43.6602 68.0121 43.5069 68.7843C43.1741 68.7843 42.8173 68.8282 42.4799 68.7667C42.2972 68.7336 42.1085 68.5476 41.9878 68.3813C41.1575 67.242 40.3446 66.0898 39.5244 64.9431C39.3824 64.7449 39.2337 64.5516 39.0989 64.3704C39.0356 64.3879 39.0143 64.3906 38.9956 64.3994C38.9769 64.4082 38.9469 64.4231 38.9469 64.4353C38.9449 65.8478 38.9449 67.2596 38.9449 68.7309H37.6632V62.1891C38.032 62.1891 38.4068 62.1451 38.7642 62.2073C38.9449 62.2384 39.1283 62.4352 39.2497 62.6022C40.0806 63.7409 40.8948 64.8923 41.7164 66.0384C41.8557 66.2325 42.0044 66.4191 42.1485 66.6091C42.2065 66.5895 42.2638 66.5706 42.3219 66.551H42.3212Z" fill="#003049" style="fill:#003049;fill:color(display-p3 0.0000 0.1882 0.2863);fill-opacity:1;"/>
<path d="M141.03 62.185C141.317 62.185 141.624 62.185 141.929 62.185C142.884 62.185 143.839 62.1634 144.794 62.1911C146.453 62.2391 147.434 63.87 146.678 65.3589C146.475 65.7585 146.089 66.0635 145.726 66.484C146.029 67.1649 146.371 67.9324 146.738 68.7579H145.361C145.1 68.1724 144.816 67.5889 144.578 66.9871C144.434 66.622 144.225 66.4617 143.829 66.4854C143.326 66.5151 142.82 66.4928 142.234 66.4928V68.7458C141.782 68.7458 141.414 68.7458 141.045 68.7458C140.887 68.2549 140.862 62.943 141.031 62.1844L141.03 62.185ZM142.245 63.3575C142.226 64.0668 142.194 64.6828 142.264 65.3217C143.125 65.3217 143.903 65.3461 144.678 65.3143C145.3 65.2886 145.599 64.9627 145.618 64.3994C145.637 63.8058 145.315 63.3947 144.714 63.3676C143.921 63.3311 143.124 63.3588 142.246 63.3588L142.245 63.3575Z" fill="#003049" style="fill:#003049;fill:color(display-p3 0.0000 0.1882 0.2863);fill-opacity:1;"/>
<path d="M155.085 68.9385C152.613 68.9446 150.982 66.8593 151.625 64.5185C152 63.1546 153.195 62.1668 154.642 62.0606C155.037 62.0316 155.447 62.0349 155.834 62.1107C157.696 62.4758 158.785 63.9397 158.646 65.8484C158.52 67.5923 157.14 68.8607 155.285 68.9391C155.218 68.9419 155.151 68.9391 155.085 68.9391L155.085 68.9385ZM155.061 63.2081C153.666 63.2108 152.794 64.0762 152.786 65.4657C152.778 66.8613 153.705 67.7951 155.091 67.7877C156.478 67.7802 157.357 66.8992 157.358 65.5151C157.359 64.0898 156.478 63.2054 155.061 63.2081Z" fill="#003049" style="fill:#003049;fill:color(display-p3 0.0000 0.1882 0.2863);fill-opacity:1;"/>
<path d="M114.56 66.0222V67.5659C115.198 67.695 115.816 67.6139 116.428 67.6301C117.042 67.6463 117.657 67.6396 118.304 67.6429V68.7491H113.265V62.2242H118.303V63.3541H114.576V64.8768H117.862V65.9708C116.766 65.9884 115.691 66.0053 114.56 66.0229V66.0222Z" fill="#003049" style="fill:#003049;fill:color(display-p3 0.0000 0.1882 0.2863);fill-opacity:1;"/>
<path d="M135.639 65.5327V68.7336C135.115 68.8134 134.619 68.9506 134.388 68.3252C134.319 68.3252 134.264 68.3076 134.237 68.3279C133.215 69.0926 131.795 69.1366 130.622 68.4361C129.463 67.7437 128.814 66.3826 129.011 65.0526C129.275 63.2709 130.62 62.0863 132.397 62.0383C133.366 62.0119 134.243 62.2445 134.998 62.8761C135.112 62.9714 135.204 63.0931 135.347 63.2473C135.03 63.4853 134.75 63.6962 134.445 63.9248C134.327 63.8457 134.217 63.7801 134.116 63.7017C133.426 63.1634 132.642 63.0958 131.838 63.2953C130.639 63.5935 130.228 64.6408 130.29 65.6639C130.36 66.8431 131.096 67.62 132.191 67.7383C132.39 67.7599 132.591 67.768 132.79 67.7572C133.751 67.7045 134.183 67.3001 134.331 66.3285C134.368 66.0878 134.403 65.8471 134.442 65.5807C134.615 65.5638 134.766 65.5408 134.918 65.5354C135.137 65.5279 135.356 65.5334 135.639 65.5334V65.5327Z" fill="#003049" style="fill:#003049;fill:color(display-p3 0.0000 0.1882 0.2863);fill-opacity:1;"/>
<path d="M84.4705 62.2195C85.3334 64.3812 86.1943 66.5388 87.0792 68.7566H85.7088C85.5441 68.3786 85.3767 67.9939 85.194 67.5754H82.1105C81.9491 67.9506 81.783 68.3374 81.605 68.7519H80.2419C81.0915 66.5388 81.9738 64.3961 82.8387 62.2202H84.4705V62.2195ZM84.7166 66.3576C84.3938 65.4306 84.0737 64.5753 83.7143 63.7362C83.6663 63.7395 83.6176 63.7429 83.5696 63.747C83.2435 64.5949 82.9174 65.4428 82.5646 66.3583H84.7166V66.3576Z" fill="#003049" style="fill:#003049;fill:color(display-p3 0.0000 0.1882 0.2863);fill-opacity:1;"/>
<path d="M54.0539 62.8795C53.7504 63.1587 53.477 63.4096 53.1636 63.6983C52.5681 63.3338 51.8832 63.1317 51.129 63.2088C50.4822 63.2743 50.1381 63.4752 50.0927 63.8612C50.0434 64.2852 50.3421 64.5746 51.0257 64.7193C51.4811 64.816 51.9453 64.8667 52.4027 64.9553C52.6415 65.0019 52.8769 65.0729 53.1056 65.1561C53.7004 65.3718 54.1679 65.7166 54.2706 66.4083C54.3846 67.1764 54.2012 67.8262 53.5897 68.3387C52.4774 69.2705 49.3645 69.1014 48.5776 67.9716C48.835 67.6964 49.1025 67.4104 49.3892 67.1041C50.1774 67.6626 51.013 67.8884 51.9326 67.7403C52.042 67.7228 52.1553 67.7194 52.2614 67.691C52.7302 67.5652 52.9742 67.3049 52.9882 66.929C53.0029 66.5314 52.8255 66.3055 52.3014 66.1534C51.9413 66.0486 51.5625 66.0094 51.1944 65.9289C50.7403 65.8295 50.2761 65.7552 49.8393 65.6023C49.2572 65.3988 48.8684 64.9958 48.7977 64.3312C48.7203 63.6043 48.8784 62.9701 49.5146 62.5671C49.8273 62.369 50.1908 62.2141 50.5509 62.1411C51.6692 61.9153 52.7595 61.9897 53.7571 62.6279C53.8465 62.6854 53.9218 62.7666 54.0532 62.8795H54.0539Z" fill="#003049" style="fill:#003049;fill:color(display-p3 0.0000 0.1882 0.2863);fill-opacity:1;"/>
<path d="M176.058 66.4928V68.7296H174.893C174.726 68.2542 174.695 62.964 174.868 62.2243C174.984 62.2121 175.112 62.1884 175.24 62.1878C176.349 62.1851 177.458 62.1722 178.567 62.1891C180.125 62.2135 181.052 63.4623 180.662 64.9837C180.44 65.8498 179.764 66.4198 178.827 66.4732C178.185 66.5097 177.541 66.4888 176.897 66.4928C176.656 66.4942 176.415 66.4928 176.059 66.4928H176.058ZM176.088 65.3184C176.975 65.3184 177.792 65.3468 178.608 65.3082C179.157 65.2825 179.443 64.9154 179.447 64.3697C179.451 63.8356 179.156 63.4116 178.641 63.3839C177.806 63.3379 176.968 63.3717 176.088 63.3717V65.3184Z" fill="#003049" style="fill:#003049;fill:color(display-p3 0.0000 0.1882 0.2863);fill-opacity:1;"/>
<path d="M163.492 62.2175H164.711C164.724 62.4555 164.745 62.6745 164.745 62.8936C164.749 63.7713 164.744 64.6489 164.749 65.5259C164.751 65.7957 164.751 66.0688 164.793 66.3332C164.938 67.2386 165.506 67.7444 166.371 67.7633C167.243 67.7829 167.845 67.3136 168.022 66.4204C168.104 66.0053 168.124 65.5725 168.131 65.1472C168.146 64.1851 168.136 63.2229 168.136 62.2236C168.576 62.2236 168.945 62.2236 169.315 62.2236C169.341 62.258 169.392 62.2932 169.391 62.3284C169.377 63.6982 169.481 65.0837 169.313 66.434C169.04 68.6152 166.725 69.6619 164.845 68.5524C164.012 68.0608 163.559 67.2751 163.509 66.3393C163.438 64.9951 163.491 63.6448 163.491 62.2175H163.492Z" fill="#003049" style="fill:#003049;fill:color(display-p3 0.0000 0.1882 0.2863);fill-opacity:1;"/>
<path d="M59.11 62.2181H60.3277C60.3464 62.398 60.3791 62.5704 60.3797 62.7428C60.3851 63.6658 60.3744 64.5894 60.3871 65.5124C60.3911 65.8247 60.4144 66.1439 60.4838 66.4475C60.6838 67.3258 61.184 67.741 62.0135 67.7633C62.8731 67.7863 63.4313 67.3704 63.658 66.4968C63.736 66.1966 63.762 65.8761 63.7674 65.5638C63.7814 64.6861 63.7707 63.8078 63.774 62.9295C63.7747 62.709 63.792 62.4886 63.8034 62.2276H64.991C65.0124 62.3561 65.0564 62.5028 65.0571 62.6509C65.0624 63.7314 65.0951 64.8139 65.0431 65.8924C65.019 66.3968 64.843 66.8978 64.7023 67.39C64.6489 67.5773 64.5156 67.7477 64.3935 67.906C63.628 68.8945 62.5677 69.0432 61.4454 68.885C60.4444 68.7444 59.7402 68.1494 59.3768 67.1899C59.2434 66.837 59.132 66.4522 59.1234 66.079C59.092 64.8207 59.1114 63.561 59.1114 62.2181H59.11Z" fill="#003049" style="fill:#003049;fill:color(display-p3 0.0000 0.1882 0.2863);fill-opacity:1;"/>
<path d="M107.598 67.0459C107.914 67.2738 108.199 67.48 108.558 67.7396C108.353 67.9323 108.199 68.1108 108.014 68.2481C107.032 68.977 105.921 69.0994 104.778 68.8289C103.104 68.4327 102.054 66.9384 102.183 65.2365C102.311 63.5387 103.577 62.2249 105.278 62.0626C106.503 61.9457 107.609 62.2249 108.54 63.2344C108.225 63.4785 107.936 63.7037 107.599 63.9647C106.921 63.2628 106.093 63.1046 105.2 63.2486C104.708 63.3284 104.279 63.5637 103.957 63.9701C103.261 64.8531 103.335 66.344 104.085 67.148C104.771 67.8823 106.517 68.1095 107.598 67.0459H107.598Z" fill="#003049" style="fill:#003049;fill:color(display-p3 0.0000 0.1882 0.2863);fill-opacity:1;"/>
<path d="M32.2117 68.7492H31V62.229H32.2117V68.7492Z" fill="#003049" style="fill:#003049;fill:color(display-p3 0.0000 0.1882 0.2863);fill-opacity:1;"/>
</g>
<defs>
<clipPath id="clip0_7394_26367">
<rect width="150" height="41" fill="white" style="fill:white;fill-opacity:1;" transform="translate(31 28)"/>
</clipPath>
</defs>
</svg>
