<svg width="167" height="32" viewBox="0 0 167 32" fill="none" xmlns="http://www.w3.org/2000/svg">
<g clip-path="url(#clip0_6462_1897)">
<path d="M106.472 27.5142H107.252C107.31 27.5142 107.354 27.5586 107.354 27.6163V31.4981C107.354 31.5558 107.31 31.6002 107.252 31.6002H106.472C106.414 31.6002 106.37 31.5558 106.37 31.4981V27.6163C106.37 27.5586 106.414 27.5142 106.472 27.5142Z" fill="#F0FF00" style="fill:#F0FF00;fill:color(display-p3 0.9412 1.0000 0.0000);fill-opacity:1;"/>
<path d="M112.043 27.5142H111.263C111.205 27.5142 111.16 27.5586 111.16 27.6164V29.8282L109.716 27.5586C109.699 27.5275 109.667 27.5098 109.632 27.5098H109.003C108.945 27.5098 108.901 27.5542 108.901 27.6119V31.4937C108.901 31.5514 108.945 31.5958 109.003 31.5958H109.788C109.841 31.5958 109.89 31.5514 109.89 31.4937V29.2819L111.33 31.547C111.347 31.5781 111.379 31.5958 111.414 31.5958H112.043C112.096 31.5958 112.145 31.5514 112.145 31.4937V27.6119C112.145 27.5542 112.101 27.5098 112.043 27.5098V27.5142Z" fill="#F0FF00" style="fill:#F0FF00;fill:color(display-p3 0.9412 1.0000 0.0000);fill-opacity:1;"/>
<path d="M115.857 29.2417C115.688 29.1484 115.479 29.0996 115.225 29.0996H114.841C114.712 29.0996 114.619 29.0774 114.561 29.0329C114.507 28.993 114.485 28.9219 114.485 28.8198V28.7132C114.485 28.6199 114.503 28.5533 114.538 28.5089C114.574 28.4645 114.623 28.4334 114.694 28.4156C114.908 28.3623 115.207 28.3845 115.532 28.3978C115.728 28.4067 115.911 28.42 116.071 28.4289C116.103 28.4289 116.125 28.42 116.147 28.4023C116.169 28.3845 116.178 28.3579 116.178 28.3268V27.7139C116.178 27.665 116.147 27.625 116.098 27.6162C116 27.5939 115.884 27.5762 115.75 27.554C115.617 27.5362 115.479 27.5184 115.336 27.5051C115.189 27.4918 115.042 27.4829 114.895 27.4829C114.471 27.4829 114.133 27.5806 113.901 27.7672C113.66 27.9626 113.536 28.2646 113.536 28.6732V28.8642C113.536 29.2861 113.647 29.5926 113.87 29.7747C114.088 29.9523 114.396 30.0411 114.788 30.0411H115.118C115.216 30.0411 115.291 30.0633 115.34 30.1078C115.385 30.1477 115.407 30.2099 115.407 30.2987V30.4409C115.407 30.5164 115.39 30.5741 115.354 30.6096C115.314 30.654 115.256 30.6807 115.18 30.6985C115.002 30.7429 114.73 30.7295 114.449 30.7251C114.307 30.7251 114.168 30.7162 114.035 30.7073C113.906 30.6985 113.785 30.6896 113.683 30.6807C113.656 30.6807 113.625 30.6851 113.607 30.7073C113.585 30.7251 113.571 30.7517 113.571 30.7828V31.3957C113.571 31.4402 113.602 31.4801 113.647 31.4935C113.732 31.5157 113.825 31.5334 113.923 31.5512C114.021 31.569 114.128 31.5823 114.24 31.5956C114.351 31.6089 114.463 31.6178 114.574 31.6223C114.681 31.6267 114.788 31.6311 114.89 31.6311C115.167 31.6311 115.416 31.6 115.626 31.5423C115.849 31.4801 116.027 31.3558 116.156 31.1737C116.281 30.996 116.348 30.7429 116.348 30.4186V30.1966C116.348 29.9878 116.308 29.8013 116.223 29.637C116.138 29.4682 116.009 29.335 115.84 29.2417H115.857Z" fill="#F0FF00" style="fill:#F0FF00;fill:color(display-p3 0.9412 1.0000 0.0000);fill-opacity:1;"/>
<path d="M120.88 27.5142H120.095C120.042 27.5142 119.993 27.5586 119.993 27.6163V30.2456C119.993 30.3655 119.971 30.4632 119.922 30.5298C119.877 30.5965 119.81 30.6453 119.717 30.6764C119.516 30.7475 119.177 30.743 118.981 30.6764C118.892 30.6453 118.825 30.5965 118.781 30.5298C118.736 30.4632 118.709 30.3655 118.709 30.2456V27.6163C118.709 27.5586 118.665 27.5142 118.607 27.5142H117.827C117.769 27.5142 117.725 27.5586 117.725 27.6163V30.25C117.725 30.521 117.765 30.7519 117.845 30.9296C117.93 31.1117 118.05 31.2582 118.201 31.3604C118.348 31.4625 118.527 31.5292 118.727 31.5691C118.919 31.6091 119.128 31.6269 119.347 31.6269C119.565 31.6269 119.779 31.6091 119.971 31.5691C120.167 31.5292 120.341 31.4581 120.492 31.3604C120.644 31.2582 120.764 31.1117 120.849 30.9296C120.933 30.7519 120.973 30.521 120.973 30.25V27.6163C120.973 27.5586 120.929 27.5142 120.871 27.5142H120.88Z" fill="#F0FF00" style="fill:#F0FF00;fill:color(display-p3 0.9412 1.0000 0.0000);fill-opacity:1;"/>
<path d="M124.944 29.9036C125.029 29.8458 125.105 29.7748 125.167 29.6859C125.229 29.5971 125.283 29.4816 125.323 29.344C125.359 29.2107 125.381 29.0464 125.381 28.8598C125.381 28.5978 125.35 28.3802 125.287 28.207C125.225 28.0293 125.136 27.8916 125.02 27.7895C124.909 27.6873 124.775 27.6163 124.628 27.5763C124.485 27.5363 124.334 27.5186 124.169 27.5186H122.556C122.498 27.5186 122.453 27.563 122.453 27.6207V31.5025C122.453 31.5602 122.498 31.6046 122.556 31.6046H123.335C123.389 31.6046 123.438 31.5602 123.438 31.5025V30.1612C123.438 30.1612 123.474 30.1612 123.491 30.1612H123.661C123.714 30.1612 123.772 30.1612 123.826 30.1612C123.852 30.1612 123.879 30.1612 123.906 30.1612L124.508 31.538C124.525 31.5735 124.561 31.6002 124.601 31.6002H125.394C125.43 31.6002 125.461 31.5824 125.479 31.5558C125.497 31.5291 125.501 31.4891 125.483 31.458L124.802 29.9924C124.851 29.9657 124.9 29.9391 124.949 29.908L124.944 29.9036ZM123.438 28.4157H124.031C124.093 28.4157 124.147 28.4246 124.191 28.4335C124.231 28.4424 124.267 28.4646 124.294 28.4912C124.325 28.5179 124.347 28.5623 124.365 28.6156C124.383 28.6777 124.396 28.7577 124.396 28.8554C124.396 28.962 124.387 29.0464 124.365 29.1086C124.347 29.1663 124.32 29.2107 124.289 29.2462C124.258 29.2773 124.227 29.2995 124.187 29.3129C124.142 29.3262 124.089 29.3351 124.026 29.3351H123.434V28.4157H123.438Z" fill="#F0FF00" style="fill:#F0FF00;fill:color(display-p3 0.9412 1.0000 0.0000);fill-opacity:1;"/>
<path d="M128.87 27.5142H127.885C127.841 27.5142 127.801 27.5408 127.787 27.5852L126.566 31.467C126.557 31.4981 126.566 31.5291 126.579 31.5558C126.597 31.5824 126.628 31.5958 126.66 31.5958H127.462C127.506 31.5958 127.546 31.5647 127.56 31.5247L127.783 30.783H128.959L129.186 31.5247C129.2 31.5691 129.24 31.5958 129.284 31.5958H130.096C130.127 31.5958 130.158 31.5824 130.176 31.5558C130.194 31.5291 130.198 31.4981 130.189 31.467L128.968 27.5852C128.955 27.5452 128.915 27.5142 128.87 27.5142ZM128.714 29.8858H128.023L128.371 28.6556L128.719 29.8858H128.714Z" fill="#F0FF00" style="fill:#F0FF00;fill:color(display-p3 0.9412 1.0000 0.0000);fill-opacity:1;"/>
<path d="M134.637 27.5142H133.857C133.804 27.5142 133.755 27.5586 133.755 27.6164V29.8282L132.311 27.5586C132.293 27.5275 132.262 27.5098 132.226 27.5098H131.598C131.544 27.5098 131.495 27.5542 131.495 27.6119V31.4937C131.495 31.5514 131.54 31.5958 131.598 31.5958H132.382C132.44 31.5958 132.484 31.5514 132.484 31.4937V29.2819L133.924 31.547C133.942 31.5781 133.973 31.5958 134.009 31.5958H134.637C134.695 31.5958 134.739 31.5514 134.739 31.4937V27.6119C134.739 27.5542 134.695 27.5098 134.637 27.5098V27.5142Z" fill="#F0FF00" style="fill:#F0FF00;fill:color(display-p3 0.9412 1.0000 0.0000);fill-opacity:1;"/>
<path d="M138.906 27.6696C138.817 27.6385 138.71 27.6074 138.58 27.5808C138.456 27.5541 138.313 27.5319 138.157 27.5097C137.796 27.4653 137.355 27.4653 137.025 27.5675C136.834 27.6296 136.664 27.7407 136.531 27.8917C136.397 28.0471 136.294 28.2603 136.228 28.5312C136.161 28.7977 136.125 29.1353 136.125 29.5439C136.125 29.9525 136.156 30.3167 136.219 30.5832C136.285 30.8585 136.383 31.0761 136.513 31.2271C136.646 31.3826 136.811 31.4892 137.003 31.5469C137.186 31.6002 137.4 31.6313 137.636 31.6313C137.823 31.6313 137.992 31.6269 138.139 31.6135C138.291 31.6002 138.429 31.5825 138.554 31.5602C138.683 31.538 138.794 31.507 138.892 31.4759C138.933 31.4625 138.964 31.4226 138.964 31.3782V30.7786C138.964 30.7475 138.95 30.7208 138.928 30.7031C138.906 30.6853 138.875 30.6764 138.848 30.6809C138.75 30.6942 138.616 30.7075 138.451 30.7164C138.286 30.7253 138.072 30.7342 137.81 30.7342C137.662 30.7342 137.542 30.7164 137.453 30.6853C137.368 30.6542 137.306 30.6054 137.261 30.5299C137.208 30.4499 137.172 30.33 137.146 30.179C137.119 30.0191 137.105 29.8059 137.105 29.5528C137.105 29.2996 137.119 29.0731 137.15 28.9132C137.177 28.7622 137.217 28.6423 137.27 28.5668C137.319 28.4957 137.382 28.4469 137.466 28.4202C137.662 28.358 137.979 28.3714 138.237 28.3891C138.371 28.398 138.491 28.4069 138.598 28.4246C138.701 28.438 138.785 28.4513 138.843 28.4646C138.875 28.4735 138.906 28.4646 138.928 28.4469C138.95 28.4291 138.964 28.398 138.964 28.3669V27.7629C138.964 27.7229 138.937 27.6829 138.897 27.6696H138.906Z" fill="#F0FF00" style="fill:#F0FF00;fill:color(display-p3 0.9412 1.0000 0.0000);fill-opacity:1;"/>
<path d="M143.001 27.5852C142.867 27.5719 142.716 27.5585 142.556 27.5496C142.395 27.5408 142.212 27.5319 142.007 27.5274C141.802 27.523 141.571 27.5186 141.308 27.5186C141.196 27.5186 141.085 27.5319 140.969 27.563C140.853 27.5941 140.742 27.6474 140.644 27.7229C140.541 27.7984 140.461 27.905 140.403 28.0338C140.345 28.1626 140.314 28.3224 140.314 28.5045V30.6719C140.314 30.8895 140.35 31.0628 140.425 31.1916C140.501 31.3204 140.595 31.4181 140.711 31.4847C140.822 31.5469 140.938 31.5868 141.058 31.6046C141.17 31.6224 141.272 31.6313 141.361 31.6313C141.535 31.6313 141.718 31.6313 141.909 31.6224C142.101 31.6135 142.293 31.6046 142.48 31.5957C142.671 31.5868 142.841 31.5691 143.001 31.5513C143.055 31.5469 143.09 31.5025 143.09 31.4492V30.7963C143.09 30.7385 143.046 30.6941 142.988 30.6941H141.517C141.473 30.6941 141.433 30.6852 141.392 30.6719C141.361 30.663 141.339 30.6408 141.321 30.6097C141.308 30.5875 141.29 30.5387 141.29 30.4499V30.0146L142.734 29.9746C142.787 29.9746 142.832 29.9302 142.832 29.8725V29.2596C142.832 29.2063 142.787 29.1619 142.734 29.1574L141.29 29.1174V28.6555C141.29 28.5756 141.308 28.5223 141.343 28.4912C141.384 28.4557 141.446 28.4379 141.531 28.4379H142.983C143.037 28.4379 143.086 28.3935 143.086 28.3358V27.6829C143.086 27.6296 143.046 27.5896 142.997 27.5807L143.001 27.5852Z" fill="#F0FF00" style="fill:#F0FF00;fill:color(display-p3 0.9412 1.0000 0.0000);fill-opacity:1;"/>
<path d="M42.4071 7.31065H42.3938C41.7788 7.17741 41.1371 7.11523 40.482 7.11523C39.2297 7.11523 38.1646 7.39948 37.3135 7.95465C36.7297 8.32328 36.2751 8.75854 35.9454 9.25153V7.88803C35.9454 7.77256 35.9008 7.66596 35.8161 7.57714C35.7315 7.49275 35.6245 7.44834 35.5086 7.44834H32.8615C32.7457 7.44834 32.6387 7.49275 32.554 7.57714C32.4694 7.66152 32.4248 7.76811 32.4248 7.88359V23.7837C32.4248 23.8991 32.4694 24.0057 32.554 24.0901C32.6387 24.1745 32.7457 24.2189 32.866 24.2189H36.3865C36.5024 24.2189 36.6094 24.1745 36.6985 24.0901C36.7832 24.0057 36.8277 23.8991 36.8277 23.7792V15.3717C36.8277 12.6581 38.0577 11.339 40.5889 11.339C40.941 11.339 41.5337 11.3701 42.367 11.4322C42.4428 11.4322 42.5007 11.4189 42.5542 11.3967L42.6077 11.3612C42.679 11.3123 42.7458 11.2191 42.7458 11.0458V7.72814C42.7458 7.5194 42.63 7.36839 42.4205 7.31065H42.4071Z" fill="#F0FF00" style="fill:#F0FF00;fill:color(display-p3 0.9412 1.0000 0.0000);fill-opacity:1;"/>
<path d="M47.4783 0.537598C46.7386 0.537598 46.1236 0.77299 45.6467 1.23489C45.1699 1.69679 44.9248 2.28749 44.9248 2.98479C44.9248 3.68208 45.1655 4.22393 45.6334 4.69027C46.0924 5.14773 46.7118 5.38312 47.4739 5.38312C48.2359 5.38312 48.8242 5.15217 49.2832 4.69027C49.7422 4.23281 49.9784 3.64211 49.9784 2.93593C49.9784 2.22976 49.7422 1.66126 49.2832 1.21268C48.8242 0.764107 48.2136 0.537598 47.4783 0.537598Z" fill="#F0FF00" style="fill:#F0FF00;fill:color(display-p3 0.9412 1.0000 0.0000);fill-opacity:1;"/>
<path d="M49.239 7.44385H45.6872C45.5713 7.44385 45.4644 7.48826 45.3797 7.57265C45.2951 7.65703 45.2505 7.76363 45.2505 7.8791V23.7792C45.2505 23.8946 45.2951 24.0012 45.3797 24.0856C45.4644 24.17 45.5713 24.2144 45.6917 24.2144H49.2434C49.3593 24.2144 49.4662 24.17 49.5554 24.0856C49.64 24.0012 49.6846 23.8946 49.6846 23.7747V7.88354C49.6846 7.76807 49.64 7.66147 49.5554 7.57709C49.4707 7.4927 49.3637 7.44829 49.2434 7.44829L49.239 7.44385Z" fill="#F0FF00" style="fill:#F0FF00;fill:color(display-p3 0.9412 1.0000 0.0000);fill-opacity:1;"/>
<path d="M68.7174 7.44394H65.179C65.0632 7.44394 64.9562 7.48836 64.8671 7.57274C64.7824 7.65713 64.7379 7.76372 64.7379 7.87919V8.16344C64.2254 7.83922 63.6728 7.59051 63.0845 7.41729C62.376 7.21299 61.6852 7.11084 61.039 7.11084C59.3724 7.11084 57.8616 7.47947 56.547 8.20341C55.2279 8.9318 54.1806 9.98884 53.4364 11.3479C52.6922 12.7025 52.3179 14.328 52.3179 16.1801C52.3179 17.7212 52.6209 19.1247 53.2181 20.3461C53.8197 21.5763 54.6931 22.5579 55.8206 23.2596C56.9481 23.9614 58.285 24.3167 59.7957 24.3167C60.8697 24.3167 61.9125 24.1435 62.884 23.797C63.646 23.5305 64.261 23.1486 64.7156 22.66V23.6549C64.7156 25.0895 64.2833 26.1732 63.4277 26.866C62.5587 27.5722 61.3109 27.9275 59.7155 27.9275C58.4365 27.9408 57.1085 27.8165 55.8028 27.5766C55.7315 27.55 55.6513 27.55 55.58 27.5766L55.5398 27.5944C55.4641 27.6255 55.3349 27.7143 55.3349 27.9541V31.1786C55.3349 31.2807 55.3705 31.374 55.4418 31.4539C55.5087 31.5294 55.5933 31.5783 55.6914 31.6005C57.1263 31.867 58.539 32.0002 59.8982 32.0002C62.8439 32.0002 65.1434 31.3074 66.7388 29.935C68.3431 28.5582 69.1586 26.4441 69.1586 23.6549V7.88364C69.1586 7.76816 69.114 7.66157 69.0294 7.57718C68.9447 7.4928 68.8377 7.44838 68.7174 7.44838V7.44394ZM57.3046 18.2409C56.9837 17.588 56.8188 16.8285 56.8188 15.9891C56.8188 15.0253 57.0194 14.1637 57.4205 13.4309C57.8215 12.6981 58.3608 12.1207 59.0292 11.721C59.6977 11.3212 60.433 11.1169 61.2173 11.1169C62.0016 11.1169 62.728 11.2546 63.3742 11.5211C63.9847 11.7743 64.4393 12.1607 64.7245 12.6759V16.9262C64.7245 18.0099 64.3769 18.8316 63.6639 19.4267C62.9508 20.0263 61.9883 20.3283 60.8029 20.3283C60.0007 20.3283 59.2877 20.1418 58.6905 19.7732C58.0934 19.4045 57.6254 18.8893 57.3046 18.2453V18.2409Z" fill="#F0FF00" style="fill:#F0FF00;fill:color(display-p3 0.9412 1.0000 0.0000);fill-opacity:1;"/>
<path d="M84.4222 7.87004C83.464 7.36817 82.3187 7.11057 81.013 7.11057C79.0032 7.11057 77.5236 7.67018 76.6012 8.78052V0.439648C76.6012 0.324172 76.5566 0.21758 76.4719 0.133194C76.3873 0.0488081 76.2803 0.00439453 76.16 0.00439453H72.6394C72.5236 0.00439453 72.4166 0.0488081 72.3275 0.133194C72.2428 0.21758 72.1982 0.324172 72.1982 0.444089V23.7923C72.1982 23.9078 72.2428 24.0144 72.3275 24.1032C72.4122 24.1876 72.5191 24.232 72.635 24.232H76.1555C76.2714 24.232 76.3783 24.1876 76.4675 24.1032C76.5521 24.0188 76.5967 23.9122 76.5967 23.7923V14.8918C76.5967 13.7415 76.8953 12.8532 77.4924 12.2492C78.0851 11.6496 78.9631 11.3432 80.1084 11.3432C82.0424 11.3432 82.9827 12.5024 82.9827 14.8874V23.7879C82.9827 23.9034 83.0273 24.0099 83.112 24.0943C83.1966 24.1787 83.3036 24.2231 83.4239 24.2231H86.9757C87.0915 24.2231 87.1985 24.1787 87.2832 24.0943C87.3678 24.0099 87.4124 23.9033 87.4124 23.7834V13.4928C87.4124 12.1782 87.1539 11.0323 86.6414 10.0774C86.1245 9.11806 85.3803 8.37636 84.4177 7.87004H84.4222Z" fill="#F0FF00" style="fill:#F0FF00;fill:color(display-p3 0.9412 1.0000 0.0000);fill-opacity:1;"/>
<path d="M101.713 19.5063C101.606 19.3642 101.419 19.3242 101.294 19.4042C101.169 19.4575 101.04 19.5285 100.893 19.6085C100.349 19.9061 99.5293 20.3591 98.0096 20.3591C95.9597 20.3591 94.9615 19.4042 94.9615 17.4455V11.6585H98.6781C98.794 11.6585 98.9009 11.614 98.9901 11.5297C99.0747 11.4453 99.1193 11.3387 99.1193 11.2232L98.0988 7.85221C98.0899 7.75006 98.0453 7.65679 97.9695 7.57685C97.8849 7.49246 97.7779 7.44805 97.662 7.44805H94.9615V4.52119C94.9615 4.40572 94.9169 4.29912 94.8322 4.21474C94.7476 4.13035 94.6406 4.08594 94.5203 4.08594H90.9685C90.8527 4.08594 90.7457 4.13035 90.6566 4.21474C90.5719 4.29912 90.5273 4.40572 90.5273 4.52563V18.0407C90.5273 20.1637 91.12 21.7981 92.2965 22.8995C93.4686 23.9966 95.1709 24.5517 97.359 24.5517C98.6068 24.5517 101.227 23.8855 102.355 23.3659C102.466 23.3126 102.537 23.2593 102.595 23.1971C102.662 23.1172 102.702 23.0239 102.702 22.9217L101.802 19.7506C101.798 19.6662 101.766 19.5863 101.713 19.5197V19.5063Z" fill="#F0FF00" style="fill:#F0FF00;fill:color(display-p3 0.9412 1.0000 0.0000);fill-opacity:1;"/>
<path d="M122.662 23.9257L127.654 8.06564C127.707 7.91907 127.689 7.76807 127.596 7.63927C127.502 7.51047 127.368 7.44385 127.208 7.44385H123.371C123.286 7.44385 123.202 7.47494 123.121 7.53267C123.05 7.58597 122.997 7.65703 122.952 7.76807L120.091 18.8359L116.713 7.74586C116.655 7.55488 116.508 7.44385 116.312 7.44385H112.854C112.658 7.44385 112.511 7.55488 112.453 7.74586L109.008 18.8493L106.085 7.76807C106.031 7.56376 105.875 7.44385 105.666 7.44385H101.829C101.7 7.44385 101.584 7.4927 101.495 7.58153C101.405 7.67036 101.356 7.78583 101.356 7.91463L106.281 23.9213C106.339 24.1123 106.486 24.2233 106.682 24.2233H110.488C110.666 24.2233 110.808 24.1212 110.884 23.9257L114.481 13.2309L118.046 23.9213C118.104 24.1123 118.251 24.2233 118.447 24.2233H122.252C122.449 24.2233 122.596 24.1123 122.654 23.9257H122.662Z" fill="#F0FF00" style="fill:#F0FF00;fill:color(display-p3 0.9412 1.0000 0.0000);fill-opacity:1;"/>
<path d="M135.858 7.11523C133.652 7.11523 131.566 7.53716 129.654 8.36326C129.507 8.42544 129.418 8.56312 129.418 8.73633V11.8186C129.418 12.0363 129.521 12.1295 129.601 12.1695C129.668 12.2139 129.779 12.245 129.962 12.1917C131.482 11.4989 133.26 11.1524 135.238 11.1524C137.671 11.1524 138.906 11.7431 138.906 12.9112V13.3642L134.9 13.8172C132.636 14.0748 130.911 14.6211 129.775 15.4517C128.616 16.3 128.028 17.5835 128.028 19.2668C128.028 20.386 128.3 21.3587 128.83 22.1537C129.36 22.9487 130.109 23.5527 131.045 23.948C131.972 24.3433 133.046 24.5431 134.24 24.5431C135.8 24.5431 137.092 24.2811 138.086 23.7703C138.781 23.4106 139.316 22.962 139.686 22.429V23.7925C139.686 23.908 139.73 24.0146 139.815 24.099C139.9 24.1834 140.007 24.2278 140.127 24.2278H142.663C142.779 24.2278 142.885 24.1834 142.97 24.099C143.055 24.0146 143.099 23.908 143.099 23.7881V13.7995C143.099 11.6854 142.467 10.0243 141.219 8.86069C139.975 7.70149 138.171 7.11523 135.853 7.11523H135.858ZM132.319 19.0136C132.319 18.4096 132.529 17.9832 132.952 17.7123C133.411 17.4236 134.169 17.2149 135.198 17.095L138.906 16.6464V17.508C138.906 18.1698 138.737 18.756 138.402 19.2535C138.064 19.7509 137.591 20.1417 136.999 20.4082C136.392 20.6791 135.697 20.8168 134.926 20.8168C134.115 20.8168 133.465 20.6525 132.997 20.3238C132.542 20.0085 132.324 19.5777 132.324 19.0136H132.319Z" fill="#F0FF00" style="fill:#F0FF00;fill:color(display-p3 0.9412 1.0000 0.0000);fill-opacity:1;"/>
<path d="M161.041 7.44385H157.422C157.248 7.44385 157.106 7.53712 157.03 7.70589L153.046 18.3607L148.411 7.70145C148.349 7.53712 148.206 7.44385 148.015 7.44385H144.253C144.12 7.44385 144.004 7.48382 143.91 7.56821C143.817 7.65259 143.763 7.76807 143.763 7.90131C143.763 7.9546 143.777 8.02122 143.812 8.12782L150.786 23.3794L147.52 31.0008C147.435 31.214 147.493 31.3694 147.556 31.4627C147.645 31.596 147.792 31.6715 147.961 31.6715H151.482C151.66 31.6715 151.798 31.5782 151.86 31.4183L161.468 8.11005C161.54 7.9546 161.526 7.79027 161.437 7.65703C161.348 7.52379 161.201 7.44829 161.032 7.44829L161.041 7.44385Z" fill="#F0FF00" style="fill:#F0FF00;fill:color(display-p3 0.9412 1.0000 0.0000);fill-opacity:1;"/>
<path d="M26.3418 11.903C27.0771 11.5255 27.6832 10.9703 28.1511 10.2463C28.726 9.35807 29.0157 8.341 29.0157 7.22178C29.0157 5.14322 28.3383 3.54877 26.9969 2.48729C25.6689 1.43469 23.7705 0.901724 21.3417 0.901724H12.2061C12.0903 0.901724 11.9833 0.946137 11.8942 1.03052C11.8095 1.11491 11.765 1.2215 11.765 1.34142V3.96626L4.04201 0.444264C3.89941 0.36876 3.73452 0.355436 3.58301 0.408733C3.43149 0.462029 3.31117 0.577504 3.24878 0.724069L1.99653 3.69978C1.93414 3.8419 1.93859 4.00623 2.00098 4.1528C2.06337 4.29492 2.18815 4.40596 2.33521 4.45481L15.593 8.99388C15.7267 9.03829 15.8737 9.01609 15.9896 8.93614C16.1055 8.8562 16.1723 8.72296 16.1723 8.58083V5.03663H21.1546C23.356 5.03663 24.4256 5.88049 24.4256 7.61706C24.4256 9.49576 24.0958 11.0547 20.0316 11.0547C17.077 11.0547 3.34682 9.84218 0.623958 9.59791C0.467984 9.58458 0.303097 9.63788 0.182774 9.74447C0.0624514 9.8555 -0.00439453 10.011 -0.00439453 10.1708V14.4479C-0.00439453 14.6078 0.0624514 14.7632 0.182774 14.8742C0.303097 14.9808 0.463527 15.0386 0.623958 15.0208C2.34413 14.8654 17.4825 13.5019 20.0494 13.5019C23.0797 13.5019 23.6814 13.795 24.5147 14.5767C25.1475 15.1718 25.455 16.0068 25.455 17.126C25.455 19.1157 24.1626 20.084 21.5022 20.084H16.1679V15.8069C16.1679 15.6648 16.101 15.5404 15.9896 15.4561C15.8782 15.3717 15.7356 15.3495 15.5975 15.3894L2.52684 19.4533C2.37087 19.5021 2.24163 19.6132 2.17924 19.7642C2.11239 19.9107 2.11239 20.084 2.17924 20.2305L3.64094 23.415C3.70778 23.5571 3.83256 23.6681 3.98408 23.717C4.1356 23.7658 4.30049 23.7481 4.42972 23.677L11.7694 20.1328V23.7747C11.7694 23.8902 11.814 23.9968 11.8986 24.0812C11.9833 24.1656 12.0903 24.21 12.2106 24.21H21.471C24.2117 24.21 26.3597 23.6193 27.8525 22.4512C29.3633 21.2742 30.1253 19.5643 30.1253 17.3703C30.1253 15.9491 29.7331 14.7232 28.9666 13.715C28.3071 12.849 27.4247 12.2361 26.3418 11.8896V11.903Z" fill="#F0FF00" style="fill:#F0FF00;fill:color(display-p3 0.9412 1.0000 0.0000);fill-opacity:1;"/>
</g>
<g clip-path="url(#clip1_6462_1897)">
<path d="M162.815 6.7247V5.19076H162.283V4.86963H163.741V5.19076H163.209V6.7247H162.815Z" fill="#F0FF00" style="fill:#F0FF00;fill:color(display-p3 0.9412 1.0000 0.0000);fill-opacity:1;"/>
<path d="M163.985 6.7247V4.86963H164.457L164.992 5.98579L165.522 4.86963H165.991V6.7247H165.597V5.53995L165.147 6.46437H164.832L164.378 5.53995V6.7247H163.985Z" fill="#F0FF00" style="fill:#F0FF00;fill:color(display-p3 0.9412 1.0000 0.0000);fill-opacity:1;"/>
</g>
<defs>
<clipPath id="clip0_6462_1897">
<rect width="166.224" height="32" fill="white" style="fill:white;fill-opacity:1;"/>
</clipPath>
<clipPath id="clip1_6462_1897">
<rect width="3.70934" height="1.85507" fill="white" style="fill:white;fill-opacity:1;" transform="translate(162.283 4.86963)"/>
</clipPath>
</defs>
</svg>
