<svg width="206" height="189" viewBox="0 0 206 189" fill="none" xmlns="http://www.w3.org/2000/svg">
<g id="Logo Anchor">
<path id="Subtract" fill-rule="evenodd" clip-rule="evenodd" d="M0 185.205C0.553949 185.136 1.08388 184.968 1.54786 184.709L59.949 156.437V185.49C59.949 186.428 60.3098 187.269 60.9833 187.954C61.6688 188.639 62.5107 189 63.4488 189H137.136C158.94 189 176.018 184.276 187.912 174.972C199.915 165.573 206 151.93 206 134.416C206 123.093 202.897 113.285 196.776 105.255C191.523 98.3592 184.504 93.4685 175.887 90.679C181.727 87.6743 186.549 83.2455 190.257 77.4883C194.827 70.4084 197.136 62.2827 197.136 53.3517C197.136 36.7638 191.736 24.0584 181.069 15.5841C170.522 7.194 155.38 2.93884 136.089 2.93884H63.4127C62.4746 2.93884 61.6207 3.29945 60.9472 3.97258C60.2617 4.65773 59.9129 5.49915 59.9129 6.43673V27.388L0 0V36.4895L90.3042 67.4875C91.3745 67.8481 92.5531 67.6798 93.4671 67.0307C94.3812 66.3816 94.9224 65.3118 94.9224 64.1939V35.8983H134.574C152.085 35.8983 160.6 42.6296 160.6 56.489C160.6 71.4902 157.966 83.9191 125.65 83.9191C107.842 83.9191 40.8602 78.368 0 74.8338V113.04C40.8697 109.44 110.71 103.488 125.807 103.488C149.932 103.488 154.707 105.844 161.321 112.071C166.36 116.819 168.814 123.478 168.814 132.409C168.814 148.299 158.531 156.016 137.364 156.016H94.9344V121.903C94.9344 120.785 94.4173 119.763 93.5153 119.09C92.6133 118.429 91.4828 118.237 90.4124 118.573L0 146.769V185.205Z" fill="#F0FF00" style="fill:#F0FF00;fill:color(display-p3 0.9412 1.0000 0.0000);fill-opacity:1;"/>
</g>
</svg>
