<svg width="136" height="41" viewBox="0 0 136 41" fill="none" xmlns="http://www.w3.org/2000/svg">
<g clip-path="url(#clip0_6712_8611)">
<path d="M122.73 8.14566C123.53 7.34476 124.422 6.70405 125.602 6.47627C128.399 5.93842 130.787 7.04645 131.866 9.61519C132.946 12.1883 133.055 14.835 132.073 17.489C130.555 21.589 125.394 21.7153 123.203 19.6315C123.12 19.5537 123.042 19.4376 122.79 19.4905C122.79 20.8983 122.793 22.3281 122.789 23.7565C122.789 24.0548 122.982 24.1151 123.229 24.1489C123.634 24.2047 124.035 24.2826 124.44 24.3296C124.828 24.3752 124.989 24.5295 124.992 24.9395C125.002 26.074 125.026 26.074 123.831 26.0754C122.041 26.0754 120.254 26.0769 118.464 26.0754C118.14 26.0754 117.711 26.1504 117.823 25.6361C117.921 25.1908 117.39 24.5075 118.322 24.3443C118.892 24.2444 119.695 24.3781 119.962 23.949C120.235 23.5096 120.065 22.8116 120.065 22.2253C120.069 17.9195 120.056 13.6138 120.082 9.30806C120.085 8.75405 119.934 8.50129 119.35 8.48365C119.046 8.47483 118.747 8.36609 118.443 8.35139C117.926 8.32641 117.775 8.1001 117.789 7.60928C117.818 6.57326 117.789 6.57326 118.894 6.57326C119.762 6.57326 120.634 6.61293 121.5 6.56003C122.193 6.51742 122.574 6.67759 122.508 7.41824C122.486 7.65043 122.493 7.90906 122.732 8.14419L122.73 8.14566ZM122.784 13.699C122.784 14.6777 122.783 15.6579 122.784 16.6366C122.784 16.8776 122.784 17.1039 122.928 17.3376C124.254 19.4905 127.899 19.5316 129.136 17.3376C130.397 15.101 130.23 12.7468 129.237 10.4778C128.41 8.58505 126.378 7.89584 124.457 8.77609C123.439 9.24193 122.634 9.91645 122.766 11.2038C122.85 12.0282 122.781 12.8673 122.783 13.699H122.784Z" fill="#003049" style="fill:#003049;fill:color(display-p3 0.0000 0.1882 0.2863);fill-opacity:1;"/>
<path d="M77.2881 8.25888C77.707 7.89296 78.0124 7.56526 78.3777 7.31691C81.3179 5.31687 85.2403 6.39845 86.5509 9.64024C87.6144 12.2736 87.754 14.9746 86.6783 17.6595C85.3155 21.0615 80.6795 22.0813 77.8559 19.6125C77.75 19.5199 77.6717 19.3715 77.417 19.4126C77.417 20.8366 77.4201 22.2679 77.4139 23.7007C77.4139 23.9682 77.5121 24.1005 77.8007 24.1298C78.1812 24.1695 78.5557 24.2812 78.9347 24.2944C79.5501 24.3165 79.6882 24.5795 79.7235 25.1571C79.7711 25.955 79.4749 26.1122 78.7076 26.0902C76.8692 26.0373 75.0292 26.0564 73.1907 26.0873C72.6644 26.0961 72.5263 25.9579 72.4818 25.4436C72.4127 24.6471 72.669 24.2621 73.5191 24.265C73.7202 24.265 73.9212 24.1681 74.1207 24.1681C74.6639 24.1681 74.7744 23.8991 74.7698 23.423C74.7484 20.9042 74.7591 18.384 74.7591 15.8652C74.7591 13.6388 74.7468 11.414 74.7698 9.18762C74.7744 8.73501 74.6609 8.51752 74.1575 8.50282C73.8046 8.49253 73.4547 8.35881 73.1017 8.34264C72.6076 8.31913 72.4833 8.10605 72.494 7.64902C72.5186 6.57185 72.494 6.57185 73.6388 6.57332C74.5074 6.57332 75.3806 6.62476 76.243 6.55716C76.9075 6.50425 77.1776 6.72762 77.193 7.33601C77.2006 7.60347 77.2467 7.87092 77.2896 8.25594L77.2881 8.25888ZM77.4185 13.6271C77.4185 14.6293 77.4155 15.633 77.4201 16.6352C77.4201 16.8512 77.4093 17.0584 77.5382 17.2701C78.2564 18.4472 79.3874 18.9541 80.7363 18.9512C82.0146 18.9483 83.1625 18.5486 83.8086 17.37C85.0623 15.0819 84.9411 12.7439 83.9006 10.4485C83.0674 8.60863 81.0678 7.9106 79.1772 8.75852C78.1106 9.23759 77.2543 9.93268 77.4017 11.2802C77.4861 12.0547 77.417 12.8438 77.4185 13.6271Z" fill="#003049" style="fill:#003049;fill:color(display-p3 0.0000 0.1882 0.2863);fill-opacity:1;"/>
<path d="M63.6747 17.0893C64.1106 15.8608 64.5464 14.6293 64.9837 13.4008C65.4856 11.99 65.9751 10.5749 66.503 9.1744C66.6779 8.7115 66.6795 8.48666 66.0687 8.41024C65.0329 8.28093 64.7904 7.843 65.019 6.83196C65.0866 6.53659 65.2753 6.57627 65.4687 6.57627C67.1306 6.57333 68.7911 6.58214 70.453 6.56892C70.8474 6.56598 70.9733 6.69677 70.9809 7.08032C70.9963 7.78863 71.0669 8.47343 69.9819 8.422C69.6044 8.40437 69.5737 8.74089 69.4801 8.98189C67.7675 13.3479 66.0549 17.7124 64.35 22.0813C63.8359 23.398 63.2573 24.6677 62.0573 25.5685C60.9662 26.3871 59.7278 26.4664 58.4234 26.2563C58.1042 26.2048 57.9891 26.0638 58.0397 25.761C58.0766 25.545 58.095 25.3231 58.0965 25.1027C58.0996 24.3606 58.3743 24.0255 59.2398 24.1739C60.0132 24.3062 60.601 23.9109 61.0138 23.2628C61.5355 22.4443 61.8977 21.5567 62.3044 20.6867C62.4225 20.4354 62.3596 20.2224 62.2614 19.9858C60.7268 16.2634 59.1861 12.5426 57.6806 8.80849C57.4857 8.32354 57.0867 8.39408 56.7522 8.34265C55.7532 8.19128 56.3041 7.47268 56.2105 7.01713C56.0908 6.43372 56.6064 6.58361 56.9256 6.58214C58.4587 6.57186 59.9933 6.59096 61.5263 6.56892C61.9959 6.56157 62.2031 6.6468 62.1908 7.16555C62.1647 8.2148 62.2015 8.23096 61.0966 8.40143C60.6946 8.46315 60.4951 8.53515 60.6608 8.99512C61.623 11.6741 62.7095 14.3134 63.5274 17.0393C63.532 17.0526 63.5719 17.0555 63.6763 17.0893H63.6747Z" fill="#003049" style="fill:#003049;fill:color(display-p3 0.0000 0.1882 0.2863);fill-opacity:1;"/>
<path d="M94.916 0.845041C97.445 0.845041 99.9755 0.859737 102.505 0.833285C103.049 0.827407 103.2 0.987586 103.18 1.49458C103.141 2.52031 103.158 3.54898 103.174 4.57619C103.178 4.90389 103.106 5.10081 102.715 5.04644C102.69 5.0435 102.664 5.04644 102.638 5.04644C100.878 5.11257 100.864 5.11404 100.712 3.44612C100.674 3.02583 100.557 2.84361 100.077 2.8583C99.0041 2.89063 97.9299 2.88475 96.8572 2.8583C96.4137 2.84802 96.2296 2.94354 96.2311 3.4182C96.248 8.33526 96.2465 13.2523 96.2326 18.1694C96.2326 18.5808 96.3754 18.7469 96.7897 18.7557C96.9662 18.7587 97.1396 18.8219 97.3161 18.8498C98.4762 19.032 98.6343 19.2598 98.4409 20.3751C98.3964 20.6308 98.2783 20.6999 98.0435 20.6999C95.9487 20.6999 93.8525 20.6955 91.7578 20.7029C91.4171 20.7029 91.3051 20.5662 91.3266 20.2605C91.3419 20.0416 91.348 19.8182 91.322 19.6007C91.2698 19.1863 91.4171 19.0129 91.8759 18.9306C93.5318 18.6338 93.5272 18.6132 93.5272 16.9614C93.5272 12.5337 93.5149 8.10601 93.5394 3.6783C93.5425 3.07139 93.4397 2.79952 92.7154 2.84802C91.6979 2.91708 90.6713 2.89357 89.6508 2.85536C89.1659 2.83773 89.06 3.0082 89.0293 3.43142C88.8958 5.23307 88.8559 5.24336 86.9806 5.05232C86.6829 5.02146 86.5893 4.93035 86.5908 4.65701C86.6 3.53135 86.6138 2.40569 86.5862 1.28149C86.5724 0.749522 86.9315 0.845041 87.2491 0.843572C89.8042 0.840633 92.3593 0.843572 94.9144 0.843572L94.916 0.845041Z" fill="#003049" style="fill:#003049;fill:color(display-p3 0.0000 0.1882 0.2863);fill-opacity:1;"/>
<path d="M112.068 18.8012C111.038 19.7726 110.065 20.5955 108.718 20.8306C107.644 21.0173 106.573 20.9732 105.537 20.6661C103.969 20.2002 103.005 18.9203 102.919 17.1465C102.844 15.5815 103.487 14.3456 104.975 13.58C106.079 13.0113 107.271 12.7688 108.506 12.7144C109.373 12.6762 110.247 12.6453 111.112 12.6997C111.844 12.7453 112.117 12.5968 112.093 11.8106C112.054 10.563 112.021 9.34624 110.661 8.73785C109.223 8.09419 107.78 8.30728 106.384 8.95534C105.859 9.19928 105.816 9.67688 105.767 10.1324C105.712 10.6394 105.491 10.8084 104.934 10.7937C103.54 10.7555 103.539 10.7864 103.54 9.50789C103.54 8.36361 104.1 7.56565 105.221 7.11401C106.956 6.41452 108.763 6.10444 110.61 6.4924C113.59 7.11842 114.734 8.52918 114.761 11.4403C114.783 13.6916 114.794 15.9415 114.787 18.1928C114.787 18.6837 114.906 18.9996 115.486 18.9864C115.814 18.979 115.892 19.1466 115.912 19.4463C115.994 20.7043 116.004 20.7043 114.726 20.7072C114.164 20.7072 113.598 20.6719 113.039 20.719C112.521 20.763 112.292 20.5749 112.248 20.0959C112.212 19.7079 112.142 19.3229 112.068 18.8027V18.8012ZM110.069 14.422C110.069 14.4323 110.069 14.4411 110.069 14.4514C109.559 14.4514 109.046 14.4161 108.542 14.4587C107.598 14.5381 106.771 14.8834 106.137 15.5859C105.607 16.1722 105.486 16.8526 105.732 17.5668C105.98 18.2869 106.562 18.6263 107.338 18.7336C108.781 18.932 110.061 18.6087 111.183 17.7196C111.985 17.0833 112.512 15.6358 112.011 14.688C111.675 14.0532 110.776 14.5513 110.144 14.4235C110.119 14.4191 110.093 14.4235 110.067 14.4235L110.069 14.422Z" fill="#003049" style="fill:#003049;fill:color(display-p3 0.0000 0.1882 0.2863);fill-opacity:1;"/>
<path d="M47.9605 0.874471C50.465 0.874471 52.971 0.890636 55.4754 0.861245C56.0463 0.853897 56.2351 0.999381 56.2074 1.55633C56.1599 2.53357 56.1798 3.51375 56.2013 4.49246C56.2105 4.88189 56.1246 5.04501 55.6627 5.05823C53.9071 5.10526 53.8933 5.12436 53.7536 3.44028C53.7183 3.01558 53.591 2.84071 53.1152 2.8554C52.0165 2.88626 50.9162 2.89067 49.8189 2.8554C49.3187 2.83924 49.2174 3.04056 49.2174 3.4535C49.225 8.37203 49.2266 13.292 49.2143 18.2106C49.2143 18.5971 49.3616 18.719 49.7345 18.7484C50.1151 18.7793 50.4865 18.9057 50.8671 18.9277C51.3658 18.9586 51.4809 19.1878 51.4732 19.6345C51.4548 20.6735 51.4794 20.6706 50.3637 20.675C48.5744 20.6809 46.7851 20.675 44.9957 20.7132C44.4816 20.7249 44.2944 20.6441 44.3266 20.096C44.3911 19.0217 44.3451 18.9733 45.5282 18.8557C46.3431 18.7749 46.584 18.4898 46.5748 17.6771C46.5242 12.979 46.5411 8.27945 46.5641 3.57988C46.5671 3.0097 46.4229 2.81866 45.8045 2.84952C44.7594 2.90243 43.7082 2.88038 42.6616 2.85687C42.2381 2.84659 42.037 2.97443 42.0708 3.38737C42.0723 3.41089 42.0708 3.43587 42.0662 3.46085C41.879 5.13906 41.879 5.12289 40.1157 5.0553C39.6922 5.03913 39.6093 4.89071 39.617 4.53214C39.6354 3.52845 39.6507 2.52476 39.6124 1.52254C39.5924 1.01261 39.752 0.853897 40.2937 0.859776C42.8504 0.884758 45.4055 0.871532 47.9621 0.871532L47.9605 0.874471Z" fill="#003049" style="fill:#003049;fill:color(display-p3 0.0000 0.1882 0.2863);fill-opacity:1;"/>
<path d="M50.1028 31.0778C51.0435 30.0168 52.1761 29.473 53.6263 29.6714C55.4325 29.9168 56.4238 30.8441 56.5389 32.6178C56.6433 34.227 56.6325 35.8449 56.6003 37.4585C56.588 38.0992 56.7507 38.4122 57.4581 38.4196C57.8694 38.424 58.2392 38.4916 58.2101 39.0853C58.1871 39.5629 58.0658 39.7142 57.5625 39.701C56.2857 39.6701 55.0074 39.6878 53.7291 39.6937C53.4053 39.6937 53.0984 39.7186 53.1444 39.2616C53.1782 38.9251 53.0078 38.5504 53.6017 38.4416C54.7112 38.2373 54.7082 38.2035 54.7035 37.1323C54.6989 35.7862 54.7189 34.4401 54.6713 33.0969C54.6299 31.8978 54.1618 31.332 53.1997 31.1557C51.9198 30.9235 50.6261 31.4481 50.1627 32.3754C50.0553 32.5899 50.0844 32.8059 50.0829 33.022C50.0783 34.49 50.1197 35.9596 50.0629 37.4247C50.0369 38.0919 50.2026 38.424 50.9453 38.4328C51.2292 38.4357 51.6129 38.399 51.6298 38.9089C51.6482 39.4659 51.5745 39.748 50.8671 39.7128C49.6179 39.651 48.3642 39.6937 47.1119 39.6951C46.825 39.6951 46.515 39.7348 46.5748 39.3057C46.6209 38.9824 46.3815 38.5239 47.0045 38.4681C47.1825 38.4519 47.3575 38.3961 47.5339 38.3916C48.0281 38.3755 48.1601 38.1374 48.1539 37.6819C48.1309 35.8464 48.1017 34.011 48.1647 32.177C48.1907 31.4202 48.0051 31.0263 47.1672 31.0308C46.8081 31.0337 46.5625 30.9294 46.5533 30.4767C46.5411 29.9506 46.6623 29.7199 47.2685 29.7758C47.8762 29.8316 48.4992 29.8346 49.1054 29.7758C49.756 29.7126 49.9862 29.9462 49.9294 30.5414C49.9141 30.6972 49.8788 30.8838 50.0998 31.0807L50.1028 31.0778Z" fill="#003049" style="fill:#003049;fill:color(display-p3 0.0000 0.1882 0.2863);fill-opacity:1;"/>
<path d="M103.634 31.1101C104.644 29.9506 105.839 29.4657 107.342 29.6905C108.881 29.9212 109.821 30.7736 110.059 32.249C110.332 33.9522 110.197 35.6686 110.182 37.3777C110.176 38.0713 110.322 38.4489 111.106 38.421C111.689 38.4005 111.796 38.7164 111.776 39.2146C111.76 39.6187 111.605 39.701 111.226 39.6966C109.897 39.6804 108.568 39.6892 107.239 39.6922C106.95 39.6922 106.636 39.7289 106.697 39.3042C106.742 38.9853 106.499 38.5812 107.111 38.4534C108.258 38.2138 108.252 38.18 108.25 37.0264C108.248 35.7303 108.261 34.4327 108.238 33.1366C108.216 31.9683 107.713 31.3232 106.729 31.1336C105.521 30.8999 104.145 31.476 103.708 32.3901C103.605 32.6046 103.629 32.8206 103.629 33.0381C103.626 34.5547 103.66 36.0727 103.612 37.5878C103.594 38.1624 103.807 38.349 104.363 38.4093C104.662 38.4416 105.138 38.324 105.184 38.8442C105.231 39.3689 105.228 39.7656 104.421 39.7127C103.201 39.6319 101.969 39.6892 100.743 39.6981C100.413 39.701 100.118 39.7157 100.157 39.2631C100.186 38.9148 100.032 38.4534 100.631 38.4607C101.608 38.471 101.748 37.9743 101.716 37.1602C101.65 35.4996 101.654 33.8317 101.716 32.1711C101.743 31.4187 101.565 31.0102 100.714 31.0307C100.373 31.0396 100.166 30.9132 100.144 30.512C100.115 29.9683 100.238 29.6817 100.882 29.7758C101.208 29.8228 101.545 29.7846 101.878 29.7846C102.824 29.7846 103.408 30.2269 103.632 31.1116L103.634 31.1101Z" fill="#003049" style="fill:#003049;fill:color(display-p3 0.0000 0.1882 0.2863);fill-opacity:1;"/>
<path d="M96.0761 38.4754C95.0786 39.3792 94.0213 39.9391 92.6647 39.848C90.972 39.7348 89.9515 38.909 89.7919 37.4541C89.6155 35.8303 90.4165 34.7369 92.0984 34.3152C93.1972 34.0404 94.3221 34.0228 95.4454 34.0566C95.9687 34.0713 96.1513 33.9331 96.1467 33.4056C96.139 32.5415 96.1267 31.6803 95.1722 31.2747C94.1594 30.8442 93.1281 30.9353 92.1568 31.4672C91.9496 31.5804 91.8406 31.7494 91.7792 31.9845C91.615 32.6076 91.0104 32.8912 90.3828 32.6708C90.3152 32.6473 90.2385 32.6135 90.1986 32.5606C89.9301 32.2167 90.2186 30.7237 90.6191 30.5106C92.2995 29.6171 94.0689 29.3114 95.9257 29.9154C97.3068 30.3636 98.0557 31.4731 98.0741 33.0573C98.0941 34.6473 98.0818 36.2388 98.0757 37.8289C98.0757 38.1668 98.0757 38.424 98.5606 38.4784C99.1223 38.5416 98.8061 39.0177 98.8644 39.3087C98.935 39.6599 98.6818 39.704 98.3933 39.6907C98.1892 39.6819 97.9851 39.6893 97.7795 39.6893C96.9027 39.6893 96.3344 39.2842 96.0746 38.474L96.0761 38.4754ZM94.7226 35.288C93.7988 35.2866 92.8734 35.266 92.1368 35.9478C91.6887 36.3623 91.5491 36.8575 91.7056 37.4218C91.8636 37.9905 92.2995 38.233 92.8872 38.3035C93.9415 38.4299 94.8607 38.1213 95.6602 37.4982C96.3385 36.9706 96.2388 36.1756 96.0761 35.5231C95.9518 35.0235 95.2842 35.3865 94.8745 35.2895C94.8269 35.2777 94.7732 35.288 94.721 35.2895L94.7226 35.288Z" fill="#003049" style="fill:#003049;fill:color(display-p3 0.0000 0.1882 0.2863);fill-opacity:1;"/>
<path d="M76.8507 38.3182C76.3612 38.8502 75.9315 39.3704 75.2164 39.6055C72.6767 40.4402 70.5497 39.1235 70.3272 36.565C70.1922 35 70.2474 33.4349 70.2597 31.8713C70.2643 31.357 70.1231 31.0748 69.5722 31.0499C68.9077 31.0175 69.1103 30.5399 69.0826 30.1828C69.0443 29.6935 69.4233 29.7905 69.7088 29.7949C70.4975 29.8037 71.5211 29.548 72.0076 29.9242C72.5201 30.3195 72.1534 31.3423 72.1687 32.0888C72.1963 33.4584 72.1518 34.8295 72.1963 36.1991C72.224 37.0691 72.3498 37.9802 73.4117 38.2712C74.4737 38.5636 75.4896 38.4019 76.3182 37.6275C76.6789 37.291 76.8553 36.8913 76.8461 36.3828C76.8201 34.9147 76.8001 33.4452 76.8553 31.9786C76.8784 31.357 76.6896 31.069 76.0435 31.0499C75.643 31.0381 75.396 30.9176 75.3975 30.4385C75.4006 29.9507 75.5034 29.7302 76.0696 29.7728C76.705 29.8213 77.3495 29.8213 77.9848 29.7758C78.5726 29.7332 78.769 29.8889 78.7582 30.49C78.7199 32.8633 78.7582 35.2366 78.7291 37.6099C78.7229 38.1271 78.8657 38.3931 79.415 38.424C80.1087 38.4637 79.9184 38.9662 79.9245 39.3527C79.9337 39.8627 79.5163 39.6628 79.2554 39.6907C79.0283 39.7157 78.7966 39.6951 78.5664 39.6951C77.5822 39.6932 77.0088 39.2342 76.8461 38.3182H76.8507Z" fill="#003049" style="fill:#003049;fill:color(display-p3 0.0000 0.1882 0.2863);fill-opacity:1;"/>
<path d="M128.988 35.1602C128.017 35.1602 127.047 35.1749 126.076 35.1528C125.701 35.144 125.62 35.2425 125.643 35.6069C125.813 38.2036 128.416 39.3307 130.838 37.845C131.069 37.7025 131.319 37.2719 131.579 37.823C131.761 38.2109 132.363 38.5666 131.616 39.0104C129.957 39.9979 128.183 40.1816 126.415 39.4777C124.679 38.787 123.897 37.3483 123.709 35.5981C123.515 33.77 123.832 32.1094 125.279 30.7516C126.587 29.526 128.106 29.3732 129.743 29.8669C131.312 30.3401 132.024 31.5348 132.266 32.9911C132.627 35.1558 132.596 35.1602 130.368 35.1602C129.908 35.1602 129.449 35.1602 128.988 35.1602ZM128.065 33.7142C128.728 33.7142 129.391 33.7156 130.053 33.7142C130.254 33.7142 130.471 33.7391 130.468 33.4335C130.452 31.9992 129.277 30.5855 127.485 31.1586C126.416 31.4996 126.011 32.3681 125.74 33.3159C125.638 33.6671 125.849 33.7244 126.153 33.72C126.789 33.7098 127.428 33.7171 128.065 33.7156V33.7142Z" fill="#003049" style="fill:#003049;fill:color(display-p3 0.0000 0.1882 0.2863);fill-opacity:1;"/>
<path d="M63.6164 39.8554C62.4317 39.8877 61.4082 39.6364 60.4183 39.1985C59.9718 39.0001 59.7247 38.7414 59.8045 38.2418C59.8429 38.0023 59.8107 37.7539 59.8107 37.5085C59.8107 36.5357 59.826 36.5533 60.8266 36.5886C61.3115 36.6062 61.3821 36.9001 61.4036 37.2043C61.4573 37.9758 61.979 38.2433 62.6604 38.3417C63.42 38.4519 64.1812 38.5078 64.9193 38.2036C65.4042 38.0023 65.7142 37.6848 65.7664 37.1676C65.8216 36.6224 65.5776 36.2315 65.0942 35.9508C64.4712 35.5878 63.7638 35.4659 63.0793 35.2792C62.2691 35.0588 61.4542 34.8575 60.7544 34.3725C59.5221 33.5187 59.3503 31.9434 60.3754 30.8515C60.9033 30.2887 61.5539 29.9228 62.3166 29.7405C63.5167 29.454 64.7091 29.548 65.8646 29.9272C67.1782 30.3578 67.3025 30.562 67.3624 31.939C67.4053 32.9294 67.4053 32.9059 66.4355 32.9059C66.0472 32.9059 65.8661 32.7913 65.8447 32.4298C65.7925 31.5863 65.1526 31.2512 64.4374 31.1131C63.5827 30.9485 62.6911 30.8971 61.9913 31.5731C61.3652 32.177 61.511 33.0441 62.2936 33.4908C62.9213 33.8494 63.641 33.9331 64.3285 34.1095C65.0467 34.2917 65.7449 34.5107 66.3833 34.8854C68.1527 35.9243 68.1097 38.1889 66.3081 39.1985C65.4426 39.6834 64.5203 39.898 63.6149 39.8539L63.6164 39.8554Z" fill="#003049" style="fill:#003049;fill:color(display-p3 0.0000 0.1882 0.2863);fill-opacity:1;"/>
<path d="M114.965 34.8045C114.935 35.3761 115.008 35.983 115.183 36.5753C115.542 37.7847 116.297 38.371 117.531 38.4239C118.793 38.4783 119.509 37.9816 120.062 36.8266C120.352 36.2196 121.002 36.5797 121.474 36.5708C121.988 36.562 121.765 37.0396 121.704 37.2498C121.381 38.371 120.537 39.0779 119.462 39.4996C116.627 40.6135 113.877 39.2572 113.222 36.3886C112.742 34.2887 112.937 32.2769 114.626 30.6545C116.205 29.1379 119.971 29.3069 121.432 30.9264C121.606 31.1189 121.827 32.9734 121.658 33.1307C121.345 33.4246 120.93 33.2233 120.565 33.2688C120.356 33.2953 120.149 33.2747 120.091 33.016C120.069 32.9205 120.049 32.8235 120.023 32.7295C119.687 31.5054 119.255 31.1233 118.11 31.041C116.721 30.9411 115.797 31.4319 115.332 32.5267C115.028 33.2409 114.948 33.9918 114.965 34.8015V34.8045Z" fill="#003049" style="fill:#003049;fill:color(display-p3 0.0000 0.1882 0.2863);fill-opacity:1;"/>
<path d="M42.8304 39.6907C42.1659 39.6907 41.503 39.6907 40.8385 39.6907C40.5807 39.6907 40.2738 39.7274 40.3306 39.3468C40.3751 39.0499 40.1065 38.662 40.6298 38.4798C41.0334 38.3387 41.658 38.59 41.8191 38.0463C41.9404 37.6377 41.8529 37.1734 41.8529 36.7325C41.8529 33.9947 41.836 31.2555 41.8682 28.5178C41.8744 27.9344 41.7102 27.6581 41.084 27.6464C40.6237 27.6375 40.2554 27.5435 40.3029 26.9292C40.3367 26.4869 40.4503 26.3429 40.9229 26.3532C42.2243 26.3826 43.5271 26.3679 44.83 26.3605C45.1369 26.359 45.4193 26.362 45.3625 26.7646C45.318 27.085 45.5405 27.4921 44.9343 27.6155C43.7849 27.8506 43.7926 27.8815 43.7926 29.0292C43.7926 31.8404 43.8156 34.6516 43.7757 37.4628C43.7665 38.1065 43.943 38.3989 44.6274 38.418C45.0233 38.4298 45.4377 38.4386 45.3824 39.0617C45.3395 39.5584 45.2014 39.7377 44.6688 39.698C44.0596 39.651 43.4442 39.6877 42.8319 39.6877L42.8304 39.6907Z" fill="#003049" style="fill:#003049;fill:color(display-p3 0.0000 0.1882 0.2863);fill-opacity:1;"/>
<path d="M84.9135 31.1336C85.644 30.1666 86.422 29.5509 87.599 29.6053C88.0747 29.6273 88.4216 29.7022 88.1883 30.2783C88.1438 30.39 88.13 30.5193 88.1346 30.6398C88.1545 31.1924 87.9305 31.4481 87.3167 31.3467C87.045 31.3026 86.7519 31.3202 86.4788 31.3643C85.5335 31.5186 84.915 32.2343 84.9135 33.1498C84.9104 34.5914 84.9534 36.0359 84.8951 37.4761C84.8675 38.1359 85.0854 38.4107 85.7575 38.4166C86.2378 38.421 86.5616 38.5474 86.5049 39.1469C86.4619 39.5981 86.3222 39.7127 85.8649 39.7024C84.5636 39.673 83.2607 39.6921 81.9594 39.6907C81.6847 39.6907 81.3517 39.7568 81.4069 39.3189C81.4484 38.9985 81.1982 38.54 81.8167 38.4695C81.9686 38.4519 82.119 38.4048 82.2694 38.4004C82.8065 38.3887 82.9999 38.1668 82.9876 37.626C82.9507 35.7935 82.9216 33.958 82.9968 32.127C83.029 31.3202 82.7252 31.0336 81.9563 31.0248C81.6187 31.0204 81.4023 30.9308 81.3901 30.5164C81.3732 29.9785 81.4806 29.7067 82.1297 29.7698C82.7359 29.8286 83.3574 29.8183 83.9651 29.7728C84.5437 29.7287 84.8214 29.8948 84.7754 30.4796C84.7631 30.6413 84.8414 30.8088 84.9135 31.1336Z" fill="#003049" style="fill:#003049;fill:color(display-p3 0.0000 0.1882 0.2863);fill-opacity:1;"/>
<path d="M130.301 4.37926C130.296 2.75689 131.504 1.52983 133.112 1.52248C134.685 1.5166 135.988 2.78481 136 4.33664C136.012 5.9208 134.697 7.24632 133.113 7.24485C131.519 7.24485 130.304 6.00603 130.301 4.37926ZM133.127 1.9942C131.826 1.98538 130.807 2.99348 130.789 4.30578C130.77 5.68861 131.803 6.7746 133.132 6.76725C134.422 6.7599 135.515 5.66069 135.507 4.37779C135.5 3.08166 134.421 2.00155 133.127 1.9942Z" fill="#003049" style="fill:#003049;fill:color(display-p3 0.0000 0.1882 0.2863);fill-opacity:1;"/>
<path d="M131.95 4.34101C131.95 4.17055 131.932 3.99714 131.955 3.82962C132.005 3.45782 131.746 2.86707 132.113 2.75686C132.691 2.58345 133.38 2.58933 133.961 2.93467C134.209 3.08309 134.458 3.36377 134.33 3.5989C133.962 4.27782 134.383 4.89797 134.387 5.54309C134.389 5.73413 134.475 5.94574 134.14 5.95309C133.875 5.95897 133.776 5.82524 133.761 5.59893C133.75 5.42847 133.756 5.25653 133.733 5.08754C133.67 4.63051 133.284 4.70546 132.966 4.67901C132.601 4.64962 132.555 4.87592 132.564 5.14926C132.57 5.31972 132.559 5.49019 132.558 5.66066C132.556 5.87962 132.427 5.9575 132.214 5.94721C132.019 5.9384 131.953 5.82377 131.953 5.65772C131.953 5.21833 131.953 4.77894 131.953 4.34101C131.953 4.34101 131.95 4.34101 131.949 4.34101H131.95ZM133.008 4.1632C133.321 4.11324 133.717 4.14116 133.729 3.69295C133.743 3.1742 133.29 3.2565 132.958 3.20066C132.526 3.13012 132.536 3.39757 132.533 3.69001C132.532 4.0089 132.596 4.22933 133.006 4.16173L133.008 4.1632Z" fill="#003049" style="fill:#003049;fill:color(display-p3 0.0000 0.1882 0.2863);fill-opacity:1;"/>
<path d="M25.481 7.54199L16.9292 15.7313L8.37737 7.54199L15.7746 0.458329C16.4116 -0.151633 17.4468 -0.151633 18.0838 0.458329L25.481 7.54199Z" fill="#003049" style="fill:#003049;fill:color(display-p3 0.0000 0.1882 0.2863);fill-opacity:1;"/>
<path d="M16.5188 33.4597L9.12152 40.5433C8.48456 41.1533 7.44936 41.1533 6.81239 40.5433L0.570785 34.5663C-0.0661797 33.9564 -0.0661777 32.965 0.570787 32.3551L7.96804 25.2714L16.5199 33.4607L16.5188 33.4597Z" fill="#003049" style="fill:#003049;fill:color(display-p3 0.0000 0.1882 0.2863);fill-opacity:1;"/>
<path d="M33.1246 34.4117L26.883 40.3887C26.246 40.9987 25.2108 40.9987 24.5738 40.3887L0.479835 17.3162C-0.157129 16.7062 -0.157132 15.7149 0.479833 15.1049L7.87709 8.02125L33.1256 32.1994C33.7626 32.8094 33.7626 33.8007 33.1256 34.4107L33.1246 34.4117Z" fill="#003049" style="fill:#003049;fill:color(display-p3 0.0000 0.1882 0.2863);fill-opacity:1;"/>
<path d="M33.3783 17.3163L25.9811 24.4L17.4292 16.2107L25.9811 8.02141L33.3783 15.1051C34.0153 15.715 34.0153 16.7064 33.3783 17.3163Z" fill="#003049" style="fill:#003049;fill:color(display-p3 0.0000 0.1882 0.2863);fill-opacity:1;"/>
</g>
<defs>
<clipPath id="clip0_6712_8611">
<rect width="136" height="41" fill="white" style="fill:white;fill-opacity:1;"/>
</clipPath>
</defs>
</svg>
