<svg width="153" height="31" viewBox="0 0 153 31" fill="none" xmlns="http://www.w3.org/2000/svg">
<g clip-path="url(#clip0_6712_14352)">
<path d="M103.632 8.80021C103.251 9.88752 102.888 10.9744 102.507 12.0551C102.278 12.7029 102.102 13.3725 101.829 14C101.54 14.6634 100.977 15.0276 100.269 15.1979C99.8812 15.2913 99.4933 15.2776 99.1155 15.2422C98.7027 15.2037 98.3135 15.0422 97.9538 14.7992C97.4991 14.4917 97.2964 14.0443 97.1283 13.5583C96.9797 13.13 96.816 12.7074 96.6665 12.279C96.4847 11.7572 96.3104 11.2324 96.1343 10.7089C95.926 10.0884 95.719 9.46712 95.4708 8.84934V9.07813C95.4708 11.0173 95.4686 12.9561 95.4748 14.8948C95.4752 15.0714 95.4429 15.1298 95.2509 15.1289C93.8062 15.1196 92.3614 15.1205 90.917 15.1285C90.7299 15.1293 90.6897 15.0749 90.6897 14.8944C90.695 11.2005 90.6826 7.50713 90.7034 3.81373C90.7074 3.09063 90.9657 2.41001 91.3758 1.80507C91.785 1.20101 92.3534 0.792549 93.0356 0.548712C93.5806 0.353997 94.1592 0.333641 94.7166 0.408429C95.7026 0.540747 96.5422 1.00054 97.196 1.76214C97.5831 2.21264 97.8286 2.74457 97.987 3.31323C98.1436 3.87569 98.3825 4.40894 98.5497 4.96742C98.7346 5.5852 98.9505 6.19324 99.1239 6.81545C99.2433 7.24338 99.3964 7.66202 99.5441 8.11473C99.6972 7.90939 99.7193 7.68547 99.7684 7.48854C99.8321 7.23231 99.9316 6.98892 99.9945 6.73314C100.136 6.15474 100.374 5.60556 100.524 5.02716C100.65 4.53418 100.848 4.0589 101.015 3.57609C101.148 3.19418 101.237 2.79944 101.421 2.43347C101.902 1.47715 102.695 0.892119 103.672 0.540747C104.251 0.332755 104.873 0.330985 105.466 0.411084C106.334 0.528356 107.072 0.955402 107.624 1.64753C107.946 2.05112 108.151 2.51843 108.284 3.02514C108.405 3.49113 108.408 3.95756 108.408 4.42886C108.408 7.90851 108.405 11.3886 108.414 14.8683C108.414 15.0895 108.35 15.1298 108.144 15.1285C106.707 15.1192 105.269 15.1205 103.832 15.1276C103.664 15.1285 103.627 15.0824 103.628 14.9196C103.633 12.9587 103.632 10.9974 103.632 9.03653V8.80021H103.632Z" fill="#003049" style="fill:#003049;fill:color(display-p3 0.0000 0.1882 0.2863);fill-opacity:1;"/>
<path d="M117.465 15.4551C117.354 15.4551 117.244 15.4551 117.133 15.4551C116.518 15.4582 115.922 15.3476 115.325 15.1998C114.607 15.0214 113.926 14.7617 113.283 14.4006C112.82 14.1408 112.379 13.8514 111.978 13.496C111.771 13.3128 111.55 13.1433 111.368 12.9362C110.984 12.499 110.634 12.0379 110.323 11.5413C110.054 11.1125 109.871 10.6487 109.697 10.1867C109.588 9.896 109.525 9.5725 109.458 9.2583C109.332 8.65867 109.333 8.05903 109.34 7.45586C109.347 6.81241 109.491 6.19242 109.692 5.58482C109.938 4.84623 110.294 4.15499 110.758 3.53898C111.163 3.00042 111.646 2.52204 112.176 2.09013C112.711 1.65423 113.299 1.32056 113.916 1.02981C114.393 0.805004 114.891 0.637726 115.408 0.525322C115.866 0.425752 116.325 0.363355 116.791 0.312463C117.134 0.27529 117.481 0.235462 117.814 0.276175C118.253 0.329722 118.698 0.340343 119.137 0.443454C119.574 0.546564 120.01 0.643479 120.434 0.793499C120.989 0.990426 121.513 1.25329 122.013 1.56262C122.679 1.97418 123.258 2.49062 123.78 3.06813C124.05 3.36595 124.289 3.69166 124.494 4.03993C124.72 4.42273 124.924 4.81393 125.091 5.22858C125.263 5.6543 125.363 6.09374 125.467 6.5376C125.602 7.11378 125.607 7.69306 125.587 8.27366C125.564 8.91224 125.453 9.53931 125.232 10.1434C125.102 10.497 124.993 10.859 124.802 11.1869C124.495 11.713 124.173 12.2224 123.769 12.6888C123.486 13.0172 123.175 13.3066 122.849 13.5783C122.232 14.0926 121.55 14.5001 120.798 14.8046C120.288 15.0108 119.764 15.1573 119.241 15.3104C119.094 15.3533 118.93 15.3498 118.774 15.3848C118.343 15.4821 117.903 15.4542 117.466 15.4551H117.465ZM117.847 5.03741C115.78 5.04936 114.641 6.35882 114.589 7.88335C114.567 8.52237 114.8 9.11714 115.215 9.62339C115.797 10.3323 116.566 10.7156 117.461 10.7271C118.138 10.7355 118.776 10.4793 119.31 10.027C119.98 9.45877 120.33 8.71443 120.336 7.85812C120.341 7.08236 120.014 6.38625 119.452 5.84592C118.908 5.32328 118.241 5.04139 117.847 5.03829V5.03741Z" fill="#003049" style="fill:#003049;fill:color(display-p3 0.0000 0.1882 0.2863);fill-opacity:1;"/>
<path d="M56.8493 15.4524C56.5007 15.5201 56.0924 15.4356 55.6938 15.3763C54.9573 15.2666 54.2424 15.059 53.5466 14.7736C52.9525 14.5302 52.4247 14.1828 51.8992 13.8332C51.5586 13.6066 51.2374 13.3318 50.9627 13.0287C50.5102 12.5299 50.093 12.0024 49.7519 11.4112C49.4392 10.8691 49.2344 10.2889 49.049 9.70301C48.9539 9.40253 48.9287 9.07063 48.8814 8.75156C48.8172 8.31832 48.834 7.88995 48.8385 7.46157C48.8438 6.96726 48.961 6.48623 49.0764 6.00386C49.218 5.41175 49.4609 4.86788 49.7555 4.34436C49.9842 3.93811 50.2385 3.5447 50.5663 3.20837C50.7548 3.01543 50.8853 2.77292 51.0994 2.60343C51.5727 2.22904 52.0288 1.83651 52.5468 1.51612C53.2033 1.11031 53.912 0.833288 54.6406 0.616446C55.0471 0.495191 55.4758 0.428369 55.9062 0.381902C56.2415 0.345615 56.5733 0.338977 56.9077 0.329241C57.6341 0.307999 58.3414 0.413765 59.0492 0.583256C59.734 0.746994 60.3843 0.984635 60.9987 1.31565C61.4256 1.54577 61.8295 1.81483 62.213 2.12018C62.6165 2.44146 62.9655 2.81452 63.3168 3.18447C63.5764 3.45752 63.8029 3.76685 63.9861 4.10362C64.125 4.35896 64.2931 4.59749 64.4147 4.86389C64.6253 5.32502 64.7898 5.79764 64.8934 6.29726C65.015 6.88672 65.1198 7.47795 65.0796 8.07891C65.05 8.52056 64.9969 8.95955 64.9031 9.39855C64.7522 10.1044 64.4926 10.7589 64.1581 11.3895C63.9737 11.7378 63.7379 12.0515 63.5039 12.3688C63.2318 12.737 62.8947 13.0393 62.5696 13.3522C62.1608 13.7456 61.699 14.0713 61.1974 14.3434C60.7161 14.6045 60.2312 14.8599 59.7083 15.0183C59.3841 15.1165 59.0541 15.2033 58.7174 15.2705C58.1185 15.39 57.5217 15.4661 56.8498 15.4529L56.8493 15.4524ZM56.9117 10.7447C58.5847 10.8195 59.7623 9.3689 59.8464 8.15414C59.9835 6.17291 58.4299 4.98648 57.0064 4.98825C55.2617 4.99046 54.0558 6.26319 54.0239 7.88419C53.9951 9.345 55.2829 10.7647 56.9112 10.7447H56.9117Z" fill="#003049" style="fill:#003049;fill:color(display-p3 0.0000 0.1882 0.2863);fill-opacity:1;"/>
<path d="M71.1232 10.6421V12.21C71.1232 13.1167 71.1197 14.0235 71.1268 14.9303C71.1281 15.0847 71.0852 15.1276 70.9304 15.1272C69.3754 15.1219 67.8201 15.1223 66.2651 15.1263C66.1285 15.1263 66.0771 15.1002 66.0776 14.948C66.082 10.9306 66.078 6.91285 66.086 2.89552C66.0869 2.53353 66.2457 2.1972 66.4266 1.88964C66.7053 1.41613 67.0955 1.04926 67.6073 0.832865C67.8502 0.730197 68.0983 0.648771 68.3757 0.657179C70.154 0.710726 71.9306 0.548315 73.7089 0.596994C74.7365 0.625316 75.7367 0.790824 76.6334 1.3316C77.0536 1.58517 77.4115 1.91088 77.726 2.30297C78.091 2.75789 78.2817 3.2792 78.4736 3.80847C78.5174 3.92884 78.5245 4.06558 78.5396 4.18728C78.5856 4.56078 78.682 4.94003 78.6152 5.31663C78.5183 5.86271 78.4834 6.41677 78.3038 6.95401C78.1467 7.42398 77.903 7.80942 77.588 8.18469C77.208 8.63696 76.7378 8.94408 76.2335 9.21846C76.0189 9.33484 75.9729 9.43663 76.095 9.65391C76.3883 10.1757 76.6874 10.6943 76.9966 11.2068C77.3752 11.8347 77.7375 12.4724 78.1374 13.0875C78.3622 13.4332 78.5497 13.8031 78.7479 14.1651C78.8881 14.4213 79.0063 14.6904 79.1567 14.94C79.2673 15.1232 79.1814 15.1254 79.0346 15.1254C77.7597 15.1232 76.4848 15.1241 75.2094 15.1241C74.7082 15.1241 74.207 15.121 73.7058 15.1267C73.593 15.1281 73.5328 15.0997 73.4727 14.9935C72.8808 13.9438 72.3331 12.8716 71.7757 11.8037C71.5727 11.4148 71.3847 11.0151 71.1228 10.6425L71.1232 10.6421ZM71.1551 8.21656C71.2648 8.04972 71.3803 7.89838 71.4913 7.74659C71.7611 7.3784 72.077 7.08234 72.4919 6.88143C72.8476 6.70928 73.1683 6.50041 73.3506 6.10744C73.5987 5.5733 73.2634 4.88073 72.8578 4.67849C72.3787 4.43952 71.8779 4.51343 71.3829 4.52183C71.236 4.52449 71.1135 4.6338 71.1162 4.8502C71.1303 5.90299 71.1224 6.95622 71.1237 8.00945C71.1237 8.07185 71.1042 8.13867 71.1542 8.21656H71.1551Z" fill="#003049" style="fill:#003049;fill:color(display-p3 0.0000 0.1882 0.2863);fill-opacity:1;"/>
<path d="M126.349 10.161C126.761 10.3894 127.199 10.5664 127.627 10.7611C128.12 10.9846 128.621 11.178 129.157 11.2846C129.477 11.3484 129.79 11.4041 130.118 11.4139C130.592 11.428 131.008 11.3037 131.38 11.0089C131.613 10.8249 131.662 10.3859 131.448 10.1394C131.232 9.8911 130.949 9.74595 130.648 9.60921C130.05 9.33705 129.385 9.32864 128.782 9.08746C128.395 8.93301 128.03 8.73786 127.691 8.49845C127.086 8.07096 126.634 7.5169 126.358 6.82921C126.222 6.49111 126.117 6.13974 126.121 5.76756C126.124 5.51311 126.041 5.26971 126.05 5.01039C126.076 4.29304 126.193 3.59295 126.483 2.93932C126.614 2.64415 126.811 2.372 127.018 2.10957C127.479 1.52587 128.083 1.15901 128.74 0.853659C129.143 0.666467 129.571 0.569551 129.999 0.458918C131.024 0.194282 132.069 0.250041 133.108 0.277479C133.486 0.287214 133.872 0.365543 134.253 0.440774C134.674 0.52397 135.095 0.606282 135.502 0.734617C135.841 0.841268 136.179 0.96385 136.496 1.13201C136.557 1.16388 136.537 1.22141 136.537 1.2692C136.538 2.54458 136.538 3.82041 136.538 5.0958C136.538 5.1458 136.552 5.20555 136.494 5.23298C136.458 5.2498 136.428 5.22148 136.397 5.19935C136.025 4.9356 135.595 4.79797 135.173 4.64043C134.826 4.51077 134.466 4.43022 134.112 4.32402C133.969 4.28109 133.816 4.29083 133.666 4.25454C133.209 4.14479 132.733 4.14258 132.271 4.18904C131.831 4.2333 131.497 4.51652 131.386 4.9387C131.348 5.08208 131.435 5.24537 131.571 5.34716C131.768 5.49496 132.001 5.58214 132.233 5.63038C133.117 5.81536 133.974 6.07203 134.771 6.5066C135.673 6.99825 136.382 7.6771 136.777 8.6405C136.904 8.94939 136.956 9.28395 137.014 9.61629C137.065 9.90836 137.08 10.1965 137.065 10.485C137.017 11.3448 136.821 12.1688 136.382 12.9189C136.084 13.4292 135.692 13.8536 135.228 14.2275C134.754 14.609 134.215 14.8519 133.655 15.0311C133.294 15.1466 132.912 15.2236 132.524 15.2701C131.836 15.3533 131.147 15.4254 130.458 15.3807C129.924 15.3462 129.384 15.3316 128.858 15.2449C128.229 15.1413 127.62 14.9448 127.029 14.6886C126.836 14.6054 126.654 14.4775 126.434 14.4505C126.359 14.4417 126.321 14.3665 126.321 14.2824C126.325 12.9189 126.328 11.555 126.332 10.1916C126.332 10.1858 126.338 10.1796 126.349 10.1606V10.161Z" fill="#003049" style="fill:#003049;fill:color(display-p3 0.0000 0.1882 0.2863);fill-opacity:1;"/>
<path d="M79.6818 7.95505C79.6818 6.34776 79.6521 4.73915 79.6946 3.13275C79.7149 2.36185 80.0339 1.69097 80.7209 1.24091C81.115 0.982469 81.5255 0.799702 81.9949 0.718718C82.439 0.64216 82.8805 0.592153 83.3309 0.593038C85.3065 0.596579 87.2821 0.597021 89.2582 0.590826C89.4395 0.590383 89.509 0.61605 89.5068 0.824927C89.4944 1.95295 89.4948 3.08141 89.5068 4.20943C89.509 4.41344 89.4471 4.44796 89.2599 4.44707C87.8443 4.43911 86.4292 4.44707 85.0136 4.43822C84.8256 4.4369 84.7778 4.48867 84.7867 4.67011C84.8022 4.99405 84.7995 5.31931 84.7871 5.64324C84.7814 5.79769 84.8243 5.84017 84.9809 5.83929C86.2784 5.83265 87.5758 5.83929 88.8733 5.83132C89.0547 5.82999 89.1082 5.87292 89.1069 6.05923C89.098 7.2169 89.0989 8.37457 89.1064 9.53224C89.1073 9.70129 89.0697 9.75572 88.8906 9.75439C87.5931 9.74598 86.2956 9.75262 84.9981 9.74643C84.8415 9.74554 84.7787 9.77209 84.7862 9.94734C84.8017 10.3005 84.8008 10.6554 84.7862 11.009C84.7792 11.182 84.8393 11.2134 84.999 11.213C86.3996 11.2068 87.8005 11.2143 89.2011 11.2041C89.4033 11.2028 89.4409 11.2626 89.4395 11.4506C89.4307 12.6008 89.432 13.7514 89.4382 14.9015C89.4391 15.0639 89.413 15.129 89.2259 15.1281C86.8225 15.121 84.4191 15.1383 82.0161 15.1117C81.4879 15.106 80.9801 14.9028 80.5802 14.5231C80.3396 14.2948 80.0878 14.0753 79.9379 13.7629C79.7738 13.4203 79.6853 13.0632 79.684 12.6884C79.6791 11.1103 79.6822 9.53224 79.6822 7.9546L79.6818 7.95505Z" fill="#003049" style="fill:#003049;fill:color(display-p3 0.0000 0.1882 0.2863);fill-opacity:1;"/>
<path d="M38.283 8.85202C38.283 6.84645 38.2764 4.84133 38.2884 2.83576C38.291 2.41978 38.4861 2.05557 38.7214 1.71216C38.9917 1.31742 39.3629 1.0581 39.78 0.852318C40.0118 0.737701 40.2609 0.676189 40.5206 0.6607C42.9903 0.510238 45.4627 0.638131 47.9333 0.59255C48.0727 0.589894 48.1054 0.633705 48.105 0.766908C48.1001 1.97591 48.0983 3.18536 48.1063 4.39437C48.1076 4.5674 48.0355 4.5789 47.8971 4.57846C46.4523 4.57448 45.0075 4.58023 43.5627 4.57094C43.3659 4.56961 43.3132 4.61962 43.3203 4.81433C43.3362 5.24138 43.3331 5.66975 43.3212 6.0968C43.3163 6.26496 43.3672 6.30523 43.5318 6.30435C44.8881 6.29771 46.2444 6.30479 47.6007 6.29549C47.7958 6.29417 47.8431 6.34152 47.8418 6.53668C47.8316 7.71603 47.8334 8.89583 47.8404 10.0756C47.8413 10.2402 47.8011 10.2858 47.633 10.2849C46.2913 10.2774 44.95 10.2841 43.6083 10.277C43.4384 10.2761 43.3871 10.315 43.388 10.4929C43.3955 11.9599 43.3889 13.4274 43.3968 14.8944C43.3977 15.0749 43.3557 15.1289 43.169 15.128C41.6136 15.1205 40.0583 15.1201 38.5029 15.128C38.3109 15.1289 38.2782 15.0665 38.2791 14.8904C38.2853 12.8778 38.283 10.8647 38.283 8.85202Z" fill="#003049" style="fill:#003049;fill:color(display-p3 0.0000 0.1882 0.2863);fill-opacity:1;"/>
<path d="M143.306 0.595219C145.134 0.595219 146.962 0.597432 148.79 0.591679C148.956 0.591237 149.02 0.624427 149.015 0.806308C149.001 1.24088 149.053 1.6812 149.001 2.11002C148.889 3.05571 148.974 4.00141 148.948 4.94622C148.944 5.09668 148.881 5.10863 148.761 5.10819C147.861 5.10465 146.962 5.11261 146.063 5.10155C145.869 5.09934 145.821 5.14669 145.821 5.34273C145.828 8.52013 145.824 11.6975 145.831 14.8749C145.831 15.0772 145.781 15.1298 145.578 15.1285C144.06 15.1196 142.541 15.1201 141.023 15.1285C140.835 15.1294 140.778 15.0927 140.779 14.8913C140.786 11.7139 140.782 8.5365 140.788 5.35911C140.788 5.16306 140.747 5.09889 140.538 5.10155C139.624 5.11438 138.71 5.10376 137.796 5.1104C137.645 5.11129 137.595 5.07456 137.596 4.91613C137.602 3.53763 137.602 2.15869 137.595 0.780199C137.594 0.612921 137.657 0.592564 137.8 0.593007C139.636 0.597432 141.471 0.595662 143.306 0.595662L143.306 0.595219Z" fill="#003049" style="fill:#003049;fill:color(display-p3 0.0000 0.1882 0.2863);fill-opacity:1;"/>
<path d="M113.969 30.1012C113.738 30.326 113.527 30.5074 113.292 30.6654C113.025 30.8451 112.729 30.942 112.435 30.9641C112.077 30.9911 111.713 30.9986 111.345 30.9318C110.927 30.8561 110.572 30.6844 110.23 30.4574C109.909 30.2454 109.654 29.972 109.469 29.6383C109.214 29.1781 109.046 28.6952 108.988 28.1602C108.958 27.8766 108.921 27.592 108.948 27.315C108.99 26.8627 109.059 26.4158 109.24 25.983C109.427 25.5325 109.673 25.1368 110.031 24.8164C110.372 24.512 110.775 24.3173 111.223 24.2093C111.591 24.1208 111.96 24.0504 112.338 24.0823C113.166 24.1522 113.941 24.3664 114.5 25.0364C114.772 25.3625 114.949 25.748 115.041 26.167C115.066 26.2803 115.028 26.3414 114.892 26.3383C114.501 26.3303 114.11 26.3339 113.719 26.3365C113.635 26.337 113.607 26.3162 113.576 26.2232C113.411 25.7311 113.045 25.4763 112.553 25.3333C111.962 25.1621 111.489 25.4032 111.058 25.7276C110.78 25.9369 110.629 26.2741 110.529 26.6202C110.405 27.0512 110.36 27.4933 110.405 27.9336C110.458 28.4443 110.601 28.947 110.976 29.3157C111.189 29.5246 111.462 29.7029 111.79 29.7166C111.901 29.7215 111.988 29.787 112.103 29.7905C112.943 29.8157 113.508 29.2989 113.761 28.5085C113.809 28.3585 113.695 28.3952 113.626 28.3948C113.236 28.3917 112.845 28.3872 112.455 28.3965C112.308 28.4001 112.244 28.37 112.252 28.2058C112.266 27.9487 112.26 27.6898 112.254 27.4318C112.252 27.3185 112.269 27.2606 112.407 27.2614C113.233 27.2681 114.059 27.2672 114.884 27.2619C115.014 27.261 115.045 27.3066 115.045 27.4278C115.041 28.5116 115.041 29.5958 115.045 30.6796C115.045 30.796 115.024 30.8561 114.889 30.8495C114.676 30.8393 114.462 30.8446 114.248 30.8477C114.109 30.8495 114.033 30.7836 114.049 30.6486C114.072 30.468 113.961 30.3185 113.968 30.1016L113.969 30.1012Z" fill="#003049" style="fill:#003049;fill:color(display-p3 0.0000 0.1882 0.2863);fill-opacity:1;"/>
<path d="M70.3164 27.6934C70.7508 27.8762 70.9286 28.1815 71.0033 28.613C71.0785 29.0458 71.0365 29.4724 71.0533 29.9012C71.0631 30.1521 71.071 30.3933 71.2785 30.5743C71.3515 30.638 71.3329 30.7283 71.3112 30.8009C71.2856 30.8863 71.1971 30.8438 71.1383 30.8443C70.7477 30.8482 70.357 30.8416 69.9669 30.8487C69.7988 30.8518 69.7572 30.7814 69.7218 30.6203C69.6355 30.2283 69.7054 29.8317 69.6524 29.4445C69.6236 29.2356 69.6121 29.0285 69.5944 28.8201C69.5754 28.6015 69.2927 28.3568 69.0826 28.3223C68.5447 28.2346 68.0041 28.2705 67.4644 28.2559C67.3051 28.2514 67.2706 28.3019 67.2724 28.4532C67.2804 29.1825 67.2706 29.9123 67.2799 30.642C67.2821 30.8084 67.2375 30.8566 67.0711 30.8505C66.7252 30.8372 66.3784 30.8372 66.0324 30.8505C65.8621 30.8571 65.8113 30.8128 65.8121 30.6349C65.8197 28.9843 65.8166 27.3336 65.8166 25.6825C65.8166 25.2772 65.821 24.8718 65.8139 24.4664C65.8117 24.3337 65.8329 24.2744 65.9895 24.2753C67.183 24.2824 68.3774 24.2531 69.5701 24.2903C70.1447 24.308 70.6136 24.6041 70.9379 25.1077C71.1591 25.4515 71.2781 25.8255 71.2497 26.222C71.2046 26.853 70.9675 27.3898 70.3172 27.6925L70.3164 27.6934ZM68.2806 25.4741C68.0005 25.4741 67.7201 25.4785 67.4405 25.4719C67.3246 25.4692 67.2698 25.4887 67.2724 25.625C67.2808 26.0746 67.2799 26.5242 67.2728 26.9739C67.2711 27.1 67.3087 27.1363 67.4343 27.1345C67.9501 27.1279 68.4664 27.1438 68.9822 27.1265C69.2272 27.1186 69.4874 27.0336 69.6364 26.8451C69.8744 26.545 69.8757 26.1622 69.7063 25.8405C69.5639 25.5697 69.2719 25.4524 68.9441 25.4714C68.7238 25.4843 68.5022 25.4737 68.281 25.4741H68.2806Z" fill="#003049" style="fill:#003049;fill:color(display-p3 0.0000 0.1882 0.2863);fill-opacity:1;"/>
<path d="M46.3767 28.6789V28.3758C46.3767 27.0783 46.3798 25.7808 46.3727 24.4833C46.3718 24.3147 46.4187 24.2686 46.5828 24.2757C46.8845 24.289 47.1875 24.2899 47.4892 24.2757C47.6622 24.2673 47.7082 24.3173 47.7078 24.4926C47.7011 26.461 47.7038 28.4294 47.7038 30.3978C47.7038 30.6972 47.5559 30.8469 47.2601 30.8469C47.0243 30.8469 46.785 30.8226 46.5536 30.8536C46.3196 30.885 46.2112 30.7642 46.1166 30.5947C45.7153 29.8764 45.3269 29.1511 44.9124 28.4409C44.5519 27.8231 44.1816 27.2111 43.8525 26.5756C43.8109 26.495 43.7132 26.4561 43.7025 26.3171C43.6371 26.4371 43.6592 26.5181 43.6592 26.5951C43.6574 27.9368 43.6543 29.2786 43.6623 30.6203C43.6636 30.8049 43.6136 30.8602 43.4305 30.8505C43.1363 30.8354 42.8404 30.8359 42.5462 30.8505C42.3732 30.8589 42.3255 30.8093 42.3263 30.6332C42.3334 28.9816 42.3303 27.3305 42.3303 25.679C42.3303 25.2661 42.3347 24.8532 42.3277 24.4404C42.3255 24.3173 42.3582 24.2744 42.4865 24.2766C42.8917 24.2841 43.2978 24.2903 43.7025 24.2744C43.8888 24.2673 43.918 24.4231 43.9706 24.5134C44.3851 25.2232 44.7753 25.9472 45.1827 26.661C45.5446 27.2947 45.925 27.9178 46.2612 28.5661C46.2758 28.5944 46.3085 28.6135 46.3771 28.6785L46.3767 28.6789Z" fill="#003049" style="fill:#003049;fill:color(display-p3 0.0000 0.1882 0.2863);fill-opacity:1;"/>
<path d="M83.0654 26.294V26.6034C83.0654 27.9522 83.0632 29.301 83.0685 30.6499C83.0689 30.7999 83.0353 30.8566 82.8752 30.8504C82.5514 30.838 82.2267 30.8424 81.9029 30.849C81.7839 30.8517 81.7361 30.826 81.7361 30.6933C81.7401 28.6076 81.7401 26.5215 81.7361 24.4358C81.7361 24.3079 81.775 24.2747 81.8984 24.277C82.3036 24.284 82.7089 24.2823 83.1141 24.2778C83.2034 24.277 83.2822 24.2933 83.3184 24.3743C83.498 24.7801 83.7475 25.1474 83.9616 25.5342C84.3691 26.2706 84.7991 26.9946 85.2184 27.7243C85.3918 28.0261 85.5621 28.3292 85.786 28.6266V28.4036C85.786 27.1065 85.7895 25.809 85.782 24.5119C85.7811 24.3349 85.8156 24.2654 86.0072 24.2752C86.323 24.2911 86.6406 24.2854 86.9574 24.277C87.0861 24.2734 87.1157 24.3172 87.1157 24.4398C87.1122 26.5184 87.1122 28.597 87.1157 30.6751C87.1157 30.8074 87.0857 30.8539 86.9454 30.8499C86.5699 30.8397 86.1938 30.8464 85.8183 30.8468C85.7378 30.8468 85.6882 30.8384 85.6351 30.745C85.1737 29.9308 84.7079 29.1196 84.2492 28.304C83.8962 27.6761 83.5149 27.0636 83.1831 26.4228C83.1676 26.3927 83.1366 26.3701 83.0663 26.2936L83.0654 26.294Z" fill="#003049" style="fill:#003049;fill:color(display-p3 0.0000 0.1882 0.2863);fill-opacity:1;"/>
<path d="M122.208 27.6943C122.638 27.8784 122.811 28.1943 122.886 28.6333C122.964 29.0821 122.91 29.5237 122.934 29.9671C122.946 30.1897 122.968 30.4004 123.146 30.5575C123.228 30.6296 123.216 30.7221 123.192 30.8017C123.168 30.8823 123.078 30.8442 123.018 30.8451C122.627 30.8487 122.236 30.8425 121.846 30.8491C121.677 30.8517 121.637 30.7787 121.602 30.6181C121.519 30.2331 121.586 29.8437 121.534 29.464C121.504 29.2471 121.493 29.0325 121.475 28.8165C121.457 28.6099 121.18 28.3576 120.979 28.3249C120.412 28.2324 119.841 28.27 119.271 28.2572C119.123 28.2536 119.085 28.3001 119.086 28.4439C119.093 29.1812 119.085 29.9184 119.093 30.6553C119.095 30.8119 119.05 30.8562 118.896 30.8504C118.572 30.8385 118.247 30.842 117.923 30.8495C117.798 30.8526 117.76 30.8132 117.76 30.6871C117.764 28.6081 117.764 26.5295 117.76 24.4505C117.76 24.3133 117.801 24.277 117.934 24.2775C119.106 24.2819 120.279 24.2589 121.45 24.2916C121.862 24.3031 122.239 24.4779 122.565 24.7864C122.961 25.1608 123.125 25.6148 123.127 26.118C123.13 26.7946 122.878 27.3641 122.208 27.6947V27.6943ZM120.123 25.4741C119.829 25.4741 119.534 25.478 119.24 25.4723C119.126 25.4701 119.086 25.5046 119.088 25.6223C119.093 26.071 119.094 26.5202 119.088 26.9694C119.086 27.0911 119.118 27.1367 119.247 27.1349C119.784 27.1287 120.322 27.1437 120.858 27.1269C121.103 27.1194 121.363 27.0349 121.514 26.8477C121.755 26.5494 121.755 26.1675 121.589 25.8454C121.448 25.5728 121.158 25.4537 120.829 25.4719C120.594 25.4851 120.358 25.4745 120.123 25.4745V25.4741Z" fill="#003049" style="fill:#003049;fill:color(display-p3 0.0000 0.1882 0.2863);fill-opacity:1;"/>
<path d="M125.261 27.5881C125.244 26.8898 125.325 26.237 125.65 25.6224C126.007 24.9471 126.547 24.5151 127.263 24.2802C127.684 24.1421 128.116 24.054 128.556 24.0872C128.945 24.1164 129.33 24.1912 129.7 24.3395C130.016 24.466 130.314 24.6302 130.559 24.8519C130.894 25.1564 131.143 25.5396 131.297 25.9746C131.42 26.3216 131.466 26.68 131.513 27.0447C131.545 27.292 131.581 27.5408 131.554 27.7802C131.496 28.2816 131.439 28.7807 131.237 29.2613C130.858 30.1628 130.153 30.665 129.258 30.8934C128.68 31.0408 128.08 31.0262 127.475 30.8713C126.983 30.7451 126.583 30.4964 126.19 30.2114C126.014 30.084 125.903 29.8888 125.789 29.7061C125.382 29.0516 125.222 28.3333 125.261 27.5881ZM130.094 27.5899C130.133 27.2155 130.085 26.8517 129.968 26.4977C129.83 26.0773 129.566 25.7565 129.19 25.5184C128.888 25.3267 128.559 25.3303 128.226 25.3427C127.79 25.3586 127.425 25.5591 127.157 25.8786C126.807 26.2972 126.69 26.8247 126.658 27.358C126.629 27.8417 126.712 28.3112 126.904 28.7675C127.045 29.1047 127.263 29.3494 127.563 29.5379C127.956 29.7844 128.373 29.8495 128.821 29.7198C129.132 29.63 129.432 29.4968 129.616 29.2317C129.956 28.7436 130.168 28.2032 130.094 27.5899Z" fill="#003049" style="fill:#003049;fill:color(display-p3 0.0000 0.1882 0.2863);fill-opacity:1;"/>
<path d="M52.76 30.9739C52.2345 31.0257 51.7076 30.9275 51.2202 30.7049C50.7154 30.4743 50.3363 30.092 50.1589 29.5441C50.093 29.3401 50.0479 29.1312 50.0258 28.9175C50.016 28.8223 50.0532 28.7878 50.1501 28.7887C50.5332 28.7927 50.9167 28.7905 51.2998 28.7905C51.3604 28.7905 51.4073 28.79 51.4206 28.8772C51.5086 29.452 51.9779 29.7702 52.5353 29.7831C52.9038 29.7915 53.2745 29.8149 53.6258 29.6521C53.908 29.5211 54.0787 29.3131 54.0677 29.0007C54.0566 28.6931 53.8438 28.494 53.5802 28.4143C53.1047 28.2709 52.6158 28.1687 52.1323 28.0514C51.5617 27.9129 50.9596 27.8129 50.5332 27.3385C50.3 27.0792 50.1717 26.7729 50.1602 26.4251C50.1452 25.9759 50.1686 25.5445 50.3943 25.1227C50.6274 24.6864 50.9923 24.443 51.417 24.2908C51.8483 24.1359 52.3084 24.0394 52.7733 24.0837C53.3794 24.1412 53.9766 24.2208 54.4769 24.639C54.9409 25.0271 55.194 25.4958 55.2037 26.1016C55.2059 26.2432 55.1555 26.2755 55.025 26.2724C54.7082 26.2645 54.3906 26.2583 54.0743 26.2742C53.8885 26.2839 53.8332 26.1839 53.808 26.0397C53.7448 25.679 53.3953 25.3812 53.0348 25.3338C52.8414 25.3086 52.6495 25.2471 52.4557 25.2781C52.1014 25.3343 51.7368 25.3896 51.5475 25.7595C51.3745 26.0976 51.5285 26.4968 51.8872 26.5964C52.3376 26.7216 52.7999 26.8048 53.2471 26.9384C53.7142 27.0778 54.2053 27.131 54.6428 27.3832C55.0798 27.635 55.305 27.9842 55.412 28.478C55.5151 28.9529 55.3939 29.3781 55.2519 29.7972C55.1329 30.1486 54.8463 30.3995 54.5193 30.5854C53.9788 30.8925 53.3966 31.0191 52.7587 30.9744L52.76 30.9739Z" fill="#003049" style="fill:#003049;fill:color(display-p3 0.0000 0.1882 0.2863);fill-opacity:1;"/>
<path d="M97.7936 27.546C97.7936 26.5216 97.7968 25.4971 97.7901 24.4726C97.7892 24.3199 97.8255 24.2753 97.983 24.2761C99.4716 24.2823 100.96 24.2823 102.448 24.2761C102.608 24.2753 102.646 24.3239 102.64 24.4748C102.628 24.747 102.627 25.0205 102.64 25.2926C102.646 25.4427 102.595 25.4776 102.453 25.4767C101.443 25.4714 100.434 25.4794 99.4242 25.4688C99.2291 25.4666 99.1694 25.5143 99.1818 25.7117C99.1999 26.0056 99.1968 26.3016 99.1827 26.5955C99.1747 26.7636 99.2278 26.8057 99.3924 26.8039C100.291 26.7959 101.19 26.8048 102.089 26.7959C102.263 26.7942 102.319 26.8402 102.309 27.0159C102.294 27.2805 102.297 27.5465 102.308 27.8115C102.315 27.9598 102.265 27.9979 102.121 27.997C101.214 27.9912 100.308 27.9987 99.4021 27.9899C99.2274 27.9881 99.1765 28.0355 99.1827 28.2103C99.196 28.6006 99.1955 28.9918 99.1827 29.3817C99.1769 29.5503 99.2287 29.591 99.3928 29.5901C100.447 29.583 101.5 29.5901 102.554 29.5826C102.724 29.5812 102.783 29.6211 102.773 29.799C102.758 30.0928 102.765 30.3884 102.772 30.6832C102.775 30.8031 102.746 30.8495 102.615 30.8491C101.06 30.8447 99.5052 30.8438 97.9507 30.85C97.7936 30.8504 97.7928 30.7779 97.7928 30.6628C97.7954 29.6237 97.7941 28.5847 97.7941 27.5451L97.7936 27.546Z" fill="#003049" style="fill:#003049;fill:color(display-p3 0.0000 0.1882 0.2863);fill-opacity:1;"/>
<path d="M76.4781 24.2797C76.6847 24.2797 76.8922 24.2925 77.097 24.2757C77.2567 24.2624 77.3182 24.3452 77.3571 24.4704C77.5911 25.2218 77.8853 25.9529 78.1343 26.6981C78.3843 27.4442 78.6506 28.1855 78.9005 28.9316C79.0938 29.5087 79.2885 30.0893 79.522 30.6539C79.5809 30.7964 79.5499 30.8522 79.3884 30.8491C78.9978 30.8425 78.6068 30.8367 78.2166 30.8518C78.0556 30.8579 77.9985 30.7783 77.9596 30.6548C77.8468 30.2959 77.7251 29.9397 77.6318 29.5759C77.603 29.4644 77.5588 29.4542 77.4717 29.4542C76.8006 29.4551 76.13 29.4622 75.4593 29.4502C75.2642 29.4467 75.2235 29.5843 75.1797 29.7029C75.0546 30.0424 74.9413 30.3871 74.8444 30.7358C74.817 30.8345 74.779 30.8478 74.6984 30.8478C74.2782 30.8464 73.8579 30.8469 73.4377 30.8473C73.3359 30.8473 73.3019 30.838 73.3452 30.7084C73.6337 29.8397 73.9517 28.9807 74.2583 28.1191C74.5047 27.4252 74.7542 26.7304 75.0134 26.0405C75.212 25.5117 75.4204 24.9811 75.5673 24.4328C75.5973 24.3204 75.6588 24.2783 75.7707 24.2801C76.0065 24.2837 76.2428 24.281 76.4785 24.281L76.4781 24.2797ZM75.6473 28.3125H77.2018C76.9541 27.5173 76.7099 26.7349 76.4502 25.9011C76.1233 26.7092 75.9446 27.5248 75.6473 28.3125Z" fill="#003049" style="fill:#003049;fill:color(display-p3 0.0000 0.1882 0.2863);fill-opacity:1;"/>
<path d="M63.0956 26.7716C63.0956 27.4722 63.0867 28.1727 63.0982 28.8732C63.1071 29.4211 62.8996 29.895 62.5515 30.2796C62.2232 30.6425 61.7702 30.8244 61.277 30.9248C60.9027 31.0014 60.5347 30.9748 60.1653 30.9744C59.5832 30.9744 59.0607 30.7876 58.59 30.4305C58.0773 30.0415 57.8623 29.5189 57.8575 28.9042C57.8464 27.4372 57.8575 25.9698 57.8491 24.5023C57.8482 24.3147 57.8986 24.2664 58.0804 24.2753C58.3967 24.2908 58.7148 24.289 59.0311 24.2757C59.2005 24.2686 59.2523 24.3125 59.2514 24.4908C59.243 25.7812 59.2293 27.0717 59.258 28.3617C59.2664 28.7422 59.2717 29.1684 59.6159 29.4552C59.9463 29.7309 60.3078 29.8738 60.7506 29.7331C60.9191 29.6795 61.0863 29.649 61.2478 29.5565C61.4871 29.4198 61.5663 29.198 61.6291 28.9701C61.7043 28.6971 61.7056 28.4121 61.7043 28.1271C61.6986 26.9252 61.7079 25.7233 61.6959 24.5218C61.6937 24.3094 61.7614 24.2673 61.9534 24.2762C62.2772 24.2908 62.6023 24.2872 62.9261 24.2771C63.0637 24.2726 63.0991 24.3138 63.0982 24.4496C63.0916 25.2236 63.0951 25.9981 63.0951 26.7721L63.0956 26.7716Z" fill="#003049" style="fill:#003049;fill:color(display-p3 0.0000 0.1882 0.2863);fill-opacity:1;"/>
<path d="M134.017 26.7499C134.017 25.9909 134.021 25.2316 134.014 24.4726C134.012 24.319 134.051 24.2699 134.208 24.2761C134.532 24.2885 134.857 24.2903 135.18 24.2757C135.359 24.2677 135.416 24.3102 135.415 24.5014C135.406 25.813 135.395 27.1256 135.419 28.4368C135.426 28.8254 135.495 29.2223 135.827 29.5153C136.122 29.7746 136.467 29.829 136.819 29.7706C137.094 29.7251 137.385 29.6596 137.566 29.3909C137.684 29.2157 137.781 29.0471 137.803 28.8245C137.945 27.3796 137.826 25.9316 137.86 24.4859C137.864 24.3261 137.894 24.2682 138.065 24.2757C138.403 24.2903 138.742 24.285 139.081 24.2774C139.208 24.2748 139.261 24.3 139.26 24.4447C139.255 25.9706 139.294 27.4973 139.24 29.021C139.217 29.6551 138.934 30.2371 138.323 30.5853C137.856 30.8509 137.364 30.9783 136.827 30.9836C136.376 30.9876 135.921 30.9973 135.495 30.8407C134.887 30.6168 134.359 30.2875 134.145 29.6118C134.05 29.3108 134.01 29.0104 134.014 28.6962C134.022 28.0478 134.017 27.3991 134.017 26.7503L134.017 26.7499Z" fill="#003049" style="fill:#003049;fill:color(display-p3 0.0000 0.1882 0.2863);fill-opacity:1;"/>
<path d="M94.6383 26.4685C94.5055 26.4685 94.3715 26.4557 94.2406 26.4716C94.0207 26.4977 93.8982 26.4362 93.8358 26.2008C93.5774 25.2223 92.1805 25.0904 91.5748 25.7405C91.2475 26.0919 91.0989 26.4853 91.0148 26.9447C90.9586 27.2522 90.9383 27.5576 90.9688 27.8563C91.0272 28.4307 91.1511 28.9967 91.6147 29.406C91.8274 29.5937 92.0694 29.7229 92.372 29.7242C92.7392 29.7256 93.0833 29.7061 93.3992 29.4667C93.6504 29.2764 93.7783 29.0268 93.8756 28.7515C93.9291 28.6002 93.9835 28.5108 94.1702 28.5214C94.4861 28.5396 94.8037 28.5258 95.1204 28.5267C95.3376 28.5267 95.4062 28.6152 95.3279 28.8219C95.2195 29.1073 95.1257 29.3985 94.9669 29.6645C94.6214 30.2429 94.1543 30.6474 93.4969 30.8584C92.9997 31.0178 92.495 31.0284 92.007 30.9664C90.9785 30.8368 90.1363 30.2318 89.7585 29.1295C89.5435 28.5015 89.4585 27.8625 89.5063 27.2124C89.5784 26.2326 89.8695 25.3321 90.6649 24.6824C90.9569 24.4439 91.2939 24.2784 91.6801 24.2063C92.0062 24.1452 92.3278 24.0567 92.6613 24.0841C93.4841 24.1514 94.2578 24.3563 94.7966 25.04C95.0895 25.4113 95.316 25.8281 95.3403 26.3233C95.346 26.4406 95.3062 26.4778 95.1903 26.4725C95.0063 26.4641 94.8218 26.4703 94.6378 26.4703L94.6383 26.4685Z" fill="#003049" style="fill:#003049;fill:color(display-p3 0.0000 0.1882 0.2863);fill-opacity:1;"/>
<path d="M141.978 27.5641C141.978 26.5472 141.985 25.5298 141.972 24.5128C141.97 24.3093 142.032 24.2734 142.219 24.2752C143.221 24.2845 144.223 24.2681 145.225 24.2854C145.63 24.2925 146.006 24.4155 146.337 24.6832C146.813 25.0696 147.007 25.567 147.023 26.1635C147.035 26.6326 147.003 27.0826 146.763 27.5053C146.416 28.1151 145.906 28.4439 145.205 28.4567C144.689 28.466 144.173 28.4651 143.657 28.4549C143.49 28.4519 143.429 28.4886 143.432 28.6709C143.444 29.3267 143.432 29.9826 143.44 30.6384C143.442 30.7968 143.411 30.8588 143.236 30.8513C142.883 30.8362 142.528 30.8358 142.175 30.8513C141.997 30.8592 141.973 30.7915 141.974 30.6371C141.98 29.6126 141.977 28.5882 141.977 27.5637L141.978 27.5641ZM143.438 26.3684C143.438 26.6113 143.446 26.8552 143.435 27.0977C143.428 27.2389 143.48 27.2703 143.612 27.2672C143.98 27.2588 144.35 27.2402 144.716 27.2707C145.127 27.3048 145.491 27.08 145.586 26.6715C145.743 25.9936 145.5 25.5537 144.805 25.4811C144.404 25.4395 143.996 25.4789 143.591 25.4705C143.457 25.4678 143.432 25.5214 143.436 25.6387C143.443 25.8816 143.438 26.125 143.438 26.368L143.438 26.3684Z" fill="#003049" style="fill:#003049;fill:color(display-p3 0.0000 0.1882 0.2863);fill-opacity:1;"/>
<path d="M39.7425 27.5677C39.7425 28.5913 39.7394 29.6153 39.7456 30.6389C39.7464 30.7951 39.7195 30.8593 39.5434 30.8513C39.1908 30.8358 38.8365 30.8407 38.4835 30.8495C38.3393 30.8531 38.2782 30.8256 38.2787 30.6606C38.2844 28.5908 38.2835 26.5211 38.2795 24.4518C38.2795 24.3177 38.3123 24.273 38.4512 24.2766C38.8192 24.2858 39.1877 24.2885 39.5553 24.2757C39.7172 24.2699 39.7464 24.3261 39.7456 24.4744C39.7394 25.5055 39.742 26.5366 39.742 27.5677H39.7425Z" fill="#003049" style="fill:#003049;fill:color(display-p3 0.0000 0.1882 0.2863);fill-opacity:1;"/>
<path d="M150.403 1.31566C150.32 0.548305 151.048 -0.00176588 151.7 4.25994e-06C152.331 0.0017744 153.07 0.501839 152.994 1.46524C152.946 2.06753 152.417 2.65743 151.64 2.65256C151.104 2.64902 150.297 2.0985 150.403 1.31566H150.403ZM152.924 1.33956C152.942 0.596099 152.294 0.0663845 151.689 0.073465C151.092 0.080103 150.491 0.612472 150.458 1.2661C150.417 2.04938 151.158 2.58087 151.657 2.57998C152.313 2.5791 152.923 2.04142 152.924 1.33956Z" fill="#003049" style="fill:#003049;fill:color(display-p3 0.0000 0.1882 0.2863);fill-opacity:1;"/>
<path d="M22.5754 0.0447371C22.6701 -0.0163326 22.7533 0.00623662 22.8316 0.00579409C25.0651 0.00446648 27.2986 4.11372e-05 29.5321 0.0084493C29.9763 0.0102194 30.3147 0.24432 30.6066 0.574451C30.9818 0.998842 31.057 1.49227 31.057 2.03437C31.0512 11.0957 31.0539 20.1571 31.0508 29.2184C31.0508 29.9335 30.7102 30.4756 30.0997 30.8266C29.9157 30.9323 29.6985 31 29.4565 30.9996C23.2792 30.9912 17.102 30.9938 10.9252 30.9916C10.2683 30.9916 9.76884 30.4513 9.76441 29.8393C9.75424 28.4165 9.75866 26.9933 9.76265 25.5701C9.76397 25.1369 10.2302 24.5744 10.6943 24.4802C10.9951 24.4191 11.2897 24.4231 11.587 24.4226C14.4841 24.4191 17.3807 24.4147 20.2778 24.4257C20.8741 24.428 21.385 24.235 21.8566 23.8982C22.4551 23.4708 22.8139 22.891 22.9696 22.1715C23.0058 22.0029 23.0191 21.8405 23.0196 21.6736C23.0213 20.1991 23.0178 18.7246 23.0218 17.25C23.0235 16.5544 22.7541 15.9742 22.3153 15.4494C21.9535 15.0166 21.496 14.7422 20.9696 14.5785C20.7728 14.5169 20.5671 14.4678 20.3534 14.4678C17.213 14.47 14.0731 14.4683 10.9327 14.4705C10.4483 14.4705 9.84846 14.035 9.74937 13.4699C9.69939 13.1845 9.69231 12.9048 9.69142 12.622C9.68744 11.5015 9.67771 10.3806 9.69629 9.26008C9.70248 8.88171 9.81706 8.51884 10.1143 8.24446C10.3488 8.02806 10.6217 7.90548 10.9411 7.90548C14.0665 7.90415 17.1922 7.91477 20.3171 7.89486C20.852 7.89132 21.3545 7.70015 21.8097 7.37488C22.2105 7.08856 22.4896 6.71462 22.7161 6.30262C22.8771 6.00922 22.9837 5.68086 23.0227 5.33657C23.1775 3.96515 23.0735 2.58931 23.0766 1.21613C23.0775 0.797931 22.8953 0.382391 22.5759 0.0447371H22.5754Z" fill="#003049" style="fill:#003049;fill:color(display-p3 0.0000 0.1882 0.2863);fill-opacity:1;"/>
<path d="M8.49739 30.9942H8.22047C5.98695 30.9942 3.75343 30.9951 1.51946 30.9934C1.2129 30.9934 0.95721 30.8633 0.713465 30.6818C0.433003 30.4734 0.244554 30.2074 0.120248 29.8879C0.0587585 29.7282 -7.66162e-05 29.5684 -7.66162e-05 29.3932C-7.66162e-05 20.1544 -0.00184609 10.9156 0.00611655 1.67676C0.00655892 1.17803 0.222435 0.754522 0.612605 0.408017C0.944824 0.113731 1.30314 0 1.73711 0C7.88515 0.00575295 14.0332 0.00398281 20.1808 0.00398281C20.7249 0.00398281 21.2425 0.477495 21.3044 1.01385C21.4517 2.28923 21.3447 3.56816 21.3619 4.84487C21.3708 5.48699 20.9483 5.98926 20.3352 6.17292C20.2671 6.19327 20.1888 6.18132 20.1153 6.18132C16.9896 6.18132 13.8642 6.17734 10.7384 6.18531C10.1346 6.18708 9.60641 6.42383 9.11627 6.77963C8.74025 7.05268 8.48014 7.40316 8.29434 7.81162C8.14084 8.14928 8.02494 8.49667 8.02848 8.88521C8.0422 10.404 8.03069 11.9228 8.03556 13.4415C8.03777 14.1478 8.29833 14.7453 8.78405 15.2648C9.18218 15.6901 9.65817 15.9715 10.208 16.1083C10.3947 16.1547 10.6004 16.195 10.8052 16.1946C13.835 16.191 16.8648 16.1981 19.8946 16.1866C20.4175 16.1844 20.7616 16.4282 21.0324 16.8322C21.2845 17.2084 21.377 17.6248 21.3721 18.0775C21.361 19.1613 21.373 20.2451 21.365 21.3293C21.3633 21.5784 21.3203 21.8276 21.1916 22.0511C20.9572 22.4586 20.5988 22.6941 20.1361 22.6954C17.0254 22.7047 13.9142 22.6901 10.8039 22.7087C10.1536 22.7127 9.57235 22.9702 9.07159 23.4132C8.58277 23.8455 8.29965 24.393 8.11563 24.9975C8.06299 25.17 8.0276 25.3572 8.02892 25.5511C8.03866 26.8782 8.04573 28.2054 8.02892 29.5326C8.02096 30.1835 8.14836 30.48 8.49651 30.9947L8.49739 30.9942Z" fill="#003049" style="fill:#003049;fill:color(display-p3 0.0000 0.1882 0.2863);fill-opacity:1;"/>
<path d="M151.067 1.34705C151.067 1.14127 151.066 0.935488 151.068 0.729709C151.068 0.681915 151.051 0.602702 151.119 0.604914C151.423 0.614208 151.734 0.524816 152.027 0.652708C152.286 0.765997 152.357 1.07135 152.186 1.29837C152.142 1.35634 152.11 1.3944 152.166 1.46741C152.27 1.60194 152.266 1.76347 152.264 1.92544C152.263 2.04846 152.26 2.12546 152.094 2.12723C151.92 2.129 151.923 2.03961 151.929 1.92145C151.935 1.78869 151.942 1.65903 151.81 1.56787C151.693 1.48733 151.564 1.513 151.45 1.53601C151.353 1.55548 151.409 1.67452 151.4 1.74887C151.392 1.82144 151.392 1.89667 151.4 1.96881C151.416 2.10643 151.343 2.12192 151.23 2.12325C151.11 2.12458 151.058 2.09537 151.064 1.96394C151.074 1.7586 151.067 1.55238 151.067 1.3466V1.34705Z" fill="#003049" style="fill:#003049;fill:color(display-p3 0.0000 0.1882 0.2863);fill-opacity:1;"/>
</g>
<defs>
<clipPath id="clip0_6712_14352">
<rect width="153" height="31" fill="white" style="fill:white;fill-opacity:1;"/>
</clipPath>
</defs>
</svg>
