<?xml version="1.0" encoding="utf-8"?>
<!-- Generator: Adobe Illustrator 28.3.0, SVG Export Plug-In . SVG Version: 6.00 Build 0)  -->
<svg version="1.1" id="Layer_1" xmlns="http://www.w3.org/2000/svg" xmlns:xlink="http://www.w3.org/1999/xlink" x="0px" y="0px"
	 viewBox="0 0 371 94.4" width="199.4" height="50" style="enable-background:new 0 0 199.4 50;" xml:space="preserve">
<style type="text/css">
	.st0{fill:#003049;}
</style>
<g>
	<path class="st0" d="M86.6,52.3c0,2.3,1,3,4.4,3c3.4,0,5-1,7.2-5.6H99l-0.8,7.2H77V56c3.2-0.8,3.5-1.5,3.5-4.5V33.8
		c0-2.5-0.6-3.2-3.5-3.9v-0.8h13.1v0.8c-2.8,0.7-3.5,1.3-3.5,3.7V52.3z"/>
	<path class="st0" d="M105.3,27.1c-1.7,0-3.1,1.4-3.1,3.1c0,1.7,1.4,3.1,3.1,3.1c1.7,0,3.1-1.4,3.1-3.1
		C108.4,28.5,107,27.1,105.3,27.1z M108,53V38.3h-0.8l-7.8,0.7v0.8c2.6,0.5,3.2,1.1,3.2,3.3v9.5c0,2.3-0.6,2.9-3,3.4v0.8h11.2V56
		C108.9,55.8,108,54.8,108,53z"/>
	<path class="st0" d="M126.5,38.2c-2.6,0-4.8,1-6.9,3.3V27.1h-0.8l-7.3,0.5v0.8c1.7,0.3,2.7,1.1,2.7,2.7v25.7
		c2.7,0.5,5.4,0.7,8.7,0.7c8.7,0,12.1-4.5,12.1-10.1C135.1,42.3,131.4,38.2,126.5,38.2z M122.5,56.3c-2.1,0-2.9-0.9-2.9-3V42.8
		c1.8-1.7,2.8-2.1,4.2-2.1c3.2,0,5.3,3,5.3,7.4C129.1,53.9,126.5,56.3,122.5,56.3z"/>
	<path class="st0" d="M149.3,55.2c-3.3,0-6.6-3-6.4-8.9h13.6c-0.7-4.9-4.3-8.1-9.4-8.1c-5.6,0-10,4.2-10,9.8c0,5.5,4.2,9.5,9.8,9.5
		c4.3,0,8-2.4,9.6-6.2h-0.8C154,53.9,151.9,55.2,149.3,55.2z M146.7,39.5c2.2,0,3.8,2.4,4,5.7h-7.8
		C143.1,41.8,144.5,39.5,146.7,39.5z"/>
	<path class="st0" d="M173.7,45.2c-1.6-1.5-2.8-2.3-4-2.3c-1.6,0-2.6,0.7-4,2.6v7.3c0,2.1,0.4,2.8,3,3.3v0.8h-11.4V56
		c2.4-0.6,3-1.3,3-3.3v-9.5c0-2.3-1-3.3-3.3-3.5v-0.8l7.8-0.7h0.8v5.7h0.1c1.8-3.9,3.7-5.7,5.9-5.7c1.2,0,2.3,0.5,3.2,1.5
		L173.7,45.2z"/>
	<path class="st0" d="M203.9,38.9v0.8c2.3,0.5,2.8,1.9,1.2,5.7l-2.5,5.7l-3.8-7.8c-1.1-2.3-1.1-3.3,0.9-3.6v-0.8h-10.4h-0.3h-5.2V32
		H183c-2.5,3.2-5.5,6.1-7.7,7.5v0.9h3.2v11.5c0,4.1,2.7,5.7,6.1,5.7c2.7,0,4.4-0.9,5.7-3.2l-0.6-0.5c-0.9,1-1.7,1.4-2.6,1.4
		c-2.5,0-3.3-1.7-3.3-4.6V40.4h4.8c2.6,0,3.4,0.9,4.5,3.4l6.5,13.8c-2.2,5.9-4.1,8.3-7.4,8.3c-0.7,0-1.3,0-2.4-0.4l-1.1,5.4
		c0.7,0.1,1,0.1,1.5,0.1c3.7,0,5.7-1.6,7.6-5.9l9-20.6c1.5-3.3,2-4,4.3-4.6v-0.8H203.9z"/>
	<path class="st0" d="M255.7,51.9c0.3,2.4,1.5,3.8,4.2,4.3V57h-13.7v-0.8c3-0.8,3.6-2.5,3-6.1L247,34.2h-0.1l-9,22.8h-1L228,34.2
		h-0.1l-2.4,16.3c-0.5,3.2,0.1,5.4,3.3,5.6V57h-10.1v-0.8c3-0.1,4.3-1.8,4.9-6.1l2.8-18.1c-1.1-1.1-2.6-1.9-4-1.9v-0.8h10l7.3,18.3
		l7.4-18.3h9.4V30c-2.8,0.5-3.5,2-3.1,4.5L255.7,51.9z"/>
	<path class="st0" d="M262.1,43c0-2-0.7-2.7-2.8-3.1v-0.8l7.4-0.7h0.8v13.2c0,2.1,1.4,3.1,3.3,3.1c1.8,0,2.9-0.8,4.5-3.2v-8.9
		c0-1.5-1-2.3-2.8-2.7v-0.8l7.4-0.7h0.8v14.2c0,2.4,0.5,2.9,2.9,3.6V57l-8.2,0.7v-4.4h-0.1c-2,3-4.2,4.4-7.1,4.4
		c-3.7,0-5.9-2-5.9-5.5V43z"/>
	<path class="st0" d="M287.6,40.5h-3.2v-0.9c2.2-1.4,5.2-4.2,7.7-7.5h0.9v6.9h5.9v1.4H293v10.3c0,2.9,0.8,4.6,3.3,4.6
		c0.9,0,1.8-0.4,2.6-1.4l0.6,0.5c-1.3,2.2-3.1,3.2-5.7,3.2c-3.4,0-6.1-1.6-6.1-5.7V40.5z"/>
	<path class="st0" d="M302.3,43c0-2-0.7-2.7-2.8-3.1v-0.8l7.4-0.7h0.8v13.2c0,2.1,1.4,3.1,3.3,3.1c1.8,0,2.9-0.8,4.5-3.2v-8.9
		c0-1.5-0.9-2.3-2.8-2.7v-0.8l7.4-0.7h0.8v14.2c0,2.4,0.5,2.9,2.8,3.6V57l-8.2,0.7v-4.4h-0.1c-2,3-4.2,4.4-7.1,4.4
		c-3.7,0-5.9-2-5.9-5.5V43z"/>
	<path class="st0" d="M343.9,54.2c-0.2,1.1-0.7,1.7-1.4,1.7c-0.8,0-1.1-0.7-1.1-2.4v-8.5c0-4.9-4-6.7-7.9-6.7c-4.2,0-7.1,2.2-8,6.1
		h0.7c1.1-2,2.9-3,5.4-3c3.2,0,4.5,1.5,4.5,4.7c-4.4,1.6-11.5,2-11.5,6.8c0,2.6,2.4,4.7,5.4,4.7c2.2,0,3.8-0.5,5.7-2.1l0.4-0.4
		c0.9,1.8,2.1,2.5,4.3,2.5c2.6,0,4.2-1.2,4.4-3.5H343.9z M335.9,53.9c-1.2,1.2-2.3,1.8-3.4,1.8c-1.5,0-2.5-1.3-2.5-3.2
		c0-2.4,1.4-3.5,5.8-5.4V53.9z"/>
	<path class="st0" d="M348.3,32.2c0-2.5-0.8-3.4-3.4-3.6v-0.8l7.9-0.5h0.8v25.3c0,2.4,0.5,2.9,3.2,3.6V57H345v-0.8
		c2.6-0.4,3.4-1.3,3.4-3.6V32.2z"/>
	<path class="st0" d="M39.6,42c-0.6,0.6-1.8,2.1-1.3,3.6c0.5-0.5,1.5-1.3,2.2-1.6L39.6,42z M43.7,40.6c-1.1,0-2.2,0.3-2.9,0.8
		l0.8,2.4c1.1-0.3,3.8-0.4,4.6,0.2l0.5-2.7C46,40.9,44.8,40.6,43.7,40.6z M43.1,48.8c-1.1,0.2-2.2,0.9-2.2,0.9v0.9
		c0.5,0.1,1.1,0.7,1.4,1.2l0.8-0.2L42.8,51c0,0,0.5-0.2,1.1-0.3c0.7,0,1.3,0.1,1.7,0.4l1.8-0.4l0.2-0.4
		C46.4,49.4,44.6,48.5,43.1,48.8z M48.6,41.8l-1,2.5c0.7,0.2,2.9,1.3,4,2l1.3-1.8C52.4,44.1,49.4,42.2,48.6,41.8z M48.6,41.8l-1,2.5
		c0.7,0.2,2.9,1.3,4,2l1.3-1.8C52.4,44.1,49.4,42.2,48.6,41.8z M43.1,48.8c-1.1,0.2-2.2,0.9-2.2,0.9v0.9c0.5,0.1,1.1,0.7,1.4,1.2
		l0.8-0.2L42.8,51c0,0,0.5-0.2,1.1-0.3c0.7,0,1.3,0.1,1.7,0.4l1.8-0.4l0.2-0.4C46.4,49.4,44.6,48.5,43.1,48.8z M43.7,40.6
		c-1.1,0-2.2,0.3-2.9,0.8l0.8,2.4c1.1-0.3,3.8-0.4,4.6,0.2l0.5-2.7C46,40.9,44.8,40.6,43.7,40.6z M39.6,42c-0.6,0.6-1.8,2.1-1.3,3.6
		c0.5-0.5,1.5-1.3,2.2-1.6L39.6,42z M39.6,42c-0.6,0.6-1.8,2.1-1.3,3.6c0.5-0.5,1.5-1.3,2.2-1.6L39.6,42z M43.7,40.6
		c-1.1,0-2.2,0.3-2.9,0.8l0.8,2.4c1.1-0.3,3.8-0.4,4.6,0.2l0.5-2.7C46,40.9,44.8,40.6,43.7,40.6z M43.1,48.8
		c-1.1,0.2-2.2,0.9-2.2,0.9v0.9c0.5,0.1,1.1,0.7,1.4,1.2l0.8-0.2L42.8,51c0,0,0.5-0.2,1.1-0.3c0.7,0,1.3,0.1,1.7,0.4l1.8-0.4
		l0.2-0.4C46.4,49.4,44.6,48.5,43.1,48.8z M48.6,41.8l-1,2.5c0.7,0.2,2.9,1.3,4,2l1.3-1.8C52.4,44.1,49.4,42.2,48.6,41.8z
		 M48.6,41.8l-1,2.5c0.7,0.2,2.9,1.3,4,2l1.3-1.8C52.4,44.1,49.4,42.2,48.6,41.8z M43.1,48.8c-1.1,0.2-2.2,0.9-2.2,0.9v0.9
		c0.5,0.1,1.1,0.7,1.4,1.2l0.8-0.2L42.8,51c0,0,0.5-0.2,1.1-0.3c0.7,0,1.3,0.1,1.7,0.4l1.8-0.4l0.2-0.4
		C46.4,49.4,44.6,48.5,43.1,48.8z M43.7,40.6c-1.1,0-2.2,0.3-2.9,0.8l0.8,2.4c1.1-0.3,3.8-0.4,4.6,0.2l0.5-2.7
		C46,40.9,44.8,40.6,43.7,40.6z M39.6,42c-0.6,0.6-1.8,2.1-1.3,3.6c0.5-0.5,1.5-1.3,2.2-1.6L39.6,42z M39.6,42
		c-0.6,0.6-1.8,2.1-1.3,3.6c0.5-0.5,1.5-1.3,2.2-1.6L39.6,42z M43.7,40.6c-1.1,0-2.2,0.3-2.9,0.8l0.8,2.4c1.1-0.3,3.8-0.4,4.6,0.2
		l0.5-2.7C46,40.9,44.8,40.6,43.7,40.6z M43.1,48.8c-1.1,0.2-2.2,0.9-2.2,0.9v0.9c0.5,0.1,1.1,0.7,1.4,1.2l0.8-0.2L42.8,51
		c0,0,0.5-0.2,1.1-0.3c0.7,0,1.3,0.1,1.7,0.4l1.8-0.4l0.2-0.4C46.4,49.4,44.6,48.5,43.1,48.8z M48.6,41.8l-1,2.5
		c0.7,0.2,2.9,1.3,4,2l1.3-1.8C52.4,44.1,49.4,42.2,48.6,41.8z M48.6,41.8l-1,2.5c0.7,0.2,2.9,1.3,4,2l1.3-1.8
		C52.4,44.1,49.4,42.2,48.6,41.8z M43.1,48.8c-1.1,0.2-2.2,0.9-2.2,0.9v0.9c0.5,0.1,1.1,0.7,1.4,1.2l0.8-0.2L42.8,51
		c0,0,0.5-0.2,1.1-0.3c0.7,0,1.3,0.1,1.7,0.4l1.8-0.4l0.2-0.4C46.4,49.4,44.6,48.5,43.1,48.8z M43.7,40.6c-1.1,0-2.2,0.3-2.9,0.8
		l0.8,2.4c1.1-0.3,3.8-0.4,4.6,0.2l0.5-2.7C46,40.9,44.8,40.6,43.7,40.6z M39.6,42c-0.6,0.6-1.8,2.1-1.3,3.6
		c0.5-0.5,1.5-1.3,2.2-1.6L39.6,42z M39.6,42c-0.6,0.6-1.8,2.1-1.3,3.6c0.5-0.5,1.5-1.3,2.2-1.6L39.6,42z M43.7,40.6
		c-1.1,0-2.2,0.3-2.9,0.8l0.8,2.4c1.1-0.3,3.8-0.4,4.6,0.2l0.5-2.7C46,40.9,44.8,40.6,43.7,40.6z M43.1,48.8
		c-1.1,0.2-2.2,0.9-2.2,0.9v0.9c0.5,0.1,1.1,0.7,1.4,1.2l0.8-0.2L42.8,51c0,0,0.5-0.2,1.1-0.3c0.7,0,1.3,0.1,1.7,0.4l1.8-0.4
		l0.2-0.4C46.4,49.4,44.6,48.5,43.1,48.8z M48.6,41.8l-1,2.5c0.7,0.2,2.9,1.3,4,2l1.3-1.8C52.4,44.1,49.4,42.2,48.6,41.8z
		 M48.6,41.8l-1,2.5c0.7,0.2,2.9,1.3,4,2l1.3-1.8C52.4,44.1,49.4,42.2,48.6,41.8z M43.1,48.8c-1.1,0.2-2.2,0.9-2.2,0.9v0.9
		c0.5,0.1,1.1,0.7,1.4,1.2l0.8-0.2L42.8,51c0,0,0.5-0.2,1.1-0.3c0.7,0,1.3,0.1,1.7,0.4l1.8-0.4l0.2-0.4
		C46.4,49.4,44.6,48.5,43.1,48.8z M43.7,40.6c-1.1,0-2.2,0.3-2.9,0.8l0.8,2.4c1.1-0.3,3.8-0.4,4.6,0.2l0.5-2.7
		C46,40.9,44.8,40.6,43.7,40.6z M39.6,42c-0.6,0.6-1.8,2.1-1.3,3.6c0.5-0.5,1.5-1.3,2.2-1.6L39.6,42z M39.6,42
		c-0.6,0.6-1.8,2.1-1.3,3.6c0.5-0.5,1.5-1.3,2.2-1.6L39.6,42z M43.7,40.6c-1.1,0-2.2,0.3-2.9,0.8l0.8,2.4c1.1-0.3,3.8-0.4,4.6,0.2
		l0.5-2.7C46,40.9,44.8,40.6,43.7,40.6z M43.1,48.8c-1.1,0.2-2.2,0.9-2.2,0.9v0.9c0.5,0.1,1.1,0.7,1.4,1.2l0.8-0.2L42.8,51
		c0,0,0.5-0.2,1.1-0.3c0.7,0,1.3,0.1,1.7,0.4l1.8-0.4l0.2-0.4C46.4,49.4,44.6,48.5,43.1,48.8z M48.6,41.8l-1,2.5
		c0.7,0.2,2.9,1.3,4,2l1.3-1.8C52.4,44.1,49.4,42.2,48.6,41.8z M48.6,41.8l-1,2.5c0.7,0.2,2.9,1.3,4,2l1.3-1.8
		C52.4,44.1,49.4,42.2,48.6,41.8z M43.1,48.8c-1.1,0.2-2.2,0.9-2.2,0.9v0.9c0.5,0.1,1.1,0.7,1.4,1.2l0.8-0.2L42.8,51
		c0,0,0.5-0.2,1.1-0.3c0.7,0,1.3,0.1,1.7,0.4l1.8-0.4l0.2-0.4C46.4,49.4,44.6,48.5,43.1,48.8z M43.7,40.6c-1.1,0-2.2,0.3-2.9,0.8
		l0.8,2.4c1.1-0.3,3.8-0.4,4.6,0.2l0.5-2.7C46,40.9,44.8,40.6,43.7,40.6z M39.6,42c-0.6,0.6-1.8,2.1-1.3,3.6
		c0.5-0.5,1.5-1.3,2.2-1.6L39.6,42z M39.6,42c-0.6,0.6-1.8,2.1-1.3,3.6c0.5-0.5,1.5-1.3,2.2-1.6L39.6,42z M43.7,40.6
		c-1.1,0-2.2,0.3-2.9,0.8l0.8,2.4c1.1-0.3,3.8-0.4,4.6,0.2l0.5-2.7C46,40.9,44.8,40.6,43.7,40.6z M43.1,48.8
		c-1.1,0.2-2.2,0.9-2.2,0.9v0.9c0.5,0.1,1.1,0.7,1.4,1.2l0.8-0.2L42.8,51c0,0,0.5-0.2,1.1-0.3c0.7,0,1.3,0.1,1.7,0.4l1.8-0.4
		l0.2-0.4C46.4,49.4,44.6,48.5,43.1,48.8z M48.6,41.8l-1,2.5c0.7,0.2,2.9,1.3,4,2l1.3-1.8C52.4,44.1,49.4,42.2,48.6,41.8z
		 M48.6,41.8l-1,2.5c0.7,0.2,2.9,1.3,4,2l1.3-1.8C52.4,44.1,49.4,42.2,48.6,41.8z M43.1,48.8c-1.1,0.2-2.2,0.9-2.2,0.9v0.9
		c0.5,0.1,1.1,0.7,1.4,1.2l0.8-0.2L42.8,51c0,0,0.5-0.2,1.1-0.3c0.7,0,1.3,0.1,1.7,0.4l1.8-0.4l0.2-0.4
		C46.4,49.4,44.6,48.5,43.1,48.8z M46.3,43.9l0.5-2.7c-0.8-0.4-2-0.7-3.1-0.7s-2.2,0.3-2.9,0.8l0.8,2.4
		C42.8,43.5,45.5,43.4,46.3,43.9z M38.3,45.7c0.5-0.5,1.5-1.3,2.2-1.6l-0.9-2C39,42.6,37.8,44.1,38.3,45.7z M70.6,38
		c-0.2-0.3-0.7,0-0.7,0L61.5,41c-0.7-1.6-1.4-3.1-2.2-4.4l2.7-7.4c0,0,0.3-0.7,0-0.9c-0.3-0.2-0.8,0.3-0.8,0.3l-4.9,4
		c-1.9-2.1-4.2-3.7-6.8-4.9c-1-0.4-2-0.8-3-1.1L45,20.8c0,0-0.1-0.6-0.5-0.6c-0.4,0-0.5,0.5-0.5,0.5l-1,5.1
		c-1.1-0.1-2.2-0.2-3.3-0.2c-3.7,0-6.9,0.7-9.8,2c-1.2,0.5-2.4,1.2-3.4,2c-0.2,0.1-0.3,0.3-0.5,0.4c-1-2.6-1.8-4.7-2-5.4
		c0.6-0.5,1.7-2.4,2-3.6c0.4-1.8,0.3-2.6-0.1-3.9c-0.3-1-0.9-1.9-0.9-2.5c0-0.5,0.3-0.8,0.5-1c-0.1-0.7-0.5-0.9-1-1
		c-0.5-0.1-0.8,0.1-1.2,0.1c-0.1-0.2-0.3-0.2-0.2-0.8c0.2-1,2.2-1.5,3.7-2.1c2-0.8,3.1-2.2,3.2-4.5c0-1.7-0.9-2.9-2.1-3.5
		c-0.2,0.7-1.2,1.6-1.9,2c-0.7,0.4-1.6,0.5-2.3,0.3c0.1-1.2-0.4-2.3-1.3-2.7c-0.3,0.5-1.4,1.3-3,1.2c-1.6,0-1.7-0.4-4-0.4
		c-3.3,0-6,2-6.3,4.9c-0.2,1.9,0.5,3.5,1,4.3c-0.4,0.3-1.4,1.2-1.5,1.5c-0.2-0.3-0.9-0.6-1.7-0.1c0.2,0.4,0.2,0.9,0.1,1.4
		c-0.1,0.5-1.3,2.8-1.5,4.7c-0.2,3.2,1.6,5.3,3.1,5.9c-0.3,0.5-0.4,1-0.2,1.5c0.2,0.3,0.5,0.6,1.1,0.6c-0.4,0.4-0.5,1-0.3,1.6
		c0.3,0.7,1,1.7,1.7,1.7c0,0.6,0.2,1.9,0.4,2.5c-0.2,0.4-0.5,0.8-0.4,1.6c0,0.9,0.6,1.5,1.2,1.7c0.2,0.4,0.3,0.9,0.5,1.1
		c0.2,0.3,0.5,0.6,1,0.9c0.5,0.3,1.1,0.6,1.8,0.6c0.7,0,1.3,0,1.6-0.1c0,0.2,0.1,2,0.2,4c-1.7,4.8-2.6,10.3-2.6,16.2v0
		c0,10.6,3,20.1,8.8,26.2c0,0,0.3,0.4,1.3,1c0,0,1.8-3.1,4.6-6.6c0.7-0.9,1.5-1.8,2.4-2.6c1.4-1.2,2.7-2.2,4-3.2
		c3.5-2.4,7.7-4.3,11.5-5.1c-4.4,2.2-6.8,3.5-10.9,7c-2.6,2.2-6.7,6.2-9.6,11.5c0.6,0.5,1.4,0.9,2.3,1c0.6-0.7,3.7-6.3,8.4-10.9
		c9.5-8.9,20.8-11,26.7-10.9c0.3-2.4,0.5-5,0.5-7.6c0-4.3-0.4-8.3-1.3-12.1l7-7.8C70.3,38.7,70.8,38.3,70.6,38z M60.3,30.7
		l-5.4,11.5c-0.5-0.4-2.6-2.2-3.7-2.6L60.3,30.7z M44.6,23.3l2.6,14.6c-0.8-0.4-3.4-0.7-4.5-0.4L44.6,23.3z M38.8,38.9
		c-0.9,0.5-2.2,1.8-2.5,2.9l-6.4-11L38.8,38.9z M34.6,49.6l-2.7-1.9c0-0.6-0.1-1.7-0.2-2.2c0-0.1,0-0.2,0-0.2l3.4,1.7
		c-0.3,0.5-0.4,0.8-0.5,1.3C34.5,48.8,34.6,49.1,34.6,49.6z M15.4,4.4c1.1-0.1,2.6,0.2,3.3,0.2s2.7-0.2,3.1-0.5
		c0.2,0.5,0.2,1.1-0.1,1.6c0.6,0.3,2.2,0.6,2.9,0.6c1.4-0.1,2.8-0.8,3.3-1.5c0.2,0.8,0.1,1.8-0.6,2.4c-1.3,1.2-4.5,1.8-5.4,2.5
		c-0.8,0.6-1,0.9-1.3,1.4c-0.3-0.3-0.5-0.6-1-0.5c-0.6,0.1-0.9,0.6-1.5,0.6c-0.8,0-1.3-1.3-2.2-1.3c-1.4,0-1.9,1.1-2.5,1.1
		c-0.4,0-1-0.6-1.2-0.9c-0.4-0.5-0.7-1.5-0.6-2.4C11.8,6.3,12.9,4.5,15.4,4.4z M8.2,20.1c-0.2-0.6-0.5-0.9-0.4-1.7
		c0.1-0.9,0.7-1.6,0.9-2.3c0.2-0.6,0.1-1.5-0.1-1.8c0.3-0.1,0.9,0.3,1.4,0.2c0.5-0.1,0.7-0.3,0.9-0.8s0.5-0.8,1-0.8
		c0.4,0,1.3,0.4,2,0.2c0.9-0.2,1.3-1.1,2-1.1c0.7,0,1.4,1,2.1,1.1c0.7,0.1,1.8-0.8,2.5-0.5c0.7,0.3,0.3,1.4,0.9,1.8
		c0.5,0.4,1.7-0.1,2-0.1c-0.1,0.5-0.2,0.8-0.2,1.3c0,0.5,0.9,2,0.9,2.6c0,0.7,0.1,1.3-0.2,1.9c-0.1-2-2.5-4.5-7.9-4.6
		C11.3,15.3,8,17.2,8.2,20.1z M19.8,21.3c-0.5-0.5-1.6-1.5-4-1.5c-1.9,0-3.4,0.8-3.6,1.4c-0.1-0.9,0-1.5,0.6-2
		c0.7-0.6,1.8-0.9,2.9-0.9c1.6,0,2.7,0.4,3.3,0.9C19.7,19.8,19.8,20.5,19.8,21.3z M12.8,27.3c-0.2,0.2-0.7,0.9-0.8,1.4
		c-0.4-0.3-0.9-1.2-1-1.6c0.4-0.6,1.2-1.2,1.5-1.3c-0.4,0-1.2,0-1.8,0.1c-0.2-0.4-0.3-1.1-0.2-1.6l0.7,0l-0.4-0.9
		c0.5-0.4,2.3-1.3,3.3-1.4c0.1,0.5,0.1,0.8,0.1,1c0,0.2-0.1,0.4-0.3,0.5c-0.2,0.1-0.9,0.4-0.9,0.4c0.4,0,1.3,0,1.6,0
		c0.3,0,0.4,0.1,0.4,0.4s-0.1,0.6-0.2,0.8c-0.2,0.2-0.7,0.2-1,0.2c0.1,0.3,0.2,0.5,0.2,0.8s-0.1,0.4-0.4,0.6
		C13.5,26.9,13.2,27.1,12.8,27.3z M18.3,34.4c-0.4-0.2-1.5-0.8-2.4-0.8c-0.9,0-1.7,0.2-2.4,0.7c-0.3-0.2-0.4-0.6-0.2-1.1
		c0.2-0.5,0.5-0.5,0.5-0.5l-0.3-4.5c0,0,1.2-0.9,1.6-1c0.3-0.1,0.5-0.4,0.5-0.7c0.5,0.4,1.4,1.2,1.8,1.8c0.4,0.6,0.7,1.2,0.7,1.9
		c0,0.7,0,1.6-0.1,2.5c0.3,0.2,0.5,0.4,0.6,0.8C18.6,34,18.4,34.1,18.3,34.4z M20,47.7c-0.2-0.3-1-16.8-1-17.4l0.9-0.6v-0.2
		c-0.7,0-1.4-0.3-1.6-0.6L18,23.7c-0.9-0.1-1.8-0.4-2.1-0.7c-0.4-0.4-0.8-1-0.3-1.9c0.2,0.1,0.4,0.2,0.8,0.3c0.1,0,0.1,0,0.2,0.1
		c0.1,0,0.2,0,0.3,0.1c0.2,0.1,0.5,0.1,0.7,0.2c0.3,0,0.6,0.1,0.9,0.1c0.1,0,0.4,0.2,0.6,0.4c0.1,0.1,0.3,0.2,0.4,0.3
		c0,0,0.1,0,0.1,0.1c0.1,0,0.2,0.1,0.3,0.1c0.3,0.1,0.5,0.3,0.7,0.4c0.2,0.1,0.4,0.6,0.4,0.8c0.1,0.2,8.3,21.5,8.4,21.7
		c0.1,0.2,0.6,3.8,0.6,4.1c0,0.3,1.3,3.1,1.5,3.4c-1.1,0-2.9,0.6-4.3,2c-1.4,1.4-2.7,4.5-3,5.9C24.2,60.2,20.2,48,20,47.7z M28,76.1
		c-0.8,1.3-2.9,4-3.7,5c0.8-1.6,1.5-5.6,1.4-8.6c0-2-0.6-6.4-0.1-9.3c0.6-3.1,1.5-4.9,3.5-6.8c1.1-1,3.2-2.2,6.4-1.4l2.5,4.7
		c-1.3-0.3-3.1,0-4.3,0.9c-2.2,1.7-3,4-3.4,7.4C30,71.3,29.2,74.1,28,76.1z M30.6,74.5c0.6-1.4,1.4-5.3,1.7-6.6
		c0.3-1.7,0.6-4.2,2.6-5.8c1-0.8,2.6-0.9,3.3-0.7l2.8,5.8c0.3,0.6,1.1,0.8,1.7,0.8C39.9,68.8,33.2,72,30.6,74.5z M44.3,67.4l-1-3.5
		l2.3-3.3c0,0-2.4,0.9-3.2,0.9c-0.2,0-1.3,0.2-1.6-0.9c0,0-0.2-0.8-0.2-1.1c0-0.3,0.2-0.7,0.5-0.6c0.5,0.1,0.7-0.1,0.7-0.1l0.5-0.7
		c-0.4,0-0.9-0.2-1.1-0.2s-0.6,0.2-0.9,0.3c-0.2-0.2-0.5-0.4-0.4-0.8h2.7l0-0.3c0,0-1.4-0.6-1.9-0.7c-0.5,0-0.8,0.3-0.8,0.3v-0.5
		l1.5-1.3L40,54.4l-0.9,0.2l0.6-3.6l-0.3-0.6l-1.5,0.9l-0.1-2c0.1-0.4,0.8-1.1,1.4-1.4L39,46.7c-0.6,0.4-1.3,0.6-1.7,1.2
		c-0.4,0.5-0.8,1.3-0.8,1.9c-0.5-0.4-0.5-1.2-0.5-1.7c0.1-0.7,0.4-1.2,1.1-1.8c-0.2-0.6-0.3-1.6,0-2.6c0.3-1.6,2.2-4.7,6.7-4.7
		c2.7,0,5.9,1.6,8.1,3.3c2.8,2.1,4.5,4.1,4.6,4.8c0,0.3,0.2,0.7,0,0.9c-0.3-0.4-2.5-2.5-2.5-2.5l-1.4,1.7l2.6,2.3
		c-0.6,0.4-1.2,0.6-2.2,0.5c-1.2-0.1-3.9-1.8-3.9-3.2c-1.1-0.5-3.6-1.2-5.6-1.2c-1.3,0-2.8,0.3-3.3,0.5c-0.5,0.2-0.8-0.1-1.1-0.3
		L39,46l1,1.5c0.3,0.2,0.9-0.2,1.7-0.3c1.4-0.2,3.2,0,4.6,0.8c1,0.6,3.7,2.8,4.2,3.4c0.6,0.5,1.4,0.7,1.8,0.3c0.4-0.3,1-0.3,0.9,0.1
		c0,0.5-0.3,1,0.2,1.2c0.4,0.2,0.7-0.2,1-0.4c0.3-0.2,0.6-0.3,1-0.1c-0.3,0.5-0.9,1.3-1.5,1.8c-0.6,0.5-1.4,0.9-2,0.7l-0.4,0.9
		l2.5,5.9c0.7,1.4,0.8,1.7,1.3,2.6C50.5,65.1,45.9,66.8,44.3,67.4z M57.9,63.9c-0.5-0.8-0.8-1.5-1.3-2.7c0,0-1.5-2.8-1.8-3.3
		c-0.2-0.5-0.4-1.2,0-1.9c0.5-0.7,1.6-1.7,2.3-2.1l0.2,3.5c0,0,2.3,4.3,3.3,6.5C59.6,63.8,58.8,63.9,57.9,63.9z M58.9,48.3
		c-0.1-0.9-1.1-3.2-1.7-3.7l10.6-4.7L58.9,48.3z M52.9,44.5c-0.5-0.5-3.5-2.3-4.3-2.7l-1,2.5c0.7,0.2,2.9,1.3,4,2L52.9,44.5z
		 M43.1,48.8c-1.1,0.2-2.2,0.9-2.2,0.9v0.9c0.5,0.1,1.1,0.7,1.4,1.2l0.8-0.2L42.8,51c0,0,0.5-0.2,1.1-0.3c0.7,0,1.3,0.1,1.7,0.4
		l1.8-0.4l0.2-0.4C46.4,49.4,44.6,48.5,43.1,48.8z M46.3,43.9l0.5-2.7c-0.8-0.4-2-0.7-3.1-0.7s-2.2,0.3-2.9,0.8l0.8,2.4
		C42.8,43.5,45.5,43.4,46.3,43.9z M39.6,42c-0.6,0.6-1.8,2.1-1.3,3.6c0.5-0.5,1.5-1.3,2.2-1.6L39.6,42z M39.6,42
		c-0.6,0.6-1.8,2.1-1.3,3.6c0.5-0.5,1.5-1.3,2.2-1.6L39.6,42z M43.7,40.6c-1.1,0-2.2,0.3-2.9,0.8l0.8,2.4c1.1-0.3,3.8-0.4,4.6,0.2
		l0.5-2.7C46,40.9,44.8,40.6,43.7,40.6z M43.1,48.8c-1.1,0.2-2.2,0.9-2.2,0.9v0.9c0.5,0.1,1.1,0.7,1.4,1.2l0.8-0.2L42.8,51
		c0,0,0.5-0.2,1.1-0.3c0.7,0,1.3,0.1,1.7,0.4l1.8-0.4l0.2-0.4C46.4,49.4,44.6,48.5,43.1,48.8z M48.6,41.8l-1,2.5
		c0.7,0.2,2.9,1.3,4,2l1.3-1.8C52.4,44.1,49.4,42.2,48.6,41.8z M48.6,41.8l-1,2.5c0.7,0.2,2.9,1.3,4,2l1.3-1.8
		C52.4,44.1,49.4,42.2,48.6,41.8z M43.1,48.8c-1.1,0.2-2.2,0.9-2.2,0.9v0.9c0.5,0.1,1.1,0.7,1.4,1.2l0.8-0.2L42.8,51
		c0,0,0.5-0.2,1.1-0.3c0.7,0,1.3,0.1,1.7,0.4l1.8-0.4l0.2-0.4C46.4,49.4,44.6,48.5,43.1,48.8z M43.7,40.6c-1.1,0-2.2,0.3-2.9,0.8
		l0.8,2.4c1.1-0.3,3.8-0.4,4.6,0.2l0.5-2.7C46,40.9,44.8,40.6,43.7,40.6z M39.6,42c-0.6,0.6-1.8,2.1-1.3,3.6
		c0.5-0.5,1.5-1.3,2.2-1.6L39.6,42z M39.6,42c-0.6,0.6-1.8,2.1-1.3,3.6c0.5-0.5,1.5-1.3,2.2-1.6L39.6,42z M43.7,40.6
		c-1.1,0-2.2,0.3-2.9,0.8l0.8,2.4c1.1-0.3,3.8-0.4,4.6,0.2l0.5-2.7C46,40.9,44.8,40.6,43.7,40.6z M43.1,48.8
		c-1.1,0.2-2.2,0.9-2.2,0.9v0.9c0.5,0.1,1.1,0.7,1.4,1.2l0.8-0.2L42.8,51c0,0,0.5-0.2,1.1-0.3c0.7,0,1.3,0.1,1.7,0.4l1.8-0.4
		l0.2-0.4C46.4,49.4,44.6,48.5,43.1,48.8z M48.6,41.8l-1,2.5c0.7,0.2,2.9,1.3,4,2l1.3-1.8C52.4,44.1,49.4,42.2,48.6,41.8z
		 M48.6,41.8l-1,2.5c0.7,0.2,2.9,1.3,4,2l1.3-1.8C52.4,44.1,49.4,42.2,48.6,41.8z M43.1,48.8c-1.1,0.2-2.2,0.9-2.2,0.9v0.9
		c0.5,0.1,1.1,0.7,1.4,1.2l0.8-0.2L42.8,51c0,0,0.5-0.2,1.1-0.3c0.7,0,1.3,0.1,1.7,0.4l1.8-0.4l0.2-0.4
		C46.4,49.4,44.6,48.5,43.1,48.8z M43.7,40.6c-1.1,0-2.2,0.3-2.9,0.8l0.8,2.4c1.1-0.3,3.8-0.4,4.6,0.2l0.5-2.7
		C46,40.9,44.8,40.6,43.7,40.6z M39.6,42c-0.6,0.6-1.8,2.1-1.3,3.6c0.5-0.5,1.5-1.3,2.2-1.6L39.6,42z M39.6,42
		c-0.6,0.6-1.8,2.1-1.3,3.6c0.5-0.5,1.5-1.3,2.2-1.6L39.6,42z M43.7,40.6c-1.1,0-2.2,0.3-2.9,0.8l0.8,2.4c1.1-0.3,3.8-0.4,4.6,0.2
		l0.5-2.7C46,40.9,44.8,40.6,43.7,40.6z M43.1,48.8c-1.1,0.2-2.2,0.9-2.2,0.9v0.9c0.5,0.1,1.1,0.7,1.4,1.2l0.8-0.2L42.8,51
		c0,0,0.5-0.2,1.1-0.3c0.7,0,1.3,0.1,1.7,0.4l1.8-0.4l0.2-0.4C46.4,49.4,44.6,48.5,43.1,48.8z M48.6,41.8l-1,2.5
		c0.7,0.2,2.9,1.3,4,2l1.3-1.8C52.4,44.1,49.4,42.2,48.6,41.8z M48.6,41.8l-1,2.5c0.7,0.2,2.9,1.3,4,2l1.3-1.8
		C52.4,44.1,49.4,42.2,48.6,41.8z M43.1,48.8c-1.1,0.2-2.2,0.9-2.2,0.9v0.9c0.5,0.1,1.1,0.7,1.4,1.2l0.8-0.2L42.8,51
		c0,0,0.5-0.2,1.1-0.3c0.7,0,1.3,0.1,1.7,0.4l1.8-0.4l0.2-0.4C46.4,49.4,44.6,48.5,43.1,48.8z M43.7,40.6c-1.1,0-2.2,0.3-2.9,0.8
		l0.8,2.4c1.1-0.3,3.8-0.4,4.6,0.2l0.5-2.7C46,40.9,44.8,40.6,43.7,40.6z M39.6,42c-0.6,0.6-1.8,2.1-1.3,3.6
		c0.5-0.5,1.5-1.3,2.2-1.6L39.6,42z M39.6,42c-0.6,0.6-1.8,2.1-1.3,3.6c0.5-0.5,1.5-1.3,2.2-1.6L39.6,42z M43.7,40.6
		c-1.1,0-2.2,0.3-2.9,0.8l0.8,2.4c1.1-0.3,3.8-0.4,4.6,0.2l0.5-2.7C46,40.9,44.8,40.6,43.7,40.6z M43.1,48.8
		c-1.1,0.2-2.2,0.9-2.2,0.9v0.9c0.5,0.1,1.1,0.7,1.4,1.2l0.8-0.2L42.8,51c0,0,0.5-0.2,1.1-0.3c0.7,0,1.3,0.1,1.7,0.4l1.8-0.4
		l0.2-0.4C46.4,49.4,44.6,48.5,43.1,48.8z M48.6,41.8l-1,2.5c0.7,0.2,2.9,1.3,4,2l1.3-1.8C52.4,44.1,49.4,42.2,48.6,41.8z
		 M48.6,41.8l-1,2.5c0.7,0.2,2.9,1.3,4,2l1.3-1.8C52.4,44.1,49.4,42.2,48.6,41.8z M43.1,48.8c-1.1,0.2-2.2,0.9-2.2,0.9v0.9
		c0.5,0.1,1.1,0.7,1.4,1.2l0.8-0.2L42.8,51c0,0,0.5-0.2,1.1-0.3c0.7,0,1.3,0.1,1.7,0.4l1.8-0.4l0.2-0.4
		C46.4,49.4,44.6,48.5,43.1,48.8z M43.7,40.6c-1.1,0-2.2,0.3-2.9,0.8l0.8,2.4c1.1-0.3,3.8-0.4,4.6,0.2l0.5-2.7
		C46,40.9,44.8,40.6,43.7,40.6z M39.6,42c-0.6,0.6-1.8,2.1-1.3,3.6c0.5-0.5,1.5-1.3,2.2-1.6L39.6,42z M39.6,42
		c-0.6,0.6-1.8,2.1-1.3,3.6c0.5-0.5,1.5-1.3,2.2-1.6L39.6,42z M43.7,40.6c-1.1,0-2.2,0.3-2.9,0.8l0.8,2.4c1.1-0.3,3.8-0.4,4.6,0.2
		l0.5-2.7C46,40.9,44.8,40.6,43.7,40.6z M43.1,48.8c-1.1,0.2-2.2,0.9-2.2,0.9v0.9c0.5,0.1,1.1,0.7,1.4,1.2l0.8-0.2L42.8,51
		c0,0,0.5-0.2,1.1-0.3c0.7,0,1.3,0.1,1.7,0.4l1.8-0.4l0.2-0.4C46.4,49.4,44.6,48.5,43.1,48.8z M48.6,41.8l-1,2.5
		c0.7,0.2,2.9,1.3,4,2l1.3-1.8C52.4,44.1,49.4,42.2,48.6,41.8z M48.6,41.8l-1,2.5c0.7,0.2,2.9,1.3,4,2l1.3-1.8
		C52.4,44.1,49.4,42.2,48.6,41.8z M43.1,48.8c-1.1,0.2-2.2,0.9-2.2,0.9v0.9c0.5,0.1,1.1,0.7,1.4,1.2l0.8-0.2L42.8,51
		c0,0,0.5-0.2,1.1-0.3c0.7,0,1.3,0.1,1.7,0.4l1.8-0.4l0.2-0.4C46.4,49.4,44.6,48.5,43.1,48.8z M43.7,40.6c-1.1,0-2.2,0.3-2.9,0.8
		l0.8,2.4c1.1-0.3,3.8-0.4,4.6,0.2l0.5-2.7C46,40.9,44.8,40.6,43.7,40.6z M39.6,42c-0.6,0.6-1.8,2.1-1.3,3.6
		c0.5-0.5,1.5-1.3,2.2-1.6L39.6,42z M39.6,42c-0.6,0.6-1.8,2.1-1.3,3.6c0.5-0.5,1.5-1.3,2.2-1.6L39.6,42z M43.7,40.6
		c-1.1,0-2.2,0.3-2.9,0.8l0.8,2.4c1.1-0.3,3.8-0.4,4.6,0.2l0.5-2.7C46,40.9,44.8,40.6,43.7,40.6z M43.1,48.8
		c-1.1,0.2-2.2,0.9-2.2,0.9v0.9c0.5,0.1,1.1,0.7,1.4,1.2l0.8-0.2L42.8,51c0,0,0.5-0.2,1.1-0.3c0.7,0,1.3,0.1,1.7,0.4l1.8-0.4
		l0.2-0.4C46.4,49.4,44.6,48.5,43.1,48.8z M48.6,41.8l-1,2.5c0.7,0.2,2.9,1.3,4,2l1.3-1.8C52.4,44.1,49.4,42.2,48.6,41.8z
		 M48.6,41.8l-1,2.5c0.7,0.2,2.9,1.3,4,2l1.3-1.8C52.4,44.1,49.4,42.2,48.6,41.8z M43.1,48.8c-1.1,0.2-2.2,0.9-2.2,0.9v0.9
		c0.5,0.1,1.1,0.7,1.4,1.2l0.8-0.2L42.8,51c0,0,0.5-0.2,1.1-0.3c0.7,0,1.3,0.1,1.7,0.4l1.8-0.4l0.2-0.4
		C46.4,49.4,44.6,48.5,43.1,48.8z M43.7,40.6c-1.1,0-2.2,0.3-2.9,0.8l0.8,2.4c1.1-0.3,3.8-0.4,4.6,0.2l0.5-2.7
		C46,40.9,44.8,40.6,43.7,40.6z M39.6,42c-0.6,0.6-1.8,2.1-1.3,3.6c0.5-0.5,1.5-1.3,2.2-1.6L39.6,42z"/>
	<path class="st0" d="M19.5,22.5c0,0,0.1,0,0.1,0.1C19.6,22.5,19.5,22.5,19.5,22.5c-0.1,0-0.2-0.1-0.4-0.2
		C19.2,22.4,19.4,22.5,19.5,22.5z"/>
	<path class="st0" d="M362.8,54.1c0.5,0,0.9-0.3,0.9-0.9c0-0.7-0.5-1-1.3-1h-1.3v3.5h0.6v-1.5h0.5l0.9,1.5h0.7L362.8,54.1z
		 M361.7,53.7v-1h0.6c0.3,0,0.7,0.1,0.7,0.5c0,0.5-0.3,0.5-0.7,0.5H361.7z M362.8,54.1c0.5,0,0.9-0.3,0.9-0.9c0-0.7-0.5-1-1.3-1
		h-1.3v3.5h0.6v-1.5h0.5l0.9,1.5h0.7L362.8,54.1z M361.7,53.7v-1h0.6c0.3,0,0.7,0.1,0.7,0.5c0,0.5-0.3,0.5-0.7,0.5H361.7z
		 M362.8,54.1c0.5,0,0.9-0.3,0.9-0.9c0-0.7-0.5-1-1.3-1h-1.3v3.5h0.6v-1.5h0.5l0.9,1.5h0.7L362.8,54.1z M361.7,53.7v-1h0.6
		c0.3,0,0.7,0.1,0.7,0.5c0,0.5-0.3,0.5-0.7,0.5H361.7z M362.8,54.1c0.5,0,0.9-0.3,0.9-0.9c0-0.7-0.5-1-1.3-1h-1.3v3.5h0.6v-1.5h0.5
		l0.9,1.5h0.7L362.8,54.1z M361.7,53.7v-1h0.6c0.3,0,0.7,0.1,0.7,0.5c0,0.5-0.3,0.5-0.7,0.5H361.7z M362.8,54.1
		c0.5,0,0.9-0.3,0.9-0.9c0-0.7-0.5-1-1.3-1h-1.3v3.5h0.6v-1.5h0.5l0.9,1.5h0.7L362.8,54.1z M361.7,53.7v-1h0.6
		c0.3,0,0.7,0.1,0.7,0.5c0,0.5-0.3,0.5-0.7,0.5H361.7z M362.8,54.1c0.5,0,0.9-0.3,0.9-0.9c0-0.7-0.5-1-1.3-1h-1.3v3.5h0.6v-1.5h0.5
		l0.9,1.5h0.7L362.8,54.1z M361.7,53.7v-1h0.6c0.3,0,0.7,0.1,0.7,0.5c0,0.5-0.3,0.5-0.7,0.5H361.7z M362.8,54.1
		c0.5,0,0.9-0.3,0.9-0.9c0-0.7-0.5-1-1.3-1h-1.3v3.5h0.6v-1.5h0.5l0.9,1.5h0.7L362.8,54.1z M361.7,53.7v-1h0.6
		c0.3,0,0.7,0.1,0.7,0.5c0,0.5-0.3,0.5-0.7,0.5H361.7z M362.8,54.1c0.5,0,0.9-0.3,0.9-0.9c0-0.7-0.5-1-1.3-1h-1.3v3.5h0.6v-1.5h0.5
		l0.9,1.5h0.7L362.8,54.1z M361.7,53.7v-1h0.6c0.3,0,0.7,0.1,0.7,0.5c0,0.5-0.3,0.5-0.7,0.5H361.7z M362.8,54.1
		c0.5,0,0.9-0.3,0.9-0.9c0-0.7-0.5-1-1.3-1h-1.3v3.5h0.6v-1.5h0.5l0.9,1.5h0.7L362.8,54.1z M361.7,53.7v-1h0.6
		c0.3,0,0.7,0.1,0.7,0.5c0,0.5-0.3,0.5-0.7,0.5H361.7z M362.8,54.1c0.5,0,0.9-0.3,0.9-0.9c0-0.7-0.5-1-1.3-1h-1.3v3.5h0.6v-1.5h0.5
		l0.9,1.5h0.7L362.8,54.1z M361.7,53.7v-1h0.6c0.3,0,0.7,0.1,0.7,0.5c0,0.5-0.3,0.5-0.7,0.5H361.7z M362.8,54.1
		c0.5,0,0.9-0.3,0.9-0.9c0-0.7-0.5-1-1.3-1h-1.3v3.5h0.6v-1.5h0.5l0.9,1.5h0.7L362.8,54.1z M361.7,53.7v-1h0.6
		c0.3,0,0.7,0.1,0.7,0.5c0,0.5-0.3,0.5-0.7,0.5H361.7z M362.8,54.1c0.5,0,0.9-0.3,0.9-0.9c0-0.7-0.5-1-1.3-1h-1.3v3.5h0.6v-1.5h0.5
		l0.9,1.5h0.7L362.8,54.1z M361.7,53.7v-1h0.6c0.3,0,0.7,0.1,0.7,0.5c0,0.5-0.3,0.5-0.7,0.5H361.7z M362.8,54.1
		c0.5,0,0.9-0.3,0.9-0.9c0-0.7-0.5-1-1.3-1h-1.3v3.5h0.6v-1.5h0.5l0.9,1.5h0.7L362.8,54.1z M361.7,53.7v-1h0.6
		c0.3,0,0.7,0.1,0.7,0.5c0,0.5-0.3,0.5-0.7,0.5H361.7z M362.8,54.1c0.5,0,0.9-0.3,0.9-0.9c0-0.7-0.5-1-1.3-1h-1.3v3.5h0.6v-1.5h0.5
		l0.9,1.5h0.7L362.8,54.1z M361.7,53.7v-1h0.6c0.3,0,0.7,0.1,0.7,0.5c0,0.5-0.3,0.5-0.7,0.5H361.7z M362.8,54.1
		c0.5,0,0.9-0.3,0.9-0.9c0-0.7-0.5-1-1.3-1h-1.3v3.5h0.6v-1.5h0.5l0.9,1.5h0.7L362.8,54.1z M361.7,53.7v-1h0.6
		c0.3,0,0.7,0.1,0.7,0.5c0,0.5-0.3,0.5-0.7,0.5H361.7z M362.8,54.1c0.5,0,0.9-0.3,0.9-0.9c0-0.7-0.5-1-1.3-1h-1.3v3.5h0.6v-1.5h0.5
		l0.9,1.5h0.7L362.8,54.1z M361.7,53.7v-1h0.6c0.3,0,0.7,0.1,0.7,0.5c0,0.5-0.3,0.5-0.7,0.5H361.7z M362.3,50.7
		c-1.6,0-3.1,1.3-3.1,3.2c0,1.9,1.5,3.2,3.1,3.2c1.7,0,3.1-1.3,3.1-3.2C365.4,51.9,363.9,50.7,362.3,50.7z M362.3,56.4
		c-1.3,0-2.4-1-2.4-2.5c0-1.5,1.1-2.5,2.4-2.5c1.3,0,2.4,1,2.4,2.5C364.7,55.3,363.6,56.4,362.3,56.4z M363.7,53.2
		c0-0.7-0.5-1-1.3-1h-1.3v3.5h0.6v-1.5h0.5l0.9,1.5h0.7l-0.9-1.5C363.3,54.1,363.7,53.8,363.7,53.2z M361.7,53.7v-1h0.6
		c0.3,0,0.7,0.1,0.7,0.5c0,0.5-0.3,0.5-0.7,0.5H361.7z M362.8,54.1c0.5,0,0.9-0.3,0.9-0.9c0-0.7-0.5-1-1.3-1h-1.3v3.5h0.6v-1.5h0.5
		l0.9,1.5h0.7L362.8,54.1z M361.7,53.7v-1h0.6c0.3,0,0.7,0.1,0.7,0.5c0,0.5-0.3,0.5-0.7,0.5H361.7z M362.8,54.1
		c0.5,0,0.9-0.3,0.9-0.9c0-0.7-0.5-1-1.3-1h-1.3v3.5h0.6v-1.5h0.5l0.9,1.5h0.7L362.8,54.1z M361.7,53.7v-1h0.6
		c0.3,0,0.7,0.1,0.7,0.5c0,0.5-0.3,0.5-0.7,0.5H361.7z M362.8,54.1c0.5,0,0.9-0.3,0.9-0.9c0-0.7-0.5-1-1.3-1h-1.3v3.5h0.6v-1.5h0.5
		l0.9,1.5h0.7L362.8,54.1z M361.7,53.7v-1h0.6c0.3,0,0.7,0.1,0.7,0.5c0,0.5-0.3,0.5-0.7,0.5H361.7z M362.8,54.1
		c0.5,0,0.9-0.3,0.9-0.9c0-0.7-0.5-1-1.3-1h-1.3v3.5h0.6v-1.5h0.5l0.9,1.5h0.7L362.8,54.1z M361.7,53.7v-1h0.6
		c0.3,0,0.7,0.1,0.7,0.5c0,0.5-0.3,0.5-0.7,0.5H361.7z M362.8,54.1c0.5,0,0.9-0.3,0.9-0.9c0-0.7-0.5-1-1.3-1h-1.3v3.5h0.6v-1.5h0.5
		l0.9,1.5h0.7L362.8,54.1z M361.7,53.7v-1h0.6c0.3,0,0.7,0.1,0.7,0.5c0,0.5-0.3,0.5-0.7,0.5H361.7z M362.8,54.1
		c0.5,0,0.9-0.3,0.9-0.9c0-0.7-0.5-1-1.3-1h-1.3v3.5h0.6v-1.5h0.5l0.9,1.5h0.7L362.8,54.1z M361.7,53.7v-1h0.6
		c0.3,0,0.7,0.1,0.7,0.5c0,0.5-0.3,0.5-0.7,0.5H361.7z M362.8,54.1c0.5,0,0.9-0.3,0.9-0.9c0-0.7-0.5-1-1.3-1h-1.3v3.5h0.6v-1.5h0.5
		l0.9,1.5h0.7L362.8,54.1z M361.7,53.7v-1h0.6c0.3,0,0.7,0.1,0.7,0.5c0,0.5-0.3,0.5-0.7,0.5H361.7z M362.8,54.1
		c0.5,0,0.9-0.3,0.9-0.9c0-0.7-0.5-1-1.3-1h-1.3v3.5h0.6v-1.5h0.5l0.9,1.5h0.7L362.8,54.1z M361.7,53.7v-1h0.6
		c0.3,0,0.7,0.1,0.7,0.5c0,0.5-0.3,0.5-0.7,0.5H361.7z M362.8,54.1c0.5,0,0.9-0.3,0.9-0.9c0-0.7-0.5-1-1.3-1h-1.3v3.5h0.6v-1.5h0.5
		l0.9,1.5h0.7L362.8,54.1z M361.7,53.7v-1h0.6c0.3,0,0.7,0.1,0.7,0.5c0,0.5-0.3,0.5-0.7,0.5H361.7z M362.8,54.1
		c0.5,0,0.9-0.3,0.9-0.9c0-0.7-0.5-1-1.3-1h-1.3v3.5h0.6v-1.5h0.5l0.9,1.5h0.7L362.8,54.1z M361.7,53.7v-1h0.6
		c0.3,0,0.7,0.1,0.7,0.5c0,0.5-0.3,0.5-0.7,0.5H361.7z M362.8,54.1c0.5,0,0.9-0.3,0.9-0.9c0-0.7-0.5-1-1.3-1h-1.3v3.5h0.6v-1.5h0.5
		l0.9,1.5h0.7L362.8,54.1z M361.7,53.7v-1h0.6c0.3,0,0.7,0.1,0.7,0.5c0,0.5-0.3,0.5-0.7,0.5H361.7z M362.8,54.1
		c0.5,0,0.9-0.3,0.9-0.9c0-0.7-0.5-1-1.3-1h-1.3v3.5h0.6v-1.5h0.5l0.9,1.5h0.7L362.8,54.1z M361.7,53.7v-1h0.6
		c0.3,0,0.7,0.1,0.7,0.5c0,0.5-0.3,0.5-0.7,0.5H361.7z M362.8,54.1c0.5,0,0.9-0.3,0.9-0.9c0-0.7-0.5-1-1.3-1h-1.3v3.5h0.6v-1.5h0.5
		l0.9,1.5h0.7L362.8,54.1z M361.7,53.7v-1h0.6c0.3,0,0.7,0.1,0.7,0.5c0,0.5-0.3,0.5-0.7,0.5H361.7z M362.8,54.1
		c0.5,0,0.9-0.3,0.9-0.9c0-0.7-0.5-1-1.3-1h-1.3v3.5h0.6v-1.5h0.5l0.9,1.5h0.7L362.8,54.1z M361.7,53.7v-1h0.6
		c0.3,0,0.7,0.1,0.7,0.5c0,0.5-0.3,0.5-0.7,0.5H361.7z"/>
	<rect x="77.5" y="66.8" class="st0" width="108.5" height="1.1"/>
	<rect x="200.8" y="66.8" class="st0" width="156.5" height="1.1"/>
	<g>
		<path class="st0" d="M140,77.5v15.1h2.8V77.5H140z"/>
		<path class="st0" d="M160.2,77.5v10.8h0l-6.3-10.8h-2.6v15.1h2.6V81.8h0l6.3,10.8h2.6V77.5H160.2z"/>
		<path class="st0" d="M178,83.7l-1.9-0.4c-1.7-0.4-3.1-0.7-3.1-1.9c0-1.1,1.2-1.7,2.9-1.7c1.8,0,3.2,0.8,4,2.2l2.3-1.8
			c-1.6-2.1-3.7-3-6.3-3c-2.8,0-5.8,1.5-5.8,4.7c0,2.8,2.1,3.7,4.5,4.2l1.7,0.4c2,0.5,3.1,0.8,3.1,2c0,1.5-1.8,1.9-3.2,1.9
			c-1.9,0-3.5-0.7-4.6-2.3l-2.4,1.7c1.4,2.1,4,3.2,6.5,3.2c3.1,0,6.6-1.3,6.6-5C182.3,85.1,180.2,84.2,178,83.7z"/>
		<path class="st0" d="M199,77.5v9.7c0,1.8-0.8,3-3.2,3c-2.5,0-3.2-1.2-3.2-3v-9.7h-2.8v10.5c0,3.1,2.4,5,6.1,5c3.7,0,6.1-1.9,6.1-5
			V77.5H199z"/>
		<path class="st0" d="M218.3,86.5c0.7-0.3,3-1.1,3-4.5c0-2.7-1.9-4.6-5.1-4.6H210v15.1h2.8V87h2.7l2.9,5.6h3.3L218.3,86.5z
			 M215.9,84.5h-3.1V80h2.7c2,0,2.9,0.9,2.9,2.3C218.4,83.7,217.3,84.5,215.9,84.5z"/>
		<path class="st0" d="M235.6,77.5h-3.3l-5,15.1h3l0.9-2.9h5.7l0.9,2.9h3L235.6,77.5z M231.9,87.1l2.1-6.9h0l2.1,6.9H231.9z"/>
		<path class="st0" d="M256.1,77.5v10.8h0l-6.3-10.8h-2.6v15.1h2.6V81.8h0l6.3,10.8h2.6V77.5H256.1z"/>
		<path class="st0" d="M276.8,87.3c-0.5,1.8-1.7,3.1-3.7,3.1c-3,0-4.3-2.7-4.3-5.3c0-2.6,1.2-5.3,4.3-5.3c1.7,0,3.1,1.1,3.3,2.8
			l2.7-0.7c-0.7-3.2-3-4.8-6.1-4.8c-4.5,0-7.2,3.7-7.2,7.9c0,4.3,2.4,7.9,7.2,7.9c3,0,5-1.5,6.2-4.5L276.8,87.3z"/>
		<path class="st0" d="M288.3,89.9V86h7.2v-2.5h-7.2v-3.4h7.8v-2.6h-10.7v15.1h11.2v-2.6H288.3z"/>
	</g>
</g>
</svg>
