<svg width="159" height="32" viewBox="0 0 159 32" fill="none" xmlns="http://www.w3.org/2000/svg">
<g id="mercury">
<path id="Vector" d="M45.3901 0.598633V31.4806H22.5962L45.3901 0.598633Z" fill="#003049" style="fill:#003049;fill:color(display-p3 0.0000 0.1882 0.2863);fill-opacity:1;"/>
<path id="Vector_2" d="M0.772949 31.4806H17.1142L43.8951 0.598633L0.772949 31.4806Z" fill="#003049" style="fill:#003049;fill:color(display-p3 0.0000 0.1882 0.2863);fill-opacity:1;"/>
<path id="Vector_3" d="M51.082 15.9734H54.3608V5.99702L58.61 12.5068H58.6887L62.9905 5.94409V15.9734H66.3217V0.598633H62.7019L58.6887 7.10845L54.7018 0.598633H51.082V15.9734Z" fill="#003049" style="fill:#003049;fill:color(display-p3 0.0000 0.1882 0.2863);fill-opacity:1;"/>
<path id="Vector_4" d="M69.1284 15.9734H80.7221V12.9567H72.4596V9.72825H79.6467V6.73797H72.4596V3.61538H80.6172V0.598633H69.1284V15.9734Z" fill="#003049" style="fill:#003049;fill:color(display-p3 0.0000 0.1882 0.2863);fill-opacity:1;"/>
<path id="Vector_5" d="M96.0137 5.7324V5.67947C96.0137 4.22402 95.5678 3.0332 94.7022 2.15994C93.7054 1.15436 92.2103 0.598633 90.2693 0.598633H83.3184V15.9734H86.6758V11.0514H89.2726H89.325L92.5775 15.9734H96.4858L92.7612 10.4957C94.676 9.75472 96.0137 8.19342 96.0137 5.7324ZM92.6038 5.89117C92.6038 7.18784 91.6595 8.06111 90.0332 8.06111H86.6496V3.64184H89.9808C91.607 3.64184 92.6038 4.3828 92.6038 5.83825V5.89117Z" fill="#003049" style="fill:#003049;fill:color(display-p3 0.0000 0.1882 0.2863);fill-opacity:1;"/>
<path id="Vector_6" d="M105.614 16.2381C108.552 16.2381 110.309 15.1796 111.857 13.486L109.732 11.3161C108.525 12.401 107.476 13.1155 105.719 13.1155C103.096 13.1155 101.312 10.9191 101.312 8.29934V8.24642C101.312 5.60015 103.175 3.45667 105.719 3.45667C107.24 3.45667 108.447 4.11824 109.627 5.17675L111.752 2.68926C110.335 1.28674 108.604 0.307617 105.745 0.307617C101.076 0.307617 97.7974 3.88008 97.7974 8.24642V8.29934C97.7974 12.7451 101.129 16.2381 105.614 16.2381Z" fill="#003049" style="fill:#003049;fill:color(display-p3 0.0000 0.1882 0.2863);fill-opacity:1;"/>
<path id="Vector_7" d="M120.408 16.2116C124.5 16.2116 127.097 13.9358 127.097 9.27839V0.598633H123.739V9.4107C123.739 11.8453 122.506 13.089 120.46 13.089C118.414 13.089 117.182 11.7923 117.182 9.30486V0.598633H113.824V9.38424C113.824 13.9094 116.316 16.2116 120.408 16.2116Z" fill="#003049" style="fill:#003049;fill:color(display-p3 0.0000 0.1882 0.2863);fill-opacity:1;"/>
<path id="Vector_8" d="M142.651 5.7324V5.67947C142.651 4.22402 142.205 3.0332 141.339 2.15994C140.343 1.15436 138.848 0.598633 136.907 0.598633H129.956V15.9734H133.313V11.0514H135.91H135.962L139.215 15.9734H143.123L139.398 10.4957C141.339 9.75472 142.651 8.19342 142.651 5.7324ZM139.267 5.89117C139.267 7.18784 138.323 8.06111 136.697 8.06111H133.313V3.64184H136.644C138.27 3.64184 139.267 4.3828 139.267 5.83825V5.89117Z" fill="#003049" style="fill:#003049;fill:color(display-p3 0.0000 0.1882 0.2863);fill-opacity:1;"/>
<path id="Vector_9" d="M148.946 15.9734H152.303V9.86057L158.153 0.598633H154.349L150.651 6.76444L147.005 0.598633H143.097L148.946 9.91349V15.9734Z" fill="#003049" style="fill:#003049;fill:color(display-p3 0.0000 0.1882 0.2863);fill-opacity:1;"/>
<path id="Vector_10" d="M53.2854 18.8315H51.082V31.4807H53.2854V18.8315Z" fill="#003049" style="fill:#003049;fill:color(display-p3 0.0000 0.1882 0.2863);fill-opacity:1;"/>
<path id="Vector_11" d="M56.4854 31.4807H58.6624V22.4834L65.5609 31.4807H67.397V18.8315H65.2462V27.5907L58.5313 18.8315H56.4854V31.4807Z" fill="#003049" style="fill:#003049;fill:color(display-p3 0.0000 0.1882 0.2863);fill-opacity:1;"/>
<path id="Vector_12" d="M74.8199 31.6655C77.4429 31.6655 79.3052 30.263 79.3052 27.8814V27.8549C79.3052 25.7644 77.915 24.8117 75.2658 24.1501C72.8788 23.568 72.3018 23.1445 72.3018 22.1654V22.139C72.3018 21.3186 73.0625 20.6306 74.3477 20.6306C75.5018 20.6306 76.6297 21.0805 77.7576 21.9273L78.938 20.2601C77.6527 19.2281 76.2101 18.6724 74.4002 18.6724C71.9083 18.6724 70.1247 20.1807 70.1247 22.3507V22.3771C70.1247 24.7059 71.6198 25.4997 74.2953 26.1613C76.6297 26.6905 77.1281 27.1933 77.1281 28.0931V28.1195C77.1281 29.0722 76.2625 29.7073 74.8986 29.7073C73.351 29.7073 72.1444 29.0987 70.9378 28.0666L69.6001 29.6544C71.0952 31.004 72.9051 31.6655 74.8199 31.6655Z" fill="#003049" style="fill:#003049;fill:color(display-p3 0.0000 0.1882 0.2863);fill-opacity:1;"/>
<path id="Vector_13" d="M86.8333 31.6919C90.1121 31.6919 92.2105 29.7866 92.2105 26.0289V18.8575H90.0072V26.1347C90.0072 28.4635 88.8006 29.6543 86.8596 29.6543C84.8923 29.6543 83.6857 28.3841 83.6857 26.0289V18.8311H81.4824V26.1083C81.4824 29.7866 83.5808 31.6919 86.8333 31.6919Z" fill="#003049" style="fill:#003049;fill:color(display-p3 0.0000 0.1882 0.2863);fill-opacity:1;"/>
<path id="Vector_14" d="M105.299 22.8802V22.8538C105.299 21.7423 104.932 20.8162 104.25 20.1281C103.437 19.3342 102.204 18.8579 100.63 18.8579H95.0435V31.5071H97.2468V27.0878H99.9747H100.001L103.07 31.5071H105.667L102.309 26.6909C104.067 26.1881 105.299 24.9443 105.299 22.8802ZM103.07 22.9861C103.07 24.2563 102.073 25.1031 100.499 25.1031H97.273V20.8691H100.473C102.099 20.8691 103.07 21.61 103.07 22.9596V22.9861Z" fill="#003049" style="fill:#003049;fill:color(display-p3 0.0000 0.1882 0.2863);fill-opacity:1;"/>
<path id="Vector_15" d="M119.962 31.4805L114.454 18.752H112.408L106.899 31.4805H109.155L110.44 28.4373H116.368L117.627 31.4805H119.962ZM115.555 26.4526H111.227L113.378 21.3982L115.555 26.4526Z" fill="#003049" style="fill:#003049;fill:color(display-p3 0.0000 0.1882 0.2863);fill-opacity:1;"/>
<path id="Vector_16" d="M121.798 31.4807H123.975V22.4834L130.873 31.4807H132.71V18.8315H130.559V27.5907L123.844 18.8315H121.798V31.4807Z" fill="#003049" style="fill:#003049;fill:color(display-p3 0.0000 0.1882 0.2863);fill-opacity:1;"/>
<path id="Vector_17" d="M141.497 31.6923C143.831 31.6923 145.274 30.819 146.585 29.443L145.169 27.9875C144.094 28.9931 143.123 29.6282 141.575 29.6282C139.189 29.6282 137.431 27.617 137.431 25.1295V25.1031C137.431 22.6156 139.162 20.6309 141.575 20.6309C143.018 20.6309 144.094 21.266 145.09 22.1922L146.507 20.5515C145.3 19.3871 143.91 18.5933 141.602 18.5933C137.798 18.5933 135.149 21.5306 135.149 25.1295V25.156C135.123 28.8343 137.851 31.6923 141.497 31.6923Z" fill="#003049" style="fill:#003049;fill:color(display-p3 0.0000 0.1882 0.2863);fill-opacity:1;"/>
<path id="Vector_18" d="M148.946 31.4807H158.153V29.496H151.15V26.1088H157.445V24.1241H151.15V20.8162H158.153V18.8315H148.946V31.4807Z" fill="#003049" style="fill:#003049;fill:color(display-p3 0.0000 0.1882 0.2863);fill-opacity:1;"/>
<path id="Vector_19" d="M45.3901 0.598633V31.4806H22.5962L45.3901 0.598633Z" fill="#003049" style="fill:#003049;fill:color(display-p3 0.0000 0.1882 0.2863);fill-opacity:1;"/>
<path id="Vector_20" d="M0.772949 31.4806H17.1142L43.8951 0.598633L0.772949 31.4806Z" fill="#003049" style="fill:#003049;fill:color(display-p3 0.0000 0.1882 0.2863);fill-opacity:1;"/>
<path id="Vector_21" d="M51.0557 15.9734H54.3606V5.99702L58.6099 12.5068H58.6886L62.9641 5.94409V15.9734H66.2953V0.598633H62.6756L58.6886 7.10845L54.6754 0.598633H51.0557V15.9734Z" fill="#003049" style="fill:#003049;fill:color(display-p3 0.0000 0.1882 0.2863);fill-opacity:1;"/>
<path id="Vector_22" d="M69.1284 15.9734H80.7221V12.9567H72.4596V9.72825H79.6467V6.73797H72.4596V3.61538H80.6172V0.598633H69.1284V15.9734Z" fill="#003049" style="fill:#003049;fill:color(display-p3 0.0000 0.1882 0.2863);fill-opacity:1;"/>
<path id="Vector_23" d="M96.0137 5.7324V5.67947C96.0137 4.22402 95.5678 3.0332 94.7022 2.15994C93.7054 1.15436 92.2103 0.598633 90.2693 0.598633H83.3184V15.9734H86.6758V11.0514H89.2726H89.325L92.5775 15.9734H96.4858L92.7612 10.4957C94.676 9.75472 96.0137 8.19342 96.0137 5.7324ZM92.6038 5.89117C92.6038 7.18784 91.6595 8.06111 90.0332 8.06111H86.6496V3.64184H89.9808C91.607 3.64184 92.6038 4.3828 92.6038 5.83825V5.89117Z" fill="#003049" style="fill:#003049;fill:color(display-p3 0.0000 0.1882 0.2863);fill-opacity:1;"/>
<path id="Vector_24" d="M105.614 16.2381C108.552 16.2381 110.309 15.1796 111.857 13.486L109.732 11.3161C108.525 12.401 107.476 13.1155 105.719 13.1155C103.096 13.1155 101.312 10.9191 101.312 8.29934V8.24642C101.312 5.60015 103.175 3.45667 105.719 3.45667C107.24 3.45667 108.447 4.11824 109.627 5.17675L111.752 2.68926C110.335 1.28674 108.604 0.307617 105.745 0.307617C101.076 0.307617 97.7974 3.88008 97.7974 8.24642V8.29934C97.7974 12.7451 101.129 16.2381 105.614 16.2381Z" fill="#003049" style="fill:#003049;fill:color(display-p3 0.0000 0.1882 0.2863);fill-opacity:1;"/>
<path id="Vector_25" d="M120.408 16.2116C124.5 16.2116 127.097 13.9358 127.097 9.27839V0.598633H123.739V9.4107C123.739 11.8453 122.506 13.089 120.46 13.089C118.414 13.089 117.182 11.7923 117.182 9.30486V0.598633H113.824V9.38424C113.824 13.9094 116.316 16.2116 120.408 16.2116Z" fill="#003049" style="fill:#003049;fill:color(display-p3 0.0000 0.1882 0.2863);fill-opacity:1;"/>
<path id="Vector_26" d="M142.651 5.7324V5.67947C142.651 4.22402 142.205 3.0332 141.339 2.15994C140.343 1.15436 138.848 0.598633 136.907 0.598633H129.956V15.9734H133.313V11.0514H135.91H135.962L139.215 15.9734H143.123L139.398 10.4957C141.339 9.75472 142.651 8.19342 142.651 5.7324ZM139.267 5.89117C139.267 7.18784 138.323 8.06111 136.697 8.06111H133.313V3.64184H136.644C138.27 3.64184 139.267 4.3828 139.267 5.83825V5.89117Z" fill="#003049" style="fill:#003049;fill:color(display-p3 0.0000 0.1882 0.2863);fill-opacity:1;"/>
<path id="Vector_27" d="M148.946 15.9734H152.303V9.86057L158.153 0.598633H154.349L150.651 6.76444L147.005 0.598633H143.097L148.946 9.91349V15.9734Z" fill="#003049" style="fill:#003049;fill:color(display-p3 0.0000 0.1882 0.2863);fill-opacity:1;"/>
<path id="Vector_28" d="M53.2854 18.8315H51.082V31.4807H53.2854V18.8315Z" fill="#003049" style="fill:#003049;fill:color(display-p3 0.0000 0.1882 0.2863);fill-opacity:1;"/>
<path id="Vector_29" d="M56.4854 31.4807H58.6624V22.4834L65.5609 31.4807H67.397V18.8315H65.2462V27.5907L58.5313 18.8315H56.4854V31.4807Z" fill="#003049" style="fill:#003049;fill:color(display-p3 0.0000 0.1882 0.2863);fill-opacity:1;"/>
<path id="Vector_30" d="M74.8199 31.6655C77.4429 31.6655 79.3052 30.263 79.3052 27.8814V27.8549C79.3052 25.7644 77.915 24.8117 75.2658 24.1501C72.8788 23.568 72.3018 23.1445 72.3018 22.1654V22.139C72.3018 21.3186 73.0625 20.6306 74.3477 20.6306C75.5018 20.6306 76.6297 21.0805 77.7576 21.9273L78.938 20.2601C77.6527 19.2281 76.2101 18.6724 74.4002 18.6724C71.9083 18.6724 70.1247 20.1807 70.1247 22.3507V22.3771C70.1247 24.7059 71.6198 25.4997 74.2953 26.1613C76.6297 26.6905 77.1281 27.1933 77.1281 28.0931V28.1195C77.1281 29.0722 76.2625 29.7073 74.8986 29.7073C73.351 29.7073 72.1444 29.0987 70.9378 28.0666L69.6001 29.6544C71.0952 31.004 72.9051 31.6655 74.8199 31.6655Z" fill="#003049" style="fill:#003049;fill:color(display-p3 0.0000 0.1882 0.2863);fill-opacity:1;"/>
<path id="Vector_31" d="M86.8333 31.6919C90.1121 31.6919 92.2105 29.7866 92.2105 26.0289V18.8575H90.0072V26.1347C90.0072 28.4635 88.8006 29.6543 86.8596 29.6543C84.8923 29.6543 83.6857 28.3841 83.6857 26.0289V18.8311H81.4824V26.1083C81.4824 29.7866 83.5808 31.6919 86.8333 31.6919Z" fill="#003049" style="fill:#003049;fill:color(display-p3 0.0000 0.1882 0.2863);fill-opacity:1;"/>
<path id="Vector_32" d="M105.299 22.8802V22.8538C105.299 21.7423 104.932 20.8162 104.25 20.1281C103.437 19.3342 102.204 18.8579 100.63 18.8579H95.0435V31.5071H97.2468V27.0878H99.9747H100.001L103.07 31.5071H105.667L102.309 26.6909C104.067 26.1881 105.299 24.9443 105.299 22.8802ZM103.07 22.9861C103.07 24.2563 102.073 25.1031 100.499 25.1031H97.273V20.8691H100.473C102.099 20.8691 103.07 21.61 103.07 22.9596V22.9861Z" fill="#003049" style="fill:#003049;fill:color(display-p3 0.0000 0.1882 0.2863);fill-opacity:1;"/>
<path id="Vector_33" d="M119.962 31.4805L114.454 18.752H112.408L106.899 31.4805H109.155L110.44 28.4373H116.368L117.627 31.4805H119.962ZM115.555 26.4526H111.227L113.378 21.3982L115.555 26.4526Z" fill="#003049" style="fill:#003049;fill:color(display-p3 0.0000 0.1882 0.2863);fill-opacity:1;"/>
<path id="Vector_34" d="M121.798 31.4807H123.975V22.4834L130.873 31.4807H132.71V18.8315H130.559V27.5907L123.844 18.8315H121.798V31.4807Z" fill="#003049" style="fill:#003049;fill:color(display-p3 0.0000 0.1882 0.2863);fill-opacity:1;"/>
<path id="Vector_35" d="M141.497 31.6923C143.831 31.6923 145.274 30.819 146.585 29.443L145.169 27.9875C144.094 28.9931 143.123 29.6282 141.575 29.6282C139.189 29.6282 137.431 27.617 137.431 25.1295V25.1031C137.431 22.6156 139.162 20.6309 141.575 20.6309C143.018 20.6309 144.094 21.266 145.09 22.1922L146.507 20.5515C145.3 19.3871 143.91 18.5933 141.602 18.5933C137.798 18.5933 135.149 21.5306 135.149 25.1295V25.156C135.123 28.8343 137.851 31.6923 141.497 31.6923Z" fill="#003049" style="fill:#003049;fill:color(display-p3 0.0000 0.1882 0.2863);fill-opacity:1;"/>
<path id="Vector_36" d="M148.946 31.4807H158.153V29.496H151.15V26.1088H157.445V24.1241H151.15V20.8162H158.153V18.8315H148.946V31.4807Z" fill="#003049" style="fill:#003049;fill:color(display-p3 0.0000 0.1882 0.2863);fill-opacity:1;"/>
</g>
</svg>
