<?xml version="1.0" encoding="utf-8"?>
<!-- Generator: Adobe Illustrator 28.3.0, SVG Export Plug-In . SVG Version: 6.00 Build 0)  -->
<svg version="1.1" id="Layer_1" xmlns="http://www.w3.org/2000/svg" xmlns:xlink="http://www.w3.org/1999/xlink" x="0px" y="0px"
	 viewBox="0 0 261 63" width="187" height="50" style="enable-background:new 0 0 187 50;" xml:space="preserve">
<style type="text/css">
	.st0{fill:#003049;}
</style>
<g>
	<rect x="116.5" y="9.2" class="st0" width="2.7" height="24"/>
	<path class="st0" d="M134.1,21.3v12h2.4V20.4c0-3.1-1.7-4.8-4.5-4.8c-2.1,0-3.9,1-5.8,2.9v-2.6H124v17.4h2.4v-13
		c1.6-1.8,3.2-2.6,4.9-2.6C133.4,17.6,134.1,18.8,134.1,21.3z"/>
	<path class="st0" d="M145.9,31.5c-2,0-3.6-0.9-5-2.8l-1.9,1.5c1.4,2.1,3.9,3.3,6.6,3.3c3.9,0,6.2-2.1,6.2-5.2
		c0-2.4-1.3-3.9-4.2-4.8c-1.8-0.6-3.5-0.8-4.6-1.6c-0.6-0.4-0.9-1.1-0.9-1.8c0-1.5,1.1-2.5,2.9-2.5c1.7,0,3.2,0.8,4.5,2.5l1.6-1.6
		c-1.7-2-3.7-2.9-6.2-2.9c-3.1,0-5.2,1.9-5.2,4.8c0,2.3,1.4,3.8,4.4,4.7c3.4,1,5.3,1.2,5.3,3.5C149.4,30.3,148,31.5,145.9,31.5z"/>
	<path class="st0" d="M165,30.6v2.6h2.2V15.8h-2.4v13c-1.6,1.8-3.2,2.6-4.9,2.6c-2.1,0-2.8-1.1-2.8-3.6v-12h-2.4v12.9
		c0,3.1,1.7,4.8,4.5,4.8C161.3,33.5,163.1,32.6,165,30.6z"/>
	<path class="st0" d="M174.5,19.8v-4H172v17.4h2.5v-9.7c1.1-3.6,2.9-5.5,5.3-5.5h0.3v-2.4c-0.2,0-0.4,0-0.6,0
		C177.2,15.6,175.6,17,174.5,19.8z"/>
	<path class="st0" d="M193.6,30.4v-9.7c0-3.3-2.2-5.2-5.8-5.2c-3,0-5.2,1.2-6.5,3.7l2.1,1.1c0.9-1.8,2.4-2.7,4.2-2.7
		c2.1,0,3.5,1.2,3.5,2.7v1.3c-7.1,1.4-10.4,3.2-10.4,7.1c0,2.8,2,4.8,4.8,4.8c2.1,0,3.9-0.9,5.5-2.6l0.3,2.4h2.7V33
		C193.8,32.2,193.6,31.3,193.6,30.4z M191.2,28.7c-2,1.8-3.7,2.7-5.2,2.7c-1.8,0-2.8-1-2.8-2.6c0-2.5,2.6-3.8,8-4.8V28.7z"/>
	<path class="st0" d="M206.2,15.5c-2.1,0-3.9,1-5.8,2.9v-2.6h-2.2v17.4h2.4v-13c1.6-1.8,3.2-2.6,5-2.6c2.1,0,2.8,1.1,2.8,3.6v12h2.4
		V20.4C210.7,17.3,209,15.5,206.2,15.5z"/>
	<path class="st0" d="M220.9,31.5c-3,0-4.6-2.3-4.6-6.9c0-4.5,1.6-6.9,4.4-6.9c1.8,0,3.3,1.2,4,3.4l2.4-0.8c-1-3-3.3-4.7-6.3-4.7
		c-4.3,0-7,3.3-7,9c0,5.9,2.5,9,7,9c3,0,5.2-1.5,6.6-4.5l-2-1.1C224.3,30.3,222.7,31.5,220.9,31.5z"/>
	<path class="st0" d="M240.9,28.3c-1,2-2.8,3.1-4.9,3.1c-2.8,0-4.7-2.2-4.7-5.9V25h11.1v-0.7c0-5.6-2.6-8.7-6.8-8.7
		c-4.1,0-6.8,3.3-6.8,9c0,5.9,2.5,9,7,9c3.3,0,5.6-1.3,6.9-4.1L240.9,28.3z M235.6,17.6c2.5,0,4.1,1.9,4.2,5.3h-8.5
		C231.4,19.5,233,17.6,235.6,17.6z"/>
	<path class="st0" d="M4.9,0.9v40.7h104.3V0.9H4.9z M21.3,33.6c-4.3,0-7.2-2.1-8.5-6.4l2.5-0.8c0.9,3.1,3.1,5,5.8,5
		c3.1,0,5-1.7,5-4.2c0-1.5-0.5-2.6-1.6-3.3C23,22.8,21,22.2,19,21.4c-3.7-1.5-5.5-3.1-5.5-6.2c0-3.9,2.8-6.4,7-6.4
		c3.7,0,6.4,2,7.5,5.9l-2.4,0.7c-0.8-2.9-2.7-4.3-5.4-4.3C17.6,11,16,12.6,16,15c0,1.2,0.5,2.1,1.6,2.9c1,0.8,2.8,1.3,5.1,2.2
		c4.1,1.5,6,3.2,6,6.9C28.7,30.9,25.8,33.6,21.3,33.6z M44.2,33.2h-2.7l-0.3-2.4c-1.6,1.7-3.4,2.6-5.5,2.6c-2.8,0-4.8-2-4.8-4.8
		c0-3.8,3.3-5.7,10.4-7.1v-1.3c0-1.6-1.4-2.7-3.5-2.7c-1.9,0-3.4,0.9-4.2,2.7l-2.1-1.1c1.3-2.4,3.5-3.7,6.5-3.7
		c3.7,0,5.8,1.9,5.8,5.2v9.7c0,0.9,0.1,1.8,0.4,2.6V33.2z M54.9,11.2c-0.7-0.2-1.3-0.2-1.8-0.2c-1.3,0-2,0.8-2,2.3v2.7h3.7v2.1h-3.7
		v15.3h-2.4V17.9h-2.9v-2.1h2.9v-2.5c0-3,1.3-4.5,4-4.5c0.6,0,1.3,0.1,2.1,0.3V11.2z M62.5,33.5c-4.5,0-7-3.1-7-9c0-5.7,2.7-9,6.8-9
		c4.2,0,6.8,3.1,6.8,8.7V25H58v0.6c0,3.7,1.9,5.9,4.7,5.9c2.2,0,3.9-1.1,5-3.1l1.8,1.1C68.1,32.2,65.8,33.5,62.5,33.5z M108.2,40.6
		H70.4V1.9h37.8V40.6z"/>
	<path class="st0" d="M41.4,23.9v4.8c-2,1.8-3.6,2.7-5.2,2.7c-1.8,0-2.8-1-2.8-2.6C33.4,26.3,36,25,41.4,23.9z"/>
	<path class="st0" d="M66.5,23H58c0.1-3.5,1.7-5.3,4.3-5.3C64.8,17.6,66.4,19.5,66.5,23z"/>
	<path class="st0" d="M85.3,29c-1.4,3-3.6,4.5-6.6,4.5c-4.5,0-7-3.1-7-9c0-5.7,2.7-9,7-9c3,0,5.2,1.7,6.3,4.7L82.6,21
		c-0.7-2.2-2.2-3.4-4-3.4c-2.8,0-4.5,2.4-4.5,6.9c0,4.6,1.6,7,4.6,7c1.8,0,3.4-1.2,4.5-3.5L85.3,29z"/>
	<path class="st0" d="M93.8,15.5c-4.5,0-7.2,3.2-7.2,9c0,5.8,2.7,9,7.2,9c4.5,0,7.2-3.2,7.2-9C101,18.7,98.3,15.5,93.8,15.5z
		 M93.8,31.5c-3.1,0-4.8-2.4-4.8-7c0-4.5,1.7-6.9,4.8-6.9c3.1,0,4.8,2.4,4.8,6.9C98.5,29.1,96.8,31.5,93.8,31.5z"/>
	<polygon class="st0" points="245.1,28.8 247.1,28.8 247.1,33.7 247.8,33.7 247.8,28.8 249.7,28.8 249.7,28.1 245.1,28.1 	"/>
	<path class="st0" d="M255.3,28.1l-1.6,4.7h0l-1.6-4.7H251v5.6h0.7v-3.3c0-0.2,0-0.9,0-1.4h0l1.6,4.7h0.7l1.6-4.7h0
		c0,0.5,0,1.2,0,1.4v3.3h0.7v-5.6H255.3z"/>
	<path class="st0" d="M13.7,58.3c-0.4-0.2-0.6-0.7-0.9-1.3L10,49.9c-0.2-0.4-0.2-0.7-0.5-0.7c-0.2,0-0.2,0.1-0.3,0.4l-3,7.7
		c-0.2,0.5-0.3,0.9-0.7,1.1c-0.4,0.2-0.9,0-0.9,0.4c0,0.1,0.1,0.2,0.4,0.2c0.3,0,0.7-0.1,1.2-0.1c0.8,0,1.4,0.1,1.6,0.1
		c0.2,0,0.3-0.1,0.3-0.2c0-0.2-0.3-0.2-0.8-0.3c-0.3-0.1-0.5-0.1-0.5-0.4c0-0.2,0.1-0.6,0.3-1.2l0.4-1.3c0-0.1,0.1-0.1,0.2-0.1h2.3
		c0.1,0,0.2,0,0.3,0.1l0.7,1.9c0.1,0.3,0.2,0.5,0.2,0.7c0,0.3-0.1,0.3-0.5,0.3c-0.4,0-0.6,0-0.6,0.2c0,0.1,0.1,0.2,0.3,0.2
		c0.2,0,0.9-0.1,1.9-0.1c0.7,0,1.2,0.1,1.6,0.1c0.2,0,0.3-0.1,0.3-0.2C14.4,58.5,14.1,58.5,13.7,58.3z M10,54.8H8.1
		c-0.1,0-0.1,0-0.1-0.1c0,0,0-0.1,0-0.1L8.9,52c0-0.1,0.1-0.1,0.1-0.1c0,0,0.1,0,0.1,0.1l1,2.6c0,0.1,0,0.1,0,0.1
		C10.1,54.8,10.1,54.8,10,54.8z"/>
	<path class="st0" d="M25.1,56.6c-0.2,0-0.5,0.5-1.1,1.2c-0.4,0.4-1,0.6-1.8,0.6c-0.8,0-1.2-0.3-1.2-1v-6.8c0-0.5,0-0.6,0.5-0.7
		c0.5-0.1,0.8,0,0.8-0.3c0-0.1-0.1-0.2-0.3-0.2c-0.2,0-0.8,0.1-1.8,0.1c-1,0-1.6-0.1-1.8-0.1c-0.2,0-0.3,0.1-0.3,0.2
		c0,0.3,0.3,0.2,0.7,0.3c0.4,0.1,0.4,0.2,0.4,0.7v6.8c0,0.7,0,0.8-0.6,0.9c-0.4,0.1-0.7,0-0.7,0.3c0,0.1,0.1,0.2,0.4,0.2
		c0.2,0,0.8-0.1,1.8-0.1c2.1,0,3.6,0.1,4.5,0.1c0.4,0,0.3-0.1,0.4-0.5l0.2-1.4c0-0.1,0-0.2,0-0.2C25.3,56.7,25.2,56.6,25.1,56.6z"/>
	<path class="st0" d="M26.6,50.3c0,0.4,0.4,0.8,0.8,0.8c0.4,0,0.8-0.4,0.8-0.8s-0.4-0.8-0.8-0.8C27,49.5,26.6,49.9,26.6,50.3z"/>
	<path class="st0" d="M28.5,58.4c-0.3-0.1-0.4-0.2-0.4-0.6v-5.4c0-0.2-0.1-0.3-0.2-0.3c-0.2,0-0.4,0.4-1.1,0.7c-0.7,0.3-1,0.4-1,0.6
		c0,0.3,0.3,0.1,0.5,0.2c0.2,0.1,0.3,0.3,0.3,0.7v3.5c0,0.4-0.1,0.5-0.3,0.6c-0.3,0.1-0.5,0-0.5,0.3c0,0.2,0.1,0.2,0.3,0.2
		c0.3,0,0.7-0.1,1.4-0.1c0.7,0,1.2,0.1,1.5,0.1c0.2,0,0.3-0.1,0.3-0.2C29.2,58.4,28.9,58.5,28.5,58.4z"/>
	<path class="st0" d="M34.3,52.1c-0.8,0-1.4,0.3-2,0.8l-0.2,0.2c0,0-0.1,0.1-0.1,0.1c-0.1,0-0.1-0.1-0.1-0.2v-3c0-0.4,0.1-0.7,0.1-1
		c0-0.2-0.1-0.3-0.2-0.3c-0.1,0-0.5,0.3-1.3,0.5c-0.5,0.1-0.8,0.2-0.8,0.4c0,0.1,0.2,0.1,0.5,0.3c0.2,0.1,0.3,0.2,0.3,0.6v6.4
		c0,1.3-0.2,2.1-0.2,2.4c0,0.2,0.1,0.3,0.2,0.3c0.3,0,0.5-0.8,0.9-0.8c0.3,0,1,0.5,2.3,0.5c2.3,0,3.8-1.6,3.8-3.7
		C37.4,53.4,36,52.1,34.3,52.1z M33.4,58.7c-1,0-1.5-0.5-1.5-1.4v-2.2c0-1.4,0.1-2.1,1.5-2.1c1.5,0,2.5,1.1,2.5,2.8
		C35.8,57.5,34.8,58.7,33.4,58.7z"/>
	<path class="st0" d="M40.1,54.7h4.1c0.5,0,0.6-0.1,0.6-0.3c0-1.2-1.2-2.3-3-2.3c-2.1,0-3.6,1.4-3.6,3.5s1.3,3.5,3.4,3.5
		c1.1,0,2-0.3,2.7-0.9c0.3-0.3,0.5-0.5,0.5-0.7c0-0.1,0-0.2-0.1-0.2c-0.1,0-0.7,0.9-2.1,0.9c-1.6,0-2.6-1.2-2.6-3v-0.4
		C39.9,54.7,39.9,54.7,40.1,54.7z M40,54l0.1-0.2c0.2-0.8,0.9-1.4,1.8-1.4c0.8,0,1.3,0.5,1.3,1c0,0.6-0.6,0.8-1.7,0.8h-1.2
		C40.1,54.2,40,54.2,40,54L40,54z"/>
	<path class="st0" d="M50,52c-0.4,0-0.9,0.2-1.3,0.6l-0.4,0.3C48.3,53,48.3,53,48.2,53c0,0-0.1,0-0.1-0.1v-0.6
		c0-0.2-0.1-0.3-0.2-0.3c-0.2,0-0.5,0.4-1.2,0.8c-0.5,0.3-0.9,0.3-0.9,0.6c0,0.2,0.3,0.1,0.5,0.2c0.3,0.1,0.3,0.3,0.3,0.6
		c0,0,0,0.1,0,0.1v3.4c0,0.3,0,0.5-0.4,0.6c-0.4,0.2-0.7,0-0.7,0.3c0,0.2,0.1,0.3,0.3,0.3c0.3,0,0.9-0.1,1.5-0.1
		c0.6,0,1.2,0.1,1.7,0.1c0.3,0,0.4-0.1,0.4-0.2c0-0.3-0.3-0.2-0.9-0.3c-0.4-0.1-0.5-0.2-0.5-0.6v-3.2c0-0.9,0.2-1.4,0.7-1.4
		c0.4,0,0.7,0.7,1.5,0.7c0.5,0,0.9-0.3,0.9-0.7C51.2,52.5,50.7,52,50,52z"/>
	<path class="st0" d="M55.7,57.9c-0.2,0-0.5,0.4-1.1,0.4c-0.6,0-0.7-0.5-0.7-1.6v-3.5c0-0.1,0.1-0.2,0.2-0.2h1.4
		c0.2,0,0.2,0,0.2-0.2c0,0,0-0.1,0-0.1c0-0.1,0-0.1,0-0.2c0-0.1,0-0.1-0.2-0.1h-1.4c-0.1,0-0.3-0.1-0.3-0.2v-0.9
		c0-0.2,0-0.4-0.2-0.4c-0.2,0-0.5,0.5-1.1,1c-0.7,0.6-1.2,0.7-1.2,0.9c0,0.1,0.1,0.2,0.3,0.2h0.3c0.2,0,0.3,0.2,0.3,0.5l-0.1,3.2
		c0,0.1,0,0.2,0,0.2c0,1.5,0.3,2.3,1.5,2.3c1.1,0,2-0.8,2-1.1C55.9,57.9,55.8,57.9,55.7,57.9z"/>
	<path class="st0" d="M63.7,52.3c-0.2,0-0.6,0-1.2,0c-0.8,0-1.3-0.1-1.4-0.1c-0.1,0-0.2,0-0.2,0.2c0,0.2,0.2,0.2,0.6,0.3
		c0.3,0.1,0.4,0.1,0.4,0.4c0,0.1-0.1,0.5-0.3,0.9l-1.1,2.5c-0.1,0.1-0.1,0.2-0.1,0.2c0,0-0.1,0-0.1-0.2l-1-2.6
		C59.1,53.5,59,53.2,59,53c0-0.2,0.3-0.2,0.6-0.3c0.2,0,0.3-0.1,0.3-0.3c0-0.1-0.1-0.2-0.2-0.2c-0.1,0-0.6,0.1-1.6,0.1
		c-0.7,0-1.3-0.1-1.7-0.1c-0.2,0-0.2,0-0.2,0.2c0,0.3,0.4,0.2,0.7,0.4c0.3,0.2,0.5,0.6,0.8,1.4l1.5,3.7c0.2,0.5,0.3,0.8,0.3,1
		c0,0.1,0,0.3-0.1,0.5L59,60.3c-0.2,0.5-0.4,0.5-0.8,0.5c0,0,0,0-0.1,0c-0.6,0-0.8,0.2-0.8,0.8c0,0.4,0.2,0.5,0.7,0.5
		c0.7,0,0.9-0.1,1.1-0.7c0.2-0.5,0.7-2,1.9-4.7l1.5-3.3c0.2-0.4,0.4-0.7,0.7-0.7c0.3-0.1,0.5-0.1,0.5-0.3
		C63.8,52.4,63.8,52.3,63.7,52.3z"/>
	<path class="st0" d="M79.4,58.4c-0.6-0.1-0.6-0.3-0.6-0.9L78.6,51c0-0.1,0-0.2,0-0.3c0-0.4,0.1-0.5,0.3-0.6c0.5-0.1,0.9,0,0.9-0.3
		c0-0.1-0.1-0.2-0.3-0.2h-2.4c-0.2,0-0.2,0.1-0.3,0.3l-2.4,5.9c0,0.1-0.1,0.2-0.1,0.2c0,0-0.1-0.1-0.1-0.2l-2.4-6
		c0-0.1-0.1-0.1-0.3-0.1c0,0,0,0-0.1,0H69c-0.2,0-0.3,0.1-0.3,0.2c0,0.3,0.3,0.2,0.8,0.3c0.4,0.1,0.5,0.2,0.5,0.7c0,0,0,0.1,0,0.2
		c0,0,0,0.1,0,0.1l-0.3,5.1c-0.1,1.7-0.1,2.4-0.8,2.4c-0.1,0-0.2,0-0.3,0c-0.2,0-0.3,0.1-0.3,0.2c0,0.2,0.1,0.2,0.4,0.2
		c0.3,0,0.7,0,1.2,0c0.5,0,1,0,1.3,0c0.3,0,0.5-0.1,0.5-0.2c0-0.1-0.1-0.2-0.4-0.2c-0.1,0-0.2,0-0.2,0c-0.7,0-0.8-0.4-0.8-1.3
		c0-0.1,0-0.4,0-0.8l0.3-4.5c0-0.2,0-0.3,0.1-0.3c0,0,0.1,0.1,0.1,0.2l2.8,6.8c0,0.1,0.1,0.2,0.3,0.2c0.1,0,0.2-0.1,0.3-0.2l2.7-6.7
		c0-0.1,0.1-0.1,0.1-0.1c0,0,0.1,0.1,0.1,0.2l0.1,5.5c0,0.1,0,0.3,0,0.4c0,0.7-0.1,0.9-1,0.9c-0.2,0-0.3,0.1-0.3,0.2
		c0,0.1,0.1,0.2,0.4,0.2c0.4,0,0.9-0.1,1.8-0.1c0.8,0,1.3,0.1,1.7,0.1c0.3,0,0.4-0.1,0.4-0.2C80.1,58.4,79.8,58.5,79.4,58.4z"/>
	<path class="st0" d="M88.2,58.2c-0.3-0.1-0.3-0.3-0.3-0.7v-5c0-0.2-0.1-0.3-0.3-0.3c-0.1,0-0.3,0-0.7,0c-0.7,0-1.1-0.1-1.3-0.1
		c-0.2,0-0.3,0.1-0.3,0.3c0,0.3,0.3,0.2,0.7,0.3c0.3,0.1,0.4,0.3,0.4,0.6v3.2c0,1-0.6,1.6-1.6,1.6c-1,0-1.6-0.6-1.6-1.7v-3.9
		c0-0.2-0.1-0.3-0.3-0.3c-0.1,0-0.4,0-0.7,0c-0.6,0-1.1-0.1-1.3-0.1c-0.2,0-0.3,0.1-0.3,0.3c0,0.3,0.3,0.2,0.7,0.3
		c0.3,0.1,0.4,0.3,0.4,0.6v3.4c0,1.3,0.9,2.2,2.4,2.2c0.8,0,1.5-0.3,2-0.8l0.2-0.2c0.1-0.1,0.1-0.1,0.1-0.1c0,0,0.1,0.1,0.1,0.2v0.6
		c0,0.2,0.1,0.3,0.2,0.3c0.1,0,0.5-0.1,1.4-0.3c0.5-0.1,0.7-0.2,0.7-0.4C88.7,58.2,88.4,58.3,88.2,58.2z"/>
	<path class="st0" d="M93.8,57.9c-0.2,0-0.5,0.4-1.1,0.4c-0.6,0-0.7-0.5-0.7-1.6v-3.5c0-0.1,0.1-0.2,0.2-0.2h1.4
		c0.2,0,0.2,0,0.2-0.2c0,0,0-0.1,0-0.1c0-0.1,0-0.1,0-0.2c0-0.1,0-0.1-0.2-0.1h-1.4c-0.1,0-0.3-0.1-0.3-0.2v-0.9
		c0-0.2,0-0.4-0.2-0.4c-0.2,0-0.5,0.5-1.1,1c-0.7,0.6-1.2,0.7-1.2,0.9c0,0.1,0.1,0.2,0.3,0.2h0.3c0.2,0,0.3,0.2,0.3,0.5l-0.1,3.2
		c0,0.1,0,0.2,0,0.2c0,1.5,0.3,2.3,1.5,2.3c1.1,0,2-0.8,2-1.1C94,57.9,93.9,57.9,93.8,57.9z"/>
	<path class="st0" d="M101.9,58.2c-0.3-0.1-0.3-0.3-0.3-0.7v-5c0-0.2-0.1-0.3-0.3-0.3c-0.1,0-0.3,0-0.7,0c-0.7,0-1.1-0.1-1.3-0.1
		c-0.2,0-0.3,0.1-0.3,0.3c0,0.3,0.3,0.2,0.7,0.3c0.3,0.1,0.4,0.3,0.4,0.6v3.2c0,1-0.6,1.6-1.6,1.6c-1,0-1.6-0.6-1.6-1.7v-3.9
		c0-0.2-0.1-0.3-0.3-0.3c-0.1,0-0.4,0-0.7,0c-0.6,0-1.1-0.1-1.3-0.1c-0.2,0-0.3,0.1-0.3,0.3c0,0.3,0.3,0.2,0.7,0.3
		c0.3,0.1,0.4,0.3,0.4,0.6v3.4c0,1.3,0.9,2.2,2.4,2.2c0.8,0,1.5-0.3,2-0.8l0.2-0.2C100,58.1,100,58,100,58c0,0,0.1,0.1,0.1,0.2v0.6
		c0,0.2,0.1,0.3,0.2,0.3c0.1,0,0.5-0.1,1.4-0.3c0.5-0.1,0.7-0.2,0.7-0.4C102.4,58.2,102.1,58.3,101.9,58.2z"/>
	<path class="st0" d="M109.5,57.8c-0.2,0-0.5,0.3-0.7,0.3c-0.4,0-0.5-0.3-0.5-1v-3.5c0-1.2-0.3-1.7-1.8-1.7c-2,0-3.4,1.2-3.4,2.1
		c0,0.2,0.2,0.3,0.4,0.3c0.7,0,1-0.4,1.3-0.9c0.3-0.6,0.7-1,1.3-1c0.6,0,0.7,0.3,0.7,1.2v1c0,0.2,0,0.3-0.2,0.4l-0.5,0.2
		c-1.9,0.8-2.9,1.4-2.9,2.7c0,0.7,0.5,1.2,1.3,1.2c0.7,0,1.2-0.3,1.8-0.8l0.4-0.3h0.1c0.3,0.6,0.7,1,1.3,1c0.7,0,1.6-0.8,1.6-1
		C109.7,57.9,109.6,57.8,109.5,57.8z M106.8,56.9c0,0.7-0.7,1.3-1.3,1.3c-0.4,0-0.7-0.3-0.7-0.9c0-0.6,0.4-1.1,1.1-1.4l0.6-0.2
		c0.1,0,0.2-0.1,0.2-0.1c0,0,0.1,0.1,0.1,0.2V56.9z"/>
	<path class="st0" d="M112.7,58.4c-0.3-0.1-0.4-0.3-0.4-0.6v-7.9c0-0.4,0-0.8,0-1c0-0.2,0-0.3-0.2-0.3c-0.1,0-0.5,0.3-1.4,0.5
		c-0.5,0.1-0.8,0.2-0.8,0.4c0,0.2,0.3,0.1,0.5,0.3c0.3,0.1,0.3,0.3,0.3,0.6v7.4c0,0.4,0,0.5-0.4,0.6c-0.4,0.1-0.7,0-0.7,0.3
		c0,0.2,0.1,0.3,0.3,0.3c0.3,0,0.8-0.1,1.5-0.1c0.7,0,1.2,0.1,1.6,0.1c0.2,0,0.4-0.1,0.4-0.3C113.5,58.4,113.1,58.5,112.7,58.4z"/>
	<path class="st0" d="M126.1,56.3c-0.2,0-0.4,0.4-0.8,1.1c-0.5,0.9-1.3,1.3-2.3,1.3c-0.9,0-1.6-0.4-2.3-1.1c-0.8-0.9-1.2-2-1.2-3.4
		c0-1.4,0.5-2.7,1.2-3.5c0.6-0.7,1.5-1.1,2.3-1.1c1.1,0,1.7,0.5,2.4,1.4c0.3,0.4,0.5,0.6,0.6,0.6c0.1,0,0.1-0.1,0.1-0.3
		c0-0.9-0.1-1.4-0.3-1.5c-0.2-0.2-1.3-0.5-2.7-0.5c-1.5,0-2.8,0.5-3.8,1.3c-1.2,1-1.8,2.3-1.8,3.7c0,1.4,0.6,2.8,1.7,3.7
		c0.9,0.8,2.2,1.3,3.7,1.3c1.4,0,2.4-0.3,3-0.8c0.2-0.2,0.3-0.4,0.3-0.8c0,0,0-0.1,0-0.1c0-0.3,0-0.6,0-0.8S126.2,56.3,126.1,56.3z"
		/>
	<path class="st0" d="M131.4,52c-2.4,0-4,1.5-4,3.6c0,2.1,1.5,3.5,3.7,3.5c2.5,0,4-1.4,4-3.5C135.2,53.5,133.7,52,131.4,52z
		 M131.3,58.7c-1.3,0-2.2-1.3-2.2-3.3c0-1.8,0.8-2.9,2.2-2.9c1.3,0,2.2,1.3,2.2,3.4C133.5,57.6,132.7,58.7,131.3,58.7z"/>
	<path class="st0" d="M147.9,58.7c0-0.3-0.3-0.2-0.7-0.3c-0.3-0.1-0.4-0.2-0.4-0.6v-3.5c0-1.3-0.9-2.2-2.1-2.2
		c-0.9,0-1.7,0.4-2.3,1.2h-0.1c-0.5-0.8-1.2-1.2-2.1-1.2c-0.7,0-1.4,0.3-1.8,0.8l-0.2,0.2c-0.1,0.1-0.1,0.1-0.1,0.1
		c0,0-0.1-0.1-0.1-0.2v-0.6c0-0.2-0.1-0.3-0.1-0.3c-0.1,0-0.5,0.4-1.2,0.8c-0.5,0.3-0.9,0.3-0.9,0.5c0,0.2,0.3,0.1,0.5,0.2
		c0.2,0.1,0.3,0.3,0.3,0.7v3.5c0,0.4-0.1,0.5-0.3,0.6c-0.3,0.1-0.5,0-0.5,0.3c0,0.2,0.1,0.2,0.3,0.2c0.3,0,0.7-0.1,1.4-0.1
		c0.7,0,1.2,0.1,1.5,0.1c0.2,0,0.3-0.1,0.3-0.2c0-0.3-0.3-0.2-0.7-0.3c-0.3-0.1-0.4-0.2-0.4-0.6v-3.2c0-1,0.5-1.6,1.4-1.6
		c1.1,0,1.4,0.8,1.4,2.3v2.5c0,0.4-0.1,0.5-0.3,0.6c-0.3,0.1-0.6,0-0.6,0.3c0,0.2,0.1,0.2,0.3,0.2c0.3,0,0.7-0.1,1.4-0.1
		c0.7,0,1.2,0.1,1.5,0.1c0.2,0,0.3-0.1,0.3-0.2c0-0.3-0.3-0.2-0.7-0.3c-0.3-0.1-0.4-0.2-0.4-0.6v-3.2c0-1,0.5-1.6,1.4-1.6
		c1.1,0,1.4,0.8,1.4,2.3v2.5c0,0.4-0.1,0.5-0.3,0.6c-0.3,0.1-0.5,0-0.5,0.3c0,0.2,0.1,0.2,0.3,0.2c0.3,0,0.7-0.1,1.4-0.1
		c0.7,0,1.2,0.1,1.5,0.1C147.8,58.9,147.9,58.8,147.9,58.7z"/>
	<path class="st0" d="M152.8,52.1c-0.8,0-1.4,0.3-2.1,0.8l-0.2,0.2c-0.1,0.1-0.1,0.1-0.1,0.1c-0.1,0-0.1,0-0.1-0.1v-0.7
		c0-0.2-0.1-0.3-0.2-0.3c-0.2,0-0.5,0.4-1.3,0.8c-0.5,0.2-0.8,0.3-0.8,0.5c0,0.2,0.3,0.1,0.5,0.2c0.2,0.1,0.3,0.3,0.3,0.7V61
		c0,0.4-0.1,0.5-0.4,0.6c-0.4,0.1-0.7,0-0.7,0.3c0,0.1,0.1,0.2,0.3,0.2c0.2,0,0.8-0.1,1.5-0.1c0.6,0,1.2,0.1,1.7,0.1
		c0.2,0,0.4-0.1,0.4-0.2c0-0.3-0.3-0.2-0.8-0.3c-0.4-0.1-0.4-0.2-0.4-0.6v-2.1l0.1,0c0.5,0.2,1,0.3,1.6,0.3c2.2,0,3.8-1.6,3.8-3.7
		C155.9,53.4,154.6,52.1,152.8,52.1z M151.9,58.7c-1,0-1.5-0.5-1.5-1.4v-2.8c0-1,0.5-1.5,1.5-1.5c1.4,0,2.4,1.1,2.4,2.8
		C154.3,57.5,153.3,58.7,151.9,58.7z"/>
	<path class="st0" d="M163.3,57.8c-0.2,0-0.4,0.3-0.7,0.3c-0.4,0-0.5-0.3-0.5-1v-3.5c0-1.2-0.3-1.7-1.8-1.7c-2,0-3.4,1.2-3.4,2.1
		c0,0.2,0.2,0.3,0.4,0.3c0.7,0,1-0.4,1.3-0.9c0.3-0.6,0.7-1,1.3-1c0.6,0,0.7,0.3,0.7,1.2v1c0,0.2,0,0.3-0.2,0.4l-0.5,0.2
		c-1.9,0.8-2.9,1.4-2.9,2.7c0,0.7,0.5,1.2,1.3,1.2c0.7,0,1.2-0.3,1.8-0.8l0.4-0.3h0.1c0.3,0.6,0.7,1,1.3,1c0.7,0,1.6-0.8,1.6-1
		C163.5,57.9,163.4,57.8,163.3,57.8z M160.6,56.9c0,0.7-0.7,1.3-1.3,1.3c-0.5,0-0.7-0.3-0.7-0.9c0-0.6,0.4-1.1,1.1-1.4l0.6-0.2
		c0.1,0,0.2-0.1,0.2-0.1c0,0,0.1,0.1,0.1,0.2V56.9z"/>
	<path class="st0" d="M171.2,58.4c-0.3-0.1-0.4-0.3-0.4-0.6v-3.2c0-1.6-0.9-2.5-2.4-2.5c-0.8,0-1.5,0.3-2,0.8l-0.2,0.2
		c-0.1,0.1-0.1,0.1-0.1,0.1c0,0-0.1-0.1-0.1-0.2v-0.6c0-0.2-0.1-0.3-0.2-0.3c-0.2,0-0.4,0.4-1.1,0.7c-0.6,0.3-1,0.4-1,0.6
		c0,0.3,0.3,0.1,0.5,0.2c0.2,0.1,0.3,0.3,0.3,0.7v3.5c0,0.4-0.1,0.5-0.3,0.6c-0.3,0.1-0.5,0-0.5,0.3c0,0.2,0.1,0.2,0.3,0.2
		c0.3,0,0.7-0.1,1.4-0.1c0.7,0,1.2,0.1,1.5,0.1c0.2,0,0.3-0.1,0.3-0.2c0-0.3-0.3-0.2-0.7-0.3c-0.3-0.1-0.4-0.2-0.4-0.6v-3.2
		c0-1,0.6-1.6,1.6-1.6c1.2,0,1.6,0.8,1.6,2.3v2.5c0,0.4,0,0.5-0.3,0.6c-0.3,0.1-0.6,0-0.6,0.3c0,0.2,0.1,0.2,0.3,0.2
		c0.3,0,0.7-0.1,1.4-0.1c0.7,0,1.2,0.1,1.5,0.1c0.2,0,0.3-0.1,0.3-0.2C171.9,58.4,171.5,58.5,171.2,58.4z"/>
	<path class="st0" d="M179.1,52.3c-0.2,0-0.6,0-1.2,0c-0.8,0-1.3-0.1-1.4-0.1c-0.1,0-0.2,0-0.2,0.2c0,0.2,0.2,0.2,0.6,0.3
		c0.3,0.1,0.4,0.1,0.4,0.4c0,0.1-0.1,0.5-0.3,0.9l-1.1,2.5c-0.1,0.1-0.1,0.2-0.1,0.2c0,0-0.1,0-0.1-0.2l-1-2.6
		c-0.2-0.4-0.2-0.7-0.2-0.9c0-0.2,0.3-0.2,0.6-0.3c0.2,0,0.3-0.1,0.3-0.3c0-0.1-0.1-0.2-0.2-0.2c-0.1,0-0.6,0.1-1.6,0.1
		c-0.7,0-1.3-0.1-1.7-0.1c-0.2,0-0.2,0-0.2,0.2c0,0.3,0.4,0.2,0.7,0.4c0.3,0.2,0.5,0.6,0.8,1.4l1.5,3.7c0.2,0.5,0.3,0.8,0.3,1
		c0,0.1,0,0.3-0.1,0.5l-0.4,0.9c-0.2,0.5-0.4,0.5-0.8,0.5c0,0,0,0-0.1,0c-0.6,0-0.8,0.2-0.8,0.8c0,0.4,0.2,0.5,0.7,0.5
		c0.7,0,0.9-0.1,1.1-0.7c0.2-0.5,0.7-2,1.9-4.7l1.5-3.3c0.2-0.4,0.4-0.7,0.7-0.7c0.3-0.1,0.5-0.1,0.5-0.3
		C179.3,52.4,179.3,52.3,179.1,52.3z"/>
</g>
</svg>
