<svg width="140" height="38" viewBox="0 0 140 38" fill="none" xmlns="http://www.w3.org/2000/svg">
<g clip-path="url(#clip0_6712_14525)">
<path d="M98.409 9.80196C98.409 8.09934 98.409 6.39773 98.409 4.6951C98.409 4.57674 98.411 4.45938 98.409 4.34102C98.3709 2.80127 97.9382 2.31163 96.4256 2.07591C96.2369 2.04657 95.9919 2.09817 95.8866 1.89988C95.8233 1.78253 95.8344 1.59133 95.8795 1.45576C95.9377 1.28277 96.1134 1.38596 96.2328 1.39405C97.7515 1.49016 99.2712 1.54985 100.792 1.52253C101.91 1.5023 103.027 1.43148 104.146 1.3981C104.282 1.39405 104.53 1.21802 104.538 1.58121C104.544 1.84728 104.517 2.01319 104.194 2.05062C103.781 2.09918 103.371 2.19023 102.971 2.30556C102.372 2.47956 102.017 2.89637 101.904 3.51854C101.772 4.25301 101.803 4.99455 101.798 5.73509C101.793 6.52722 101.808 7.31935 101.791 8.11148C101.785 8.37755 101.863 8.45039 102.126 8.44937C104.686 8.44027 107.244 8.44229 109.804 8.44533C109.985 8.44533 110.12 8.44735 110.116 8.19039C110.095 6.80947 110.132 5.42653 110.065 4.04865C110.002 2.78306 109.643 2.42898 108.4 2.1528C108.157 2.09817 107.909 2.0486 107.66 2.03039C107.342 2.00712 107.413 1.78658 107.402 1.59335C107.385 1.30199 107.576 1.37989 107.737 1.39001C110.423 1.56603 113.11 1.57413 115.797 1.39405C115.94 1.38495 116.15 1.27468 116.152 1.57919C116.153 1.80681 116.176 2.00611 115.854 2.04455C115.491 2.08704 115.132 2.17101 114.776 2.26003C114.041 2.44416 113.638 2.93076 113.567 3.68648C113.526 4.12149 113.486 4.55954 113.485 4.99556C113.478 8.28245 113.481 11.5693 113.481 14.8552C113.481 14.9058 113.481 14.9564 113.481 15.007C113.504 16.8128 113.955 17.2933 115.748 17.4349C115.891 17.4461 116.115 17.3429 116.145 17.61C116.173 17.8669 116.206 18.0834 115.787 18.0662C114.318 18.0065 112.847 17.9772 111.377 17.9742C110.191 17.9721 109.006 18.0227 107.82 18.0571C107.626 18.0622 107.459 18.0976 107.461 17.8012C107.463 17.5604 107.503 17.4521 107.779 17.4258C109.773 17.2326 110.113 16.8451 110.113 14.834C110.113 13.2163 110.103 11.5977 110.121 9.98002C110.125 9.63504 110.042 9.52376 109.682 9.52578C107.19 9.54096 104.698 9.53489 102.205 9.53387C101.988 9.53387 101.787 9.4843 101.791 9.84344C101.808 11.6128 101.766 13.3832 101.809 15.1526C101.85 16.8603 102.31 17.2943 104.005 17.437C104.167 17.4501 104.435 17.3075 104.451 17.6616C104.463 17.9236 104.462 18.0915 104.094 18.0733C101.439 17.9388 98.7834 17.9377 96.1275 18.0693C95.9136 18.0794 95.7862 18.0652 95.7922 17.788C95.7972 17.5422 95.8474 17.4491 96.1154 17.4269C98.0466 17.267 98.411 16.8603 98.411 14.9109C98.411 13.2082 98.411 11.5066 98.411 9.80399L98.409 9.80196Z" fill="#003049" style="fill:#003049;fill:color(display-p3 0.0000 0.1882 0.2863);fill-opacity:1;"/>
<path d="M34.677 1.55892C37.052 1.49619 39.4068 1.43954 41.7606 1.36468C42.0788 1.35456 42.1882 1.41627 42.1892 1.76631C42.1952 3.26356 42.2254 4.76183 42.394 6.25302C42.41 6.39364 42.5566 6.63948 42.2193 6.66679C41.9543 6.68804 41.8389 6.60002 41.7837 6.32283C41.6632 5.71178 41.4615 5.123 41.1834 4.56355C40.5922 3.37586 39.5955 2.78201 38.3267 2.60902C37.8479 2.54427 37.3591 2.54832 36.8793 2.48863C36.4848 2.43906 36.4136 2.60396 36.4156 2.96715C36.4306 5.54587 36.4196 8.12358 36.4246 10.7023C36.4276 12.2522 36.4266 13.802 36.4658 15.3509C36.5029 16.8097 36.9134 17.2407 38.3558 17.4511C38.5546 17.4804 38.7533 17.526 38.9521 17.526C39.205 17.526 39.192 17.6747 39.199 17.8547C39.209 18.1026 39.0494 18.0682 38.9009 18.0642C37.7325 18.0318 36.5631 17.9711 35.3947 17.9731C33.8409 17.9761 32.2871 18.0308 30.7333 18.052C30.5696 18.054 30.3187 18.2017 30.2836 17.8446C30.2474 17.4814 30.4954 17.5442 30.7011 17.5199C32.6806 17.2872 33.057 16.8583 33.057 14.841C33.057 10.8976 33.0499 6.9541 33.067 3.01065C33.069 2.59486 32.9716 2.434 32.5491 2.48863C32.0522 2.55237 31.5483 2.5554 31.0535 2.62723C29.0901 2.91252 28.2188 4.27624 27.7711 6.04563C27.734 6.19232 27.7029 6.34104 27.6668 6.48773C27.5895 6.80336 27.3375 6.63442 27.1669 6.65465C26.919 6.685 26.9792 6.4938 26.9942 6.34609C27.1488 4.82051 27.2281 3.29088 27.205 1.75821C27.2 1.40514 27.3205 1.35456 27.6326 1.36468C29.9875 1.43954 32.3423 1.49518 34.6791 1.55689L34.677 1.55892Z" fill="#003049" style="fill:#003049;fill:color(display-p3 0.0000 0.1882 0.2863);fill-opacity:1;"/>
<path d="M60.4567 11.6978C59.482 13.7545 58.5496 15.7222 57.6181 17.6909C57.3179 18.3252 57.0088 18.4719 56.3383 18.3323C56.0943 18.2817 56.1014 18.0763 56.0391 17.9195C55.2713 15.9862 54.5395 14.0388 53.6622 12.151C53.3792 11.542 53.079 10.9421 52.7076 10.3806C52.258 9.70077 51.6928 9.16863 50.8718 8.99766C50.6228 8.94607 50.5315 8.83883 50.5596 8.59199C50.5927 8.30366 50.7965 8.42102 50.941 8.42607C52.9114 8.49689 54.8818 8.53837 56.8532 8.43113C56.9947 8.42304 57.2015 8.29759 57.2346 8.59097C57.2617 8.83883 57.1714 8.92078 56.9194 8.98249C55.9177 9.22731 55.7009 9.64411 56.0271 10.6285C56.535 12.1601 57.2095 13.624 57.8088 15.1152C57.9884 15.1233 57.9884 14.9675 58.0316 14.8774C58.669 13.5643 59.2994 12.2481 59.9287 10.9309C59.9829 10.8176 60.0682 10.7134 59.9839 10.5597C59.6035 9.86971 59.1859 9.21921 58.3578 9.02396C58.1219 8.96832 58.0246 8.88436 58.0396 8.62841C58.0587 8.29355 58.2765 8.42203 58.4351 8.4281C60.2058 8.49992 61.9754 8.53331 63.746 8.43315C63.8946 8.42506 64.1265 8.28545 64.1616 8.61525C64.1947 8.92583 64.004 8.91167 63.7942 8.93797C62.94 9.04622 62.6349 9.50248 62.8637 10.3432C63.2211 11.6614 63.8464 12.8754 64.3403 14.1409C64.4738 14.4819 64.6103 14.8228 64.7428 15.1577C64.791 15.1526 64.8381 15.1587 64.8452 15.1445C65.5448 13.7879 66.2394 12.4282 66.7172 10.9724C67.0815 9.86162 66.7744 9.27385 65.6702 8.96124C65.4625 8.90257 65.4033 8.81759 65.4103 8.61829C65.4183 8.37043 65.5779 8.41697 65.7245 8.42607C67.0595 8.51611 68.3935 8.51813 69.7285 8.42709C69.873 8.41697 70.0467 8.35728 70.0437 8.61121C70.0416 8.77914 70.0647 8.92179 69.8178 8.97237C69.0549 9.13019 68.5912 9.68154 68.2007 10.3088C67.204 11.9092 66.4913 13.6533 65.7124 15.363C65.3229 16.2179 64.9204 17.0707 64.5922 17.9498C64.3654 18.5568 63.9056 18.2463 63.5443 18.3282C63.191 18.4081 63.0936 18.1653 62.9872 17.9023C62.1902 15.9245 61.3862 13.9497 60.5832 11.975C60.5591 11.9153 60.53 11.8586 60.4547 11.6958L60.4567 11.6978Z" fill="#003049" style="fill:#003049;fill:color(display-p3 0.0000 0.1882 0.2863);fill-opacity:1;"/>
<path d="M45.059 29.2016C45.3712 28.978 45.6713 28.7473 45.9855 28.541C47.1428 27.7802 48.3995 27.4848 49.7566 27.8156C51.182 28.1626 52.0311 29.2865 52.0392 30.798C52.0472 32.3306 52.0392 33.8633 52.0412 35.397C52.0412 36.5432 52.3172 36.9084 53.4194 37.1279C53.6783 37.1795 53.6994 37.2918 53.6863 37.4952C53.6693 37.7673 53.4776 37.652 53.3521 37.6449C51.4992 37.5356 49.6462 37.5346 47.7933 37.6429C47.6547 37.651 47.453 37.7653 47.4399 37.4557C47.4299 37.1987 47.5493 37.1674 47.7571 37.1269C48.7338 36.9387 49.052 36.5381 49.053 35.5335C49.055 34.1526 49.053 32.7707 49.053 31.3898C49.053 29.8207 47.987 28.9972 46.4763 29.409C45.9855 29.5425 45.5679 29.8187 45.1744 30.1384C45.0078 30.2739 44.9867 30.4368 44.9867 30.629C44.9897 32.2801 44.9777 33.9311 44.9927 35.5811C45.0018 36.5402 45.3641 36.963 46.2976 37.1219C46.5365 37.1623 46.646 37.2099 46.6259 37.479C46.6018 37.7987 46.388 37.6479 46.2615 37.6398C44.3915 37.5316 42.5225 37.5397 40.6525 37.6398C40.527 37.6469 40.3082 37.8068 40.2781 37.4911C40.254 37.2362 40.3433 37.1643 40.5983 37.1259C41.6783 36.964 42.0025 36.5685 42.0025 35.483C42.0025 33.664 42.0025 31.844 42.0025 30.0251C42.0025 29.1318 41.6984 28.7777 40.8241 28.6462C40.7579 28.636 40.6916 28.6199 40.6254 28.6209C40.4487 28.6209 40.3544 28.5693 40.3513 28.3609C40.3483 28.1262 40.4587 28.0867 40.6565 28.0806C41.7747 28.0483 42.8909 28.0098 44.003 27.8712C44.3212 27.8318 44.7278 27.5758 44.9365 27.8095C45.0971 27.9886 44.9767 28.4196 44.9907 28.7372C44.9968 28.8809 44.9446 29.0336 45.057 29.2006L45.059 29.2016Z" fill="#003049" style="fill:#003049;fill:color(display-p3 0.0000 0.1882 0.2863);fill-opacity:1;"/>
<path d="M104.894 29.2572C105.558 28.7565 106.137 28.3083 106.827 28.0362C107.858 27.6295 108.908 27.5495 109.961 27.9036C111.197 28.3194 111.924 29.4161 111.932 30.8253C111.94 32.3408 111.932 33.8573 111.934 35.3727C111.935 36.5553 112.19 36.8922 113.337 37.131C113.574 37.1806 113.578 37.2817 113.584 37.4638C113.592 37.7269 113.429 37.657 113.284 37.649C111.398 37.5336 109.512 37.5316 107.626 37.65C107.468 37.6601 107.329 37.7036 107.336 37.4527C107.342 37.2635 107.359 37.1755 107.588 37.132C108.676 36.9236 108.947 36.5685 108.947 35.4445C108.947 34.0798 108.947 32.7161 108.947 31.3514C108.947 29.8177 107.882 29.0053 106.384 29.4049C105.892 29.5364 105.471 29.8076 105.078 30.1293C104.92 30.2588 104.869 30.4115 104.869 30.6129C104.875 32.2801 104.859 33.9483 104.878 35.6145C104.888 36.5351 105.262 36.9499 106.172 37.1209C106.389 37.1613 106.555 37.1775 106.518 37.4729C106.476 37.8159 106.237 37.6459 106.1 37.6378C104.264 37.5326 102.428 37.5397 100.592 37.6378C100.455 37.6449 100.213 37.824 100.173 37.479C100.14 37.1988 100.275 37.1623 100.51 37.1259C101.567 36.9651 101.906 36.5483 101.906 35.4658C101.906 33.6802 101.906 31.8956 101.906 30.1101C101.906 29.1105 101.631 28.7949 100.653 28.6371C100.518 28.6158 100.316 28.6856 100.259 28.5015C100.173 28.2203 100.272 28.0786 100.598 28.0736C101.7 28.0574 102.801 28.0099 103.896 27.8652C104.864 27.7367 104.865 27.7488 104.874 28.7635C104.875 28.8961 104.885 29.0296 104.895 29.2572H104.894Z" fill="#003049" style="fill:#003049;fill:color(display-p3 0.0000 0.1882 0.2863);fill-opacity:1;"/>
<path d="M71.738 36.5129C70.7252 37.2059 69.7596 37.7481 68.6253 37.9272C66.5244 38.258 65.062 37.0966 64.9947 34.9529C64.9435 33.3201 64.9766 31.6843 64.9726 30.0494C64.9706 29.1288 64.6725 28.7848 63.7561 28.6483C63.6406 28.6311 63.5192 28.63 63.4098 28.5946C63.2582 28.5451 63.3144 28.4014 63.3094 28.2911C63.2983 28.0453 63.4901 28.0918 63.6276 28.0868C64.7458 28.0453 65.864 28.0119 66.9761 27.8652C67.9367 27.7378 67.9388 27.7499 67.9388 28.7302C67.9388 30.5502 67.9398 32.3702 67.9377 34.1901C67.9377 34.5118 67.9578 34.8325 68.0482 35.1401C68.3172 36.0587 69.1583 36.4664 70.2795 36.2266C70.4582 36.1882 70.6339 36.1254 70.8025 36.0546C71.6406 35.7036 71.738 35.5508 71.738 34.6353C71.738 33.1522 71.738 31.6691 71.738 30.186C71.738 29.0813 71.481 28.7848 70.403 28.6452C70.3367 28.6371 70.2705 28.6139 70.2052 28.6149C70.0296 28.6189 69.9292 28.5774 69.9252 28.363C69.9212 28.1262 70.0316 28.0908 70.2303 28.0848C70.9982 28.0605 71.7671 28.0382 72.533 27.9816C73.1312 27.9371 73.7305 27.8652 74.3207 27.76C74.6569 27.6993 74.7332 27.7772 74.7312 28.1161C74.7172 30.5593 74.7232 33.0035 74.7242 35.4476C74.7242 36.5736 75.0193 36.9004 76.1425 37.038C76.3132 37.0592 76.545 36.9621 76.542 37.3152C76.539 37.6783 76.3021 37.5681 76.1345 37.5741C74.7493 37.6267 73.3611 37.652 71.995 37.9232C71.7892 37.9636 71.729 37.9201 71.735 37.7138C71.746 37.3445 71.738 36.9752 71.738 36.5149V36.5129Z" fill="#003049" style="fill:#003049;fill:color(display-p3 0.0000 0.1882 0.2863);fill-opacity:1;"/>
<path d="M35.5112 37.5862C34.0407 37.566 32.5701 37.5731 31.1006 37.6479C30.925 37.657 30.7011 37.7845 30.6791 37.4203C30.659 37.0834 30.8126 37.0389 31.0846 37.0156C31.5162 36.9792 31.9458 36.9185 32.3584 36.7637C33.1001 36.4835 33.4705 35.9939 33.4715 35.2037C33.4765 31.4636 33.4826 27.7225 33.4695 23.9824C33.4645 22.4275 32.798 21.7497 31.208 21.6121C30.9671 21.5908 30.7594 21.6171 30.7784 21.2459C30.7985 20.8513 31.0494 20.9788 31.2341 20.9899C33.9222 21.1437 36.6093 21.1579 39.2974 20.9879C39.4961 20.9758 39.724 20.8837 39.726 21.2671C39.728 21.5989 39.5674 21.603 39.3325 21.6121C39.1167 21.6202 38.9009 21.6586 38.6871 21.694C37.5187 21.8903 36.9576 22.5013 36.8984 23.6981C36.8602 24.471 36.8653 25.247 36.8643 26.0219C36.8612 28.9365 36.8622 31.8521 36.8632 34.7667C36.8632 36.1911 37.3691 36.7678 38.7865 36.96C38.9681 36.9843 39.1518 37.0237 39.3335 37.0227C39.6196 37.0217 39.6346 37.1643 39.6256 37.4082C39.6146 37.6965 39.473 37.6722 39.2703 37.6611C38.6369 37.6267 38.0025 37.6024 37.3681 37.5903C36.7498 37.5791 36.1315 37.5882 35.5122 37.5882L35.5112 37.5862Z" fill="#003049" style="fill:#003049;fill:color(display-p3 0.0000 0.1882 0.2863);fill-opacity:1;"/>
<path d="M99.6467 35.3687C100.132 35.662 100.03 35.915 99.6457 36.2235C99.2151 36.5675 98.8507 36.9964 98.4211 37.3404C97.3591 38.1912 96.4899 38.2519 95.5032 37.3303C94.8588 36.7283 94.4121 36.7556 93.6954 37.1553C92.5461 37.7977 91.2834 38.1507 89.9393 37.8928C88.8151 37.6773 87.9519 36.8892 87.7822 35.9686C87.5835 34.8891 88.1135 33.753 89.1373 33.1501C90.2826 32.4753 91.5644 32.3529 92.8532 32.275C93.0701 32.2618 93.2859 32.2497 93.5027 32.2376C94.3539 32.188 94.3609 32.188 94.3519 31.3058C94.3468 30.802 94.396 30.2962 94.3037 29.7944C94.1652 29.0377 93.7757 28.6634 93.1223 28.6725C92.4066 28.6826 92.0031 29.0832 91.8716 29.8571C91.8063 30.2416 91.8786 30.6219 91.8605 31.0124C90.7925 30.803 89.7466 30.5916 88.6987 30.3963C88.4347 30.3468 88.5431 30.1758 88.5662 30.0534C88.7147 29.2592 89.1323 28.6178 89.858 28.2961C91.9689 27.3604 94.0869 27.4393 96.1305 28.4964C96.9426 28.9163 97.3441 29.6801 97.32 30.624C97.2899 31.8349 97.2447 33.0459 97.2156 34.2568C97.2086 34.5583 97.2016 34.8679 97.2558 35.1623C97.4043 35.9777 98.0327 36.2903 98.7905 35.9574C99.1167 35.8148 99.3767 35.575 99.6467 35.3707V35.3687ZM94.3197 34.5047C94.3077 34.5047 94.2967 34.5047 94.2846 34.5047C94.3057 34.1526 94.3258 33.8016 94.3468 33.4495C94.3549 33.313 94.3719 33.1622 94.1842 33.141C93.3702 33.0469 92.5531 32.9447 91.7983 33.3979C91.1599 33.7814 90.8718 34.4339 91.0144 35.1582C91.1489 35.8401 91.6146 36.2883 92.3413 36.4147C92.8332 36.4997 93.2999 36.3965 93.7546 36.2033C94.1742 36.0252 94.4683 35.7986 94.3298 35.2574C94.2696 35.0217 94.3197 34.7566 94.3197 34.5047Z" fill="#003049" style="fill:#003049;fill:color(display-p3 0.0000 0.1882 0.2863);fill-opacity:1;"/>
<path d="M45.9282 8.10339C47.4289 8.14993 49.1001 8.70432 50.3438 10.2046C52.002 12.2047 51.6698 15.3044 49.6422 16.9858C47.2723 18.9514 43.2873 18.8179 41.061 16.6995C38.6188 14.3767 39.3867 10.2522 42.5395 8.75086C43.457 8.31382 44.4477 8.10036 45.9282 8.10441V8.10339ZM43.0284 12.7722C43.0284 13.0079 43.0093 13.2457 43.0314 13.4783C43.1428 14.6296 43.3446 15.7566 44.1616 16.6469C45.2878 17.875 46.9822 17.5857 47.6116 16.0439C48.1516 14.7217 48.0984 13.3458 47.8474 11.97C47.7099 11.2163 47.4419 10.5172 46.9471 9.9173C45.864 8.60518 44.1054 8.84292 43.4188 10.4019C43.0866 11.1556 43.0153 11.9588 43.0274 12.7712L43.0284 12.7722Z" fill="#003049" style="fill:#003049;fill:color(display-p3 0.0000 0.1882 0.2863);fill-opacity:1;"/>
<path d="M131.932 32.8182C130.879 32.8182 129.826 32.8435 128.774 32.8061C128.337 32.7909 128.296 32.9568 128.335 33.317C128.623 35.9918 131.278 37.2787 133.713 35.9159C134.036 35.7349 134.348 35.5305 134.59 35.2503C134.778 35.0318 134.911 34.9458 135.113 35.229C135.273 35.4536 135.584 35.576 135.213 35.9342C134.208 36.9023 133.058 37.5832 131.695 37.8452C130.101 38.1507 128.547 37.9979 127.175 37.0642C125.379 35.8421 124.891 34.0252 125.154 31.9735C125.541 28.9608 127.985 27.5273 130.862 27.7043C133.858 27.8884 135.214 30.0331 135.545 32.4814C135.58 32.7424 135.516 32.8294 135.239 32.8253C134.137 32.8091 133.034 32.8193 131.931 32.8193L131.932 32.8182ZM130.128 31.8319C130.128 31.8319 130.128 31.8238 130.128 31.8197C130.679 31.8197 131.23 31.8258 131.781 31.8177C132.142 31.8127 132.328 31.6245 132.334 31.2492C132.341 30.7919 132.311 30.3427 132.162 29.9067C131.914 29.1813 131.407 28.7797 130.658 28.6856C129.903 28.5905 129.322 28.8728 128.916 29.5212C128.533 30.1353 128.389 30.8182 128.326 31.5304C128.303 31.7924 128.396 31.842 128.626 31.8359C129.127 31.8228 129.628 31.8319 130.129 31.8319H130.128Z" fill="#003049" style="fill:#003049;fill:color(display-p3 0.0000 0.1882 0.2863);fill-opacity:1;"/>
<path d="M128.557 8.19047C128.557 10.7004 128.557 13.2103 128.557 15.7203C128.557 16.9899 128.885 17.3784 130.123 17.5362C130.332 17.5625 130.408 17.6131 130.406 17.8336C130.403 18.1149 130.229 18.0643 130.066 18.0542C128.498 17.9591 126.928 17.9388 125.358 17.9924C124.941 18.0066 124.524 18.0319 124.107 18.0542C123.942 18.0633 123.775 18.1118 123.778 17.8316C123.781 17.6181 123.838 17.5615 124.055 17.5362C125.251 17.3956 125.591 17.001 125.591 15.8083C125.591 11.4622 125.591 7.11608 125.591 2.76999C125.591 1.54588 125.315 1.21608 124.127 1.05118C123.943 1.02588 123.818 1.0097 123.819 0.767911C123.82 0.50589 123.981 0.521065 124.15 0.510949C125.55 0.427993 126.95 0.337955 128.321 0.0142233C128.513 -0.0313014 128.559 0.0385032 128.556 0.206439C128.554 0.324803 128.556 0.442156 128.556 0.56052C128.556 3.10384 128.556 5.64816 128.556 8.19148L128.557 8.19047Z" fill="#003049" style="fill:#003049;fill:color(display-p3 0.0000 0.1882 0.2863);fill-opacity:1;"/>
<path d="M135.482 8.24601C135.482 10.7387 135.482 13.2325 135.482 15.7252C135.482 16.9918 135.806 17.3752 137.052 17.5361C137.268 17.5644 137.331 17.6251 137.329 17.8396C137.325 18.1249 137.143 18.0632 136.985 18.0541C135.417 17.959 133.847 17.9397 132.277 17.9934C131.843 18.0075 131.41 18.0267 130.977 18.0601C130.788 18.0753 130.698 18.0379 130.707 17.8264C130.714 17.6605 130.712 17.5503 130.938 17.5411C132.079 17.4976 132.542 16.9443 132.531 15.6504C132.495 11.3548 132.518 7.05933 132.518 2.76382C132.518 1.54376 132.245 1.21902 131.048 1.05108C130.858 1.02376 130.745 0.997462 130.746 0.761745C130.747 0.494666 130.919 0.520969 131.082 0.509841C132.247 0.432955 133.413 0.366185 134.567 0.15576C135.482 -0.0121758 135.484 -0.00104757 135.484 0.969135C135.484 3.3951 135.484 5.82005 135.484 8.24601H135.482Z" fill="#003049" style="fill:#003049;fill:color(display-p3 0.0000 0.1882 0.2863);fill-opacity:1;"/>
<path d="M76.0824 13.2143C74.9953 13.2143 73.9082 13.2214 72.8221 13.2093C72.5421 13.2062 72.4618 13.271 72.4809 13.5765C72.6565 16.3353 75.3848 17.7294 77.8721 16.3171C78.2083 16.1259 78.5336 15.9114 78.7815 15.613C78.9511 15.4096 79.0866 15.3651 79.2262 15.6109C79.3416 15.8133 79.7792 15.9053 79.4078 16.2786C78.1772 17.5179 76.7167 18.2544 74.9742 18.3596C73.591 18.4426 72.2751 18.1967 71.1328 17.3409C69.4927 16.1117 68.8262 13.8132 69.4555 11.6078C70.0206 9.62798 71.6507 8.32294 73.7928 8.13679C75.2462 8.01134 76.6324 8.16916 77.8139 9.14238C79.0154 10.1318 79.5052 11.4773 79.6969 12.9746C79.7431 13.3317 79.4861 13.2072 79.3426 13.2082C78.2555 13.2184 77.1694 13.2133 76.0824 13.2133V13.2143ZM74.2706 12.2482C74.7554 12.2482 75.2402 12.2583 75.724 12.2462C76.3514 12.23 76.4899 12.0802 76.4909 11.4601C76.4909 11.0878 76.4407 10.7226 76.3293 10.3675C76.0864 9.59358 75.5544 9.17273 74.7634 9.0837C73.9795 8.99569 73.4073 9.33561 73.0159 10.0074C72.6615 10.6164 72.529 11.2851 72.4758 11.9811C72.4558 12.2431 72.5792 12.2532 72.7669 12.2512C73.2678 12.2462 73.7697 12.2492 74.2706 12.2492V12.2482Z" fill="#003049" style="fill:#003049;fill:color(display-p3 0.0000 0.1882 0.2863);fill-opacity:1;"/>
<path d="M58.8627 37.9788C57.5187 37.9403 56.2108 37.7097 54.938 37.2625C54.6509 37.1613 54.5596 37.0005 54.5455 36.7152C54.5084 35.9595 54.4422 35.2048 54.398 34.4491C54.39 34.3054 54.2474 34.0818 54.4823 34.0333C54.6871 33.9908 54.927 33.9331 55.0815 34.2326C55.4078 34.8628 55.8434 35.4172 56.3644 35.9018C57.2356 36.7112 58.2534 37.1634 59.4469 37.1472C60.3092 37.135 60.8251 36.6585 60.7709 35.9757C60.7368 35.5467 60.4667 35.2786 60.1405 35.0561C59.4409 34.5786 58.6319 34.3499 57.857 34.0434C57.2045 33.7854 56.5541 33.5254 55.9629 33.137C54.7553 32.3438 54.3157 31.2755 54.6289 29.8885C54.8969 28.7039 55.8233 27.9431 57.1804 27.7468C58.0587 27.6194 58.9109 27.764 59.7681 27.9097C60.4587 28.0271 61.1483 28.1909 61.8539 28.1323C62.0948 28.112 62.0868 28.2183 62.0969 28.3821C62.146 29.1874 62.2073 29.9927 62.2514 30.799C62.2595 30.9447 62.401 31.1733 62.1591 31.2239C61.9302 31.2725 61.6903 31.3058 61.5217 30.9973C61.0881 30.2062 60.4918 29.5486 59.737 29.0488C59.1026 28.629 58.4231 28.3953 57.6512 28.5764C56.8211 28.7706 56.534 29.6427 57.0951 30.2891C57.4344 30.6806 57.8881 30.8992 58.3518 31.0944C59.0745 31.3979 59.8022 31.6862 60.525 31.9897C61.0198 32.1971 61.4785 32.4693 61.8961 32.8112C63.4519 34.0849 63.2161 36.5371 61.4404 37.4699C60.6344 37.8938 59.7561 37.9838 58.8637 37.9818L58.8627 37.9788Z" fill="#003049" style="fill:#003049;fill:color(display-p3 0.0000 0.1882 0.2863);fill-opacity:1;"/>
<path d="M119.424 37.9777C117.867 37.9109 116.287 37.4425 115.07 36.1436C112.784 33.7055 113.574 29.848 116.641 28.3649C118.011 27.7033 119.454 27.5606 120.942 27.7893C121.619 27.8935 122.294 28.0138 122.982 27.9855C123.219 27.9754 123.337 28.0149 123.348 28.3042C123.399 29.5981 123.433 30.893 123.597 32.1799C123.61 32.2831 123.662 32.4328 123.473 32.448C123.289 32.4621 123.123 32.4773 123.037 32.2345C122.842 31.6801 122.591 31.15 122.297 30.6391C122.027 30.1697 121.705 29.7428 121.307 29.3766C119.909 28.0958 117.819 28.5672 117.249 30.373C116.667 32.2173 117.017 33.9563 118.349 35.3868C119.452 36.5715 121.253 36.7657 122.798 35.9746C123.034 35.8532 123.261 35.7085 123.488 35.5669C123.79 35.3777 124.208 35.5224 124.345 35.8593C124.403 35.9989 124.299 36.0383 124.231 36.095C122.882 37.2139 121.391 37.9807 119.425 37.9767L119.424 37.9777Z" fill="#003049" style="fill:#003049;fill:color(display-p3 0.0000 0.1882 0.2863);fill-opacity:1;"/>
<path d="M81.6391 27.6001V29.3472C81.9844 29.064 82.2554 28.8343 82.5335 28.6138C83.3816 27.941 84.2559 27.33 85.4042 27.3391C86.5164 27.3472 87.3425 28.4418 87.0715 29.5395C87.0293 29.7104 86.9028 29.7296 86.7904 29.7843C85.9944 30.1697 85.1904 30.541 84.4015 30.9396C84.1816 31.0509 84.0311 31.0418 83.8665 30.8485C83.9548 30.7696 84.0391 30.6978 84.1204 30.6219C84.4597 30.3053 84.6353 29.932 84.3593 29.504C84.0943 29.0933 83.6767 29.0437 83.2461 29.1904C82.683 29.3826 82.2173 29.7347 81.7897 30.1464C81.6301 30.3002 81.6501 30.4762 81.6501 30.6583C81.6501 32.192 81.6461 33.7257 81.6501 35.2584C81.6532 36.3742 82.0928 36.8831 83.1939 37.0591C83.3917 37.0905 83.5914 37.1229 83.7912 37.1289C84.016 37.135 84.1164 37.2068 84.1033 37.4567C84.0883 37.7471 83.9046 37.6651 83.751 37.656C82.1992 37.5599 80.6454 37.5498 79.0905 37.5862C78.5234 37.5994 77.9563 37.6378 77.3892 37.657C77.2577 37.6611 77.074 37.7501 77.0559 37.4911C77.0409 37.2817 77.078 37.1724 77.3249 37.1138C78.5244 36.8325 78.8225 36.4309 78.8225 35.1815C78.8225 33.5972 78.8246 32.014 78.8225 30.4297C78.8215 29.3402 78.4361 28.8596 77.3821 28.6522C77.1814 28.6128 77.0399 28.5804 77.0509 28.3204C77.0609 28.0968 77.1834 28.0918 77.345 28.0827C78.7754 28.0027 80.1927 27.7933 81.6391 27.5981V27.6001Z" fill="#003049" style="fill:#003049;fill:color(display-p3 0.0000 0.1882 0.2863);fill-opacity:1;"/>
<path d="M84.7598 9.71198C85.3932 9.23245 85.9382 8.78934 86.5134 8.39277C87.1458 7.95776 87.8524 7.70383 88.6313 7.73924C89.6652 7.78577 90.4803 8.96841 90.1791 9.95882C90.137 10.0964 90.0326 10.1257 89.9292 10.1753C89.1021 10.5739 88.274 10.9695 87.4519 11.3772C87.2933 11.4561 87.1578 11.4702 87.0584 11.3236C86.935 11.1404 87.1538 11.1121 87.2281 11.0393C87.5563 10.7145 87.732 10.3625 87.475 9.91734C87.2692 9.56124 86.7914 9.43175 86.3166 9.6098C85.8258 9.79392 85.4032 10.0903 85.0138 10.4424C84.8261 10.6124 84.7508 10.7965 84.7528 11.0565C84.7658 12.5224 84.7588 13.9873 84.7588 15.4531C84.7588 16.8472 85.1673 17.3197 86.5395 17.5078C86.672 17.526 86.8065 17.5412 86.939 17.5351C87.1638 17.524 87.216 17.6292 87.212 17.8397C87.208 18.0673 87.0865 18.0703 86.9189 18.0632C86.0687 18.0278 85.2175 17.9702 84.3673 17.9732C83.0986 17.9772 81.8298 18.0288 80.5611 18.0521C80.4055 18.0551 80.1857 18.1755 80.1596 17.8457C80.1355 17.5341 80.3232 17.5534 80.5279 17.5159C81.4946 17.3389 81.9282 16.8078 81.9312 15.8001C81.9352 14.1157 81.9372 12.4313 81.9312 10.7469C81.9272 9.74435 81.4825 9.2193 80.5039 9.05945C80.3041 9.02708 80.1586 9.01494 80.1606 8.74685C80.1636 8.47674 80.3372 8.5081 80.4968 8.49596C81.8288 8.39277 83.1558 8.24304 84.4757 8.03262C84.6855 7.99923 84.7729 8.04273 84.7638 8.27946C84.7468 8.72965 84.7588 9.18085 84.7588 9.71096L84.7598 9.71198Z" fill="#003049" style="fill:#003049;fill:color(display-p3 0.0000 0.1882 0.2863);fill-opacity:1;"/>
<path d="M121.707 7.96378C121.548 10.4565 121.628 12.9138 121.609 15.3701C121.608 15.5553 121.607 15.7404 121.609 15.9255C121.623 16.9382 122.042 17.4117 123.028 17.5311C123.228 17.5553 123.479 17.4774 123.444 17.8467C123.409 18.218 123.145 18.0511 122.996 18.043C121.076 17.9327 119.158 17.9337 117.238 18.045C117.095 18.0531 116.859 18.1957 116.832 17.8538C116.807 17.5483 116.976 17.5533 117.192 17.53C118.249 17.4167 118.644 16.9595 118.644 15.8719C118.644 14.1035 118.644 12.3342 118.644 10.5658C118.644 9.49948 118.33 9.15552 117.275 9.04322C117.136 9.02805 116.936 9.10089 116.869 8.93295C116.764 8.66486 116.84 8.49895 117.175 8.4858C118.143 8.44533 119.111 8.39576 120.069 8.23996C120.596 8.15498 121.121 8.06191 121.708 7.96277L121.707 7.96378Z" fill="#003049" style="fill:#003049;fill:color(display-p3 0.0000 0.1882 0.2863);fill-opacity:1;"/>
<path d="M0.0130358 19.4036C0.0130358 13.5228 0.0180546 7.64205 0.00299817 1.76126C0.0019944 1.34446 0.0943407 1.23823 0.515922 1.23823C8.00802 1.25341 15.4991 1.25442 22.9912 1.23621C23.4539 1.2352 23.5222 1.37582 23.5222 1.79566C23.5112 13.5238 23.5102 25.252 23.5242 36.9792C23.5242 37.4628 23.4168 37.5832 22.93 37.5821C15.4881 37.5639 8.04716 37.565 0.605257 37.5811C0.140514 37.5811 -0.00302442 37.5002 -0.00101689 36.9944C0.0200622 31.1308 0.012032 25.2662 0.012032 19.4026L0.0130358 19.4036ZM23.3224 19.4218C23.3224 13.5916 23.3184 7.76142 23.3315 1.93122C23.3315 1.5306 23.2261 1.43247 22.8346 1.43349C15.46 1.44563 8.08531 1.44563 0.710652 1.43349C0.301116 1.43349 0.183676 1.53263 0.183676 1.95753C0.195721 13.6017 0.195721 25.2449 0.183676 36.8892C0.183676 37.2999 0.305131 37.3778 0.684554 37.3778C8.05921 37.3667 15.4339 37.3657 22.8085 37.3788C23.216 37.3788 23.3335 37.2938 23.3325 36.8639C23.3164 31.0509 23.3214 25.2369 23.3214 19.4238L23.3224 19.4218Z" fill="#003049" style="fill:#003049;fill:color(display-p3 0.0000 0.1882 0.2863);fill-opacity:1;"/>
<path d="M121.909 2.98942C121.904 4.10832 121.09 4.9227 119.977 4.92169C118.871 4.92169 118.048 4.09719 118.042 2.98234C118.036 1.84725 118.877 1.00859 120.008 1.02376C121.122 1.03793 121.913 1.85737 121.908 2.98942H121.909Z" fill="#003049" style="fill:#003049;fill:color(display-p3 0.0000 0.1882 0.2863);fill-opacity:1;"/>
<path d="M27.2271 36.006C27.2331 36.9003 26.5365 37.6085 25.6492 37.6095C24.7548 37.6115 24.0682 36.9195 24.0662 36.0151C24.0642 35.1491 24.7448 34.4541 25.615 34.4349C26.4953 34.4146 27.2221 35.1218 27.2281 36.006H27.2271ZM25.6632 37.3565C26.3689 37.3474 26.94 36.7394 26.934 36.004C26.928 35.2897 26.3086 34.6635 25.6241 34.6797C24.9275 34.6969 24.3443 35.3251 24.3583 36.0444C24.3724 36.7839 24.9515 37.3646 25.6642 37.3555L25.6632 37.3565Z" fill="#003049" style="fill:#003049;fill:color(display-p3 0.0000 0.1882 0.2863);fill-opacity:1;"/>
<path d="M138.396 4.51703C137.501 4.50388 136.824 3.79571 136.847 2.89635C136.87 2.0071 137.583 1.34244 138.487 1.3657C139.369 1.38897 140.011 2.06881 139.999 2.96312C139.986 3.88069 139.316 4.53018 138.396 4.51602V4.51703ZM137.15 2.95604C137.158 3.69455 137.732 4.28536 138.441 4.28333C139.133 4.28232 139.717 3.6642 139.718 2.93479C139.718 2.2155 139.116 1.60041 138.42 1.6085C137.714 1.6166 137.142 2.22359 137.15 2.95604Z" fill="#003049" style="fill:#003049;fill:color(display-p3 0.0000 0.1882 0.2863);fill-opacity:1;"/>
<path d="M0.65543 19.353C0.65543 14.5122 0.65543 9.67043 0.65543 4.82963C0.65543 3.97175 0.654426 3.11386 0.635354 2.25597C0.629332 1.96967 0.673497 1.8594 1.01177 1.86041C4.8883 1.87154 8.76484 1.8594 12.6414 1.85636C15.7771 1.85434 18.9139 1.86041 22.0497 1.85333C22.954 1.8513 22.934 1.83613 22.9199 2.76585C22.8938 4.44419 22.8908 6.12355 22.8868 7.8029C22.8798 10.5951 22.8707 13.3873 22.8788 16.1805C22.8908 20.0663 22.9259 23.952 22.935 27.8368C22.941 30.6948 22.9109 33.5527 22.9219 36.4106C22.9239 36.8507 22.7724 36.9448 22.3719 36.9448C17.2256 36.9428 12.0793 36.9559 6.93197 36.964C4.99269 36.9671 3.05342 36.9559 1.11415 36.9721C0.750787 36.9752 0.642381 36.9013 0.643384 36.5047C0.653422 31.6781 0.639369 26.8505 0.632343 22.0238C0.631339 21.1336 0.632343 20.2433 0.632343 19.353H0.65543ZM16.5169 15.4248C16.3563 15.62 16.1084 15.3155 15.9468 15.5209C16.003 15.8517 16.4436 15.7384 16.5189 16.0378C16.3352 16.1764 15.9668 15.8699 15.9086 16.2675C15.8655 16.5609 15.8886 16.8664 15.9006 17.1658C15.9056 17.2882 15.995 17.3783 16.1244 17.4015C16.2921 17.4329 16.3202 17.2852 16.3483 17.1871C16.4587 16.8107 16.5671 16.4324 16.5109 16.0307C16.6103 15.8921 16.802 16.1501 16.8833 15.9448C16.9606 15.7495 16.7267 15.6777 16.7086 15.5188C16.7628 15.4106 16.9706 15.5684 16.9666 15.3772C16.9636 15.2599 16.9194 15.1546 16.7799 15.1142C16.541 15.0444 16.3071 14.9614 16.0712 14.8815C15.9668 14.8461 15.8705 14.8309 15.8464 14.9746C15.8273 15.0899 15.8825 15.1577 15.9939 15.1992C16.1716 15.2639 16.3844 15.2508 16.5159 15.4248H16.5169ZM12.1917 14.1015C12.4547 14.0509 12.6695 14.2077 12.9064 14.2674C13.0198 14.2957 13.1754 14.4111 13.2436 14.2138C13.3169 14.0034 13.1473 13.9659 13.0017 13.9194C12.7026 13.8233 12.4075 13.713 12.1034 13.6351C12.018 13.6129 11.8825 13.4652 11.8133 13.6452C11.7601 13.7838 11.8153 13.9032 11.9668 13.967C12.0492 14.0013 12.1776 13.9659 12.1967 14.1076C12.1776 14.1329 12.1556 14.1814 12.1395 14.1794C11.9648 14.1612 11.7942 14.141 11.8233 14.407C11.8404 14.5588 11.744 14.748 11.9889 14.8188C12.1134 14.8542 12.2198 14.8866 12.282 14.7449C12.3563 14.579 12.4477 14.402 12.2529 14.2512C12.1997 14.2098 12.1415 14.1824 12.1917 14.1025V14.1015ZM16.4065 18.2594C16.4286 18.2827 16.4627 18.3009 16.4717 18.3282C16.529 18.5053 16.6604 18.565 16.819 18.5174C16.9997 18.4628 16.9827 18.2959 16.9766 18.1441C16.9706 17.9964 16.9104 17.8558 16.7689 17.8446C16.5691 17.8295 16.5962 18.0439 16.537 18.1643C16.5049 18.2301 16.4778 18.2766 16.3985 18.2655C16.3914 18.1836 16.3724 18.0996 16.3794 18.0187C16.4035 17.7668 16.3473 17.5867 16.0512 17.5786C15.734 17.5695 15.7852 17.8406 15.7631 18.0075C15.7239 18.305 15.745 18.6095 15.741 18.9109C15.739 19.0485 15.736 19.1952 15.9157 19.2195C16.1214 19.2468 16.1345 19.0819 16.1917 18.9383C16.279 18.7157 16.1947 18.4385 16.4065 18.2574V18.2594ZM14.5003 28.9668C14.6168 28.9122 14.7162 28.9699 14.8286 28.9982C15.0454 29.0518 15.196 28.9193 15.3104 28.7473C15.4078 28.5996 15.3726 28.4539 15.2622 28.3366C15.0725 28.1363 14.1249 28.1029 13.8951 28.2789C13.8168 27.6972 13.4093 27.1772 13.0359 27.1843C12.7136 27.1904 11.9227 27.8459 11.8484 28.1686C11.7902 28.4205 11.8574 28.5804 12.1465 28.5156C12.7257 28.3862 13.34 28.5116 13.9031 28.2688C13.9041 28.5733 13.9714 28.8232 14.3438 28.8394C14.4231 28.8424 14.5144 28.8525 14.5074 28.9729C14.4351 29.0832 14.3277 29.0245 14.2354 29.0265C13.7285 29.0367 13.7756 29.4656 13.7646 29.7559C13.7505 30.1212 14.0958 30.0554 14.3307 30.0513C14.7483 30.0453 14.662 29.7064 14.6549 29.4646C14.6499 29.2977 14.5556 29.1328 14.5003 28.9679V28.9668ZM16.6143 27.4564C17.0519 27.854 17.0519 28.5359 17.5578 28.9567C17.5578 28.4762 17.5508 28.0472 17.5608 27.6193C17.5679 27.333 17.3781 27.241 17.1603 27.1964C16.9264 27.1479 16.6896 27.1448 16.6193 27.4615C16.5189 27.5465 16.4778 27.4473 16.4276 27.3937C16.2379 27.1954 16.1355 26.7361 15.8815 26.8242C15.5995 26.9213 15.6266 27.3917 15.487 27.6861C15.473 27.7154 15.4609 27.7488 15.4589 27.7812C15.4529 27.8571 15.4971 27.8945 15.5643 27.9269C16.0652 28.1656 16.5169 27.9663 16.6153 27.4564H16.6143ZM15.1016 18.7511C15.3596 18.7288 15.5121 18.5872 15.478 18.3282C15.4338 17.9822 15.6597 17.5614 15.2602 17.3105C15.0815 17.1982 14.8406 17.1092 14.6389 17.2002C14.4331 17.2923 14.5746 17.532 14.5395 17.702C14.4321 18.2149 14.676 18.5397 15.1096 18.7582C15.0113 18.8745 14.8828 18.8108 14.7874 18.7814C14.5114 18.6965 14.2544 18.7005 14.2364 19.0404C14.2193 19.3581 14.405 19.5675 14.7704 19.5432C14.95 19.5321 15.1317 19.5594 15.3124 19.5685C15.3174 19.9712 15.1136 20.0035 14.8075 19.8599C14.7322 19.8245 14.6499 19.8032 14.5766 19.7648C14.3799 19.6616 14.2524 19.7587 14.1681 19.9216C14.0848 20.0835 14.148 20.2008 14.3066 20.2919C14.7453 20.5448 15.1367 20.9241 15.7109 20.7815C15.742 20.8402 15.7611 20.911 15.8062 20.9535C15.9638 21.1002 16.1375 21.1012 16.2971 20.9585C16.4346 20.8361 16.3503 20.6844 16.273 20.5974C16.0913 20.393 15.9939 20.6298 15.8735 20.7127C15.8203 20.7491 15.7832 20.8108 15.7059 20.7866C15.5694 20.5478 15.6868 20.3131 15.8785 20.2787C16.3714 20.1907 16.1897 19.9034 16.1144 19.6464C16 19.2559 15.7621 19.4835 15.5633 19.5544C15.476 19.5857 15.4007 19.6859 15.3054 19.5736C15.4891 19.2357 15.2702 18.999 15.1026 18.7491L15.1016 18.7511ZM15.1036 25.1377C15.0494 25.0335 15.1518 24.9991 15.1889 24.9334C15.3786 24.6025 15.3274 24.0967 15.0775 24.0077C14.7804 23.9015 14.4682 23.8428 14.148 23.8489C13.9724 23.8529 13.9111 23.9217 13.9653 24.1038C14.0798 24.4852 14.7423 25.0881 15.1096 25.1327C14.8466 25.423 14.7784 25.7012 15.0283 26.0674C15.2 26.3193 15.3676 26.4579 15.6667 26.4245C15.7661 26.4134 15.8926 26.4205 15.9187 26.3082C15.9919 26.0047 16.275 25.7164 16.1515 25.419C16.0482 25.1701 15.6918 25.2257 15.4429 25.165C15.3335 25.1387 15.216 25.1458 15.1026 25.1387L15.1036 25.1377ZM12.8953 21.0901C12.8311 20.8462 12.9465 20.6095 12.8993 20.3526C12.8482 20.0754 12.8482 19.871 12.4828 19.8983C12.1495 19.9236 11.8785 20.0106 11.8364 20.3819C11.8062 20.6469 11.8293 20.9191 11.8424 21.1882C11.8494 21.341 11.8845 21.5018 12.0632 21.5423C12.2258 21.5787 12.3884 21.5858 12.533 21.4543C12.6273 21.3683 12.6364 21.1953 12.802 21.1841C12.9104 21.3035 12.7297 21.522 12.9606 21.6111C13.1914 21.7011 13.3089 21.5271 13.4354 21.4178C13.6241 21.256 13.7847 21.0587 13.9443 20.8665C14.0266 20.7663 14.2635 20.7238 14.1229 20.5215C14.0045 20.3526 13.8419 20.4456 13.6742 20.4608C13.2587 20.4982 13.2376 20.9889 12.8963 21.0911L12.8953 21.0901ZM12.2017 24.2262C11.9608 24.1979 11.753 24.1787 11.8123 24.5499C11.8514 24.7937 11.8133 25.0497 11.8223 25.2996C11.8263 25.4179 11.7621 25.5828 11.9739 25.6051C12.1415 25.6233 12.2057 25.511 12.265 25.3866C12.4115 25.076 12.553 24.7644 12.5972 24.4184C12.9184 24.2798 13.1934 24.0057 13.0459 23.692C12.7789 23.1235 12.4848 22.5499 12.0321 22.0319C11.8514 22.735 11.9006 23.2854 12.2007 24.2262H12.2017ZM13.1965 19.4734C13.1322 19.1972 13.1242 18.9028 12.8883 18.6894C12.8311 18.6378 12.7598 18.5255 12.8993 18.4537C13.0579 18.4446 13.1051 18.6054 13.2205 18.6661C13.6652 18.8968 14.2364 18.6378 14.2293 18.1947C14.2243 17.8942 14.2002 17.5927 14.1681 17.2933C14.134 16.9736 13.886 16.8117 13.6562 16.9766C13.2185 17.2923 12.7056 17.5968 12.7036 18.2584C12.6002 18.2958 12.554 18.2159 12.5019 18.1552C12.3874 18.0227 12.3232 17.8133 12.0763 17.8973C11.8062 17.9893 11.8233 18.2099 11.8193 18.4324C11.7942 19.7709 11.7972 19.7749 13.1021 19.5645C13.2125 19.7 13.1192 19.8538 13.1413 19.9985C13.1854 20.2969 13.3801 20.3293 13.5658 20.1856C13.8328 19.9803 14.0095 19.6879 14.0697 19.3449C14.1029 19.1578 14.0175 18.9868 13.8449 18.9443C13.6943 18.9079 13.5177 18.9484 13.4323 19.1345C13.3751 19.26 13.3972 19.4461 13.1975 19.4714L13.1965 19.4734ZM15.7069 30.0827C16.0813 29.9866 16.3543 30.2577 16.6735 30.3589C17.4564 30.6088 17.7124 30.9335 17.597 29.676C17.5699 29.3847 17.4775 29.2349 17.1663 29.1752C16.6966 29.0862 16.2419 29.2794 15.7801 29.1985C15.5051 29.151 15.2311 29.1034 14.9731 29.2542C15.0022 29.5597 15.3827 29.5971 15.4138 29.8864C15.2522 30.0078 14.9701 29.7792 14.8838 30.022C14.7854 30.3012 14.7633 30.6189 14.9631 30.8779C15.0735 31.0215 15.8986 31.0074 16.007 30.8516C16.2409 30.5167 15.8715 30.4115 15.736 30.2162C15.7119 30.1819 15.7159 30.1272 15.7069 30.0827ZM4.15254 10.1823C3.59345 9.82117 3.11264 9.33759 2.41402 9.0088C2.96208 9.94358 3.43987 10.7873 3.77914 11.8253C3.13573 11.2729 2.72218 10.6507 2.04765 10.1611C2.17111 10.6659 2.26948 11.0706 2.36986 11.4742C2.39194 11.5632 2.50938 11.6523 2.39596 11.7403C2.26647 11.8404 2.18416 11.7211 2.10185 11.6432C1.86697 11.4216 1.6341 11.197 1.36911 10.9431C1.27274 11.4155 1.33397 11.7251 1.66421 12.0428C2.28253 12.6356 2.79847 13.3286 3.32645 14.1147C2.97111 14.0529 2.85468 13.7393 2.54451 13.7161C2.673 14.4303 3.05744 15.0191 3.2341 15.6777C3.20499 15.6999 3.17588 15.7222 3.14677 15.7444C2.59872 14.924 2.10687 14.06 1.41729 13.3033C1.08805 14.3231 2.11892 14.8511 2.15706 15.7627C1.77262 15.5937 1.59495 15.2113 1.17739 15.1263C1.17739 16.0206 1.17739 16.8755 1.17739 17.7313C1.17739 20.6763 1.17739 23.6202 1.17939 26.5652C1.17939 27.33 1.18241 27.329 1.89709 27.421C2.23837 27.4645 2.7533 26.8515 2.66597 26.5146C2.42406 25.5788 2.59169 24.7553 3.33046 24.0906C3.7671 23.6981 3.87751 22.9121 3.59345 22.4123C3.35656 21.9965 3.2612 21.5402 3.30135 21.0607C3.43485 19.4856 4.33422 18.5295 5.76359 18.0348C6.08379 17.9246 6.20926 17.7748 6.2213 17.442C6.27249 16.0469 6.34376 14.6518 6.41001 13.2578C6.42005 13.0453 6.3538 12.9067 6.12695 12.8602C5.94828 12.8228 5.77764 12.7509 5.59997 12.7044C5.45643 12.666 5.29282 12.6629 5.2597 12.4687C5.22858 12.2866 5.35003 12.1965 5.47852 12.1075C5.91917 11.803 6.35882 11.4975 6.79746 11.191C7.88153 10.4342 8.9666 9.68055 10.0466 8.91978C10.3939 8.67496 10.4461 8.21769 10.1581 8.05784C9.66321 7.78267 9.67726 7.80189 10.15 7.45085C10.5817 7.13116 11.0615 6.89848 11.3917 6.40681C11.6868 5.96573 11.6296 5.50441 11.752 4.95609C11.8143 5.21002 11.8775 5.36784 11.8886 5.52869C11.9397 6.25911 12.2349 6.82564 12.8953 7.18276C13.1142 7.30112 13.3008 7.47816 13.5106 7.61676C13.7455 7.77255 13.8469 7.89294 13.5036 8.05278C13.0961 8.24196 13.079 8.6092 13.4494 8.87931C14.153 9.3902 14.8587 9.89907 15.5663 10.4059C16.4105 11.0099 17.2577 11.6078 18.0998 12.2148C18.2022 12.2886 18.3468 12.3625 18.3076 12.5284C18.2835 12.6305 18.1932 12.668 18.0838 12.6912C17.2838 12.8673 17.2898 12.8703 17.332 13.6533C17.4835 16.4425 17.6411 19.2316 17.7686 22.0218C17.7857 22.387 17.8911 22.5428 18.2263 22.6642C20.3322 23.424 21.079 25.1387 20.6815 27.1266C20.5711 27.676 20.3643 28.1171 20.7347 28.6411C20.9405 28.9324 21.1352 29.2623 21.342 29.5394C21.4795 29.7236 21.866 29.3179 22.1942 29.3068C22.3929 29.3007 22.3086 29.0589 22.3096 28.9233C22.3147 25.42 22.3126 21.9166 22.3136 18.4132C22.3136 16.141 22.3177 13.8698 22.3187 11.5976C22.3197 8.66585 22.3177 5.73406 22.3257 2.80226C22.3257 2.50989 22.2364 2.33994 21.9372 2.35208C21.5799 2.36624 21.2246 2.40468 20.8371 2.43402C21.0098 2.75168 21.1714 3.02382 21.3079 3.3081C21.4354 3.57315 21.5367 3.85136 21.6492 4.12349C20.3272 2.51495 20.1696 2.37737 19.5663 2.43099C20.019 3.26561 20.7679 3.91914 20.9746 4.87819C20.2911 4.22466 19.8123 3.40623 19.1548 2.73752C18.7914 2.36826 18.8025 2.35713 18.2584 2.47044C18.5776 3.17658 19.0584 3.81089 19.198 4.58987C18.6449 3.90599 18.0226 3.31012 17.3189 2.63028C17.5648 3.57619 18.0778 4.36022 17.7736 5.35367C17.5377 4.62123 17.4394 3.91307 16.9044 3.28179C17.1222 4.11034 17.2918 4.84784 17.0429 5.69359C16.9505 5.56713 16.9124 5.53476 16.9003 5.49531C16.8662 5.38301 16.8301 5.26869 16.816 5.15235C16.7086 4.23174 16.2218 3.48918 15.7109 2.75978C15.6256 2.63736 15.5071 2.53519 15.3897 2.44211C15.2933 2.36523 15.1618 2.34702 15.0645 2.42694C14.9631 2.51091 15.0685 2.60803 15.0946 2.69705C15.1588 2.91557 15.3094 3.11082 15.2712 3.45782C15.0454 3.18973 14.8748 2.97222 14.6881 2.76989C14.5194 2.58678 14.3518 2.38344 14.0717 2.38141C12.534 2.37332 10.9952 2.3713 9.45744 2.36219C9.25066 2.36118 9.2075 2.41885 9.26271 2.63129C9.34903 2.96008 9.50461 3.28078 9.4755 3.65408C8.99771 3.28382 9.074 2.36826 8.18165 2.3713C8.38642 2.87612 8.56308 3.31012 8.73874 3.74311C8.71264 3.76638 8.68655 3.78965 8.66045 3.81291C8.38241 3.41634 8.10035 3.02281 7.82732 2.6232C7.66371 2.38344 7.46998 2.28227 7.18492 2.43099C7.30537 2.78001 7.42682 3.12701 7.54627 3.47401C7.66271 3.8119 7.76609 4.15182 7.76308 4.6536C7.6607 4.44824 7.61653 4.36022 7.57438 4.27322C7.30336 3.71579 7.03636 3.15635 6.76032 2.60094C6.7021 2.4846 6.62983 2.34095 6.4612 2.39558C6.3016 2.44717 6.38993 2.59589 6.3819 2.70009C6.34978 3.09969 6.43008 3.44872 6.73121 3.75424C6.88278 3.907 7.09056 4.0547 7.1287 4.3147C6.98717 4.32077 6.93197 4.19836 6.83661 4.14777C6.7262 4.08809 6.64991 3.94949 6.49332 3.99097C6.47191 4.47049 6.41034 4.78613 6.30863 4.93788C6.07375 4.38551 6.29458 3.64599 5.63711 3.2474C5.11315 2.93075 4.70261 2.39153 3.93372 2.36624C4.4075 3.02483 4.92745 3.55595 5.24665 4.23073C4.62933 3.79268 4.17663 3.16545 3.50411 2.80024C4.13247 4.31369 5.08504 5.68752 5.2085 7.37092C4.57212 6.01935 3.83234 4.73656 2.99721 3.49829C3.23209 5.14932 3.64564 6.76393 3.80323 8.42609C3.38065 7.4205 3.13673 6.35117 2.59069 5.30815C2.49633 5.94145 2.69106 6.48876 2.5686 7.03809C2.16108 6.22674 1.82783 5.40122 1.31189 4.66473C1.26471 5.41538 1.26973 6.14985 1.2617 6.88432C1.2597 7.08867 1.39018 7.17264 1.52067 7.28089C2.53347 8.1145 3.42783 9.06445 4.23184 10.1034C4.20374 10.1297 4.17563 10.155 4.14753 10.1813L4.15254 10.1823ZM1.2336 30.9365C1.2336 31.9432 1.23059 32.9498 1.23661 33.9564C1.23661 34.0919 1.20148 34.3378 1.42231 34.2831C2.01955 34.1374 2.69608 34.1688 3.17689 33.7287C3.48103 33.4505 3.75907 33.2421 4.17965 33.2806C4.27701 33.2897 4.41955 33.2826 4.43059 33.1703C4.46371 32.8304 4.70562 32.9022 4.91039 32.8951C5.00775 32.8921 5.16835 32.9285 5.17638 32.8263C5.21151 32.3782 5.5819 32.0848 5.59495 31.5881C5.65919 29.1176 5.80072 26.6491 5.92017 24.1797C6.00951 22.3324 6.10085 20.4851 6.20524 18.6388C6.22732 18.2554 6.11791 18.2443 5.78667 18.3505C5.29483 18.5073 4.89834 18.7926 4.5129 19.1123C3.71189 19.7789 3.28429 21.2418 3.76609 22.0865C4.08128 22.6389 4.38943 23.0921 3.97588 23.7123C3.87751 23.86 3.97488 24.0836 3.75003 24.2272C3.02231 24.6936 2.84163 25.4362 3.01729 26.2111C3.13071 26.7119 3.09157 26.9769 2.7282 27.3957C2.36986 27.8085 2.13699 27.8287 1.7134 27.6689C1.38115 27.5434 1.2085 27.6476 1.22155 28.0675C1.25167 29.0225 1.23159 29.9795 1.23159 30.9355L1.2336 30.9365ZM22.4221 32.021C22.401 32.021 22.3799 32.021 22.3598 32.021C22.3598 31.3483 22.3397 30.6755 22.3679 30.0038C22.3829 29.6325 22.2072 29.6275 21.9412 29.6791C21.7867 29.7094 21.6742 29.7994 21.5568 29.8976C21.2246 30.1758 21.0037 30.11 20.9646 29.678C20.9174 29.1601 20.5882 28.7615 20.3141 28.4256C20.0261 28.0736 20.0903 27.8834 20.2459 27.5758C20.9465 26.1919 20.3483 23.6374 18.3347 22.9626C18.0326 22.8615 17.8148 22.7846 17.8459 23.2914C18.0336 26.3446 18.1892 29.3998 18.3528 32.4551C18.3668 32.711 18.411 32.9427 18.5817 33.1531C18.7001 33.2998 18.8236 33.3696 18.951 33.234C19.3726 32.7838 19.7229 33.1855 20.0813 33.3261C20.2519 33.3929 20.4758 33.4859 20.3262 33.7975C20.2379 33.9816 20.4125 34.0231 20.5551 33.9422C21.065 33.6549 21.4042 33.9766 21.7616 34.2619C21.887 34.362 21.9463 34.5775 22.2062 34.447C22.4532 34.3226 22.4211 34.1324 22.4221 33.9381C22.4271 33.2988 22.4241 32.6594 22.4241 32.02L22.4221 32.021ZM16.8913 14.8006C16.9164 14.1814 16.8753 13.6139 16.8471 13.0443C16.8311 12.7206 16.7287 12.581 16.4266 12.4778C15.1689 12.0488 13.9212 11.5906 12.6705 11.1414C12.097 10.9357 11.8099 11.1357 11.8093 11.7413C11.8093 11.893 11.8083 12.0438 11.8012 12.1955C11.7591 13.1202 11.7601 13.1141 12.6364 13.4389C12.9606 13.5593 13.2446 13.714 13.3681 13.188C13.4143 12.9927 13.6341 12.8602 13.8479 12.7772C14.675 12.4576 15.736 13.1081 15.8333 14.0529C15.8695 14.407 16.007 14.5446 16.3111 14.6144C16.4878 14.6549 16.6574 14.7247 16.8923 14.8006H16.8913ZM16.802 11.8212C15.1799 10.6659 13.598 9.47619 11.8263 8.36842C11.8263 8.8267 11.8534 9.14538 11.8193 9.45697C11.7812 9.80195 11.9157 9.96988 12.2278 10.0862C13.7556 10.6558 15.2783 11.2415 16.802 11.8212ZM10.0446 15.0575C10.0537 15.0575 10.0617 15.0575 10.0707 15.0575C10.0707 14.6377 10.0707 14.2168 10.0707 13.797C10.0707 13.7464 10.0667 13.6958 10.0707 13.6463C10.0898 13.3772 9.94727 13.2952 9.70336 13.2993C9.26672 13.3053 8.92243 13.6817 8.90938 14.2229C8.89433 14.8279 8.90336 15.4328 8.90637 16.0378C8.91039 17.008 8.77287 16.9008 9.76057 16.6792C10.0145 16.6226 10.0637 16.5042 10.0507 16.2665C10.0296 15.8648 10.0446 15.4612 10.0446 15.0585V15.0575ZM13.5026 14.8845C13.5026 15.2032 13.5026 15.5229 13.5026 15.8416C13.5036 16.5548 13.5167 16.5548 14.2223 16.6883C14.4451 16.7308 14.4913 16.6559 14.4863 16.4688C14.4602 15.4986 14.4381 14.5294 14.405 13.5593C14.395 13.2598 14.2494 12.9947 13.9342 13.0312C13.6542 13.0635 13.5006 13.3144 13.5026 13.624C13.5056 14.0438 13.5026 14.4637 13.5026 14.8835V14.8845ZM13.9985 31.8218C14.1701 31.5021 14.3187 31.2259 14.4672 30.9507C14.5877 30.7292 14.684 30.4742 14.3919 30.3478C14.0788 30.2122 13.6632 30.0412 13.4153 30.3417C13.1764 30.631 13.2015 31.0711 13.2406 31.4606C13.2737 31.7833 13.6291 31.5951 13.7977 31.7752C13.5859 31.845 13.3551 31.845 13.354 32.1242C13.354 32.2902 13.4875 32.3175 13.5899 32.3367C14.0476 32.4227 14.5064 32.5066 14.9671 32.5613C15.1879 32.5876 15.5322 32.1374 15.466 31.9189C15.3786 31.6285 15.1428 31.757 14.9641 31.7904C14.6519 31.8491 14.3458 31.843 13.9975 31.8218H13.9985ZM17.3922 25.5323C17.3922 25.5323 17.3872 25.5323 17.3842 25.5323C17.3842 25.3805 17.3882 25.2298 17.3832 25.078C17.3761 24.8929 17.3882 24.6956 17.1312 24.6582C16.8863 24.6218 16.7829 24.73 16.7106 24.9667C16.5691 25.4291 16.4587 25.9015 16.268 26.3517C16.0933 26.7624 16.4416 26.8454 16.7257 26.8707C16.9776 26.8929 17.3721 27.1287 17.3902 26.5834C17.4022 26.2333 17.3922 25.8833 17.3922 25.5323ZM12.2067 16.4162C12.3643 16.0641 12.2519 15.7131 12.268 15.3671C12.275 15.2234 12.1917 15.1567 12.0652 15.1223C11.9749 15.097 11.8544 15.1162 11.8514 15.1901C11.8374 15.6058 11.6968 16.2756 11.8825 16.3909C12.3483 16.6772 12.0211 16.836 11.9337 17.0596C11.8725 17.2174 11.8032 17.3965 11.9287 17.5371C12.0722 17.699 12.2459 17.5887 12.3804 17.4997C12.6022 17.354 12.8221 17.1972 13.0158 17.0151C13.1724 16.8684 13.2316 16.6276 13.1021 16.4647C12.9586 16.2837 12.7217 16.2017 12.4818 16.3484C12.4155 16.3889 12.3714 16.4769 12.2047 16.4172L12.2067 16.4162ZM16.4717 23.8822C16.4717 23.8822 16.4778 23.8822 16.4808 23.8822C16.4657 23.5808 16.4657 23.2773 16.4276 22.9788C16.4085 22.8261 16.4346 22.5651 16.2389 22.5671C16.0742 22.5691 15.8052 22.7148 15.7651 22.8514C15.5814 23.4847 15.5322 24.1402 15.7932 24.7685C15.8615 24.9344 16.0702 25.0214 16.264 24.987C16.4808 24.9485 16.4687 24.7563 16.4697 24.5874C16.4717 24.3527 16.4697 24.118 16.4697 23.8822H16.4717ZM13.4233 25.4635C13.2758 25.4817 13.0941 25.4979 12.9144 25.5302C12.794 25.5515 12.6956 25.598 12.7297 25.7649C12.8261 26.2394 13.338 26.6481 13.8208 26.6127C14.0015 26.5996 14.1791 26.547 14.3598 26.5257C14.7844 26.4751 14.7423 26.2263 14.5937 25.9531C14.3448 25.4948 13.887 25.5171 13.4233 25.4645V25.4635ZM12.5731 29.848C12.7568 29.848 12.9455 29.8733 13.1242 29.8429C13.5578 29.7681 13.4735 29.3624 13.5528 29.0791C13.607 28.8869 13.4303 28.7311 13.2617 28.7514C12.8672 28.7999 12.4597 28.7483 12.0773 28.9001C11.9227 28.9618 11.8424 29.0538 11.8193 29.2299C11.748 29.7873 11.8374 29.8662 12.5731 29.847V29.848ZM11.9297 31.5334C11.9297 31.6852 11.9247 31.8359 11.9307 31.9877C11.9418 32.2305 12.0963 32.364 12.3141 32.3701C12.4958 32.3751 12.7668 32.4986 12.8512 32.2618C13.0047 31.8309 12.9897 31.3695 12.9224 30.9163C12.9044 30.7939 12.799 30.7777 12.6986 30.7534C12.1104 30.6057 11.9418 30.7777 11.9287 31.5344L11.9297 31.5334ZM14.939 26.6805C14.6439 26.8039 14.2705 26.7543 13.9101 26.813C13.5668 26.8697 13.4976 27.0275 13.7335 27.3097C14.4291 28.1434 14.8527 28.113 15.3395 27.1833C15.5262 26.8262 15.4218 26.6724 14.939 26.6805ZM16.9546 32.0554C16.817 32.4662 16.8622 32.885 17.5016 32.975C17.6311 32.9933 17.7806 33.0449 17.7847 32.8223C17.7937 32.2851 17.7686 31.7519 17.6261 31.2289C17.5618 30.9922 17.352 30.978 17.1884 30.976C16.9736 30.973 16.9556 31.1733 16.9546 31.3483C16.9535 31.5496 16.9546 31.7509 16.9546 32.0565V32.0554ZM6.02958 12.1338C6.12594 12.2633 6.18717 12.237 6.24941 12.2148C7.89056 11.631 9.53272 11.0483 11.1729 10.4636C11.3194 10.411 11.4941 10.3685 11.4338 10.0974C9.61904 10.7812 7.83435 11.454 6.02958 12.1338ZM16.6896 31.4232C16.6896 31.2876 16.6966 31.2188 16.6886 31.153C16.6695 31.0003 16.7658 30.7878 16.528 30.7342C16.3192 30.6867 16.3121 30.8971 16.2349 31.0124C15.9729 31.4039 15.7952 31.8369 15.6115 32.2689C15.4961 32.5431 15.6005 32.6452 15.8484 32.6796C16.2278 32.7333 16.5551 32.7059 16.5771 32.2001C16.5892 31.9158 16.7237 31.6467 16.6906 31.4232H16.6896ZM13.9131 22.385C13.9272 22.3111 13.9131 22.2383 13.8439 22.215C13.4715 22.0926 13.0981 21.9672 12.7187 21.869C12.6153 21.8427 12.532 21.9611 12.5872 22.0724C12.7929 22.4861 12.9325 22.9414 13.2717 23.2763C13.4062 23.4088 13.5759 23.4735 13.6642 23.2429C13.7696 22.9657 13.8318 22.6713 13.9131 22.384V22.385ZM15.3465 21.0546C15.1297 21.0162 15.1247 21.1558 15.1217 21.2974C15.1157 21.603 15.1799 21.8953 15.2913 22.1776C15.3666 22.3688 15.3756 22.6419 15.6968 22.5701C15.9297 22.5175 16.3684 21.9227 16.267 21.7679C16.0431 21.428 15.7179 21.1953 15.3465 21.0557V21.0546ZM11.7952 26.5439C11.9267 26.7847 11.5934 27.2066 12.1024 27.2693C12.3914 27.3047 12.8923 26.8717 12.8803 26.6319C12.8612 26.2475 12.5099 25.8853 12.1676 25.8702C11.5513 25.8439 11.9438 26.3274 11.7952 26.5449V26.5439ZM17.063 20.2473C17.1473 19.8154 16.9706 19.5007 16.9827 19.1649C16.9877 19.0101 16.9847 18.8472 16.7929 18.8067C16.5992 18.7663 16.538 18.9372 16.4687 19.0627C16.2479 19.4593 16.4477 19.8457 16.5219 20.2301C16.5701 20.477 16.4778 20.911 16.9094 20.8361C17.2868 20.7704 16.9957 20.3799 17.064 20.2473H17.063ZM14.9882 13.3337C15.1207 13.6938 15.1478 13.9538 15.1438 14.2249C15.1327 15.0302 15.1357 15.8355 15.1367 16.6408C15.1367 16.7652 15.0886 16.9352 15.3044 16.9291C15.487 16.924 15.4449 16.7773 15.4429 16.6671C15.4248 15.8466 15.487 15.0262 15.4057 14.2057C15.3746 13.8911 15.2923 13.621 14.9882 13.3337ZM13.3741 25.2085C13.9483 25.2116 14.0517 25.1711 14.0677 24.9566C14.0808 24.7867 13.5839 24.0937 13.4464 24.0886C13.3099 24.0836 12.7187 24.7907 12.7558 24.9708C12.8401 25.3785 13.1945 25.1235 13.3741 25.2095V25.2085ZM14.413 21.9388C14.6489 21.956 14.9179 21.9834 14.8466 21.6819C14.7764 21.3845 14.8537 20.9929 14.4903 20.8189C14.401 20.7764 13.612 21.5929 13.6612 21.6859C13.8328 22.0107 14.1832 21.8498 14.412 21.9388H14.413ZM16.286 28.9314C16.5059 28.9314 16.6544 28.9314 16.803 28.9314C16.9194 28.9314 17.0088 28.8829 16.9806 28.7564C16.9224 28.4883 16.7428 28.3244 16.4828 28.2607C16.261 28.2061 16.018 28.1201 15.8564 28.374C15.7671 28.5136 15.6727 28.7018 15.7661 28.8424C15.9056 29.0539 16.1596 28.893 16.286 28.9304V28.9314ZM14.9972 23.7143C15.2241 23.7962 15.3405 23.7386 15.3696 23.5494C15.3967 23.3734 15.3736 23.1882 15.1598 23.165C14.8647 23.1336 14.5666 23.1387 14.2695 23.1377C14.138 23.1377 14.0557 23.2236 14.0326 23.3501C14.0065 23.4928 14.1009 23.5464 14.2193 23.598C14.4863 23.7143 14.7764 23.6526 14.9982 23.7143H14.9972ZM14.6379 22.994C14.8306 22.9151 15.1006 22.993 15.1689 22.7198C15.2221 22.5044 14.8366 22.1351 14.5997 22.1311C14.2163 22.125 14.1701 22.4426 14.1591 22.6824C14.145 22.9717 14.4582 22.907 14.6379 22.993V22.994ZM17.2918 22.91C17.2918 22.8068 17.2908 22.7563 17.2918 22.7067C17.2978 22.4841 17.3159 22.2403 17.0027 22.2342C16.8612 22.2312 16.7006 22.0491 16.5912 22.2079C16.4336 22.4356 16.6514 22.6065 16.7508 22.7886C16.7899 22.8615 16.8401 22.9313 16.8973 22.991C16.9967 23.0952 17.071 23.2985 17.2286 23.251C17.4293 23.1903 17.2878 22.995 17.2928 22.911L17.2918 22.91ZM17.2768 21.5858C17.2326 21.3925 17.3189 21.1002 16.9385 21.1245C16.6835 21.1417 16.4236 21.2266 16.4456 21.4937C16.4727 21.8174 16.8421 21.863 17.079 21.9388C17.3279 22.0188 17.2677 21.7537 17.2778 21.5848L17.2768 21.5858ZM12.4095 30.5187C12.552 30.4348 12.9274 30.6796 12.9405 30.3559C12.9556 30.0048 12.5621 30.1596 12.3453 30.104C12.2529 30.0807 12.1505 30.0948 12.0532 30.0989C11.8956 30.106 11.8093 30.1778 11.8213 30.3508C11.8323 30.5076 11.9337 30.542 12.0602 30.542C12.1596 30.542 12.2589 30.5299 12.4095 30.5187ZM16.7377 23.865C16.7759 24.0836 16.6394 24.385 17.0238 24.3901C17.2507 24.3931 17.2908 24.2323 17.2848 24.0522C17.2768 23.7912 17.2236 23.5099 16.9295 23.4766C16.6283 23.4432 16.797 23.7366 16.7377 23.864V23.865ZM15.1016 31.579C15.2742 31.5051 15.6226 31.6639 15.6246 31.3159C15.6266 31.0236 15.3154 31.1652 15.1438 31.1389C14.952 31.1095 14.6941 31.0984 14.673 31.3594C14.6499 31.6477 14.9189 31.5334 15.1016 31.5779V31.579ZM11.4328 7.55606C11.1337 7.68049 10.7352 7.66633 10.7433 8.16103C10.7463 8.32897 10.8366 8.35628 10.9721 8.31885C11.3415 8.21465 11.6145 8.0457 11.4328 7.55606ZM12.808 14.4424C12.6093 14.4384 12.544 14.5476 12.543 14.6964C12.54 15.0504 12.8592 14.9978 13.0519 15.0504C13.2296 15.099 13.1663 14.8967 13.1724 14.7985C13.1884 14.5254 12.9746 14.492 12.808 14.4424ZM13.1111 15.7657C13.0389 15.5755 13.1543 15.2872 12.8211 15.2609C12.5611 15.2406 12.6313 15.4308 12.6313 15.5654C12.6313 15.7596 12.5872 15.9883 12.8943 16.0004C13.071 16.0075 13.1322 15.9205 13.1121 15.7647L13.1111 15.7657ZM12.2469 7.65115C12.0552 8.11348 12.3423 8.26017 12.6685 8.38764C12.7799 8.43115 12.8542 8.43216 12.8763 8.2885C12.9546 7.77154 12.534 7.78874 12.2469 7.65115ZM16.9285 16.4C16.7899 16.7753 16.7016 17.0171 16.6123 17.2589C16.5781 17.351 16.5169 17.4531 16.6554 17.5068C16.7909 17.5583 16.8652 17.4926 16.9144 17.3601C17.0158 17.0839 16.9696 16.8148 16.9285 16.401V16.4ZM11.484 13.4014C11.468 13.3539 11.4891 13.2517 11.3917 13.279C11.1267 13.3539 10.8456 13.3984 10.6248 13.5785C10.5867 13.6098 10.5977 13.7899 10.6278 13.8031C10.8587 13.9022 11.0474 13.71 11.2642 13.6817C11.4148 13.6624 11.4971 13.5704 11.485 13.4014H11.484ZM6.71616 15.1111C6.96409 15.0241 7.1538 14.9665 7.33448 14.8866C7.37663 14.8683 7.40173 14.7753 7.40675 14.7146C7.41277 14.6407 7.35957 14.581 7.28228 14.6063C7.05141 14.6822 6.73423 14.6559 6.71716 15.1122L6.71616 15.1111Z" fill="#003049" style="fill:#003049;fill:color(display-p3 0.0000 0.1882 0.2863);fill-opacity:1;"/>
<path d="M26.4311 36.9145C25.9905 37.0561 25.9895 36.6666 25.8249 36.4987C25.7054 36.3773 25.6894 36.1001 25.4495 36.1699C25.2306 36.2337 25.3912 36.4593 25.3461 36.6039C25.3069 36.7263 25.4505 36.9479 25.2025 36.955C24.9094 36.9641 25.0439 36.7142 25.0359 36.5807C25.0168 36.2458 25.063 35.9049 25.0229 35.5741C24.9416 34.9064 25.4163 35.1289 25.7265 35.1087C26.1039 35.0834 26.394 35.1977 26.385 35.656C26.384 35.7218 26.385 35.8229 26.3468 35.8482C25.7616 36.2306 26.2163 36.5705 26.4331 36.9145H26.4311ZM25.6181 35.3444C25.4224 35.3039 25.329 35.3828 25.338 35.6347C25.3461 35.8502 25.4083 35.9382 25.6241 35.915C25.8188 35.8947 26.0517 35.9271 26.0638 35.6418C26.0758 35.3555 25.857 35.3495 25.6171 35.3444H25.6181Z" fill="#003049" style="fill:#003049;fill:color(display-p3 0.0000 0.1882 0.2863);fill-opacity:1;"/>
<path d="M139.199 3.84231C138.763 3.91009 138.757 3.56714 138.602 3.40426C138.493 3.29196 138.478 3.0522 138.261 3.09368C138.008 3.14325 138.168 3.36784 138.129 3.50947C138.094 3.63795 138.202 3.86052 137.963 3.85344C137.733 3.84635 137.819 3.62885 137.816 3.49733C137.805 3.09469 137.819 2.69205 137.81 2.28941C137.805 2.07898 137.873 1.97579 138.095 1.99603C138.277 2.01221 138.46 2.00817 138.642 2.02334C138.865 2.04256 139.089 2.09315 139.148 2.3491C139.207 2.60302 139.204 2.86606 138.914 2.99049C138.715 3.07547 138.779 3.17158 138.861 3.295C138.969 3.45889 139.068 3.62885 139.198 3.84028L139.199 3.84231ZM138.363 2.27525C138.209 2.23174 138.121 2.30054 138.121 2.53423C138.121 2.76792 138.191 2.88123 138.433 2.84279C138.627 2.81244 138.869 2.81446 138.863 2.53929C138.857 2.254 138.618 2.28132 138.363 2.27626V2.27525Z" fill="#003049" style="fill:#003049;fill:color(display-p3 0.0000 0.1882 0.2863);fill-opacity:1;"/>
<path d="M5.57792 4.48267C5.53676 4.54033 5.52873 4.61924 5.4675 4.55753C5.4123 4.50189 5.36211 4.43411 5.33199 4.36228C5.32095 4.33598 5.37315 4.27022 5.42735 4.31676C5.48457 4.36633 5.53074 4.42905 5.57792 4.48166V4.48267Z" fill="#003049" style="fill:#003049;fill:color(display-p3 0.0000 0.1882 0.2863);fill-opacity:1;"/>
<path d="M4.2369 10.1045C4.29613 10.1723 4.38948 10.2269 4.31821 10.3402C4.263 10.2876 4.20779 10.235 4.15259 10.1824C4.18069 10.1561 4.2088 10.1308 4.2369 10.1045Z" fill="#003049" style="fill:#003049;fill:color(display-p3 0.0000 0.1882 0.2863);fill-opacity:1;"/>
<path d="M8.78094 3.89793C8.80403 3.94042 8.82611 3.98291 8.8492 4.02439C8.83314 4.02743 8.81808 4.03046 8.80202 4.0335C8.79801 3.98494 8.79299 3.93638 8.78897 3.88782L8.78094 3.89692V3.89793Z" fill="#003049" style="fill:#003049;fill:color(display-p3 0.0000 0.1882 0.2863);fill-opacity:1;"/>
<path d="M8.74278 3.74414C8.75583 3.79574 8.76888 3.84733 8.78093 3.89791L8.78896 3.88881C8.69862 3.94748 8.68958 3.86655 8.66449 3.81395C8.69059 3.79068 8.71669 3.76741 8.74278 3.74414Z" fill="#003049" style="fill:#003049;fill:color(display-p3 0.0000 0.1882 0.2863);fill-opacity:1;"/>
<path d="M3.23414 15.6787C3.23716 15.7202 3.24117 15.7607 3.24418 15.8021C3.21106 15.7829 3.17894 15.7647 3.14581 15.7455C3.17492 15.7232 3.20403 15.701 3.23314 15.6787H3.23414Z" fill="#003049" style="fill:#003049;fill:color(display-p3 0.0000 0.1882 0.2863);fill-opacity:1;"/>
<path d="M15.6135 29.9877C15.48 30.0818 15.4108 30.0464 15.4058 29.8825C15.5232 29.8198 15.5955 29.8501 15.6135 29.9877Z" fill="#003049" style="fill:#003049;fill:color(display-p3 0.0000 0.1882 0.2863);fill-opacity:1;"/>
<path d="M15.7129 30.0908C15.6286 30.104 15.5503 30.111 15.6075 29.9826C15.6828 29.9795 15.7711 29.9613 15.7129 30.0908Z" fill="#003049" style="fill:#003049;fill:color(display-p3 0.0000 0.1882 0.2863);fill-opacity:1;"/>
<path d="M12.9034 18.4588C12.7016 18.5255 12.6564 18.4325 12.6976 18.2524C12.8733 18.2119 12.8943 18.3293 12.9034 18.4588Z" fill="#003049" style="fill:#003049;fill:color(display-p3 0.0000 0.1882 0.2863);fill-opacity:1;"/>
<path d="M13.2045 19.4654C13.2125 19.5453 13.2216 19.6262 13.0971 19.5716C13.083 19.4856 13.0881 19.4178 13.2045 19.4654Z" fill="#003049" style="fill:#003049;fill:color(display-p3 0.0000 0.1882 0.2863);fill-opacity:1;"/>
<path d="M12.4025 24.3254C12.2961 24.3628 12.2148 24.3507 12.1927 24.2192C12.3283 24.122 12.3764 24.202 12.4025 24.3254Z" fill="#003049" style="fill:#003049;fill:color(display-p3 0.0000 0.1882 0.2863);fill-opacity:1;"/>
<path d="M12.6043 24.4255C12.4738 24.5115 12.4125 24.4589 12.3945 24.3193C12.4999 24.2849 12.5772 24.3041 12.6043 24.4255Z" fill="#003049" style="fill:#003049;fill:color(display-p3 0.0000 0.1882 0.2863);fill-opacity:1;"/>
<path d="M12.9034 21.083C12.9205 21.173 12.9134 21.2378 12.796 21.1902C12.7859 21.1073 12.8 21.0496 12.9034 21.083Z" fill="#003049" style="fill:#003049;fill:color(display-p3 0.0000 0.1882 0.2863);fill-opacity:1;"/>
<path d="M16.7177 15.5269C16.6093 15.5674 16.5049 15.6018 16.5099 15.4197C16.5983 15.4187 16.7207 15.3479 16.7177 15.5269Z" fill="#003049" style="fill:#003049;fill:color(display-p3 0.0000 0.1882 0.2863);fill-opacity:1;"/>
</g>
<defs>
<clipPath id="clip0_6712_14525">
<rect width="140" height="38" fill="white" style="fill:white;fill-opacity:1;"/>
</clipPath>
</defs>
</svg>
