<svg width="178" height="52" viewBox="0 0 178 52" fill="none" xmlns="http://www.w3.org/2000/svg">
<g id="travelers">
<path id="Vector" d="M137.033 14.2286H136.966C136.897 14.2286 136.841 14.1721 136.841 14.1025C136.837 14.0834 136.837 14.0635 136.841 14.0443C141.688 2.86713 154.584 -2.22278 165.643 2.67602C170.672 4.90365 174.688 8.96194 176.892 14.0443C176.918 14.1087 176.888 14.1823 176.825 14.2091C176.81 14.2156 176.793 14.2186 176.776 14.2186H176.719C174.843 13.1915 172.735 12.6767 170.602 12.7243C168.195 12.6418 165.822 13.3203 163.814 14.6653C163.789 14.6735 163.762 14.6735 163.736 14.6653H163.66C159.499 12.065 154.242 12.065 150.082 14.6653C150.057 14.6735 150.03 14.6735 150.005 14.6653H149.938C147.93 13.3206 145.557 12.6421 143.149 12.7243C141.019 12.6822 138.914 13.2007 137.042 14.2286H137.033Z" fill="#003049" style="fill:#003049;fill:color(display-p3 0.0000 0.1882 0.2863);fill-opacity:1;"/>
<path id="Vector_2" d="M158.014 14.3742C158.014 14.3187 157.972 14.2725 157.918 14.2674C157.561 14.2239 157.202 14.2013 156.842 14.1995C156.539 14.1841 156.234 14.1841 155.93 14.1995C155.876 14.2047 155.834 14.2509 155.834 14.3064V32.3853C155.834 33.4142 155.008 34.2479 153.99 34.2479C153.209 34.2475 152.514 33.7502 152.253 33.0059C152.024 32.4405 151.385 32.1696 150.825 32.4004C150.334 32.6032 150.058 33.1323 150.169 33.656C150.847 35.7946 153.112 36.9728 155.228 36.2875C156.904 35.7446 158.037 34.1639 158.023 32.385L158.014 14.3742Z" fill="#003049" style="fill:#003049;fill:color(display-p3 0.0000 0.1882 0.2863);fill-opacity:1;"/>
<path id="Vector_3" d="M32.406 36.3734H28.7475L26.3853 28.61H23.3606L22.5157 36.3734H18.8762L21.0272 16.6255H28.1809C32.425 16.6255 34.4608 17.654 33.9422 22.671C33.5677 26.0967 32.2525 27.4746 29.9093 28.1441L32.406 36.3734ZM27.0672 25.4952C28.7763 25.4952 29.9479 25.4274 30.2553 22.584C30.5627 19.7405 29.1989 19.8084 27.6051 19.8084H24.3211L23.6968 25.5435L27.0672 25.4952Z" fill="#003049" style="fill:#003049;fill:color(display-p3 0.0000 0.1882 0.2863);fill-opacity:1;"/>
<path id="Vector_4" d="M128.333 36.3734H124.646L122.284 28.61H119.288L118.442 36.3734H114.813L116.964 16.6255H124.127C128.371 16.6255 130.398 17.654 129.889 22.671C129.524 26.0967 128.199 27.4746 125.856 28.1441L128.333 36.3734ZM122.908 25.4952C124.617 25.4952 125.789 25.4274 126.105 22.584C126.423 19.7405 125.145 19.8084 123.455 19.8084H120.229L119.605 25.5435L122.908 25.4952Z" fill="#003049" style="fill:#003049;fill:color(display-p3 0.0000 0.1882 0.2863);fill-opacity:1;"/>
<path id="Vector_5" d="M51.8506 16.6255H55.6914L58.3511 31.0557L63.9685 16.6255H67.6846L59.6091 36.4803H55.8449L51.8506 16.6255Z" fill="#003049" style="fill:#003049;fill:color(display-p3 0.0000 0.1882 0.2863);fill-opacity:1;"/>
<path id="Vector_6" d="M71.0553 16.6255H82.5781L82.2229 19.9149H74.426L73.9363 24.6119H80.2644L79.8994 27.9503H73.5618L72.9762 33.0741H81.0323L80.6578 36.3734H68.9236L71.0553 16.6255Z" fill="#003049" style="fill:#003049;fill:color(display-p3 0.0000 0.1882 0.2863);fill-opacity:1;"/>
<path id="Vector_7" d="M101.389 16.6255H112.912L112.556 19.9149H104.75L104.231 24.6119H110.559L110.194 27.9503H103.866L103.3 33.0741H111.385L111.03 36.3734H99.238L101.389 16.6255Z" fill="#003049" style="fill:#003049;fill:color(display-p3 0.0000 0.1882 0.2863);fill-opacity:1;"/>
<path id="Vector_8" d="M131.348 36.0242L131.857 32.7923C133.658 33.1242 135.481 33.3218 137.311 33.3845C139.769 33.3845 140.461 32.9574 140.672 30.9586C140.874 29.1245 140.576 28.8916 137.791 27.9987C133.413 26.5722 132.424 25.8443 132.865 21.7395C133.297 17.7997 135.314 16.4023 139.75 16.4023C141.559 16.392 143.365 16.5742 145.137 16.9458L144.724 20.1578C142.951 19.8783 141.161 19.7163 139.366 19.6725C137.388 19.6725 136.725 20.1869 136.543 21.7782C136.341 23.6414 136.687 23.826 139.346 24.6894C143.543 26.0964 144.858 26.8242 144.407 30.9486C143.937 35.2669 141.949 36.6157 136.869 36.6157C135.014 36.6085 133.164 36.4102 131.348 36.0242Z" fill="#003049" style="fill:#003049;fill:color(display-p3 0.0000 0.1882 0.2863);fill-opacity:1;"/>
<path id="Vector_9" d="M38.1868 36.3734H34.4707L42.8728 16.5186H46.4449L50.2857 36.3734H46.4449L45.8399 33.084H39.5411L38.1868 36.3734ZM44.0248 21.691L40.8079 29.9881H45.3211L44.0248 21.691Z" fill="#003049" style="fill:#003049;fill:color(display-p3 0.0000 0.1882 0.2863);fill-opacity:1;"/>
<path id="Vector_10" d="M97.1544 33.0741H88.5123L90.3078 16.6255H86.6012L84.4983 36.3734H93.7453C95.7906 36.3734 96.6931 35.1603 97.1544 33.0741Z" fill="#003049" style="fill:#003049;fill:color(display-p3 0.0000 0.1882 0.2863);fill-opacity:1;"/>
<path id="Vector_11" d="M2.27387 16.6255L1.9187 19.9149H7.99696L6.20144 36.4121H9.94634L11.713 19.9344H14.7761C16.8597 19.9344 17.7625 18.7216 18.2139 16.6255H2.27387Z" fill="#003049" style="fill:#003049;fill:color(display-p3 0.0000 0.1882 0.2863);fill-opacity:1;"/>
</g>
</svg>
