<svg width="169" height="41" viewBox="0 0 169 41" fill="none" xmlns="http://www.w3.org/2000/svg">
<g clip-path="url(#clip0_6712_14267)">
<path d="M43.5433 29.5376C43.5306 29.5858 43.5201 29.6026 43.5243 29.6133C43.7446 30.1712 44.032 30.6732 44.5655 30.9892C45.0883 31.2989 45.2984 31.7855 45.2707 32.3852C45.2624 32.5635 45.219 32.7403 45.1862 32.9537C45.1152 32.8866 45.0727 32.849 45.0329 32.809C44.3796 32.1481 43.5941 31.9466 42.7124 32.157C42.1699 32.2864 41.7722 32.6423 41.5072 33.1357C41.0921 33.9094 41.011 34.7159 41.3428 35.5436C41.4324 35.7672 41.5519 35.9785 41.6594 36.1947C41.6922 36.2606 41.7313 36.3237 41.7856 36.4203C41.621 36.391 41.4891 36.3739 41.3602 36.3437C40.1108 36.0511 39.166 35.3295 38.4977 34.2238C38.0828 33.5377 37.8399 32.7851 37.6746 32.0018C37.4409 30.8944 37.1227 29.8153 36.6015 28.8077C36.361 28.343 36.078 27.9073 35.7178 27.5283C35.5165 27.3165 35.2993 27.1242 35.0075 27.0189C35.0332 27.0558 35.056 27.0954 35.0853 27.129C36.252 28.4713 36.9567 30.0319 37.2232 31.8019C37.3142 32.4059 37.5182 32.9746 37.7756 33.5243C37.7916 33.5584 37.8091 33.5918 37.8258 33.6257C38.0276 34.0384 38.0182 34.0841 37.6623 34.3603C37.2016 34.7177 36.6694 34.8697 36.1019 34.9059C35.2191 34.9621 34.369 34.7808 33.5322 34.518C32.1666 34.0891 30.8889 33.4592 29.6495 32.7435C29.3258 32.5565 29.0098 32.3558 28.6901 32.1618C28.6271 32.1236 28.5634 32.0865 28.4747 32.0339C28.4372 32.172 28.399 32.2912 28.3728 32.4132C28.1814 33.3054 28.1854 34.2047 28.2987 35.1047C28.405 35.9492 28.5992 36.7736 28.8986 37.5694C28.9462 37.6957 28.9095 37.7878 28.8604 37.89C28.1832 39.2966 27.0899 40.1861 25.6086 40.5831C24.7216 40.8209 23.8169 40.8655 22.9049 40.7999C20.8554 40.6527 18.9163 40.0533 17.0158 39.3014C15.7032 38.7822 14.4332 38.1684 13.1885 37.4978C12.6858 37.2271 12.2235 36.899 11.7706 36.5525C9.48742 34.8051 7.31079 32.9321 5.3024 30.8614C4.01814 29.5371 2.81655 28.1414 1.80487 26.5862C1.17771 25.6223 0.637465 24.6126 0.297408 23.5029C0.110399 22.8923 -0.00399532 22.2692 2.63708e-05 21.6258C0.00248407 21.2443 0.0449353 20.8694 0.140562 20.5013C1.13615 16.6681 2.44566 12.9508 4.10372 9.36221C4.1951 9.16428 4.30525 8.97386 4.42232 8.79027C5.24275 7.5049 5.88555 6.13239 6.32347 4.66729C6.66464 3.52593 7.36442 2.7108 8.38347 2.15752C8.95343 1.84812 9.55847 1.63472 10.1966 1.54486C10.5188 1.49936 10.8508 1.5162 11.1779 1.5212C12.5012 1.54145 13.8005 1.75439 15.0881 2.049C17.4767 2.59545 19.7769 3.41969 22.0355 4.37018C24.0109 5.20146 25.942 6.12921 27.8263 7.15705C27.8835 7.18822 27.9432 7.21529 28.0118 7.24919C27.8641 6.82285 26.8207 5.80775 25.9685 5.25379C25.1667 4.73236 24.3018 4.35767 23.3721 4.0899C23.4157 4.07443 23.4586 4.05578 23.503 4.04394C25.2983 3.57052 27.1201 3.30161 28.9779 3.32254C31.8045 3.35439 34.4597 4.02643 36.8868 5.5368C38.8263 6.74391 40.4254 8.32344 41.768 10.1821C42.775 11.576 43.5693 13.0896 44.2348 14.6777C44.4538 15.2003 44.6897 15.7156 44.9246 16.2311C45.4168 17.3113 46.0759 18.2813 46.8125 19.2016C47.6088 20.1964 48.4639 21.1355 49.3674 22.0292C50.6926 23.3396 51.8477 24.7921 52.8822 26.3473C52.9823 26.4979 53.079 26.651 53.1802 26.801C53.7491 27.6429 54.5851 27.8156 55.4654 27.549C55.6909 27.4807 55.8783 27.3413 56.0499 27.1813C56.3772 26.8758 56.6471 26.5193 56.837 26.1141C56.9371 25.9005 56.9774 25.6516 57.0122 25.4137C57.2904 23.5241 57.0835 21.6968 56.3064 19.9478C56.0354 19.3376 55.6851 18.7764 55.3057 18.2299C54.2585 16.7207 53.3484 15.133 52.7099 13.3958C52.3839 12.509 52.2257 11.5856 52.1491 10.6451C52.0836 9.84155 52.0986 9.04075 52.1889 8.23927C52.3303 6.98301 52.7224 5.8189 53.3936 4.7542C54.2851 3.34029 55.4169 2.17594 56.8471 1.3251C57.3056 1.05232 57.7882 0.832787 58.3148 0.737237C58.504 0.702884 58.6991 0.694467 58.8917 0.689689C59.3157 0.679452 59.7398 0.679679 60.1639 0.674219C60.6626 0.667849 61.1096 0.499044 61.5308 0.236282C61.6749 0.14642 61.8318 0.0652025 61.9935 0.019475C62.2911 -0.0646999 62.471 0.1264 62.3669 0.421922C62.3139 0.572527 62.2064 0.710392 62.0996 0.832104C61.9815 0.966784 61.8371 1.07849 61.7017 1.19701C61.4531 1.41496 61.3058 1.68819 61.2757 2.02056C61.2395 2.42119 61.22 2.82273 61.2978 3.22108C61.3724 3.60373 61.5619 3.86945 61.9692 3.93975C62.1986 3.97934 62.3374 4.14336 62.3633 4.34834C62.3883 4.54513 62.288 4.75534 62.0871 4.85134C61.9558 4.91413 61.8058 4.95394 61.6611 4.96668C61.2013 5.00718 60.7383 5.01332 60.2801 5.06496C59.8227 5.11661 59.3665 5.19191 58.9151 5.28336C57.8804 5.49335 57.3145 6.17357 57.102 7.19914C56.8732 8.30319 56.9867 9.38405 57.2973 10.454C57.4166 10.8651 57.5945 11.25 57.834 11.5985C58.389 12.4057 58.9473 13.2108 59.526 14C60.4702 15.2879 61.4472 16.5514 62.3798 17.8477C62.8761 18.5375 63.3247 19.265 63.7657 19.9935C64.3889 21.0229 64.6992 22.1666 64.8751 23.3532C65.0089 24.2562 65.0453 25.1646 65.0017 26.075C64.9198 27.7936 64.5766 29.4536 63.8875 31.0316C62.9735 33.125 61.4973 34.7075 59.5966 35.8957C58.2221 36.755 56.7316 37.3069 55.1332 37.5324C54.611 37.6061 54.0802 37.6422 53.5533 37.6434C53.2075 37.6441 52.8598 37.5612 52.516 37.4987C51.1345 37.2478 49.7879 36.8712 48.4943 36.312C47.9933 36.0955 47.5036 35.8523 47.0601 35.5294C46.7947 35.3363 46.5435 35.1195 46.3049 34.8927C46.0406 34.6415 45.852 34.3319 45.7273 33.984C45.6916 33.8844 45.6648 33.7766 45.6069 33.6915C45.4621 33.4788 45.4836 33.2529 45.5108 33.0165C45.5412 32.7533 45.562 32.488 45.5671 32.2232C45.5754 31.7989 45.4139 31.4381 45.1163 31.1464C44.9885 31.0213 44.8488 30.8985 44.6935 30.8147C44.2838 30.5936 43.9933 30.2574 43.7473 29.8711C43.683 29.7701 43.6224 29.667 43.5431 29.5369L43.5433 29.5376ZM5.01821 27.5196C5.02938 27.5135 5.04032 27.5076 5.0515 27.5014C4.99676 27.3895 4.94269 27.2771 4.88728 27.1654C3.76813 24.9013 3.38339 22.503 3.6372 19.9924C3.76187 18.7591 4.04428 17.5592 4.44869 16.3904C5.15383 14.3513 6.15768 12.4755 7.43614 10.7509C7.48395 10.6865 7.52953 10.6203 7.576 10.5548C7.50875 10.5602 7.47412 10.5877 7.4415 10.6173C6.52701 11.4482 5.69921 12.3586 4.99519 13.3821C3.23503 15.9406 2.52699 18.7664 2.95195 21.867C3.22408 23.8523 3.91202 25.6903 4.93107 27.4023C4.95587 27.4441 4.98916 27.4807 5.01843 27.5199L5.01821 27.5196ZM36.229 19.8618C36.1691 19.8217 36.1153 19.784 36.0596 19.7492C35.7924 19.5826 35.5462 19.3995 35.3621 19.1276C35.1782 18.8558 34.9052 18.6986 34.5765 18.6626C34.2405 18.6258 33.9257 18.7022 33.6339 18.8712C33.2051 19.1194 33.0322 19.5394 33.1511 20.0274C33.3175 20.7103 33.8227 21.1276 34.4903 21.144C35.0113 21.1567 35.4159 20.9053 35.7806 20.5659C35.985 20.3755 36.1396 20.1468 36.2288 19.8615L36.229 19.8618ZM39.6472 10.5673C39.6579 10.5607 39.6684 10.5538 39.6792 10.5473C39.6595 10.5031 39.6448 10.4558 39.6193 10.4155C39.4977 10.2249 39.3762 10.034 39.2491 9.84723C38.434 8.64877 37.4914 7.5711 36.3275 6.71092C34.5019 5.36162 32.4801 4.73054 30.2159 5.01719C29.9648 5.04904 29.7118 5.0818 29.4772 5.19418C29.5601 5.20965 29.641 5.20715 29.7215 5.21011C30.2566 5.22922 30.7955 5.21398 31.3259 5.27608C32.6271 5.42805 33.8457 5.86144 34.9948 6.49639C36.7605 7.47237 38.232 8.80347 39.4968 10.3823C39.5467 10.4444 39.5972 10.5058 39.6472 10.5675V10.5673ZM61.7911 18.7222C64.2307 22.7051 64.4179 26.8656 62.7655 31.1806C63.8156 29.3128 64.401 27.3172 64.2989 25.1495C64.1845 22.7219 63.3012 20.5939 61.7911 18.7222ZM54.796 4.42023C54.7851 4.41067 54.7739 4.40089 54.763 4.39134C54.744 4.40066 54.7216 4.40612 54.7064 4.41977C54.6559 4.46436 54.6059 4.51009 54.559 4.55878C53.3549 5.80161 52.7713 7.30902 52.7329 9.04166C52.7148 9.8577 52.8433 10.6571 53.0663 11.4404C53.1009 11.5619 53.14 11.6822 53.1771 11.8031C53.1914 11.8008 53.2057 11.7985 53.2202 11.7962C53.0207 10.5129 53.0363 9.23549 53.298 7.96422C53.5618 6.68067 54.0659 5.50199 54.796 4.42046V4.42023Z" fill="#003049" style="fill:#003049;fill:color(display-p3 0.0000 0.1882 0.2863);fill-opacity:1;"/>
<path d="M63.0342 37.7332C62.9489 37.8049 62.8653 37.8791 62.7779 37.948C61.4885 38.9672 60.0559 39.7097 58.5094 40.2291C57.2736 40.6441 56.0056 40.8889 54.706 40.9685C51.6551 41.1555 48.7778 40.4892 46.0368 39.1487C45.1292 38.7049 44.2587 38.1955 43.4412 37.5958C42.8426 37.1567 42.3473 36.6151 41.9431 35.9879C41.7461 35.6821 41.5903 35.3556 41.5153 34.9944C41.2996 33.9586 41.9648 32.8729 42.9729 32.6086C43.2345 32.5399 43.4919 32.5744 43.7468 32.6281C44.4165 32.7685 44.931 33.145 45.2941 33.7301C45.4085 33.9146 45.5063 34.1142 45.5834 34.3178C45.7204 34.6802 45.9324 34.9846 46.2081 35.2471C46.6699 35.6871 47.2077 36.0101 47.7728 36.2875C49.053 36.9158 50.4007 37.3408 51.7855 37.6513C53.0144 37.9268 54.254 38.1395 55.5049 38.2756C56.9212 38.4296 58.3411 38.4876 59.7632 38.3718C60.7293 38.2931 61.6847 38.1468 62.6102 37.8386C62.6808 37.8151 62.7509 37.7894 62.8211 37.7644C62.8832 37.7423 62.9451 37.72 63.0072 37.698C63.0163 37.7096 63.0255 37.7214 63.0344 37.733L63.0342 37.7332Z" fill="#003049" style="fill:#003049;fill:color(display-p3 0.0000 0.1882 0.2863);fill-opacity:1;"/>
<path d="M169 12.8494C168.988 12.922 168.968 12.9946 168.967 13.0674C168.959 13.5449 168.955 14.0227 168.95 14.5002C168.95 14.5748 168.95 14.6494 168.95 14.7184C168.772 14.7691 159.846 14.7805 159.576 14.7336V14.3732C159.661 14.3732 159.74 14.3773 159.819 14.3726C160.042 14.3589 160.268 14.3607 160.486 14.3216C160.954 14.2376 161.181 13.9969 161.227 13.5192C161.267 13.1202 161.288 12.7177 161.289 12.3169C161.295 10.1711 161.295 8.02531 161.289 5.8793C161.288 5.47845 161.253 5.07737 161.228 4.67674C161.223 4.59484 161.201 4.51203 161.175 4.43354C161.094 4.18443 160.936 4.0088 160.673 3.97376C160.386 3.93554 160.096 3.9178 159.807 3.89414C159.735 3.88822 159.662 3.89323 159.577 3.89323V3.52832H164.851C164.857 3.58815 164.865 3.6398 164.865 3.69144C164.865 3.75059 164.858 3.80974 164.852 3.89323C164.763 3.89323 164.683 3.8905 164.603 3.89368C164.306 3.90551 164.008 3.90893 163.711 3.93463C163.234 3.97604 163.021 4.1685 162.963 4.6483C162.914 5.04597 162.89 5.44887 162.889 5.84973C162.882 8.11676 162.884 10.384 162.887 12.6511C162.888 12.9464 162.905 13.2421 162.927 13.5369C162.959 13.9797 163.18 14.2306 163.615 14.3016C163.856 14.3409 164.103 14.3607 164.347 14.3648C165.024 14.3766 165.702 14.393 166.377 14.3125C166.891 14.2513 167.308 14.024 167.646 13.6275C167.959 13.2605 168.171 12.8381 168.335 12.3876C168.445 12.0828 168.543 11.7731 168.655 11.4385H169V12.849L169 12.8494Z" fill="#003049" style="fill:#003049;fill:color(display-p3 0.0000 0.1882 0.2863);fill-opacity:1;"/>
<path d="M84.1124 20.7151V20.3432C84.1508 20.3323 84.1845 20.3159 84.2192 20.3141C85.6764 20.2353 87.1333 20.1475 88.5934 20.1539C89.4436 20.1575 90.2899 20.214 91.1148 20.4483C91.7263 20.6219 92.2719 20.9135 92.7431 21.356C93.806 22.354 93.7463 24.0544 92.8812 25.0367C92.4064 25.5759 91.8101 25.8953 91.1374 26.0837C90.9155 26.1458 90.6869 26.1824 90.4613 26.2309C90.4039 26.2431 90.3469 26.2568 90.2626 26.2757C90.3257 26.3271 90.3717 26.3599 90.4123 26.3983C90.6691 26.6395 90.9504 26.8597 91.1756 27.1283C91.6731 27.7217 92.1506 28.3332 92.6209 28.9495C93.0781 29.5485 93.5316 30.1491 94.0457 30.6994C94.5109 31.1974 95.0366 31.5964 95.7085 31.7516C95.9469 31.8067 96.1911 31.8369 96.4471 31.881V32.2464C96.3986 32.2544 96.3499 32.2692 96.3012 32.2692C95.3481 32.2705 94.3949 32.2687 93.4418 32.2723C93.3287 32.2728 93.2383 32.2405 93.1605 32.1625C92.938 31.9393 92.7043 31.7261 92.4963 31.4897C91.8691 30.777 91.3226 30.0001 90.7855 29.2166C90.2736 28.4701 89.7231 27.7551 89.1498 27.056C88.8202 26.654 88.431 26.4622 87.9234 26.5023C87.8217 26.5102 87.7189 26.5034 87.6074 26.5034C87.5998 26.5635 87.5911 26.5994 87.5916 26.6354C87.6023 27.9696 87.6124 29.3037 87.6271 30.638C87.6287 30.7886 87.6468 30.9415 87.6769 31.0891C87.7513 31.4545 87.9533 31.7125 88.3275 31.7803C88.5682 31.8239 88.8139 31.8426 89.0584 31.8588C89.2425 31.8708 89.4279 31.8613 89.6274 31.8613V32.2332C89.4748 32.2799 84.4446 32.2992 84.0404 32.2521V31.8729C84.1177 31.8692 84.2033 31.8681 84.2884 31.861C84.5697 31.8378 84.8533 31.8296 85.131 31.7839C85.5119 31.7211 85.74 31.4704 85.8015 31.0887C85.8482 30.7981 85.8707 30.5015 85.8781 30.2069C85.8917 29.6536 85.8891 29.1001 85.8886 28.5466C85.8873 26.4766 85.8866 24.4065 85.8786 22.3368C85.8774 22.0496 85.8576 21.7596 85.8111 21.4768C85.7353 21.0147 85.5276 20.8266 85.0644 20.7745C84.8133 20.7463 84.5594 20.7438 84.307 20.7292C84.2489 20.7258 84.1908 20.7215 84.1126 20.7163L84.1124 20.7151ZM87.6023 26.0766C87.6477 26.0828 87.683 26.0925 87.7178 26.0912C88.1935 26.0728 88.6705 26.0691 89.1442 26.0273C89.4681 25.9986 89.7935 25.9378 90.108 25.8532C90.8576 25.6512 91.3188 25.1418 91.5159 24.3868C91.6832 23.7457 91.6805 23.0977 91.5346 22.4528C91.3246 21.5239 90.7915 20.9288 89.8442 20.7456C89.2778 20.6362 88.7092 20.6009 88.1356 20.6109C87.9598 20.6141 87.7844 20.6316 87.6023 20.643V26.0766Z" fill="#003049" style="fill:#003049;fill:color(display-p3 0.0000 0.1882 0.2863);fill-opacity:1;"/>
<path d="M131.885 20.717V20.3259C132.116 20.3102 132.336 20.2888 132.557 20.2811C133.829 20.2363 135.101 20.1808 136.374 20.1571C137.163 20.1423 137.951 20.2103 138.722 20.4042C139.33 20.5568 139.884 20.8166 140.371 21.2261C141.632 22.2858 141.525 24.099 140.596 25.0966C140.169 25.5554 139.651 25.8546 139.065 26.0343C138.788 26.1192 138.5 26.1672 138.217 26.2325C138.163 26.2452 138.109 26.2611 138.036 26.2803C138.954 26.9807 139.606 27.8969 140.276 28.7948C140.754 29.4348 141.228 30.0784 141.779 30.6564C141.975 30.8626 142.183 31.0609 142.406 31.2368C142.839 31.579 143.339 31.7648 143.883 31.8283C143.992 31.841 144.102 31.8554 144.218 31.8699V32.2553C144.143 32.2608 144.078 32.2696 144.014 32.2699C143.09 32.2708 142.167 32.268 141.244 32.2733C141.107 32.2742 140.996 32.2394 140.903 32.1416C140.614 31.8367 140.3 31.5514 140.041 31.2211C139.527 30.5632 139.033 29.8879 138.55 29.2059C138.027 28.4677 137.484 27.7467 136.911 27.0478C136.586 26.6518 136.2 26.4689 135.703 26.5025C135.6 26.5096 135.496 26.5034 135.384 26.5034C135.374 26.5614 135.36 26.6042 135.36 26.647C135.371 27.9888 135.381 29.3306 135.397 30.6721C135.399 30.83 135.419 30.9913 135.457 31.1444C135.543 31.4891 135.751 31.7264 136.106 31.7826C136.377 31.8256 136.653 31.8408 136.927 31.8592C137.08 31.8695 137.235 31.8611 137.4 31.8611V32.2555H131.805V31.8611C131.917 31.8611 132.026 31.8686 132.134 31.8595C132.4 31.8372 132.669 31.8251 132.931 31.776C133.282 31.71 133.499 31.4723 133.562 31.1212C133.613 30.8393 133.639 30.5497 133.643 30.2631C133.657 29.4293 133.657 28.5951 133.656 27.7611C133.656 25.9565 133.655 24.152 133.647 22.3472C133.646 22.0601 133.626 21.7701 133.581 21.4871C133.505 21.0139 133.295 20.8228 132.821 20.7723C132.562 20.7447 132.301 20.7422 132.041 20.7281C131.997 20.7256 131.953 20.722 131.885 20.7172L131.885 20.717ZM135.373 26.0794C135.428 26.0842 135.472 26.0923 135.515 26.0907C135.975 26.073 136.437 26.0694 136.896 26.0291C137.213 26.0013 137.53 25.9415 137.839 25.863C138.609 25.6671 139.085 25.155 139.286 24.3809C139.45 23.7473 139.446 23.1064 139.307 22.4687C139.097 21.5073 138.537 20.909 137.563 20.7334C136.855 20.6055 136.145 20.5823 135.431 20.6392C135.411 20.6408 135.393 20.6585 135.373 20.6692V26.0794H135.373Z" fill="#003049" style="fill:#003049;fill:color(display-p3 0.0000 0.1882 0.2863);fill-opacity:1;"/>
<path d="M129.906 9.34524C129.902 9.4235 129.897 9.46854 129.897 9.51336C129.899 10.6051 129.899 11.6969 129.905 12.7884C129.907 13.023 129.925 13.258 129.946 13.4919C129.99 13.978 130.214 14.2383 130.686 14.3216C130.911 14.3614 131.144 14.3609 131.375 14.3723C131.514 14.3791 131.655 14.3737 131.808 14.3737V14.744H126.553C126.547 14.6865 126.54 14.6291 126.537 14.5714C126.534 14.519 126.536 14.4667 126.536 14.3882C126.635 14.383 126.72 14.3803 126.805 14.3732C127.064 14.352 127.326 14.3464 127.582 14.3025C127.925 14.2433 128.145 14.0188 128.202 13.6714C128.251 13.3663 128.279 13.0539 128.281 12.7448C128.291 11.1225 128.29 9.49994 128.292 7.87741C128.292 7.1419 128.294 6.40662 128.286 5.67112C128.284 5.36831 128.263 5.06528 128.242 4.76294C128.235 4.65806 128.214 4.55182 128.184 4.45126C128.106 4.19214 127.945 4.01378 127.672 3.97306C127.452 3.94007 127.229 3.91937 127.007 3.9014C126.889 3.89184 126.77 3.8998 126.634 3.8998V3.52147C126.745 3.51123 126.848 3.49667 126.951 3.49303C128.275 3.44571 129.599 3.38224 130.924 3.36063C131.72 3.34766 132.515 3.42478 133.286 3.65752C133.8 3.81244 134.262 4.06065 134.668 4.4201C135.773 5.39652 135.685 7.03111 134.87 7.95362C134.529 8.34037 134.121 8.6277 133.643 8.7956C133.314 8.91094 132.97 8.9826 132.632 9.07224C132.569 9.08907 132.503 9.09817 132.407 9.11705C132.474 9.17188 132.518 9.2051 132.559 9.24286C132.783 9.45262 133.03 9.64349 133.226 9.87781C133.694 10.4368 134.147 11.0099 134.591 11.5893C135.063 12.2051 135.529 12.8242 136.067 13.3843C136.627 13.9671 137.289 14.3143 138.094 14.363C138.137 14.3655 138.179 14.3798 138.231 14.3907V14.7459C138.158 14.7513 138.093 14.7604 138.029 14.7604C137.165 14.7613 136.301 14.7581 135.438 14.7641C135.3 14.765 135.191 14.7279 135.098 14.6303C134.825 14.3414 134.528 14.0709 134.285 13.7576C133.782 13.1099 133.311 12.4363 132.821 11.7783C132.371 11.1748 131.914 10.5765 131.457 9.97905C131.365 9.85984 131.255 9.7561 131.156 9.64303C130.981 9.4442 130.758 9.35502 130.502 9.34706C130.31 9.34114 130.118 9.34592 129.907 9.34592L129.906 9.34524ZM129.912 3.83838V8.94848C130.706 8.91458 131.487 8.94302 132.25 8.72757C132.971 8.52419 133.411 8.04098 133.592 7.31685C133.759 6.6505 133.745 5.97892 133.549 5.31895C133.335 4.5955 132.883 4.1198 132.143 3.94576C131.424 3.77673 130.699 3.76148 129.968 3.81244C129.955 3.81335 129.942 3.82427 129.912 3.83838Z" fill="#003049" style="fill:#003049;fill:color(display-p3 0.0000 0.1882 0.2863);fill-opacity:1;"/>
<path d="M102.516 32.4917C101.372 32.4842 100.29 32.3045 99.2934 31.7715C97.5672 30.8485 96.5083 29.4182 96.2 27.4424C96.0344 26.382 96.059 25.3255 96.3613 24.2908C96.8406 22.651 97.9036 21.5192 99.383 20.768C100.152 20.3776 100.975 20.1858 101.83 20.1233C102.835 20.0495 103.825 20.128 104.785 20.4502C106.198 20.9245 107.341 21.7653 108.111 23.0833C108.537 23.8119 108.758 24.6123 108.838 25.4506C108.928 26.4009 108.894 27.3477 108.613 28.2652C107.998 30.2722 106.665 31.5515 104.714 32.1805C103.992 32.4135 103.243 32.4822 102.516 32.4917H102.516ZM106.888 26.1636C106.877 25.9591 106.868 25.6103 106.838 25.2634C106.772 24.4819 106.624 23.7187 106.309 22.9973C105.8 21.8295 104.977 21.021 103.74 20.6993C103.121 20.5382 102.492 20.5077 101.857 20.5785C100.464 20.7334 99.4272 21.42 98.7808 22.6947C98.378 23.4891 98.21 24.3479 98.1322 25.2288C98.0587 26.0619 98.0723 26.8943 98.1729 27.7247C98.2618 28.4582 98.428 29.1705 98.7498 29.838C99.2467 30.8688 100.034 31.549 101.123 31.8554C101.68 32.0119 102.25 32.0681 102.826 32.0411C103.87 31.9917 104.786 31.6329 105.518 30.8478C105.967 30.3664 106.274 29.8004 106.482 29.1755C106.791 28.2455 106.875 27.2824 106.888 26.1643L106.888 26.1636Z" fill="#003049" style="fill:#003049;fill:color(display-p3 0.0000 0.1882 0.2863);fill-opacity:1;"/>
<path d="M74.0143 20.7283V20.3404C74.0543 20.3309 74.0887 20.3163 74.1234 20.3152C75.7305 20.2608 77.3369 20.1778 78.9456 20.2187C79.6461 20.2365 80.3427 20.2988 81.0215 20.492C81.5085 20.6305 81.9474 20.8632 82.3301 21.2029C82.8974 21.7063 83.2066 22.3381 83.258 23.1034C83.2877 23.5461 83.2658 23.9845 83.1393 24.4093C82.7912 25.5784 82.0206 26.2741 80.8418 26.4973C80.2544 26.6085 79.6604 26.6429 79.0638 26.6433C78.6319 26.6433 78.2 26.6433 77.7681 26.6433C77.6949 26.6433 77.6218 26.6433 77.5371 26.6433C77.5284 26.712 77.5161 26.7621 77.5163 26.8124C77.5201 28.0179 77.5235 29.2232 77.5318 30.4287C77.5331 30.61 77.5528 30.792 77.5735 30.9724C77.6276 31.4379 77.8555 31.7041 78.3075 31.7935C78.5396 31.8394 78.7801 31.8433 79.0173 31.8597C79.1337 31.8676 79.2513 31.861 79.38 31.861V32.2551H74.0242V31.8742C74.0856 31.8701 74.1564 31.8653 74.227 31.861C74.4498 31.8474 74.6739 31.846 74.8949 31.8183C75.4253 31.7514 75.6974 31.4768 75.7443 30.9333C75.7832 30.481 75.8044 30.0256 75.8058 29.5715C75.8118 27.3499 75.8118 25.1286 75.8058 22.9071C75.8044 22.4605 75.7705 22.0142 75.7437 21.568C75.7374 21.4641 75.7093 21.3585 75.6746 21.2595C75.5913 21.0216 75.4309 20.8541 75.1815 20.8152C74.9103 20.7727 74.6352 20.7534 74.3613 20.7301C74.2523 20.7208 74.1417 20.7286 74.0146 20.7286L74.0143 20.7283ZM77.54 20.6783C77.4882 21.0329 77.5063 26.0373 77.5601 26.2011C78.1889 26.2033 78.8216 26.2224 79.4503 26.1251C79.9883 26.0416 80.4687 25.845 80.8233 25.3989C81.0271 25.1425 81.1879 24.8631 81.2827 24.5474C81.4813 23.8858 81.4697 23.2167 81.3376 22.5461C81.1499 21.5926 80.5833 21.0052 79.659 20.7795C78.9639 20.6098 78.259 20.6087 77.54 20.678V20.6783Z" fill="#003049" style="fill:#003049;fill:color(display-p3 0.0000 0.1882 0.2863);fill-opacity:1;"/>
<path d="M124.13 25.7334C124.466 25.7334 124.785 25.7397 125.104 25.7315C125.461 25.7224 125.818 25.7083 126.173 25.679C126.312 25.6676 126.452 25.623 126.581 25.568C126.839 25.4574 127 25.2545 127.039 24.969C127.068 24.7592 127.081 24.5472 127.097 24.3361C127.106 24.2162 127.108 24.0956 127.114 23.9618H127.51V28.0241H127.116C127.111 27.9255 127.106 27.822 127.098 27.7187C127.08 27.4924 127.071 27.2647 127.038 27.0403C126.976 26.6085 126.736 26.2646 126.226 26.2168C126.026 26.1981 125.825 26.1761 125.625 26.1736C125.135 26.1674 124.644 26.1715 124.138 26.1715C124.129 26.2377 124.115 26.2948 124.115 26.3517C124.121 27.595 124.123 28.8383 124.139 30.0816C124.143 30.3835 124.192 30.6847 124.223 30.9859C124.231 31.0607 124.254 31.134 124.268 31.2084C124.319 31.4725 124.477 31.6472 124.726 31.7146C124.947 31.7746 125.177 31.8263 125.404 31.8376C126.14 31.8743 126.877 31.8977 127.61 31.7837C128.193 31.6932 128.674 31.4222 129.07 30.9765C129.571 30.4114 129.869 29.7408 130.079 29.0216C130.123 28.8699 130.165 28.7175 130.209 28.558H130.623C130.541 29.7885 130.459 31.0093 130.377 32.2216C130.363 32.2358 130.357 32.241 130.352 32.2458C130.346 32.2503 130.34 32.2583 130.334 32.2583C127.162 32.2626 123.991 32.2662 120.819 32.2697C120.775 32.2697 120.732 32.2637 120.672 32.2594V31.8724C120.742 31.8688 120.82 31.867 120.899 31.8604C121.136 31.8406 121.376 31.8385 121.609 31.7942C122.035 31.7127 122.297 31.4393 122.346 30.9977C122.392 30.5846 122.411 30.1664 122.413 29.7505C122.422 27.62 122.427 25.4895 122.421 23.3592C122.42 22.7688 122.38 22.1782 122.353 21.5881C122.348 21.4912 122.324 21.3927 122.293 21.3001C122.207 21.0366 122.038 20.8528 121.76 20.8087C121.526 20.7714 121.288 20.7543 121.052 20.7284C121.008 20.7236 120.965 20.7195 120.912 20.714V20.3241H129.284C129.376 21.3114 129.467 22.2945 129.56 23.2934H129.16C129.139 23.2231 129.12 23.1446 129.094 23.068C128.974 22.7022 128.87 22.3295 128.727 21.9735C128.565 21.5719 128.292 21.253 127.919 21.0303C127.62 20.8521 127.287 20.7914 126.954 20.7802C126.039 20.7497 125.123 20.7452 124.208 20.7313C124.187 20.7311 124.166 20.7429 124.13 20.7538V25.7334H124.13Z" fill="#003049" style="fill:#003049;fill:color(display-p3 0.0000 0.1882 0.2863);fill-opacity:1;"/>
<path d="M115.901 31.8608V32.2537H110.546V31.877C110.805 31.8613 111.057 31.8462 111.308 31.8308C111.345 31.8285 111.382 31.8249 111.419 31.8196C111.933 31.7455 112.201 31.4979 112.255 30.972C112.306 30.4831 112.327 29.9889 112.328 29.4971C112.336 27.3283 112.336 25.1596 112.328 22.9908C112.327 22.5065 112.304 22.0203 112.254 21.5387C112.201 21.0273 111.976 20.8225 111.474 20.77C111.244 20.7461 111.013 20.7406 110.783 20.729C110.709 20.7254 110.635 20.7283 110.545 20.7283V20.3225C110.813 20.3115 111.071 20.2999 111.329 20.2906C112.75 20.2392 114.172 20.1776 115.594 20.2233C116.249 20.2442 116.904 20.3009 117.535 20.4954C117.804 20.5782 118.072 20.6844 118.316 20.8246C119.243 21.3574 119.751 22.165 119.791 23.259C119.807 23.7099 119.757 24.1547 119.606 24.5797C119.222 25.6567 118.467 26.2912 117.363 26.4973C116.768 26.6085 116.166 26.6433 115.562 26.6433C115.137 26.6433 114.713 26.6433 114.288 26.6433C114.215 26.6433 114.142 26.6433 114.054 26.6433C114.046 26.7159 114.034 26.7735 114.034 26.8308C114.035 27.953 114.035 29.0753 114.042 30.1975C114.043 30.4321 114.062 30.6671 114.082 30.9012C114.131 31.4597 114.408 31.7546 114.953 31.8196C115.174 31.846 115.398 31.8494 115.621 31.8603C115.709 31.8647 115.796 31.861 115.901 31.861L115.901 31.8608ZM114.055 20.6785C114.007 21.0555 114.024 26.032 114.076 26.2033C114.345 26.2033 114.62 26.2072 114.895 26.2024C115.319 26.1951 115.741 26.1708 116.159 26.0891C116.766 25.9708 117.232 25.6485 117.541 25.1088C117.663 24.8954 117.766 24.6623 117.832 24.425C118.007 23.793 117.983 23.1519 117.85 22.514C117.656 21.5826 117.096 21.0084 116.192 20.7836C115.491 20.6091 114.78 20.6087 114.055 20.6785Z" fill="#003049" style="fill:#003049;fill:color(display-p3 0.0000 0.1882 0.2863);fill-opacity:1;"/>
<path d="M86.9202 4.57659V4.79886C86.9202 7.36187 86.9188 9.92488 86.922 12.4879C86.9222 12.7527 86.9479 13.0177 86.9626 13.2826C86.9805 13.6026 87.1382 13.8356 87.3918 14.016C87.6955 14.2319 88.038 14.3174 88.3981 14.3502C88.5454 14.3636 88.6935 14.3693 88.8555 14.3796V14.7568C87.493 14.764 86.1283 14.7586 84.7502 14.7606V14.3843C84.9185 14.3589 85.0856 14.3359 85.2518 14.3077C85.5557 14.2563 85.8435 14.1612 86.1011 13.9817C86.3229 13.8272 86.4662 13.6309 86.4758 13.3465C86.4838 13.1042 86.512 12.8624 86.5122 12.6203C86.514 10.3378 86.5153 8.05529 86.5066 5.77301C86.5053 5.41834 86.4543 5.06367 86.423 4.70922C86.4177 4.64962 86.3965 4.59138 86.3813 4.53291C86.2872 4.16687 86.058 3.96416 85.6846 3.93777C85.4842 3.92367 85.2833 3.91229 85.0829 3.8991C85.0242 3.89523 84.9654 3.88909 84.8935 3.88295V3.52668C84.9703 3.52259 85.042 3.51531 85.1135 3.51508C86.0519 3.5144 86.9903 3.51849 87.9285 3.51076C88.0876 3.50939 88.1837 3.56194 88.2784 3.6898C90.3464 6.4794 92.4189 9.26559 94.4906 12.0525C94.5373 12.1153 94.5855 12.1767 94.6331 12.2388C94.6487 12.2324 94.6646 12.226 94.6802 12.2194V12.001C94.6802 9.8853 94.6832 7.76978 94.6769 5.65403C94.676 5.36761 94.64 5.08005 94.6029 4.79545C94.5659 4.51084 94.392 4.31793 94.1496 4.18484C93.8835 4.03856 93.5962 3.96507 93.2981 3.93072C93.1431 3.91298 92.9873 3.90183 92.8149 3.88636V3.55148C92.9614 3.5053 96.3957 3.4871 96.7847 3.53464V3.89C96.6102 3.91935 96.4413 3.94392 96.2742 3.9769C96.0012 4.03059 95.7449 4.12751 95.5143 4.2904C95.3007 4.44146 95.1637 4.6437 95.1367 4.90692C95.1088 5.17765 95.0847 5.45042 95.0844 5.72228C95.0809 8.71754 95.0822 11.7128 95.0822 14.7081V14.9742C94.8081 15.0652 94.7473 15.0479 94.5971 14.8455C92.099 11.4746 89.6009 8.10352 87.1025 4.73266C87.0587 4.67351 87.0116 4.61663 86.966 4.55862C86.9506 4.56454 86.9351 4.57045 86.9197 4.57659H86.9202Z" fill="#003049" style="fill:#003049;fill:color(display-p3 0.0000 0.1882 0.2863);fill-opacity:1;"/>
<path d="M122.141 6.94421H122.502V10.7623H122.142C122.123 10.5064 122.107 10.2589 122.085 10.0118C122.076 9.91422 122.059 9.81639 122.035 9.72107C121.945 9.35389 121.725 9.12434 121.348 9.07133C121.201 9.05063 121.053 9.02811 120.904 9.02651C120.384 9.02105 119.863 9.02447 119.325 9.02447C119.318 9.08726 119.307 9.14459 119.307 9.20214C119.308 10.2712 119.3 11.3402 119.319 12.409C119.327 12.8387 119.392 13.268 119.441 13.6964C119.477 14.014 119.668 14.2067 119.969 14.2631C120.253 14.3166 120.542 14.3596 120.83 14.3675C121.284 14.3803 121.738 14.3682 122.192 14.3518C123.034 14.3213 123.705 13.9658 124.202 13.2614C124.582 12.7222 124.811 12.1196 124.982 11.4881C124.998 11.4296 125.014 11.3711 125.031 11.3133C125.035 11.2999 125.046 11.2888 125.06 11.2672H125.435C125.356 12.431 125.279 13.5829 125.2 14.7468H116.066V14.3885C116.131 14.3835 116.195 14.378 116.26 14.3737C116.468 14.3593 116.678 14.3625 116.883 14.3279C117.361 14.2469 117.619 13.9658 117.658 13.4744C117.689 13.0897 117.706 12.7025 117.706 12.3166C117.708 10.0421 117.705 7.76776 117.7 5.49322C117.699 5.23614 117.677 4.97861 117.654 4.72199C117.645 4.6178 117.618 4.51292 117.584 4.41327C117.507 4.181 117.353 4.0222 117.112 3.97852C116.907 3.94144 116.699 3.92483 116.493 3.90026C116.428 3.89253 116.363 3.88866 116.287 3.88206V3.55378C116.289 3.55173 116.294 3.54604 116.299 3.54081C116.304 3.53558 116.309 3.52807 116.316 3.52671C116.338 3.5217 116.36 3.51601 116.382 3.51601C118.943 3.51533 121.504 3.51533 124.066 3.51601C124.094 3.51601 124.123 3.5242 124.175 3.53217C124.26 4.4499 124.346 5.36672 124.433 6.30289H124.053C124.025 6.20119 124 6.09154 123.964 5.98621C123.845 5.64427 123.749 5.29051 123.594 4.96564C123.316 4.37915 122.849 4.02789 122.198 3.97534C121.724 3.93712 121.248 3.90982 120.772 3.89662C120.297 3.88343 119.821 3.89366 119.35 3.89366C119.296 4.06656 119.275 8.13449 119.322 8.58789C119.345 8.5954 119.373 8.61201 119.4 8.61155C119.98 8.60086 120.56 8.5888 121.14 8.57538C121.192 8.57424 121.244 8.56583 121.295 8.55627C121.828 8.45572 122.063 8.20069 122.091 7.67903C122.105 7.43857 122.124 7.19833 122.141 6.94444L122.141 6.94421Z" fill="#003049" style="fill:#003049;fill:color(display-p3 0.0000 0.1882 0.2863);fill-opacity:1;"/>
<path d="M161.839 27.0136C161.889 26.9358 161.931 26.875 161.968 26.8113C162.706 25.5478 163.448 24.2865 164.178 23.0187C164.351 22.7193 164.509 22.4065 164.632 22.0832C164.855 21.4935 164.572 20.9637 163.968 20.8062C163.768 20.7541 163.56 20.738 163.342 20.7034V20.3524C163.503 20.3053 166.916 20.2969 167.156 20.3451V20.7155C167.096 20.7316 167.034 20.7516 166.971 20.7651C166.474 20.8706 166.041 21.0988 165.727 21.5099C165.426 21.9042 165.126 22.3034 164.87 22.7286C163.931 24.2931 163.009 25.8688 162.085 27.4429C162.038 27.5225 162.01 27.6269 162.01 27.7197C162.013 28.6445 162.018 29.5693 162.034 30.4939C162.038 30.7193 162.07 30.948 162.119 31.1682C162.193 31.501 162.405 31.7146 162.739 31.7756C162.958 31.8156 163.182 31.8316 163.403 31.8564C163.476 31.8643 163.549 31.8657 163.636 31.8709V32.2324C163.472 32.2818 159.233 32.3036 158.667 32.257V31.8775C158.887 31.8614 159.108 31.8484 159.328 31.8279C159.424 31.8191 159.519 31.8002 159.613 31.7772C159.961 31.6914 160.178 31.4605 160.235 31.1099C160.288 30.7748 160.313 30.4322 160.32 30.0923C160.334 29.342 160.331 28.5913 160.327 27.841C160.327 27.7486 160.299 27.6451 160.251 27.5662C159.213 25.8235 158.172 24.082 157.125 22.3448C156.903 21.977 156.652 21.6277 156.417 21.2678C156.213 20.9532 155.917 20.8049 155.559 20.7635C155.434 20.7489 155.309 20.7316 155.173 20.7141V20.354C155.336 20.3073 159.607 20.2939 159.913 20.3396V20.7112C159.745 20.7282 159.569 20.7359 159.396 20.7664C159.236 20.7946 159.073 20.8288 158.925 20.8927C158.625 21.0217 158.53 21.2512 158.647 21.5561C158.722 21.7526 158.815 21.9451 158.922 22.126C159.863 23.7164 160.809 25.3037 161.754 26.8919C161.775 26.9285 161.802 26.9622 161.839 27.0143L161.839 27.0136Z" fill="#003049" style="fill:#003049;fill:color(display-p3 0.0000 0.1882 0.2863);fill-opacity:1;"/>
<path d="M154.526 20.3286C154.546 21.2878 154.565 22.2248 154.584 23.1771C154.503 23.1831 154.446 23.1894 154.389 23.1903C154.338 23.191 154.286 23.1856 154.218 23.1819C154.185 23.0322 154.159 22.8848 154.12 22.7412C154.049 22.4787 153.983 22.2137 153.891 21.9584C153.828 21.7826 153.734 21.6151 153.636 21.4552C153.369 21.0177 152.979 20.7836 152.472 20.7686C151.884 20.7511 151.296 20.739 150.708 20.7292C150.382 20.7238 150.055 20.7283 149.7 20.7283C149.696 20.8271 149.689 20.9142 149.689 21.0013C149.688 23.5184 149.688 26.0357 149.689 28.5527C149.689 29.091 149.689 29.6293 149.697 30.1675C149.701 30.4173 149.717 30.6673 149.739 30.9162C149.788 31.4634 150.062 31.7523 150.599 31.8189C150.806 31.8447 151.015 31.8515 151.223 31.8597C151.385 31.866 151.549 31.861 151.728 31.861V32.2319C151.58 32.2799 146.229 32.296 145.905 32.246V31.861C145.981 31.861 146.06 31.8635 146.138 31.8606C146.436 31.8494 146.734 31.851 147.03 31.8212C147.58 31.7657 147.85 31.5093 147.918 30.949C147.966 30.5438 147.986 30.1329 147.988 29.7246C147.994 26.8055 147.993 23.8867 147.994 20.9677C147.994 20.9003 147.994 20.8328 147.994 20.7561C147.939 20.7454 147.898 20.7295 147.856 20.7301C146.992 20.7399 146.129 20.7604 145.266 20.76C144.623 20.7595 144.205 21.0844 143.925 21.644C143.727 22.0399 143.619 22.4639 143.532 22.895C143.514 22.9838 143.497 23.0729 143.477 23.1762H143.076C143.097 22.2271 143.117 21.2848 143.138 20.3293H154.526V20.3286Z" fill="#003049" style="fill:#003049;fill:color(display-p3 0.0000 0.1882 0.2863);fill-opacity:1;"/>
<path d="M80.2542 3.89135V3.54964C80.4196 3.50551 83.6539 3.49618 83.9202 3.54009C83.9238 3.5799 83.93 3.62335 83.9314 3.66681C83.9334 3.73392 83.9318 3.80103 83.9318 3.88498C83.8384 3.90068 83.7591 3.91 83.6816 3.9282C83.5082 3.9687 83.3279 3.99418 83.1641 4.06061C82.6809 4.25649 82.3875 4.61116 82.3578 5.15579C82.3372 5.53412 82.3174 5.91291 82.3156 6.2917C82.3086 7.83096 82.3156 9.37045 82.3015 10.9095C82.2977 11.3251 82.2727 11.7465 82.1985 12.1539C82.0361 13.0443 81.5316 13.7127 80.7942 14.201C80.2562 14.5572 79.661 14.7722 79.0292 14.8721C78.0242 15.0311 77.0261 15.0049 76.0433 14.7137C75.655 14.5986 75.2935 14.4223 74.9512 14.203C74.1942 13.718 73.7543 13.0205 73.5979 12.1287C73.519 11.6787 73.5022 11.2257 73.5029 10.7698C73.5054 9.00304 73.5052 7.23628 73.5011 5.46951C73.5007 5.22745 73.481 4.98448 73.4571 4.74333C73.403 4.20007 73.1774 3.97461 72.6479 3.93025C72.418 3.91091 72.1872 3.90477 71.9568 3.89249C71.9052 3.88976 71.8538 3.88634 71.7854 3.88248V3.54942C71.9436 3.50392 76.5516 3.49504 76.8023 3.54259V3.87588C76.7435 3.88111 76.6801 3.88725 76.6166 3.89249C76.3277 3.91637 76.0377 3.93093 75.7502 3.96642C75.4472 4.00373 75.2673 4.20234 75.2081 4.49422C75.1587 4.73787 75.1304 4.98881 75.1232 5.23746C75.1078 5.78301 75.1085 6.32924 75.1087 6.87501C75.1091 8.17176 75.1013 9.4685 75.1214 10.7648C75.1295 11.286 75.1914 11.8074 75.2488 12.3264C75.2973 12.7627 75.5048 13.1281 75.7995 13.4452C76.2573 13.938 76.8213 14.2189 77.4748 14.3236C78.4342 14.4769 79.3589 14.3745 80.2386 13.9368C81.0478 13.5339 81.5995 12.9078 81.7903 12.001C81.866 11.6407 81.8937 11.2639 81.8962 10.8945C81.9083 9.13544 81.9069 7.37619 81.9022 5.61716C81.9016 5.37624 81.8669 5.13372 81.8292 4.89485C81.7624 4.47307 81.5076 4.20075 81.1202 4.06516C80.9319 3.99918 80.731 3.97006 80.5348 3.92889C80.4482 3.91069 80.359 3.90454 80.254 3.89067L80.2542 3.89135Z" fill="#003049" style="fill:#003049;fill:color(display-p3 0.0000 0.1882 0.2863);fill-opacity:1;"/>
<path d="M144.937 4.50629C145.2 4.20258 145.326 3.89318 145.379 3.53236H145.704C145.752 3.69457 145.76 6.22004 145.709 6.45391H145.387C145.364 6.38043 145.338 6.30376 145.316 6.22596C145.109 5.51457 144.777 4.87961 144.221 4.38367C143.54 3.77601 142.748 3.58469 141.87 3.76145C141.231 3.88999 140.83 4.31155 140.644 4.9258C140.454 5.54983 140.57 6.13587 141.021 6.61339C141.23 6.83498 141.474 7.03563 141.735 7.18965C142.216 7.4747 142.719 7.72404 143.218 7.97862C143.889 8.32146 144.578 8.63199 145.236 8.99872C145.935 9.38775 146.377 10.0091 146.585 10.7905C146.765 11.4646 146.755 12.1441 146.54 12.8082C146.223 13.783 145.56 14.4262 144.616 14.7501C143.761 15.0434 142.888 15.047 142.021 14.7888C141.378 14.5973 140.837 14.2294 140.373 13.7407C140.322 13.6868 140.278 13.6252 140.217 13.5499C139.972 13.8829 139.898 14.2451 139.803 14.6187H139.408V11.041C139.469 11.0351 139.519 11.0276 139.569 11.026C139.643 11.0235 139.716 11.0253 139.796 11.0253C139.851 11.2462 139.899 11.4512 139.953 11.6541C140.095 12.183 140.288 12.6906 140.58 13.1547C141.206 14.1523 142.106 14.6077 143.261 14.5438C143.482 14.5315 143.707 14.5015 143.921 14.443C144.8 14.2026 145.422 13.4632 145.513 12.5429C145.572 11.9467 145.409 11.4098 144.984 10.9859C144.783 10.7864 144.555 10.6042 144.311 10.4647C143.865 10.2088 143.404 9.97606 142.937 9.75948C142.253 9.44167 141.56 9.14296 140.921 8.73573C140.242 8.3028 139.783 7.69242 139.579 6.903C139.111 5.08937 140.223 3.61449 141.754 3.36083C142.904 3.17041 143.948 3.41156 144.78 4.30996C144.831 4.36501 144.874 4.42712 144.937 4.50583L144.937 4.50629Z" fill="#003049" style="fill:#003049;fill:color(display-p3 0.0000 0.1882 0.2863);fill-opacity:1;"/>
<path d="M153.192 3.36217H153.506C153.541 3.43952 153.581 3.51914 153.615 3.60127C154.78 6.42226 155.945 9.24394 157.112 12.0647C157.299 12.5186 157.502 12.9658 157.688 13.4206C157.914 13.9757 158.31 14.2935 158.9 14.3556C158.936 14.3595 158.971 14.37 159.02 14.38V14.7474H154.712V14.3807C154.86 14.3727 155.008 14.3693 155.154 14.3554C155.317 14.3402 155.482 14.3295 155.641 14.2919C155.966 14.215 156.107 13.9689 156.021 13.6408C155.983 13.4948 155.932 13.3512 155.876 13.2113C155.544 12.3839 155.209 11.5576 154.874 10.7313C154.86 10.6968 154.839 10.6649 154.818 10.6246H150.662C150.649 10.639 150.628 10.6524 150.621 10.6713C150.358 11.3631 150.091 12.0538 149.838 12.7495C149.777 12.9178 149.745 13.1019 149.728 13.2814C149.683 13.7448 149.896 14.0974 150.326 14.2605C150.505 14.3283 150.699 14.3538 150.907 14.4036V14.7481H147.654V14.3807C147.752 14.3554 147.851 14.3308 147.951 14.304C148.381 14.188 148.726 13.9509 148.936 13.5453C149.113 13.204 149.287 12.8594 149.434 12.504C150.287 10.4367 151.131 8.36579 151.98 6.29646C152.349 5.39465 152.721 4.49352 153.092 3.59217C153.123 3.51596 153.158 3.44111 153.192 3.36194V3.36217ZM154.662 10.2213C154.644 10.1599 154.637 10.1235 154.624 10.0902C154.003 8.5735 153.382 7.05699 152.76 5.54048C152.758 5.53593 152.748 5.53342 152.742 5.53251C152.734 5.53138 152.727 5.5332 152.704 5.53479C152.075 7.08497 151.443 8.64152 150.802 10.2213H154.662Z" fill="#003049" style="fill:#003049;fill:color(display-p3 0.0000 0.1882 0.2863);fill-opacity:1;"/>
<path d="M109.697 15.0224H109.204C109.176 14.9674 109.144 14.9096 109.118 14.8488C107.852 11.8816 106.586 8.91406 105.322 5.9461C105.227 5.72383 105.146 5.49542 105.052 5.27293C104.975 5.09229 104.891 4.91484 104.805 4.7383C104.556 4.22233 104.145 3.95479 103.583 3.92272C103.48 3.9168 103.378 3.90065 103.266 3.88814V3.52869H107.992V3.88199C107.782 3.89678 107.569 3.90588 107.358 3.9284C107.203 3.94478 107.046 3.96458 106.897 4.0078C106.618 4.08879 106.49 4.27534 106.523 4.56973C106.542 4.73284 106.59 4.89687 106.651 5.04929C106.886 5.63078 107.129 6.20886 107.374 6.78603C108.231 8.80281 109.089 10.8185 109.947 12.8346C109.979 12.909 110.015 12.9811 110.063 13.0821C110.092 13.0316 110.107 13.01 110.117 12.9859C111.034 10.7484 111.953 8.5123 112.863 6.27188C112.999 5.937 113.092 5.58392 113.199 5.23721C113.227 5.14416 113.24 5.04452 113.248 4.94692C113.282 4.52445 113.097 4.20618 112.711 4.04739C112.568 3.98869 112.411 3.96139 112.259 3.92909C112.158 3.9077 112.054 3.90292 111.941 3.88973V3.53051H115.291V3.87904C115.241 3.89223 115.2 3.90838 115.157 3.91384C114.748 3.96594 114.424 4.17729 114.19 4.50807C114.009 4.76447 113.845 5.04179 113.724 5.33185C112.409 8.48363 111.104 11.64 109.797 14.7947C109.765 14.8707 109.731 14.9458 109.697 15.0229L109.697 15.0224Z" fill="#003049" style="fill:#003049;fill:color(display-p3 0.0000 0.1882 0.2863);fill-opacity:1;"/>
<path d="M102.602 14.3734V14.7433H97.5701C97.5651 14.6814 97.5575 14.6234 97.5564 14.5651C97.5555 14.5128 97.5616 14.4603 97.566 14.3822C97.6565 14.3793 97.7437 14.38 97.8299 14.3727C98.0815 14.352 98.3362 14.3458 98.5837 14.301C98.9267 14.2389 99.1457 14.0121 99.1982 13.6645C99.2489 13.3287 99.2786 12.9863 99.2797 12.6466C99.2864 10.2891 99.2862 7.93147 99.2802 5.57389C99.2793 5.24174 99.2478 4.90777 99.206 4.57813C99.1609 4.22255 98.956 3.99869 98.5967 3.9566C98.331 3.92543 98.0632 3.91337 97.7962 3.89381C97.7238 3.88858 97.6514 3.88653 97.5678 3.88243V3.55574C97.7206 3.50296 102.084 3.4793 102.593 3.53117V3.87948C102.537 3.8838 102.473 3.88835 102.409 3.89358C102.121 3.91679 101.831 3.93066 101.543 3.9657C101.231 4.00369 101.049 4.2073 100.989 4.5092C100.944 4.73829 100.923 4.97375 100.909 5.20739C100.893 5.45673 100.893 5.70744 100.893 5.95746C100.894 8.23177 100.896 10.5059 100.901 12.7802C100.902 13.0222 100.921 13.265 100.945 13.5059C100.988 13.9359 101.193 14.256 101.673 14.3208C101.893 14.3506 102.117 14.3581 102.339 14.3724C102.42 14.3777 102.501 14.3734 102.603 14.3734H102.602Z" fill="#003049" style="fill:#003049;fill:color(display-p3 0.0000 0.1882 0.2863);fill-opacity:1;"/>
<path d="M150.121 37.009C150.424 37.009 150.706 37.0085 150.988 37.0101C151.007 37.0101 151.026 37.0274 151.072 37.0504C151.021 37.0786 150.99 37.1043 150.956 37.1114C150.906 37.1216 150.852 37.115 150.801 37.1221C150.611 37.148 150.564 37.2003 150.546 37.4005C150.542 37.4458 150.541 37.4913 150.541 37.5368C150.541 38.2113 150.541 38.8861 150.541 39.5606C150.541 39.5984 150.542 39.6364 150.545 39.6742C150.561 39.9007 150.624 39.9663 150.844 39.9877C150.934 39.9964 151 40.0218 151.042 40.0636C150.846 40.1287 149.747 40.1191 149.608 40.0486C149.653 39.9585 149.738 39.997 149.804 39.9872C149.999 39.9583 150.06 39.9001 150.086 39.6994C150.091 39.6544 150.093 39.6086 150.093 39.5634C150.093 38.8888 150.094 38.2141 150.093 37.5395C150.093 37.5188 150.086 37.4981 150.073 37.4296C150.025 37.5261 149.989 37.5868 149.962 37.6508C149.636 38.3986 149.313 39.1475 148.984 39.8941C148.951 39.9701 148.949 40.1087 148.839 40.0889C148.78 40.0782 148.728 39.9635 148.693 39.886C148.37 39.1539 148.051 38.4195 147.73 37.686C147.698 37.613 147.662 37.5418 147.603 37.4187C147.592 37.5159 147.583 37.5564 147.583 37.5971C147.584 38.2034 147.583 38.8099 147.589 39.4162C147.593 39.7938 147.648 39.8609 148.002 39.987C148.027 39.9958 148.046 40.0204 148.072 40.0407C147.941 40.1187 147.229 40.133 146.953 40.0589C147.011 40.022 147.045 39.9904 147.085 39.9772C147.36 39.8857 147.455 39.7788 147.458 39.4874C147.466 38.8053 147.465 38.1231 147.46 37.441C147.458 37.1926 147.401 37.1437 147.155 37.1157C147.096 37.1089 147.038 37.0977 146.982 37.0738C147.123 36.9963 147.541 36.9812 147.914 37.0254C148.272 37.8448 148.633 38.6734 149.017 39.5538C149.396 38.6809 149.755 37.853 150.121 37.0095L150.121 37.009Z" fill="#003049" style="fill:#003049;fill:color(display-p3 0.0000 0.1882 0.2863);fill-opacity:1;"/>
<path d="M124.117 40.0982C123.853 40.0982 123.59 40.1064 123.327 40.092C123.267 40.0886 123.2 40.0158 123.155 39.9596C122.985 39.7487 122.824 39.5317 122.659 39.3167C122.513 39.1256 122.368 38.9331 122.22 38.7436C122.129 38.6265 122.009 38.5876 121.85 38.6271C121.845 38.6961 121.835 38.7621 121.835 38.828C121.838 39.1158 121.837 39.4038 121.849 39.6912C121.859 39.9116 121.92 39.9621 122.135 39.989C122.208 39.9981 122.3 39.9546 122.354 40.0497C122.204 40.123 121.091 40.1268 120.92 40.0563C120.946 39.9619 121.026 39.9969 121.084 39.989C121.315 39.9571 121.365 39.9152 121.375 39.6725C121.388 39.3699 121.387 39.0669 121.387 38.7639C121.387 38.3246 121.389 37.885 121.377 37.446C121.37 37.1748 121.338 37.1536 121.081 37.1159C121.03 37.1084 120.98 37.0922 120.894 37.0715C120.95 37.0333 120.966 37.0135 120.983 37.0121C121.524 36.9712 122.067 36.9166 122.607 37.0119C122.75 37.0372 122.897 37.0899 123.022 37.1657C123.501 37.4576 123.491 38.1066 123.005 38.3912C122.879 38.4652 122.733 38.5043 122.587 38.5632C122.909 38.9557 123.226 39.3499 123.552 39.7364C123.666 39.8711 123.82 39.9496 123.997 39.9771C124.042 39.9842 124.085 40.0119 124.129 40.0301C124.125 40.0529 124.12 40.0754 124.116 40.0982H124.117ZM121.836 37.1047C121.844 37.5831 121.812 38.0397 121.857 38.5232C122.09 38.4897 122.299 38.4775 122.499 38.4272C122.772 38.3582 122.862 38.1296 122.874 37.8728C122.887 37.6011 122.849 37.34 122.586 37.1834C122.554 37.1648 122.518 37.1529 122.483 37.1423C122.28 37.0815 122.076 37.077 121.836 37.1045L121.836 37.1047Z" fill="#003049" style="fill:#003049;fill:color(display-p3 0.0000 0.1882 0.2863);fill-opacity:1;"/>
<path d="M144.764 40.1512C144.332 40.1603 143.937 40.0454 143.616 39.7412C143.107 39.2591 143.013 38.6524 143.203 38.009C143.389 37.3782 143.868 37.0619 144.49 36.9698C144.809 36.9227 145.129 36.9459 145.436 37.0613C146.149 37.3288 146.533 38.0104 146.418 38.8005C146.305 39.5769 145.738 40.1043 144.965 40.1505C144.898 40.1546 144.831 40.1509 144.764 40.1509L144.764 40.1512ZM143.642 38.5675C143.642 38.8319 143.685 39.106 143.769 39.3604C143.928 39.8372 144.301 40.0263 144.773 40.0429C145.222 40.0588 145.6 39.8292 145.762 39.405C145.974 38.8483 145.976 38.2766 145.764 37.7192C145.596 37.2753 145.218 37.0494 144.74 37.0647C144.254 37.0801 143.904 37.3183 143.759 37.7781C143.681 38.027 143.642 38.3045 143.642 38.5673V38.5675Z" fill="#003049" style="fill:#003049;fill:color(display-p3 0.0000 0.1882 0.2863);fill-opacity:1;"/>
<path d="M79.9345 39.7376C79.8985 39.968 79.7734 40.0818 79.6099 40.1359C79.1927 40.2738 78.8944 40.0577 78.6261 39.751C78.5551 39.8136 78.4909 39.8741 78.4228 39.9296C78.1712 40.1334 77.8915 40.2362 77.5695 40.1482C77.2672 40.0656 77.0483 39.8722 76.9678 39.5644C76.8869 39.2546 76.9374 38.9588 77.1921 38.7345C77.338 38.606 77.4915 38.4861 77.6504 38.355C77.5916 38.2311 77.523 38.1073 77.473 37.9763C77.3807 37.7349 77.3876 37.5019 77.5635 37.2942C77.8168 36.9955 78.3234 36.996 78.5765 37.2958C78.6956 37.4369 78.7224 37.6207 78.6219 37.7806C78.5591 37.8805 78.4717 37.9685 78.3814 38.045C78.2854 38.1266 78.173 38.1885 78.051 38.2704C78.2912 38.6103 78.5282 38.9456 78.7821 39.3051C78.934 39.1042 79.0211 38.9031 79.0511 38.6767C79.0692 38.5393 79.0062 38.4426 78.8844 38.386C78.8267 38.3591 78.7671 38.3371 78.6922 38.3061C78.8343 38.2215 79.3963 38.206 79.6885 38.2725C79.6422 38.3148 79.6143 38.3564 79.5759 38.3732C79.3797 38.4592 79.2524 38.6105 79.1657 38.803C79.1192 38.9063 79.0756 39.0109 79.0272 39.1133C78.9789 39.2152 78.9262 39.3151 78.8607 39.445C78.9637 39.5665 79.0631 39.7087 79.1869 39.8236C79.3911 40.0131 79.5944 40.0015 79.802 39.8167C79.831 39.791 79.8693 39.776 79.9345 39.7378V39.7376ZM78.5399 39.6181C78.286 39.228 78.0298 38.8351 77.7429 38.4549C77.4495 38.6676 77.2185 38.8976 77.2726 39.2676C77.3195 39.5874 77.5137 39.8188 77.8229 39.918C78.0852 40.0021 78.3408 39.8873 78.5399 39.6181ZM77.9672 38.1455C78.1609 38.0513 78.2852 37.943 78.3553 37.8116C78.4507 37.6325 78.4286 37.4141 78.2988 37.2881C78.192 37.1843 78.064 37.1643 77.9277 37.211C77.7956 37.256 77.704 37.3891 77.7063 37.5449C77.7096 37.7824 77.8276 37.9701 77.9672 38.1457V38.1455Z" fill="#003049" style="fill:#003049;fill:color(display-p3 0.0000 0.1882 0.2863);fill-opacity:1;"/>
<path d="M157.193 37.0321C157.259 37.0212 157.305 37.0078 157.351 37.0071C157.545 37.0046 157.739 37.013 157.932 37.0032C158.057 36.9969 158.135 37.0417 158.21 37.144C158.704 37.8181 159.205 38.4872 159.704 39.1576C159.751 39.2211 159.803 39.2807 159.879 39.3745C159.885 39.2659 159.891 39.2011 159.891 39.1363C159.892 38.6285 159.892 38.1207 159.892 37.6127C159.891 37.243 159.858 37.2025 159.508 37.1236C159.468 37.1145 159.43 37.0972 159.38 37.0801C159.498 36.9948 160.156 36.9723 160.493 37.0364C160.457 37.0735 160.435 37.1106 160.403 37.1245C160.349 37.1479 160.287 37.152 160.232 37.1727C160.101 37.2214 160.023 37.3138 160.019 37.461C160.017 37.5367 160.015 37.6125 160.015 37.6882C160.014 38.431 160.015 39.1738 160.015 39.9166C160.015 39.9914 160.015 40.0663 160.015 40.178C159.948 40.1482 159.9 40.1386 159.869 40.1102C159.825 40.0701 159.794 40.0162 159.758 39.968C159.166 39.1695 158.575 38.3707 157.983 37.5722C157.93 37.5008 157.876 37.4302 157.8 37.3304C157.786 37.395 157.772 37.4271 157.772 37.4591C157.771 38.1412 157.769 38.8235 157.775 39.5055C157.778 39.8613 157.833 39.918 158.175 39.9844C158.21 39.9912 158.246 40.003 158.279 40.0171C158.287 40.0206 158.288 40.0431 158.292 40.0567C158.157 40.1138 157.459 40.1284 157.155 40.0752C157.191 40.0376 157.211 39.9992 157.242 39.9869C157.296 39.965 157.359 39.9646 157.415 39.9457C157.563 39.8959 157.651 39.8022 157.65 39.6297C157.647 38.9174 157.648 38.2049 157.646 37.4926C157.646 37.433 157.63 37.3729 157.619 37.3138C157.598 37.2039 157.532 37.1481 157.422 37.1279C157.352 37.1149 157.259 37.1461 157.193 37.0323V37.0321Z" fill="#003049" style="fill:#003049;fill:color(display-p3 0.0000 0.1882 0.2863);fill-opacity:1;"/>
<path d="M110.751 37.0442C110.817 37.0278 110.861 37.0084 110.905 37.0075C111.084 37.0039 111.263 37.0164 111.441 37.0027C111.6 36.9905 111.699 37.0467 111.794 37.1768C112.282 37.8465 112.78 38.509 113.275 39.1736C113.318 39.2322 113.365 39.2889 113.437 39.3806C113.446 39.2916 113.456 39.2436 113.456 39.1956C113.456 38.6649 113.456 38.1339 113.456 37.6031C113.456 37.5576 113.455 37.5119 113.451 37.4668C113.434 37.2767 113.368 37.1964 113.188 37.1483C113.106 37.1265 113.022 37.1122 112.906 37.0874C113.06 36.9939 113.734 36.9752 114.048 37.0387C114.011 37.0751 113.989 37.1113 113.958 37.1247C113.904 37.1481 113.842 37.1527 113.787 37.1736C113.666 37.2196 113.586 37.3015 113.582 37.4418C113.578 37.5478 113.569 37.6539 113.569 37.7596C113.567 38.4801 113.568 39.2004 113.567 39.9209C113.567 40.0005 113.56 40.0801 113.556 40.16C113.539 40.167 113.523 40.1741 113.506 40.1811C113.449 40.1193 113.386 40.0619 113.336 39.9948C112.725 39.1729 112.116 38.3491 111.505 37.5265C111.462 37.4682 111.415 37.4127 111.342 37.3219C111.334 37.4218 111.325 37.4785 111.325 37.5351C111.324 38.1721 111.324 38.8091 111.324 39.4461C111.324 39.4688 111.324 39.4916 111.325 39.5143C111.335 39.8456 111.399 39.9204 111.719 39.9825C111.765 39.9914 111.809 40.0128 111.869 40.0335C111.734 40.1147 111.071 40.1354 110.721 40.0763C110.755 40.0383 110.774 39.9996 110.804 39.9864C110.851 39.9659 110.906 39.9671 110.956 39.9521C111.115 39.9036 111.211 39.8033 111.211 39.624C111.21 39.48 111.214 39.336 111.215 39.192C111.215 38.7142 111.215 38.2365 111.215 37.7587C111.215 37.698 111.215 37.6372 111.211 37.5767C111.19 37.1993 111.181 37.1895 110.818 37.1058C110.802 37.1019 110.789 37.0799 110.751 37.0442H110.751Z" fill="#003049" style="fill:#003049;fill:color(display-p3 0.0000 0.1882 0.2863);fill-opacity:1;"/>
<path d="M129.987 37.0479C130.198 36.9876 130.925 36.9917 131.115 37.0595C131.057 37.0914 131.02 37.1216 130.977 37.1341C130.67 37.224 130.621 37.2827 130.62 37.6119C130.617 38.3774 130.619 39.1427 130.619 39.9083C130.619 39.9897 130.619 40.0711 130.619 40.1449C130.495 40.1865 130.468 40.0991 130.426 40.0432C130.155 39.6814 129.886 39.3181 129.618 38.9553C129.272 38.4896 128.928 38.0236 128.582 37.558C128.533 37.4922 128.482 37.4281 128.404 37.3275C128.394 37.4176 128.382 37.4701 128.382 37.5227C128.381 38.182 128.38 38.8413 128.382 39.5006C128.382 39.8471 128.443 39.9174 128.78 39.984C128.825 39.9929 128.867 40.0156 128.929 40.0391C128.776 40.1144 128.068 40.1305 127.773 40.0721C127.809 40.0352 127.83 39.997 127.861 39.984C127.916 39.9617 127.978 39.9604 128.034 39.9412C128.174 39.893 128.258 39.8043 128.256 39.6407C128.253 39.3529 128.26 39.0649 128.26 38.7769C128.26 38.3676 128.258 37.9586 128.254 37.5493C128.254 37.4813 128.251 37.4124 128.239 37.3457C128.218 37.2224 128.156 37.1384 128.021 37.1275C127.951 37.1218 127.882 37.1048 127.811 37.0488C127.839 37.0349 127.867 37.0092 127.896 37.0088C128.134 37.0051 128.372 37.0106 128.611 37.0038C128.71 37.0008 128.755 37.06 128.806 37.1278C129.137 37.5755 129.47 38.0221 129.803 38.4691C129.978 38.7048 130.152 38.9407 130.328 39.1759C130.372 39.2346 130.42 39.2901 130.489 39.3755C130.5 39.2924 130.512 39.2444 130.512 39.1964C130.513 38.6886 130.513 38.1809 130.513 37.6731C130.513 37.6503 130.513 37.6276 130.512 37.6048C130.497 37.2447 130.461 37.201 130.111 37.1225C130.082 37.1162 130.052 37.11 130.025 37.0989C130.014 37.0943 130.008 37.0766 129.987 37.0477L129.987 37.0479Z" fill="#003049" style="fill:#003049;fill:color(display-p3 0.0000 0.1882 0.2863);fill-opacity:1;"/>
<path d="M152.442 38.6668C152.442 39.0303 152.432 39.3843 152.447 39.7374C152.454 39.9133 152.527 39.9578 152.709 39.9867C152.776 39.9972 152.861 39.9581 152.914 40.0616C152.766 40.1455 152.61 40.0928 152.463 40.1016C152.3 40.1114 152.136 40.1107 151.973 40.1016C151.825 40.0937 151.67 40.1426 151.524 40.0218C151.575 40.0104 151.625 39.9956 151.676 39.9883C151.912 39.9549 151.969 39.8994 151.975 39.653C151.983 39.3124 151.982 38.9716 151.982 38.6308C151.982 38.2523 151.983 37.8737 151.977 37.4952C151.972 37.1785 151.947 37.1546 151.636 37.1139C151.607 37.11 151.578 37.1061 151.551 37.0966C151.541 37.0934 151.538 37.0722 151.525 37.0438C151.547 37.0322 151.569 37.0108 151.592 37.0101C152.096 36.9922 152.601 36.9344 153.106 37.0065C153.194 37.019 153.283 37.0338 153.367 37.0609C153.74 37.181 153.941 37.4786 153.916 37.868C153.891 38.2787 153.664 38.5489 153.262 38.6074C152.999 38.6456 152.73 38.6472 152.442 38.6668H152.442ZM152.436 38.531C152.631 38.5196 152.811 38.5264 152.983 38.4948C153.258 38.4443 153.424 38.2047 153.442 37.8758C153.461 37.5109 153.326 37.2504 153.056 37.1546C152.858 37.0838 152.653 37.0788 152.436 37.1175V38.531Z" fill="#003049" style="fill:#003049;fill:color(display-p3 0.0000 0.1882 0.2863);fill-opacity:1;"/>
<path d="M137.617 39.1515C137.596 39.4659 137.576 39.7722 137.554 40.1036H136.026C135.862 40.1036 135.699 40.1054 135.535 40.1032C135.371 40.1009 135.205 40.1136 135.043 40.0936C135.042 40.0727 135.04 40.0515 135.039 40.0306C135.081 40.0167 135.123 39.9967 135.167 39.9901C135.429 39.9494 135.477 39.8991 135.485 39.6234C135.491 39.4341 135.489 39.2446 135.489 39.0553C135.49 38.5932 135.49 38.131 135.489 37.6689C135.489 37.5704 135.49 37.4714 135.48 37.3738C135.464 37.2091 135.423 37.1677 135.268 37.1284C135.213 37.1147 135.159 37.099 135.061 37.0722C135.131 37.0362 135.159 37.0089 135.188 37.0089C135.857 37.0071 136.527 37.008 137.196 37.0096C137.217 37.0096 137.238 37.0228 137.276 37.0356C137.296 37.2753 137.316 37.5192 137.337 37.7633C137.322 37.7688 137.307 37.7745 137.292 37.7799C137.267 37.7522 137.234 37.7281 137.218 37.6955C137.193 37.6414 137.18 37.5813 137.16 37.5242C137.078 37.2876 136.928 37.1377 136.67 37.1338C136.434 37.1302 136.198 37.1332 135.947 37.1332V38.3919C136.137 38.429 136.326 38.4229 136.515 38.3799C136.622 38.3555 136.681 38.2848 136.693 38.1742C136.7 38.1025 136.707 38.0306 136.718 37.9183C136.771 37.9681 136.812 37.9892 136.813 38.0104C136.814 38.328 136.811 38.6456 136.807 38.9632C136.807 38.9732 136.788 38.983 136.765 39.0062C136.745 38.9832 136.714 38.9636 136.706 38.937C136.694 38.8942 136.7 38.8469 136.694 38.8019C136.671 38.6212 136.619 38.5523 136.447 38.5352C136.287 38.5193 136.124 38.5318 135.933 38.5318C135.933 38.6353 135.931 38.7313 135.933 38.8271C135.941 39.1297 135.941 39.433 135.964 39.7342C135.979 39.9196 136.026 39.9632 136.202 39.9735C136.416 39.986 136.633 39.9792 136.847 39.9664C137.003 39.9571 137.138 39.875 137.223 39.7462C137.317 39.6038 137.383 39.4423 137.465 39.2905C137.493 39.2378 137.473 39.1431 137.617 39.1511L137.617 39.1515Z" fill="#003049" style="fill:#003049;fill:color(display-p3 0.0000 0.1882 0.2863);fill-opacity:1;"/>
<path d="M84.5016 38.9391C84.5501 39.1202 84.5559 39.7747 84.513 40.0133C84.3592 39.9853 84.4075 39.7917 84.2833 39.7335C84.2538 39.7569 84.2167 39.7808 84.1861 39.8115C83.6791 40.3214 82.6096 40.2811 82.1026 39.6386C81.797 39.2512 81.7326 38.8037 81.7932 38.3305C81.8142 38.1674 81.8633 38.0047 81.9212 37.8503C82.2963 36.8511 83.4968 36.7373 84.1182 37.2385C84.17 37.2804 84.2216 37.3225 84.2962 37.3832C84.3456 37.2497 84.3899 37.1298 84.4377 36.9999C84.525 37.137 84.5614 37.9513 84.4897 38.2047C84.4558 38.1437 84.4276 38.1071 84.4138 38.0659C84.3733 37.9444 84.3496 37.8159 84.2996 37.699C84.1146 37.2674 83.7658 37.0779 83.323 37.0729C82.8958 37.0681 82.6031 37.3031 82.4485 37.6953C82.2387 38.2272 82.2242 38.7794 82.411 39.3176C82.6317 39.9535 83.2823 40.1981 83.8702 39.8946C84.1836 39.7328 84.3092 39.4366 84.4046 39.1193C84.4196 39.0694 84.4312 39.0187 84.4484 38.9696C84.452 38.9593 84.4725 38.955 84.5018 38.9388L84.5016 38.9391Z" fill="#003049" style="fill:#003049;fill:color(display-p3 0.0000 0.1882 0.2863);fill-opacity:1;"/>
<path d="M142.124 37.3861C142.175 37.2419 142.216 37.1252 142.264 36.9926C142.353 37.16 142.383 37.9833 142.311 38.1931C142.282 38.1489 142.252 38.1189 142.241 38.083C142.208 37.9826 142.19 37.8771 142.154 37.7784C141.966 37.261 141.472 36.9851 140.942 37.0945C140.736 37.137 140.56 37.2374 140.443 37.4109C140.344 37.5586 140.253 37.7222 140.204 37.8923C140.085 38.3059 140.082 38.7309 140.182 39.1497C140.216 39.294 140.278 39.4391 140.359 39.5624C140.801 40.2372 141.766 40.1639 142.11 39.4325C142.164 39.3176 142.194 39.1909 142.237 39.0703C142.253 39.0255 142.275 38.9832 142.301 38.9231C142.376 39.079 142.389 39.7462 142.331 40.0149C142.183 39.9853 142.235 39.8017 142.113 39.7399C142.09 39.7551 142.052 39.7735 142.022 39.8006C141.558 40.2199 141.024 40.2536 140.477 40.0413C139.941 39.8336 139.668 39.3947 139.606 38.8228C139.566 38.4543 139.631 38.1005 139.781 37.7606C140.173 36.8725 141.319 36.7355 141.946 37.2419C141.998 37.2835 142.049 37.3254 142.124 37.3861H142.124Z" fill="#003049" style="fill:#003049;fill:color(display-p3 0.0000 0.1882 0.2863);fill-opacity:1;"/>
<path d="M134.332 40.0148C134.187 39.9812 134.237 39.7992 134.116 39.7382C134.09 39.7562 134.053 39.7771 134.022 39.8049C133.555 40.2207 133.021 40.2546 132.474 40.0392C131.929 39.8244 131.662 39.3744 131.606 38.7927C131.572 38.4308 131.639 38.085 131.788 37.7535C132.184 36.8706 133.321 36.7418 133.94 37.2346C133.997 37.2803 134.056 37.3251 134.13 37.3831C134.176 37.2478 134.216 37.1304 134.264 36.9886C134.384 37.1208 134.327 37.2616 134.343 37.3845C134.36 37.5114 134.356 37.6416 134.358 37.7703C134.36 37.9027 134.358 38.0354 134.316 38.1801C134.292 38.1509 134.257 38.1255 134.246 38.092C134.206 37.9703 134.184 37.8415 134.138 37.723C133.977 37.3181 133.592 37.0626 133.153 37.0703C132.715 37.0781 132.422 37.3119 132.268 37.7146C132.069 38.2333 132.055 38.77 132.229 39.2953C132.44 39.93 133.061 40.1882 133.657 39.9157C133.987 39.7644 134.125 39.467 134.226 39.1412C134.246 39.0744 134.264 39.0068 134.293 38.9053C134.377 39.0796 134.39 39.7496 134.331 40.0148H134.332Z" fill="#003049" style="fill:#003049;fill:color(display-p3 0.0000 0.1882 0.2863);fill-opacity:1;"/>
<path d="M117.105 37.0362C117.37 36.9871 118.339 36.9966 118.503 37.0469C118.477 37.1427 118.396 37.1077 118.34 37.1159C118.097 37.1509 118.055 37.1821 118.053 37.4312C118.048 38.0443 118.045 38.6581 118.061 39.271C118.071 39.6711 118.299 39.9066 118.689 39.9762C118.978 40.0278 119.251 39.9853 119.507 39.837C119.745 39.6989 119.884 39.488 119.889 39.2102C119.9 38.6499 119.901 38.0893 119.895 37.529C119.893 37.2678 119.828 37.2034 119.583 37.1343C119.537 37.1213 119.494 37.0967 119.437 37.0717C119.59 36.9875 120.275 36.9805 120.484 37.0613C120.426 37.0922 120.388 37.1202 120.345 37.1343C120.1 37.2162 120.031 37.2979 120.027 37.5579C120.021 38.0274 120.023 38.4972 120.021 38.9668C120.021 38.997 120.021 39.0273 120.02 39.0578C120.005 39.7157 119.654 40.0956 119.007 40.1482C118.715 40.1719 118.427 40.1598 118.153 40.0372C117.806 39.8818 117.613 39.6143 117.606 39.2264C117.597 38.7341 117.602 38.2417 117.598 37.7494C117.597 37.6209 117.593 37.4917 117.578 37.3643C117.557 37.1848 117.518 37.1557 117.339 37.1213C117.268 37.1077 117.177 37.1457 117.105 37.036L117.105 37.0362Z" fill="#003049" style="fill:#003049;fill:color(display-p3 0.0000 0.1882 0.2863);fill-opacity:1;"/>
<path d="M91.21 37.0933C91.3711 36.9962 92.3445 36.9866 92.6066 37.0392C92.5588 37.0721 92.5322 37.1017 92.5003 37.1104C92.4507 37.124 92.3966 37.1195 92.3457 37.1295C92.2004 37.1577 92.1595 37.2025 92.1399 37.3536C92.133 37.4059 92.1307 37.4594 92.1309 37.5124C92.1323 38.0729 92.1383 38.6333 92.1359 39.1938C92.1336 39.713 92.4583 39.9523 92.8745 39.9921C93.0937 40.013 93.3042 39.978 93.5046 39.8834C93.8017 39.7432 93.9715 39.5109 93.976 39.174C93.9832 38.6287 93.9863 38.0834 93.98 37.5381C93.9769 37.2621 93.9217 37.2091 93.6538 37.1318C93.6109 37.1195 93.5725 37.0915 93.5131 37.061C93.6923 36.9941 94.3132 36.9857 94.5752 37.0451C94.5172 37.0842 94.4848 37.1174 94.4457 37.1304C94.174 37.2212 94.1132 37.2937 94.1096 37.5865C94.1034 38.0941 94.1067 38.6016 94.1011 39.1089C94.0991 39.2991 94.0739 39.4861 93.972 39.654C93.8402 39.8713 93.6462 40.0055 93.4123 40.0797C93.0622 40.1907 92.7069 40.1918 92.3575 40.0826C91.9216 39.9464 91.7037 39.6643 91.6892 39.1988C91.6756 38.76 91.6879 38.3204 91.6857 37.8811C91.6848 37.7223 91.6825 37.5626 91.6676 37.4048C91.6463 37.182 91.6083 37.1484 91.3963 37.119C91.334 37.1104 91.2719 37.1017 91.2095 37.0933H91.21Z" fill="#003049" style="fill:#003049;fill:color(display-p3 0.0000 0.1882 0.2863);fill-opacity:1;"/>
<path d="M103.017 40.0557C102.824 40.1196 101.69 40.1212 101.484 40.0561C101.533 40.0279 101.563 39.9995 101.597 39.9936C101.663 39.982 101.731 39.9886 101.797 39.9779C101.948 39.9538 102 39.8982 102.021 39.742C102.032 39.6596 102.038 39.5757 102.038 39.4926C102.039 38.7646 102.039 38.0368 102.038 37.3088C102.038 37.2567 102.03 37.2047 102.026 37.156C101.856 37.1032 101.346 37.0889 101.207 37.1523C101.131 37.1871 101.058 37.2552 101.014 37.3275C100.96 37.4153 100.94 37.5236 100.902 37.6221C100.885 37.6658 100.863 37.7072 100.836 37.7659C100.758 37.613 100.751 37.4158 100.797 37.0436C100.952 36.9985 103.387 36.9824 103.73 37.0272V37.7632C103.686 37.7252 103.651 37.7092 103.641 37.6831C103.616 37.6203 103.605 37.552 103.586 37.4868C103.519 37.2588 103.38 37.1221 103.136 37.1207C102.929 37.1193 102.723 37.1205 102.505 37.1205C102.497 37.1985 102.487 37.2572 102.487 37.3157C102.486 38.0512 102.486 38.7867 102.487 39.5222C102.487 39.5902 102.492 39.6587 102.5 39.7263C102.522 39.9069 102.575 39.9604 102.753 39.9831C102.812 39.9906 102.873 39.9854 102.931 39.9961C102.958 40.0011 102.981 40.0297 103.018 40.0559L103.017 40.0557Z" fill="#003049" style="fill:#003049;fill:color(display-p3 0.0000 0.1882 0.2863);fill-opacity:1;"/>
<path d="M104.075 37.0736C104.288 36.9862 105.149 36.9907 105.314 37.0535C105.276 37.1434 105.188 37.1161 105.125 37.1375C104.977 37.1875 104.941 37.249 105.016 37.3893C105.122 37.5891 105.241 37.7813 105.357 37.9758C105.491 38.2029 105.627 38.4288 105.763 38.6549C105.77 38.6674 105.783 38.6767 105.804 38.6993C105.832 38.6688 105.867 38.6428 105.887 38.6085C106.071 38.297 106.253 37.9845 106.434 37.671C106.468 37.6125 106.5 37.5513 106.522 37.4878C106.584 37.3115 106.527 37.1984 106.351 37.1366C106.3 37.1186 106.25 37.0986 106.178 37.0715C106.335 36.9944 106.908 36.9803 107.202 37.0372C107.169 37.0749 107.15 37.1222 107.12 37.1293C106.931 37.1755 106.807 37.3038 106.712 37.4608C106.437 37.911 106.168 38.3646 105.9 38.8194C105.872 38.8681 105.859 38.9331 105.858 38.9909C105.855 39.2105 105.855 39.4304 105.864 39.6498C105.874 39.897 105.919 39.9414 106.163 39.9876C106.202 39.9951 106.239 40.0144 106.308 40.0397C106.145 40.1491 105.996 40.0907 105.859 40.1013C105.718 40.1123 105.576 40.1038 105.435 40.1038H104.999C104.994 40.0841 104.99 40.0643 104.986 40.0442C105.023 40.026 105.058 39.9981 105.097 39.9908C105.365 39.9416 105.403 39.9009 105.412 39.6215C105.418 39.4398 105.412 39.2578 105.418 39.0762C105.422 38.9654 105.394 38.8717 105.337 38.7773C105.113 38.411 104.902 38.0361 104.671 37.6737C104.519 37.4341 104.435 37.1193 104.076 37.0733L104.075 37.0736Z" fill="#003049" style="fill:#003049;fill:color(display-p3 0.0000 0.1882 0.2863);fill-opacity:1;"/>
<path d="M162.878 37.09C163.023 36.9965 163.502 36.9823 163.882 37.0274C163.836 37.0756 163.812 37.1239 163.778 37.1334C163.599 37.1825 163.48 37.3059 163.388 37.456C163.113 37.9065 162.844 38.3605 162.574 38.8144C162.552 38.8519 162.531 38.8986 162.531 38.9409C162.533 39.2059 162.53 39.4717 162.551 39.7356C162.564 39.9155 162.61 39.9444 162.789 39.9801C162.843 39.991 162.897 40.007 162.994 40.0315C162.825 40.1516 162.677 40.0907 162.541 40.1014C162.393 40.113 162.243 40.1107 162.095 40.1021C161.954 40.0939 161.806 40.1407 161.667 40.0192C161.725 40.0065 161.784 39.9929 161.842 39.9808C162.011 39.946 162.066 39.8973 162.075 39.7285C162.087 39.4789 162.087 39.2282 162.083 38.9782C162.083 38.9218 162.056 38.8604 162.026 38.8103C161.744 38.3373 161.459 37.8662 161.175 37.3946C161.092 37.2563 161 37.1291 160.82 37.1141C160.799 37.1123 160.78 37.0811 160.755 37.059C160.923 36.9874 161.806 36.9858 161.983 37.0545C161.946 37.1446 161.857 37.117 161.795 37.1391C161.658 37.1873 161.629 37.2415 161.684 37.3773C161.706 37.433 161.738 37.4851 161.769 37.537C161.973 37.881 162.177 38.2245 162.382 38.5676C162.408 38.6115 162.439 38.6527 162.482 38.7159C162.521 38.6606 162.552 38.6228 162.576 38.5812C162.749 38.2889 162.921 37.9961 163.091 37.7022C163.132 37.6305 163.17 37.5559 163.198 37.4781C163.258 37.3147 163.202 37.2005 163.04 37.1407C162.987 37.1214 162.932 37.1068 162.879 37.09H162.878Z" fill="#003049" style="fill:#003049;fill:color(display-p3 0.0000 0.1882 0.2863);fill-opacity:1;"/>
<path d="M155.338 36.9221C155.39 37.0263 155.428 37.0945 155.458 37.1666C155.791 37.9688 156.123 38.771 156.454 39.5743C156.533 39.7667 156.611 39.9547 156.847 39.9952C156.864 39.9979 156.874 40.0388 156.889 40.0657C156.657 40.1251 155.852 40.1173 155.698 40.0557C155.735 39.9601 155.823 39.9945 155.887 39.9806C156.054 39.9444 156.094 39.8923 156.037 39.7294C155.967 39.5299 155.883 39.3356 155.804 39.1395C155.782 39.0842 155.753 39.0315 155.725 38.9723H154.576C154.507 39.1607 154.432 39.342 154.372 39.5285C154.286 39.7995 154.329 39.8764 154.597 39.9911C154.621 40.0011 154.638 40.0263 154.662 40.0484C154.518 40.1148 154.156 40.1291 153.768 40.0866C153.778 40.052 153.782 39.9963 153.798 39.9924C154.072 39.928 154.16 39.6976 154.252 39.4726C154.525 38.809 154.795 38.1447 155.067 37.4808C155.122 37.348 155.175 37.2149 155.234 37.0838C155.253 37.0397 155.286 37.0017 155.338 36.9216V36.9221ZM155.159 37.55C154.975 38.005 154.811 38.4106 154.637 38.8392H155.682C155.509 38.4131 155.346 38.01 155.159 37.55Z" fill="#003049" style="fill:#003049;fill:color(display-p3 0.0000 0.1882 0.2863);fill-opacity:1;"/>
<path d="M97.7171 40.0634C97.508 40.1223 96.6933 40.118 96.526 40.0582C96.5593 39.9585 96.6487 39.9945 96.7114 39.9803C96.8777 39.943 96.9203 39.89 96.8618 39.7292C96.7691 39.4744 96.6616 39.225 96.5593 38.9709H95.4026C95.3298 39.1723 95.2417 39.3791 95.1807 39.5938C95.1197 39.8079 95.1774 39.8978 95.3785 39.9776C95.416 39.9926 95.4506 40.0154 95.4967 40.04C95.3584 40.1146 94.897 40.131 94.5811 40.0779C94.5983 40.044 94.6083 39.9933 94.6282 39.989C94.8744 39.9344 94.9667 39.7358 95.0514 39.5301C95.2583 39.0278 95.464 38.5248 95.6705 38.0223C95.7909 37.729 95.9102 37.4355 96.0322 37.143C96.059 37.0786 96.0952 37.0185 96.1272 36.9564C96.1453 36.9566 96.1636 36.9569 96.1817 36.9573C96.2188 37.0351 96.2597 37.1113 96.2927 37.191C96.6198 37.9784 96.9483 38.7653 97.2705 39.5549C97.3556 39.764 97.4465 39.956 97.6903 40.0088C97.6988 40.0106 97.7028 40.0336 97.7171 40.0638V40.0634ZM96.0009 37.5964C95.8423 37.8359 95.5139 38.6759 95.5107 38.8499C95.8314 38.8513 96.1515 38.8599 96.5101 38.8431C96.3321 38.4072 96.1699 38.0097 96.0009 37.5964Z" fill="#003049" style="fill:#003049;fill:color(display-p3 0.0000 0.1882 0.2863);fill-opacity:1;"/>
<path d="M86.6838 36.9742C86.7173 37.0499 86.7488 37.1177 86.7774 37.1869C87.1125 37.9956 87.4488 38.8037 87.7815 39.6136C87.8559 39.7949 87.941 39.9567 88.1555 39.9933C88.1741 39.9965 88.187 40.0336 88.2056 40.059C88.0264 40.1173 87.2162 40.1212 87.0082 40.0666C87.025 39.968 87.1072 39.9951 87.1628 39.9849C87.3735 39.9462 87.4108 39.8957 87.3373 39.6978C87.2482 39.4575 87.1465 39.2223 87.0464 38.9759H85.8879C85.8171 39.165 85.7333 39.3583 85.6723 39.5588C85.5999 39.7972 85.6565 39.8893 85.8951 39.9865C85.9239 39.9983 85.9465 40.0256 85.98 40.052C85.8238 40.1132 85.4196 40.1262 85.0718 40.0843C85.0941 40.0443 85.1068 39.989 85.1314 39.9828C85.3566 39.9266 85.4482 39.7462 85.5273 39.5545C85.7521 39.0105 85.9744 38.4654 86.1978 37.9208C86.3095 37.6485 86.4206 37.3759 86.5348 37.1047C86.5591 37.047 86.564 36.963 86.6836 36.9742H86.6838ZM86.991 38.8392C86.8223 38.4117 86.6626 38.0081 86.4644 37.5609C86.2807 38.0166 86.1199 38.4158 85.9494 38.8392H86.9912H86.991Z" fill="#003049" style="fill:#003049;fill:color(display-p3 0.0000 0.1882 0.2863);fill-opacity:1;"/>
<path d="M125.965 36.9559C125.999 37.026 126.037 37.0947 126.067 37.1664C126.403 37.9744 126.74 38.7823 127.073 39.5922C127.15 39.7801 127.23 39.9546 127.456 39.9919C127.466 39.9937 127.478 40.0122 127.482 40.0254C127.487 40.0381 127.483 40.0538 127.483 40.0861H126.316C126.317 39.9667 126.404 39.9949 126.459 39.9849C126.686 39.9446 126.715 39.9011 126.632 39.6832C126.544 39.4505 126.446 39.2214 126.347 38.9777H125.183C125.109 39.1879 125.019 39.4102 124.953 39.64C124.908 39.7972 124.974 39.8971 125.121 39.966C125.165 39.9867 125.207 40.0126 125.25 40.0374C125.253 40.0395 125.252 40.0513 125.252 40.0586C125.115 40.1134 124.679 40.1261 124.368 40.0816C124.383 40.0474 124.391 39.9956 124.41 39.9915C124.664 39.9337 124.757 39.7255 124.845 39.5137C125.043 39.0323 125.239 38.5496 125.436 38.0677C125.562 37.7604 125.689 37.4535 125.816 37.147C125.842 37.0861 125.872 37.0271 125.901 36.9673C125.922 36.9637 125.944 36.96 125.965 36.9564L125.965 36.9559ZM126.295 38.8403C126.115 38.4015 125.951 38.0006 125.768 37.5522C125.584 38.0077 125.42 38.4135 125.247 38.8403H126.295Z" fill="#003049" style="fill:#003049;fill:color(display-p3 0.0000 0.1882 0.2863);fill-opacity:1;"/>
<path d="M90.2133 37.2362C90.2555 37.1634 90.3011 37.0847 90.3467 37.0057C90.3641 37.0105 90.3815 37.0153 90.3989 37.0201C90.4101 37.2824 90.4083 37.5447 90.4001 37.8072C90.3831 37.8134 90.3661 37.8197 90.3489 37.8259C90.3223 37.7813 90.2964 37.7362 90.2689 37.6923C90.1784 37.5467 90.1071 37.382 89.9919 37.2608C89.816 37.0758 89.5841 37.0153 89.3336 37.0847C88.9889 37.1802 88.8673 37.6004 89.12 37.858C89.2329 37.9731 89.3803 38.0586 89.5229 38.1366C89.7584 38.2654 90.0068 38.3698 90.2425 38.4984C90.5122 38.6456 90.6545 38.8838 90.6704 39.1966C90.6979 39.7417 90.3574 40.122 89.8203 40.1546C89.5003 40.1741 89.2166 40.0938 88.9777 39.8695C88.9518 39.8452 88.9225 39.8249 88.9002 39.8069C88.7798 39.8529 88.8546 40.0611 88.6725 40.0542V39.0212C88.7375 39.0912 88.7769 39.1167 88.7918 39.1529C88.8582 39.3126 88.8997 39.4857 88.9833 39.6347C89.1739 39.9758 89.5325 40.115 89.9029 40.0117C90.1411 39.9453 90.2874 39.7806 90.3366 39.5403C90.3858 39.3001 90.2904 39.1051 90.0917 38.975C89.9487 38.8813 89.7921 38.8085 89.6402 38.7293C89.455 38.6331 89.2624 38.55 89.0832 38.4431C88.8671 38.3141 88.7346 38.1146 88.6982 37.8596C88.6079 37.2285 89.1527 36.7905 89.7823 36.9978C89.9324 37.0472 90.0649 37.152 90.2133 37.2355V37.2362Z" fill="#003049" style="fill:#003049;fill:color(display-p3 0.0000 0.1882 0.2863);fill-opacity:1;"/>
<path d="M114.814 39.8079C114.699 39.8647 114.768 40.0497 114.595 40.0599V39.0799C114.609 39.0737 114.623 39.0676 114.637 39.0612C114.662 39.0958 114.695 39.1272 114.711 39.1656C114.77 39.3121 114.809 39.4691 114.882 39.6077C115.068 39.9596 115.406 40.1063 115.787 40.0187C116.031 39.9628 116.218 39.7724 116.256 39.528C116.293 39.2851 116.196 39.0942 115.995 38.9682C115.838 38.869 115.667 38.7914 115.503 38.7045C115.318 38.6071 115.121 38.5284 114.951 38.4092C114.522 38.108 114.478 37.4826 114.849 37.1475C115.123 36.8993 115.621 36.8811 115.93 37.1093C115.99 37.1529 116.045 37.2018 116.113 37.2569C116.166 37.1666 116.213 37.087 116.264 36.9994C116.339 37.155 116.345 37.6145 116.268 37.8559C116.222 37.7581 116.188 37.6907 116.159 37.6211C116.043 37.3502 115.867 37.1438 115.571 37.0806C115.479 37.0608 115.378 37.0615 115.284 37.0758C115.098 37.1043 114.978 37.2223 114.925 37.4057C114.87 37.5904 114.91 37.7624 115.054 37.8803C115.197 37.9979 115.361 38.0921 115.524 38.1812C115.713 38.285 115.916 38.3648 116.106 38.4677C116.494 38.6776 116.661 39.048 116.571 39.4759C116.488 39.8688 116.16 40.1318 115.727 40.1539C115.356 40.1728 115.184 40.1077 114.813 39.8074L114.814 39.8079Z" fill="#003049" style="fill:#003049;fill:color(display-p3 0.0000 0.1882 0.2863);fill-opacity:1;"/>
<path d="M98.0442 40.0128C98.1117 40.0033 98.1791 39.9939 98.2464 39.9837C98.4278 39.9559 98.4758 39.9111 98.5009 39.7257C98.5149 39.6208 98.5216 39.5144 98.5221 39.4083C98.5241 38.8321 98.5234 38.2558 98.5232 37.6793C98.5232 37.6338 98.5201 37.5883 98.5178 37.5431C98.4984 37.132 98.4381 37.1247 98.1253 37.1108C98.0989 37.1097 98.0732 37.0913 98.0413 37.0785C98.1041 37.03 98.2578 37.0057 98.5022 37.0057C98.6736 37.0057 98.8447 37.0048 99.0161 37.0059C99.1754 37.0071 99.3347 37.0107 99.494 37.0132C99.4969 37.0296 99.4998 37.046 99.5025 37.0624C99.4696 37.0792 99.4381 37.1033 99.4033 37.1108C99.3602 37.1199 99.3141 37.1126 99.2697 37.1167C99.0364 37.1374 98.9788 37.1879 98.9739 37.4236C98.9647 37.8784 98.9658 38.3334 98.9649 38.7884C98.9642 39.0842 98.9629 39.3799 98.971 39.6754C98.9774 39.9148 99.027 39.9682 99.2639 39.9816C99.4567 39.9923 99.6506 39.9823 99.8441 39.9803C100.095 39.9778 100.263 39.8417 100.372 39.6238C100.423 39.523 100.456 39.4138 100.502 39.3103C100.521 39.2673 100.551 39.2293 100.583 39.1777C100.653 39.3314 100.658 39.8021 100.602 40.0772C100.369 40.1211 98.2209 40.1131 98.0551 40.0676C98.0513 40.0492 98.0478 40.0308 98.044 40.0126L98.0442 40.0128Z" fill="#003049" style="fill:#003049;fill:color(display-p3 0.0000 0.1882 0.2863);fill-opacity:1;"/>
<path d="M108.913 40.0124C108.981 40.0029 109.049 39.9938 109.117 39.9833C109.292 39.9565 109.349 39.9019 109.374 39.7244C109.385 39.6423 109.386 39.5584 109.386 39.4751C109.387 38.854 109.386 38.2329 109.386 37.6119C109.386 37.5514 109.386 37.4906 109.381 37.4303C109.362 37.194 109.317 37.148 109.084 37.1171C109.034 37.1105 108.983 37.1016 108.934 37.0898C108.927 37.0879 108.924 37.0652 108.907 37.0204C109.375 36.9924 109.832 37.011 110.289 37.006C110.293 37.0226 110.297 37.0393 110.301 37.0556C110.277 37.0743 110.255 37.1032 110.227 37.1098C110.177 37.1218 110.124 37.1173 110.073 37.1259C109.906 37.1541 109.86 37.2035 109.841 37.3775C109.834 37.4451 109.833 37.5136 109.833 37.5818C109.833 38.2257 109.833 38.8695 109.833 39.5133C109.833 39.5738 109.834 39.6346 109.839 39.6949C109.856 39.8978 109.915 39.956 110.111 39.9872C110.174 39.9972 110.263 39.9553 110.297 40.0584C110.13 40.1196 109.108 40.1226 108.921 40.065C108.919 40.0475 108.916 40.0302 108.913 40.0127L108.913 40.0124Z" fill="#003049" style="fill:#003049;fill:color(display-p3 0.0000 0.1882 0.2863);fill-opacity:1;"/>
</g>
<defs>
<clipPath id="clip0_6712_14267">
<rect width="169" height="41" fill="white" style="fill:white;fill-opacity:1;"/>
</clipPath>
</defs>
</svg>
